<?xml version="1.0" encoding="UTF-8" standalone="no"?>
<!-- Created with Inkscape (http://www.inkscape.org/) -->

<svg
   width="1910"
   height="1200"
   viewBox="0 0 505.35416 317.5"
   version="1.1"
   id="svg76749"
   xmlns:xlink="http://www.w3.org/1999/xlink"
   xmlns="http://www.w3.org/2000/svg"
   xmlns:svg="http://www.w3.org/2000/svg">
  <defs
     id="defs76746">
    <clipPath
       id="SVGID_00000079462446801769719830000007708242455187373202_">
				<use
   xlink:href="#SVGID_00000145767424580808224470000010898195179561900426_"
   style="overflow:visible"
   id="use1053" />

			</clipPath>
    <clipPath
       id="SVGID_00000031904485302306816270000004287902375062211724_">
							<use
   xlink:href="#SVGID_00000173861544285506837350000013191475524228775837_"
   style="overflow:visible"
   id="use1081" />

						</clipPath>
    <clipPath
       id="SVGID_00000168083298178149195830000005028762747322081470_">
						<use
   xlink:href="#SVGID_00000142865769272311591840000005319213924735991982_"
   style="overflow:visible"
   id="use1135" />

					</clipPath>
    <clipPath
       id="SVGID_00000111898958370664344080000008265709027797600902_">
				<use
   xlink:href="#SVGID_00000044174164041045195490000004048399270319207593_"
   style="overflow:visible"
   id="use1181" />

			</clipPath>
    <rect
       id="SVGID_00000145767424580808224470000010898195179561900426_"
       x="-281.20001"
       y="10921.3"
       width="1920"
       height="1080" />
    <circle
       id="SVGID_00000168110376474149191850000008998410137085193358_"
       cx="400.29999"
       cy="12244.1"
       r="38.200001" />
    <circle
       id="SVGID_00000173861544285506837350000013191475524228775837_"
       cx="400.29999"
       cy="12244.1"
       r="38.200001" />
    <circle
       id="SVGID_00000039123739294543038440000008067018955960074380_"
       cx="400.29999"
       cy="12244.1"
       r="38.200001" />
    <circle
       id="SVGID_00000117647793557999204170000017298964510315591860_"
       cx="353.79999"
       cy="12244.1"
       r="38.200001" />
    <circle
       id="SVGID_00000142865769272311591840000005319213924735991982_"
       cx="353.79999"
       cy="12244.1"
       r="38.200001" />
    <circle
       id="SVGID_00000034080627549110610300000013040758672509405323_"
       cx="353.79999"
       cy="12244.1"
       r="38.200001" />
    <circle
       id="SVGID_00000044174164041045195490000004048399270319207593_"
       class="st43"
       cx="371.20001"
       cy="11863.5"
       r="74.199997" />
  </defs>
  <g
     id="layer1">
    <g
       id="zapoznaj_się_z_końmi_na_sprzedaż"
       transform="matrix(0.26458333,0,0,0.26458333,13.423195,-3053.6456)">
		<rect
   x="-50"
   y="11484.4"
   class="st33"
   width="1920"
   height="1280"
   id="rect1046"
   style="fill:#d2d0cd" />

		<rect
   x="-50"
   y="11527"
   class="st33"
   width="1920"
   height="1080"
   id="rect1048"
   style="fill:#d2d0cd" />

		<g
   id="g1066">
			<defs
   id="defs1051">
				<rect
   id="rect78070"
   x="-281.20001"
   y="10921.3"
   width="1920"
   height="1080" />

			</defs>

			<clipPath
   id="clipPath76528">
				<use
   xlink:href="#SVGID_00000145767424580808224470000010898195179561900426_"
   style="overflow:visible"
   id="use76526" />

			</clipPath>

			<g
   clip-path="url(#SVGID_00000079462446801769719830000007708242455187373202_)"
   id="g1064">
				<g
   id="g1062">
					<g
   id="g1060">
						<path
   class="st35"
   d="m 1741,10966 c -3.4,6.2 -6.8,12.4 -10.2,18.6"
   id="path1056"
   style="fill:none;stroke:#ffffff;stroke-width:3.5296;stroke-miterlimit:10" />

						<path
   class="st36"
   d="m 1710.1,11021.5 c -199.5,349.4 -414.1,580 -555.5,648.3 -114.8,55.5 -219.6,59.4 -219.6,59.4 -84.1,3.1 -138.5,-16.9 -189.7,-29.5 -20.4,-5 -274.7,-64.1 -485.3,45.1 -12.5,6.5 -230.1,123.4 -281.5,351.9 -52.7,234.3 122.9,348.2 93.8,534.3 -35.6,227.5 -348.6,173.8 -641.2,469.1 -46.7,47.1 -348.8,361.4 -312.8,776.7 6.5,74.5 40.5,465.8 338.8,578.6 166.2,62.8 273.9,-170.5 672.4,-245 115.7,-21.6 173.7,-31.6 245,-10.4 228.4,67.7 200.3,327.5 417,547.3 281.8,285.8 585.7,106.7 787.1,390.9 106,149.6 148.8,378.5 53.4,526.5 -69.7,108.2 -198.2,149.7 -359.7,175.9 -545.5,88.6 -766.2,-110.8 -1149.4,-89.9 -433.3,23.6 -966.2,322.8 -1088.1,784.5 -109.1,413.1 72.3,957.8 375.3,1042.5 443.6,124 745.3,-850.4 1443.9,-865.3 686.9,-14.7 1415,905.7 1245.8,1324 -142.6,352.7 -933.3,373.8 -1016.5,375.3 -467.6,8.3 -543.7,-162.3 -912.2,-119.9 -375.4,43.2 -901.3,289.9 -1053,787.1 -144,472.2 80.5,1070 354.5,1115.5 325.5,54.1 443.8,-730.6 1060.8,-886.2 576.8,-145.4 1364.7,283.3 1380.1,706.9 14.2,392.9 -634.7,859.4 -1161.1,817.8 -316.3,-25 -467.5,-223.9 -813.2,-148.6 -76.7,16.7 -341.4,74.4 -465.2,312.8 -12.1,23.3 -103.8,206.7 -35.2,418.3 84.4,260.4 354.6,387.4 563,402.7 240,17.6 421.6,-111.9 496.5,-164.2 176.2,-123.1 190.3,-233 297.1,-308.8 134.7,-95.6 400.4,-125.4 980.8,194.4"
   id="path1058"
   style="fill:none;stroke:#ffffff;stroke-width:3.5296;stroke-miterlimit:10;stroke-dasharray:42.3207, 42.3207" />

					</g>

				</g>

			</g>

		</g>

		<g
   id="g1176">
			<g
   id="g1122">
				
					<image
   style="overflow:visible;opacity:0.34"
   width="91"
   height="91"
   xlink:href="../../SmartEq%20projekt/projekt%20strony%20internetowej/457123BA1C97174.png"
   transform="translate(430.7524,12244.611)"
   id="image1068">
				</image>

				<g
   id="g1120">
					<g
   id="g1076">
						<defs
   id="defs1071">
							<circle
   id="circle78082"
   cx="400.29999"
   cy="12244.1"
   r="38.200001" />

						</defs>

						<clipPath
   id="SVGID_00000173852468141677628490000003820387944722983096_">
							<use
   xlink:href="#SVGID_00000168110376474149191850000008998410137085193358_"
   style="overflow:visible"
   id="use1073" />

						</clipPath>

					</g>

					<g
   id="g1110">
						<defs
   id="defs1079">
							<circle
   id="circle78088"
   cx="400.29999"
   cy="12244.1"
   r="38.200001" />

						</defs>

						<clipPath
   id="clipPath76546">
							<use
   xlink:href="#SVGID_00000173861544285506837350000013191475524228775837_"
   style="overflow:visible"
   id="use76544" />

						</clipPath>

						<g
   clip-path="url(#SVGID_00000031904485302306816270000004287902375062211724_)"
   id="g1108">
							<line
   class="st40"
   x1="347"
   y1="12199.8"
   x2="450"
   y2="12199.8"
   id="line1084"
   style="fill:none;stroke:#ffffff;stroke-width:2.3013;stroke-miterlimit:10" />

							<line
   class="st40"
   x1="347"
   y1="12208.6"
   x2="450"
   y2="12208.6"
   id="line1086"
   style="fill:none;stroke:#ffffff;stroke-width:2.3013;stroke-miterlimit:10" />

							<line
   class="st40"
   x1="347"
   y1="12217.5"
   x2="450"
   y2="12217.5"
   id="line1088"
   style="fill:none;stroke:#ffffff;stroke-width:2.3013;stroke-miterlimit:10" />

							<line
   class="st40"
   x1="347"
   y1="12226.3"
   x2="450"
   y2="12226.3"
   id="line1090"
   style="fill:none;stroke:#ffffff;stroke-width:2.3013;stroke-miterlimit:10" />

							<line
   class="st40"
   x1="347"
   y1="12235.1"
   x2="450"
   y2="12235.1"
   id="line1092"
   style="fill:none;stroke:#ffffff;stroke-width:2.3013;stroke-miterlimit:10" />

							<line
   class="st40"
   x1="347"
   y1="12243.9"
   x2="450"
   y2="12243.9"
   id="line1094"
   style="fill:none;stroke:#ffffff;stroke-width:2.3013;stroke-miterlimit:10" />

							<line
   class="st40"
   x1="347"
   y1="12252.7"
   x2="450"
   y2="12252.7"
   id="line1096"
   style="fill:none;stroke:#ffffff;stroke-width:2.3013;stroke-miterlimit:10" />

							<line
   class="st40"
   x1="347"
   y1="12261.5"
   x2="450"
   y2="12261.5"
   id="line1098"
   style="fill:none;stroke:#ffffff;stroke-width:2.3013;stroke-miterlimit:10" />

							<line
   class="st40"
   x1="347"
   y1="12270.3"
   x2="450"
   y2="12270.3"
   id="line1100"
   style="fill:none;stroke:#ffffff;stroke-width:2.3013;stroke-miterlimit:10" />

							<line
   class="st40"
   x1="347"
   y1="12279.2"
   x2="450"
   y2="12279.2"
   id="line1102"
   style="fill:none;stroke:#ffffff;stroke-width:2.3013;stroke-miterlimit:10" />

							<line
   class="st40"
   x1="347"
   y1="12288"
   x2="450"
   y2="12288"
   id="line1104"
   style="fill:none;stroke:#ffffff;stroke-width:2.3013;stroke-miterlimit:10" />

							<line
   class="st40"
   x1="347"
   y1="12296.8"
   x2="450"
   y2="12296.8"
   id="line1106"
   style="fill:none;stroke:#ffffff;stroke-width:2.3013;stroke-miterlimit:10" />

						</g>

					</g>

					<g
   id="g1118">
						<defs
   id="defs1113">
							<circle
   id="circle78107"
   cx="400.29999"
   cy="12244.1"
   r="38.200001" />

						</defs>

						<clipPath
   id="SVGID_00000151503842874512013360000002923416037928298911_">
							<use
   xlink:href="#SVGID_00000039123739294543038440000008067018955960074380_"
   style="overflow:visible"
   id="use1115" />

						</clipPath>

					</g>

				</g>

			</g>

			<g
   id="g1174">
				<g
   id="g1130">
					<defs
   id="defs1125">
						<circle
   id="circle78115"
   cx="353.79999"
   cy="12244.1"
   r="38.200001" />

					</defs>

					<clipPath
   id="SVGID_00000075158006145730844560000017395222779487159950_">
						<use
   xlink:href="#SVGID_00000117647793557999204170000017298964510315591860_"
   style="overflow:visible"
   id="use1127" />

					</clipPath>

				</g>

				<g
   id="g1164">
					<defs
   id="defs1133">
						<circle
   id="circle78121"
   cx="353.79999"
   cy="12244.1"
   r="38.200001" />

					</defs>

					<clipPath
   id="clipPath76578">
						<use
   xlink:href="#SVGID_00000142865769272311591840000005319213924735991982_"
   style="overflow:visible"
   id="use76576" />

					</clipPath>

					<g
   clip-path="url(#SVGID_00000168083298178149195830000005028762747322081470_)"
   id="g1162">
						<line
   class="st42"
   x1="300.60001"
   y1="12199.8"
   x2="403.5"
   y2="12199.8"
   id="line1138"
   style="fill:none;stroke:#db8024;stroke-width:2.3013;stroke-miterlimit:10" />

						<line
   class="st42"
   x1="300.60001"
   y1="12208.6"
   x2="403.5"
   y2="12208.6"
   id="line1140"
   style="fill:none;stroke:#db8024;stroke-width:2.3013;stroke-miterlimit:10" />

						<line
   class="st42"
   x1="300.60001"
   y1="12217.5"
   x2="403.5"
   y2="12217.5"
   id="line1142"
   style="fill:none;stroke:#db8024;stroke-width:2.3013;stroke-miterlimit:10" />

						<line
   class="st42"
   x1="300.60001"
   y1="12226.3"
   x2="403.5"
   y2="12226.3"
   id="line1144"
   style="fill:none;stroke:#db8024;stroke-width:2.3013;stroke-miterlimit:10" />

						<line
   class="st42"
   x1="300.60001"
   y1="12235.1"
   x2="403.5"
   y2="12235.1"
   id="line1146"
   style="fill:none;stroke:#db8024;stroke-width:2.3013;stroke-miterlimit:10" />

						<line
   class="st42"
   x1="300.60001"
   y1="12243.9"
   x2="403.5"
   y2="12243.9"
   id="line1148"
   style="fill:none;stroke:#db8024;stroke-width:2.3013;stroke-miterlimit:10" />

						<line
   class="st42"
   x1="300.60001"
   y1="12252.7"
   x2="403.5"
   y2="12252.7"
   id="line1150"
   style="fill:none;stroke:#db8024;stroke-width:2.3013;stroke-miterlimit:10" />

						<line
   class="st42"
   x1="300.60001"
   y1="12261.5"
   x2="403.5"
   y2="12261.5"
   id="line1152"
   style="fill:none;stroke:#db8024;stroke-width:2.3013;stroke-miterlimit:10" />

						<line
   class="st42"
   x1="300.60001"
   y1="12270.3"
   x2="403.5"
   y2="12270.3"
   id="line1154"
   style="fill:none;stroke:#db8024;stroke-width:2.3013;stroke-miterlimit:10" />

						<line
   class="st42"
   x1="300.60001"
   y1="12279.2"
   x2="403.5"
   y2="12279.2"
   id="line1156"
   style="fill:none;stroke:#db8024;stroke-width:2.3013;stroke-miterlimit:10" />

						<line
   class="st42"
   x1="300.60001"
   y1="12288"
   x2="403.5"
   y2="12288"
   id="line1158"
   style="fill:none;stroke:#db8024;stroke-width:2.3013;stroke-miterlimit:10" />

						<line
   class="st42"
   x1="300.60001"
   y1="12296.8"
   x2="403.5"
   y2="12296.8"
   id="line1160"
   style="fill:none;stroke:#db8024;stroke-width:2.3013;stroke-miterlimit:10" />

					</g>

				</g>

				<g
   id="g1172">
					<defs
   id="defs1167">
						<circle
   id="circle78140"
   cx="353.79999"
   cy="12244.1"
   r="38.200001" />

					</defs>

					<clipPath
   id="SVGID_00000031921115170553147820000005319915512641822397_">
						<use
   xlink:href="#SVGID_00000034080627549110610300000013040758672509405323_"
   style="overflow:visible"
   id="use1169" />

					</clipPath>

				</g>

			</g>

		</g>

		<g
   class="st43"
   id="g1240"
   style="opacity:0.43">
			<defs
   id="defs1179">
				<circle
   id="circle78148"
   class="st43"
   cx="371.20001"
   cy="11863.5"
   r="74.199997" />

			</defs>

			<clipPath
   id="clipPath76605">
				<use
   xlink:href="#SVGID_00000044174164041045195490000004048399270319207593_"
   style="overflow:visible"
   id="use76603" />

			</clipPath>

			<g
   clip-path="url(#SVGID_00000111898958370664344080000008265709027797600902_)"
   id="g1238">
				<line
   class="st45"
   x1="285.29999"
   y1="11966.9"
   x2="285.29999"
   y2="11767"
   id="line1184"
   style="fill:none;stroke:#1d1d1b;stroke-width:1.1121;stroke-miterlimit:10" />

				<line
   class="st45"
   x1="292.60001"
   y1="11966.9"
   x2="292.60001"
   y2="11767"
   id="line1186"
   style="fill:none;stroke:#1d1d1b;stroke-width:1.1121;stroke-miterlimit:10" />

				<line
   class="st45"
   x1="299.79999"
   y1="11966.9"
   x2="299.79999"
   y2="11767"
   id="line1188"
   style="fill:none;stroke:#1d1d1b;stroke-width:1.1121;stroke-miterlimit:10" />

				<line
   class="st45"
   x1="307"
   y1="11966.9"
   x2="307"
   y2="11767"
   id="line1190"
   style="fill:none;stroke:#1d1d1b;stroke-width:1.1121;stroke-miterlimit:10" />

				<line
   class="st45"
   x1="314.29999"
   y1="11966.9"
   x2="314.29999"
   y2="11767"
   id="line1192"
   style="fill:none;stroke:#1d1d1b;stroke-width:1.1121;stroke-miterlimit:10" />

				<line
   class="st45"
   x1="321.5"
   y1="11966.9"
   x2="321.5"
   y2="11767"
   id="line1194"
   style="fill:none;stroke:#1d1d1b;stroke-width:1.1121;stroke-miterlimit:10" />

				<line
   class="st45"
   x1="328.79999"
   y1="11966.9"
   x2="328.79999"
   y2="11767"
   id="line1196"
   style="fill:none;stroke:#1d1d1b;stroke-width:1.1121;stroke-miterlimit:10" />

				<line
   class="st45"
   x1="336"
   y1="11966.9"
   x2="336"
   y2="11767"
   id="line1198"
   style="fill:none;stroke:#1d1d1b;stroke-width:1.1121;stroke-miterlimit:10" />

				<line
   class="st45"
   x1="343.20001"
   y1="11966.9"
   x2="343.20001"
   y2="11767"
   id="line1200"
   style="fill:none;stroke:#1d1d1b;stroke-width:1.1121;stroke-miterlimit:10" />

				<line
   class="st45"
   x1="350.5"
   y1="11966.9"
   x2="350.5"
   y2="11767"
   id="line1202"
   style="fill:none;stroke:#1d1d1b;stroke-width:1.1121;stroke-miterlimit:10" />

				<line
   class="st45"
   x1="357.70001"
   y1="11966.9"
   x2="357.70001"
   y2="11767"
   id="line1204"
   style="fill:none;stroke:#1d1d1b;stroke-width:1.1121;stroke-miterlimit:10" />

				<line
   class="st45"
   x1="365"
   y1="11966.9"
   x2="365"
   y2="11767"
   id="line1206"
   style="fill:none;stroke:#1d1d1b;stroke-width:1.1121;stroke-miterlimit:10" />

				<line
   class="st45"
   x1="372.20001"
   y1="11966.9"
   x2="372.20001"
   y2="11767"
   id="line1208"
   style="fill:none;stroke:#1d1d1b;stroke-width:1.1121;stroke-miterlimit:10" />

				<line
   class="st45"
   x1="379.39999"
   y1="11966.9"
   x2="379.39999"
   y2="11767"
   id="line1210"
   style="fill:none;stroke:#1d1d1b;stroke-width:1.1121;stroke-miterlimit:10" />

				<line
   class="st45"
   x1="386.70001"
   y1="11966.9"
   x2="386.70001"
   y2="11767"
   id="line1212"
   style="fill:none;stroke:#1d1d1b;stroke-width:1.1121;stroke-miterlimit:10" />

				<line
   class="st45"
   x1="393.89999"
   y1="11966.9"
   x2="393.89999"
   y2="11767"
   id="line1214"
   style="fill:none;stroke:#1d1d1b;stroke-width:1.1121;stroke-miterlimit:10" />

				<line
   class="st45"
   x1="401.10001"
   y1="11966.9"
   x2="401.10001"
   y2="11767"
   id="line1216"
   style="fill:none;stroke:#1d1d1b;stroke-width:1.1121;stroke-miterlimit:10" />

				<line
   class="st45"
   x1="408.39999"
   y1="11966.9"
   x2="408.39999"
   y2="11767"
   id="line1218"
   style="fill:none;stroke:#1d1d1b;stroke-width:1.1121;stroke-miterlimit:10" />

				<line
   class="st45"
   x1="415.60001"
   y1="11966.9"
   x2="415.60001"
   y2="11767"
   id="line1220"
   style="fill:none;stroke:#1d1d1b;stroke-width:1.1121;stroke-miterlimit:10" />

				<line
   class="st45"
   x1="422.89999"
   y1="11966.9"
   x2="422.89999"
   y2="11767"
   id="line1222"
   style="fill:none;stroke:#1d1d1b;stroke-width:1.1121;stroke-miterlimit:10" />

				<line
   class="st45"
   x1="430.10001"
   y1="11966.9"
   x2="430.10001"
   y2="11767"
   id="line1224"
   style="fill:none;stroke:#1d1d1b;stroke-width:1.1121;stroke-miterlimit:10" />

				<line
   class="st45"
   x1="437.29999"
   y1="11966.9"
   x2="437.29999"
   y2="11767"
   id="line1226"
   style="fill:none;stroke:#1d1d1b;stroke-width:1.1121;stroke-miterlimit:10" />

				<line
   class="st45"
   x1="444.60001"
   y1="11966.9"
   x2="444.60001"
   y2="11767"
   id="line1228"
   style="fill:none;stroke:#1d1d1b;stroke-width:1.1121;stroke-miterlimit:10" />

				<line
   class="st45"
   x1="451.79999"
   y1="11966.9"
   x2="451.79999"
   y2="11767"
   id="line1230"
   style="fill:none;stroke:#1d1d1b;stroke-width:1.1121;stroke-miterlimit:10" />

				<line
   class="st45"
   x1="459.10001"
   y1="11966.9"
   x2="459.10001"
   y2="11767"
   id="line1232"
   style="fill:none;stroke:#1d1d1b;stroke-width:1.1121;stroke-miterlimit:10" />

				<line
   class="st45"
   x1="466.29999"
   y1="11966.9"
   x2="466.29999"
   y2="11767"
   id="line1234"
   style="fill:none;stroke:#1d1d1b;stroke-width:1.1121;stroke-miterlimit:10" />

				<line
   class="st45"
   x1="473.5"
   y1="11966.9"
   x2="473.5"
   y2="11767"
   id="line1236"
   style="fill:none;stroke:#1d1d1b;stroke-width:1.1121;stroke-miterlimit:10" />

			</g>

		</g>

		<circle
   class="st46"
   cx="310.60001"
   cy="11924.5"
   r="30.5"
   id="circle1242"
   style="fill:none;stroke:#db8024;stroke-width:1.0338;stroke-miterlimit:10" />

		<circle
   class="st47"
   cx="1399.3"
   cy="12397.6"
   r="218.10001"
   id="circle1244"
   style="fill:none;stroke:#db8024;stroke-width:5;stroke-miterlimit:10" />

		<g
   id="g1430">
			
			
		</g>

		
		<text
   transform="translate(1485.0623,12073.354)"
   class="st1 st56 st57"
   id="text1458"
   style="font-size:138.616px;font-family:MyriadPro-Regular;fill:#ffffff">x</text>

	</g>
  </g>
</svg>
