<?xml version="1.0" encoding="UTF-8" standalone="no"?>
<!-- Created with Inkscape (http://www.inkscape.org/) -->

<svg
   width="552"
   height="356"
   viewBox="0 0 146.05 94.191666"
   version="1.1"
   id="svg10673"
   xmlns="http://www.w3.org/2000/svg"
   xmlns:svg="http://www.w3.org/2000/svg">
  <defs
     id="defs10670">
    <linearGradient
       id="SVGID_00000026149671420916924590000001532825457602401423_"
       gradientUnits="userSpaceOnUse"
       x1="431.26889"
       y1="10713.917"
       x2="649.34991"
       y2="10713.917">
							<stop
   offset="0"
   style="stop-color:#E78024"
   id="stop1916" />

							<stop
   offset="0.4243"
   style="stop-color:#E78024"
   id="stop1918" />

							<stop
   offset="0.4665"
   style="stop-color:#E78024"
   id="stop1920" />

							<stop
   offset="0.5576"
   style="stop-color:#E78227"
   id="stop1922" />

							<stop
   offset="0.6336"
   style="stop-color:#E68832"
   id="stop1924" />

							<stop
   offset="0.7042"
   style="stop-color:#E69343"
   id="stop1926" />

							<stop
   offset="0.7716"
   style="stop-color:#E5A35B"
   id="stop1928" />

							<stop
   offset="0.8367"
   style="stop-color:#E4B67B"
   id="stop1930" />

							<stop
   offset="0.9"
   style="stop-color:#E2CEA2"
   id="stop1932" />

							<stop
   offset="0.9608"
   style="stop-color:#E0EACF"
   id="stop1934" />

							<stop
   offset="1"
   style="stop-color:#DFFFF0"
   id="stop1936" />

						</linearGradient>
    <linearGradient
       id="SVGID_00000000927786857285515940000009169679449194029953_"
       gradientUnits="userSpaceOnUse"
       x1="680.34027"
       y1="10810.829"
       x2="792.34918"
       y2="10810.829">
					<stop
   offset="0"
   style="stop-color:#E78024"
   id="stop2079" />

					<stop
   offset="0.4243"
   style="stop-color:#E78024"
   id="stop2081" />

					<stop
   offset="0.4665"
   style="stop-color:#E78024"
   id="stop2083" />

					<stop
   offset="0.5576"
   style="stop-color:#E78227"
   id="stop2085" />

					<stop
   offset="0.6336"
   style="stop-color:#E68832"
   id="stop2087" />

					<stop
   offset="0.7042"
   style="stop-color:#E69343"
   id="stop2089" />

					<stop
   offset="0.7716"
   style="stop-color:#E5A35B"
   id="stop2091" />

					<stop
   offset="0.8367"
   style="stop-color:#E4B67B"
   id="stop2093" />

					<stop
   offset="0.9"
   style="stop-color:#E2CEA2"
   id="stop2095" />

					<stop
   offset="0.9608"
   style="stop-color:#E0EACF"
   id="stop2097" />

					<stop
   offset="1"
   style="stop-color:#DFFFF0"
   id="stop2099" />

				</linearGradient>
    <linearGradient
       id="SVGID_00000157295640629725908140000007347774350568462521_"
       gradientUnits="userSpaceOnUse"
       x1="32.081299"
       y1="10790.254"
       x2="158.3775"
       y2="10790.254"
       gradientTransform="translate(257.2118)">
						<stop
   offset="0"
   style="stop-color:#E78024"
   id="stop2162" />

						<stop
   offset="0.4243"
   style="stop-color:#E78024"
   id="stop2164" />

						<stop
   offset="0.4665"
   style="stop-color:#E78024"
   id="stop2166" />

						<stop
   offset="0.5576"
   style="stop-color:#E78227"
   id="stop2168" />

						<stop
   offset="0.6336"
   style="stop-color:#E68832"
   id="stop2170" />

						<stop
   offset="0.7042"
   style="stop-color:#E69343"
   id="stop2172" />

						<stop
   offset="0.7716"
   style="stop-color:#E5A35B"
   id="stop2174" />

						<stop
   offset="0.8367"
   style="stop-color:#E4B67B"
   id="stop2176" />

						<stop
   offset="0.9"
   style="stop-color:#E2CEA2"
   id="stop2178" />

						<stop
   offset="0.9608"
   style="stop-color:#E0EACF"
   id="stop2180" />

						<stop
   offset="1"
   style="stop-color:#DFFFF0"
   id="stop2182" />

					</linearGradient>
  </defs>
  <g
     id="layer1">
    <g
       id="grafika"
       transform="matrix(0.26458333,0,0,0.26458333,-76.684855,-2793.4965)">
				<g
   id="g1943">
					<g
   id="g1864">
						<rect
   x="430.89999"
   y="10681.1"
   class="st68"
   width="0.80000001"
   height="80.400002"
   id="rect1862"
   style="fill:#d2d2d2" />

					</g>

					<g
   id="g1868">
						<rect
   x="485.39999"
   y="10681.1"
   class="st68"
   width="0.80000001"
   height="80.400002"
   id="rect1866"
   style="fill:#d2d2d2" />

					</g>

					<g
   id="g1872">
						<rect
   x="539.90002"
   y="10681.1"
   class="st68"
   width="0.80000001"
   height="80.400002"
   id="rect1870"
   style="fill:#d2d2d2" />

					</g>

					<g
   id="g1876">
						<rect
   x="594.40002"
   y="10681.1"
   class="st68"
   width="0.80000001"
   height="80.400002"
   id="rect1874"
   style="fill:#d2d2d2" />

					</g>

					<g
   id="g1880">
						<rect
   x="648.90002"
   y="10681.1"
   class="st68"
   width="0.80000001"
   height="80.400002"
   id="rect1878"
   style="fill:#d2d2d2" />

					</g>

					<rect
   x="431.29999"
   y="10766.3"
   class="st69"
   width="8.6999998"
   height="2.8"
   id="rect1882"
   style="fill:#aaaaaa" />

					<rect
   x="431.29999"
   y="10671.2"
   width="13.1"
   height="2.0999999"
   id="rect1884" />

					<rect
   x="431.29999"
   y="10675.1"
   width="18.5"
   height="2.0999999"
   id="rect1886" />

					<rect
   x="485.20001"
   y="10671.2"
   width="15.3"
   height="2.0999999"
   id="rect1888" />

					<rect
   x="485.20001"
   y="10675.1"
   width="9.8000002"
   height="2.0999999"
   id="rect1890" />

					<rect
   x="540.59998"
   y="10671.2"
   width="9.5"
   height="2.0999999"
   id="rect1892" />

					<rect
   x="540.59998"
   y="10675.1"
   width="11.1"
   height="2.0999999"
   id="rect1894" />

					<rect
   x="595.09998"
   y="10671.2"
   width="13.8"
   height="2.0999999"
   id="rect1896" />

					<rect
   x="595.09998"
   y="10675.1"
   width="11.1"
   height="2.0999999"
   id="rect1898" />

					<rect
   x="649.20001"
   y="10671.2"
   width="8.3000002"
   height="2.0999999"
   id="rect1900" />

					<rect
   x="649.20001"
   y="10675.1"
   width="6.5999999"
   height="2.0999999"
   id="rect1902" />

					<rect
   x="485.79999"
   y="10766.3"
   class="st69"
   width="8.6999998"
   height="2.8"
   id="rect1904"
   style="fill:#aaaaaa" />

					<rect
   x="540.59998"
   y="10766.3"
   class="st69"
   width="8.6999998"
   height="2.8"
   id="rect1906"
   style="fill:#aaaaaa" />

					<rect
   x="595.09998"
   y="10766.3"
   class="st69"
   width="8.6999998"
   height="2.8"
   id="rect1908"
   style="fill:#aaaaaa" />

					<rect
   x="649.59998"
   y="10766.3"
   class="st69"
   width="8.6999998"
   height="2.8"
   id="rect1910"
   style="fill:#aaaaaa" />

					<g
   id="g1914">
						<path
   d="m 630.4,10737.7 c -17,0 -31.8,-7.3 -47.2,-15 -19,-9.5 -38.7,-19.2 -64.9,-16.6 -16.7,1.7 -27.2,8.5 -36.5,14.5 -8.4,5.4 -16.3,10.2 -27.1,10.6 -17.4,0.7 -23.4,-6.7 -23.5,-7.2 v -4.8 0 0 c 0,0.1 3.8,8.4 23.5,8.3 9.7,0 16.8,-4.7 25.1,-10 9.6,-6.2 20.5,-13.3 38.1,-15.1 27.2,-2.8 47.4,7.2 66.9,16.9 20.4,10.1 39.8,19.6 64.4,11.4 v 3.9 c -7,2.4 -12.6,3.1 -18.8,3.1 z"
   id="path1912" />

					</g>

					<g
   id="g1941">
						
							<linearGradient
   id="linearGradient10457"
   gradientUnits="userSpaceOnUse"
   x1="431.26889"
   y1="10713.917"
   x2="649.34991"
   y2="10713.917">
							<stop
   offset="0"
   style="stop-color:#E78024"
   id="stop10435" />

							<stop
   offset="0.4243"
   style="stop-color:#E78024"
   id="stop10437" />

							<stop
   offset="0.4665"
   style="stop-color:#E78024"
   id="stop10439" />

							<stop
   offset="0.5576"
   style="stop-color:#E78227"
   id="stop10441" />

							<stop
   offset="0.6336"
   style="stop-color:#E68832"
   id="stop10443" />

							<stop
   offset="0.7042"
   style="stop-color:#E69343"
   id="stop10445" />

							<stop
   offset="0.7716"
   style="stop-color:#E5A35B"
   id="stop10447" />

							<stop
   offset="0.8367"
   style="stop-color:#E4B67B"
   id="stop10449" />

							<stop
   offset="0.9"
   style="stop-color:#E2CEA2"
   id="stop10451" />

							<stop
   offset="0.9608"
   style="stop-color:#E0EACF"
   id="stop10453" />

							<stop
   offset="1"
   style="stop-color:#DFFFF0"
   id="stop10455" />

						</linearGradient>

						<path
   style="fill:url(#SVGID_00000026149671420916924590000001532825457602401423_)"
   d="m 528.3,10736.7 c -12.5,0 -22.5,-8.4 -32.2,-16.7 -7.4,-6.3 -15,-12.7 -23.9,-15.8 -27,-9.6 -40.8,8 -40.9,8.1 v -5.4 c 0.1,-0.2 2.6,-3.4 9.7,-6.4 6.5,-2.8 17.4,-5 32.4,0.2 9.5,3.3 17.4,10 25.1,16.5 15.5,13.1 28.9,24.5 52.1,6.7 17.6,-13.5 34.2,-26.3 50.5,-31 16,-4.6 32.6,-1.2 48.2,14.4 l -0.1,4.9 c -33.1,-33.3 -61.3,-12.2 -96.4,14.7 -9.3,7.1 -17.3,9.8 -24.5,9.8 z"
   id="path1939" />

					</g>

				</g>

				<g
   id="g1969">
					<g
   id="g1949">
						<g
   id="g1947">
							<path
   class="st33"
   d="m 463.5,10560 c -12.7,-2.6 -25.1,3.6 -31.1,14.3 -1.5,2.6 -2.5,5.5 -3.2,8.5 -1.9,9.3 0.9,18.5 6.8,25.1 4.1,4.6 9.6,7.9 16,9.2 0.6,0.1 1.3,0.2 1.9,0.3 2.9,0.4 5.8,0.3 8.5,-0.1 11.6,-1.9 21.4,-10.8 23.8,-23 3.3,-15.8 -6.9,-31.1 -22.7,-34.3 z m 15.6,32.8 c -1.8,9.2 -9.2,15.8 -17.9,17.2 -2.1,0.3 -4.2,0.4 -6.4,0.1 -0.5,-0.1 -1,-0.1 -1.4,-0.2 -4.8,-1 -9,-3.5 -12,-6.9 -4.4,-4.9 -6.5,-11.8 -5.1,-18.8 0.5,-2.3 1.3,-4.4 2.4,-6.4 4.5,-8 13.8,-12.6 23.3,-10.7 11.9,2.4 19.5,13.9 17.1,25.7 z"
   id="path1945"
   style="fill:#d2d0cd" />

						</g>

					</g>

					<g
   id="g1955">
						<g
   id="g1953">
							<path
   d="m 441.4,10603 -5.4,4.8 c -5.8,-6.6 -8.6,-15.8 -6.8,-25.1 0.6,-3.1 1.7,-5.9 3.2,-8.5 l 6.4,3.6 c -1.1,1.9 -1.9,4.1 -2.4,6.4 -1.5,7 0.6,13.9 5,18.8 z"
   id="path1951" />

						</g>

					</g>

					<g
   id="g1961">
						<g
   id="g1959">
							<path
   class="st71"
   d="m 454.9,10610.2 -1,7.2 c -0.6,-0.1 -1.3,-0.2 -1.9,-0.3 -6.5,-1.3 -12,-4.6 -16,-9.2 l 5.4,-4.8 c 3,3.4 7.2,5.9 12,6.9 0.5,0 1,0.1 1.5,0.2 z"
   id="path1957"
   style="fill:#711880" />

						</g>

					</g>

					<g
   id="g1967">
						<g
   id="g1965">
							<path
   class="st72"
   d="m 462.5,10617.3 c -2.8,0.5 -5.6,0.5 -8.5,0.1 l 1,-7.2 c 2.2,0.3 4.3,0.2 6.4,-0.1 z"
   id="path1963"
   style="fill:#4a0f56" />

						</g>

					</g>

				</g>

				<g
   id="g1995">
					<g
   id="g1975">
						<g
   id="g1973">
							<path
   class="st33"
   d="m 565,10599.9 c 5.1,-11.9 1.6,-25.3 -7.7,-33.4 -2.2,-2 -4.8,-3.6 -7.7,-4.8 -8.7,-3.7 -18.3,-2.8 -25.9,1.5 -5.3,3 -9.7,7.8 -12.3,13.8 -0.3,0.6 -0.5,1.2 -0.7,1.8 -1,2.8 -1.5,5.6 -1.6,8.4 -0.5,11.7 6.2,23.1 17.7,28 14.8,6.4 31.9,-0.5 38.2,-15.3 z m -35.4,8.7 c -8.6,-3.7 -13.6,-12.2 -13.3,-21 0.1,-2.1 0.5,-4.2 1.2,-6.3 0.2,-0.5 0.3,-0.9 0.5,-1.4 1.9,-4.5 5.2,-8.1 9.2,-10.4 5.7,-3.3 12.9,-4 19.4,-1.2 2.2,0.9 4.1,2.1 5.8,3.6 6.9,6 9.6,16.1 5.8,25 -4.7,11.3 -17.5,16.4 -28.6,11.7 z"
   id="path1971"
   style="fill:#d2d0cd" />

						</g>

					</g>

					<g
   id="g1981">
						<g
   id="g1979">
							<path
   d="m 527.3,10569.6 -3.6,-6.3 c 7.6,-4.4 17.2,-5.3 25.9,-1.5 2.9,1.2 5.5,2.9 7.7,4.8 l -4.8,5.5 c -1.7,-1.5 -3.6,-2.7 -5.8,-3.6 -6.5,-2.8 -13.7,-2.2 -19.4,1.1 z"
   id="path1977" />

						</g>

					</g>

					<g
   id="g1987">
						<g
   id="g1985">
							<path
   class="st71"
   d="m 517.6,10581.3 -6.9,-2.4 c 0.2,-0.6 0.4,-1.2 0.7,-1.8 2.6,-6.1 7,-10.8 12.3,-13.8 l 3.6,6.3 c -4,2.3 -7.3,5.8 -9.2,10.4 -0.2,0.4 -0.4,0.9 -0.5,1.3 z"
   id="path1983"
   style="fill:#711880" />

						</g>

					</g>

					<g
   id="g1993">
						<g
   id="g1991">
							<path
   class="st72"
   d="m 509.1,10587.3 c 0.1,-2.8 0.6,-5.6 1.6,-8.4 l 6.9,2.4 c -0.7,2.1 -1.1,4.2 -1.2,6.3 z"
   id="path1989"
   style="fill:#4a0f56" />

						</g>

					</g>

				</g>

				<g
   id="g2021">
					<g
   id="g2001">
						<g
   id="g1999">
							<path
   class="st33"
   d="m 636,10565.2 c -10.4,-7.7 -24.2,-7.5 -34.2,-0.4 -2.4,1.7 -4.6,3.8 -6.5,6.4 -5.7,7.6 -7.1,17.1 -4.6,25.6 1.7,5.9 5.3,11.2 10.6,15.2 0.5,0.4 1.1,0.8 1.6,1.1 2.5,1.6 5.1,2.8 7.8,3.5 11.3,3.2 23.9,-0.6 31.4,-10.6 9.4,-13 6.8,-31.2 -6.1,-40.8 z m 0.1,36.4 c -5.6,7.5 -15,10.4 -23.5,8 -2,-0.6 -4,-1.5 -5.8,-2.6 -0.4,-0.3 -0.8,-0.5 -1.2,-0.8 -4,-2.9 -6.6,-7 -7.9,-11.4 -1.9,-6.3 -0.8,-13.5 3.4,-19.2 1.4,-1.9 3.1,-3.5 4.9,-4.8 7.5,-5.3 17.9,-5.5 25.7,0.3 9.6,7.1 11.6,20.8 4.4,30.5 z"
   id="path1997"
   style="fill:#d2d0cd" />

						</g>

					</g>

					<g
   id="g2007">
						<g
   id="g2005">
							<path
   d="m 597.6,10594.7 -7,2 c -2.5,-8.5 -1.1,-17.9 4.6,-25.6 1.9,-2.5 4.1,-4.6 6.5,-6.4 l 4.2,5.9 c -1.8,1.3 -3.5,2.9 -4.9,4.8 -4.2,5.8 -5.2,12.9 -3.4,19.3 z"
   id="path2003" />

						</g>

					</g>

					<g
   id="g2013">
						<g
   id="g2011">
							<path
   class="st71"
   d="m 606.8,10606.9 -4,6.1 c -0.5,-0.4 -1.1,-0.7 -1.6,-1.1 -5.3,-3.9 -8.8,-9.3 -10.6,-15.2 l 7,-2 c 1.3,4.4 4,8.4 7.9,11.4 0.4,0.2 0.8,0.5 1.3,0.8 z"
   id="path2009"
   style="fill:#711880" />

						</g>

					</g>

					<g
   id="g2019">
						<g
   id="g2017">
							<path
   class="st72"
   d="m 610.6,10616.5 c -2.7,-0.8 -5.3,-1.9 -7.8,-3.5 l 4,-6.1 c 1.8,1.2 3.8,2.1 5.8,2.6 z"
   id="path2015"
   style="fill:#4a0f56" />

						</g>

					</g>

				</g>

				<rect
   x="428.60001"
   y="10631.5"
   width="58.200001"
   height="4.5"
   id="rect2023" />

				<rect
   x="428.60001"
   y="10641"
   width="43.599998"
   height="4.5"
   id="rect2025" />

				<rect
   x="509.10001"
   y="10631.5"
   width="32.099998"
   height="4.5"
   id="rect2027" />

				<rect
   x="509.10001"
   y="10641"
   width="47.700001"
   height="4.5"
   id="rect2029" />

				<rect
   x="594.79999"
   y="10631.5"
   width="35.700001"
   height="4.5"
   id="rect2031" />

				<rect
   x="594.79999"
   y="10641"
   width="41.299999"
   height="4.5"
   id="rect2033" />

				<rect
   x="685.09998"
   y="10573.2"
   width="42.299999"
   height="4.1999998"
   id="rect2035" />

				<rect
   x="685.09998"
   y="10586.4"
   width="48.700001"
   height="4.1999998"
   id="rect2037" />

				<rect
   x="685"
   y="10599.4"
   width="25.200001"
   height="4.1999998"
   id="rect2039" />

				<rect
   x="685"
   y="10612.5"
   width="38.799999"
   height="4.1999998"
   id="rect2041" />

				<rect
   x="428.60001"
   y="10795"
   class="st33"
   width="185.3"
   height="4.3000002"
   id="rect2043"
   style="fill:#d2d0cd" />

				<rect
   x="428.60001"
   y="10805.2"
   class="st33"
   width="200.2"
   height="4.3000002"
   id="rect2045"
   style="fill:#d2d0cd" />

				<rect
   x="428.60001"
   y="10815.3"
   class="st33"
   width="129.89999"
   height="4.3000002"
   id="rect2047"
   style="fill:#d2d0cd" />

				<rect
   x="428.60001"
   y="10795"
   class="st73"
   width="96.5"
   height="4.3000002"
   id="rect2049"
   style="fill:#e78024" />

				<rect
   x="428.60001"
   y="10805.2"
   class="st73"
   width="104.3"
   height="4.3000002"
   id="rect2051"
   style="fill:#e78024" />

				<rect
   x="428.60001"
   y="10815.3"
   class="st73"
   width="67.599998"
   height="4.3000002"
   id="rect2053"
   style="fill:#e78024" />

				<path
   class="st74"
   d="M 795.8,10876.8 H 677.6 c -7.9,0 -14.4,-6.4 -14.4,-14.4 v -182.8 c 0,-7.9 6.4,-14.4 14.4,-14.4 h 118.2 c 7.9,0 14.4,6.4 14.4,14.4 v 182.8 c -0.1,8 -6.5,14.4 -14.4,14.4 z"
   id="path2055"
   style="opacity:0.73;fill:#ffffff" />

				<g
   id="g2077">
					<g
   id="g2059">
						<rect
   x="680.09998"
   y="10771"
   width="0.60000002"
   height="74.300003"
   id="rect2057" />

					</g>

					<g
   id="g2063">
						<rect
   x="708.20001"
   y="10771"
   width="0.60000002"
   height="74.300003"
   id="rect2061" />

					</g>

					<g
   id="g2067">
						<rect
   x="736.40002"
   y="10771"
   width="0.60000002"
   height="74.300003"
   id="rect2065" />

					</g>

					<g
   id="g2071">
						<rect
   x="764.5"
   y="10771"
   width="0.60000002"
   height="74.300003"
   id="rect2069" />

					</g>

					<g
   id="g2075">
						<rect
   x="792.70001"
   y="10771"
   width="0.60000002"
   height="74.300003"
   id="rect2073" />

					</g>

				</g>

				
					<linearGradient
   id="linearGradient10551"
   gradientUnits="userSpaceOnUse"
   x1="680.34027"
   y1="10810.829"
   x2="792.34918"
   y2="10810.829">
					<stop
   offset="0"
   style="stop-color:#E78024"
   id="stop10529" />

					<stop
   offset="0.4243"
   style="stop-color:#E78024"
   id="stop10531" />

					<stop
   offset="0.4665"
   style="stop-color:#E78024"
   id="stop10533" />

					<stop
   offset="0.5576"
   style="stop-color:#E78227"
   id="stop10535" />

					<stop
   offset="0.6336"
   style="stop-color:#E68832"
   id="stop10537" />

					<stop
   offset="0.7042"
   style="stop-color:#E69343"
   id="stop10539" />

					<stop
   offset="0.7716"
   style="stop-color:#E5A35B"
   id="stop10541" />

					<stop
   offset="0.8367"
   style="stop-color:#E4B67B"
   id="stop10543" />

					<stop
   offset="0.9"
   style="stop-color:#E2CEA2"
   id="stop10545" />

					<stop
   offset="0.9608"
   style="stop-color:#E0EACF"
   id="stop10547" />

					<stop
   offset="1"
   style="stop-color:#DFFFF0"
   id="stop10549" />

				</linearGradient>

				<path
   style="fill:url(#SVGID_00000000927786857285515940000009169679449194029953_)"
   d="m 680.3,10815.2 c 0,0 10.4,6.3 21.4,-5.1 11,-11.4 22.9,-20.5 34.2,-10.8 11.2,9.6 18.2,12 29.4,1.2 11.2,-10.8 10.4,-24.1 27,-24.1 v 69 h -112 z"
   id="path2102" />

				<rect
   x="680.29999"
   y="10764.8"
   width="11.2"
   height="2.7"
   id="rect2104" />

				<rect
   x="708.5"
   y="10764.8"
   width="7"
   height="2.7"
   id="rect2106" />

				<rect
   x="736.70001"
   y="10764.8"
   width="8.6000004"
   height="2.7"
   id="rect2108" />

				<rect
   x="764.79999"
   y="10764.8"
   width="13.3"
   height="2.7"
   id="rect2110" />

				<rect
   x="793"
   y="10764.8"
   width="4.5999999"
   height="2.7"
   id="rect2112" />

				<rect
   x="750.40002"
   y="10716"
   width="37.700001"
   height="4.8000002"
   id="rect2114" />

				<rect
   x="750.40002"
   y="10736"
   width="34.599998"
   height="4.8000002"
   id="rect2116" />

				<rect
   x="750.40002"
   y="10726"
   width="29.9"
   height="4.8000002"
   id="rect2118" />

				<path
   d="m 716.6,10708.4 c 0,3.6 -2.9,6.6 -6.6,6.6 -3.6,0 -6.6,-2.9 -6.6,-6.6 0,-3.6 2.9,-6.6 6.6,-6.6 3.7,0 6.6,3 6.6,6.6 z"
   id="path2120" />

				<path
   d="m 721.9,10729.9 v 12.5 c -3.6,1.7 -7.7,2.6 -11.9,2.6 -4.3,0 -8.3,-0.9 -11.9,-2.6 v -12.5 c 0,-6.6 5.3,-11.9 11.9,-11.9 6.6,0 11.9,5.3 11.9,11.9 z"
   id="path2122" />

				<g
   id="g2126">
					<path
   d="m 710,10746.5 c -4.3,0 -8.4,-0.9 -12.3,-2.6 -10.6,-4.8 -17.4,-15.4 -17.4,-27 0,-16.4 13.3,-29.7 29.7,-29.7 16.4,0 29.7,13.3 29.7,29.7 0,11.6 -6.8,22.2 -17.4,27 -3.9,1.7 -8,2.6 -12.3,2.6 z m 0,-57.7 c -15.5,0 -28.1,12.6 -28.1,28.1 0,11 6.5,21 16.5,25.6 3.7,1.7 7.6,2.5 11.6,2.5 4.1,0 8,-0.8 11.6,-2.5 10,-4.6 16.5,-14.6 16.5,-25.6 0,-15.5 -12.6,-28.1 -28.1,-28.1 z"
   id="path2124" />

				</g>

				<g
   id="g2199">
					<path
   d="m 336.5,10756.5 c 0,0 8.1,-18.4 -1.3,-16.9 0,0 -3.2,2.7 -6.5,8.1 -2.5,4.1 -7.7,14.9 -7.5,18.6 0.2,3.7 2.8,6.4 5.6,12.3 0,0 5.9,10.9 6.1,12.2 l 6.2,-3.2 c 0,0 -5.2,-10.5 -8.9,-19.6 z"
   id="path2128" />

					
						<rect
   x="411.70001"
   y="10771.2"
   transform="matrix(-0.9858,0.1678,-0.1678,-0.9858,2633.3545,21336.199)"
   width="6.8000002"
   height="16.299999"
   id="rect2130" />

					<path
   class="st76"
   d="m 383.6,10912.6 h 1.5 c 0,0 -0.5,-5.8 0.9,-5.9 1.4,-0.1 4.9,4.7 7,5.5 2.1,0.7 12.9,1.4 13,-0.6 0.1,-2 -4.1,-2.8 -5.5,-3.4 -1.3,-0.6 -7.7,-6.8 -8.8,-7.5 -1.1,-0.7 -3.1,-5.9 -3.1,-5.9 l -6,-0.3 c 0,0 -0.3,4.8 -0.7,7.3 -0.1,0.9 -0.2,1.8 -0.2,2.4 0,2.3 1.9,8.4 1.9,8.4 z"
   id="path2132"
   style="fill:#de9a80" />

					<path
   class="st76"
   d="m 344.8,10911.4 h 1.3 v -5.4 c 1.1,0.1 4.6,3.5 5.8,4.5 1.1,1 2.6,0.9 7.3,1.2 4.7,0.3 5.1,-2.5 4.4,-3.4 -0.7,-1 -3.1,-1.4 -4.4,-2 -1.2,-0.6 -6.1,-6.1 -7.5,-7.4 -1.3,-1.3 -2.1,-5.1 -2.1,-5.1 l -5.5,0.5 c 0,0 0,3.4 -0.6,6.3 v 0 c 0,0 0,0 0,0 -0.1,0.2 -0.1,0.5 -0.2,0.7 -0.8,3.1 1.5,10.1 1.5,10.1 z"
   id="path2134"
   style="fill:#de9a80" />

					<path
   class="st77"
   d="m 345,10808.9 c 0.1,0.2 7.3,16.3 9.2,19.1 0.4,-1.5 0.8,-3 1.3,-4.4 0,0 0,0 0,0 0,0 -10.2,-14.4 -10.5,-14.7 z"
   id="path2136"
   style="fill:#afb2b4" />

					<path
   d="m 344.8,10911.4 h 1.3 v -5.4 c 1.1,0.1 4.6,3.5 5.8,4.5 1.1,1 2.6,0.9 7.3,1.2 4.7,0.3 5.1,-2.5 4.4,-3.4 -0.7,-1 -3.1,-1.4 -4.4,-2 -5,0.3 -11.1,-6.8 -14,-6.7 -1.6,0 -1.5,0.9 -1.6,1 v 0 c 0,0 0,0 0,0 -0.1,0.2 -0.1,0.5 -0.2,0.7 -0.9,3.1 1.4,10.1 1.4,10.1 z"
   id="path2138" />

					<path
   d="m 383.6,10912.6 h 1.5 c 0,0 -0.5,-5.8 0.9,-5.9 1.4,-0.1 4.9,4.7 7,5.5 2.1,0.7 12.9,1.4 13,-0.6 0.1,-2 -4.1,-2.8 -5.5,-3.4 -4.5,0 -11.7,-4.9 -13.9,-5.9 -2.2,-1 -4.7,-0.4 -4.7,-0.4 -0.1,0.9 -0.2,1.8 -0.2,2.4 0,2.2 1.9,8.3 1.9,8.3 z"
   id="path2140" />

					<path
   class="st76"
   d="m 352.2,10728 c 0,0 -2.3,6.1 -0.5,10.9 0,0 -8.5,-0.6 -8.8,-1.5 -0.3,-1 0.3,-10.2 -0.8,-12.9 -1.3,-2.8 10.1,3.5 10.1,3.5 z"
   id="path2142"
   style="fill:#de9a80" />

					<path
   d="m 353,10736.8 c 0,0 5,1.8 7.3,2.3 2.3,0.5 7,2.7 6.6,11.2 -0.4,8.5 -1.8,15.8 -2.3,19.4 -0.5,3.6 -0.2,12.9 0.6,17.4 0,0 -12,3 -26.2,0 0,0 2.5,-7.7 2.4,-9.6 -0.1,-2 -8.4,-18.3 -8.7,-20.9 -0.4,-2.6 -2.1,-13.9 1.7,-16.4 3.8,-2.5 6.9,-2.2 8.5,-3.3 1.7,-1.2 7.7,-0.9 10.1,-0.1 z"
   id="path2144" />

					<path
   class="st76"
   d="m 344.8,10703.4 c 3.4,-1.2 12.6,-2.4 15,11.7 2.4,14.2 -2.8,14.4 -8.1,14 -5.3,-0.4 -13.6,-10 -14.2,-12.9 -0.6,-2.8 -2.5,-9.4 7.3,-12.8 z"
   id="path2146"
   style="fill:#de9a80" />

					<path
   d="m 357.9,10708.9 c 0,0 -2.8,6 -6.5,8.1 0,0 -2.3,6.4 -7.3,9 0,0 -13.3,-8.8 -5.6,-19.3 7.7,-10.5 18.5,-2.1 19.4,2.2 z"
   id="path2148" />

					<path
   class="st76"
   d="m 351.7,10714.9 c -0.3,-0.7 -2.3,-1.9 -3.2,0.1 -0.9,2 2.3,5.6 3.2,5.4 0.9,-0.2 1.1,-2.7 0,-5.5 z"
   id="path2150"
   style="fill:#de9a80" />

					<path
   d="m 338.9,10708.3 c -0.3,-0.5 -9.1,-4.5 -10.9,4 -1.8,8.5 7.1,18.4 8.7,22.7 1.6,4.3 -0.7,14.2 -0.7,14.2 0,0 5.4,-5.1 7,-10.4 1.7,-5.8 2.3,-20.5 -4.1,-30.5 z"
   id="path2152" />

					<path
   class="st78"
   d="m 338.4,10708 c 0,0 2.7,2.1 3,5.5 0,0 0.5,-2.6 -0.6,-4.2 -1,-1.6 -2.4,-1.3 -2.4,-1.3 z"
   id="path2154"
   style="fill:#d54447" />

					<path
   d="m 367.1,10791.3 c -0.6,-2.1 -1,-4.1 -1.3,-6.1 v 0 c 0,0 -1.4,-2.9 -1.8,-4.3 -0.5,-1.4 -3.9,-18.3 -3.9,-18.3 0,0 -3.5,15.9 7,28.7 z"
   id="path2156" />

					<path
   class="st76"
   d="m 382.3,10792.3 c 0,0 2.6,2.6 3.5,2.9 0.9,0.3 2.5,-1.2 8.6,-1.6 0.5,0 1.5,0.4 1.3,1.1 -0.2,0.7 -2.9,2.6 -4,2.9 -1.1,0.3 -6.5,2.4 -9.1,1.4 -2.6,-1 -4.4,-4.4 -4.4,-4.4 z"
   id="path2158"
   style="fill:#de9a80" />

					<circle
   class="st79"
   cx="493.20001"
   cy="10762"
   r="67.400002"
   id="circle2160"
   style="opacity:0.1;fill:#aaaaaa" />

					
						<linearGradient
   id="linearGradient10605"
   gradientUnits="userSpaceOnUse"
   x1="32.081299"
   y1="10790.254"
   x2="158.3775"
   y2="10790.254"
   gradientTransform="translate(257.2118)">
						<stop
   offset="0"
   style="stop-color:#E78024"
   id="stop10583" />

						<stop
   offset="0.4243"
   style="stop-color:#E78024"
   id="stop10585" />

						<stop
   offset="0.4665"
   style="stop-color:#E78024"
   id="stop10587" />

						<stop
   offset="0.5576"
   style="stop-color:#E78227"
   id="stop10589" />

						<stop
   offset="0.6336"
   style="stop-color:#E68832"
   id="stop10591" />

						<stop
   offset="0.7042"
   style="stop-color:#E69343"
   id="stop10593" />

						<stop
   offset="0.7716"
   style="stop-color:#E5A35B"
   id="stop10595" />

						<stop
   offset="0.8367"
   style="stop-color:#E4B67B"
   id="stop10597" />

						<stop
   offset="0.9"
   style="stop-color:#E2CEA2"
   id="stop10599" />

						<stop
   offset="0.9608"
   style="stop-color:#E0EACF"
   id="stop10601" />

						<stop
   offset="1"
   style="stop-color:#DFFFF0"
   id="stop10603" />

					</linearGradient>

					<path
   style="fill:url(#SVGID_00000157295640629725908140000007347774350568462521_)"
   d="m 298.1,10810.4 112.3,-19.1 c 3.4,-0.6 5.7,-3.8 5.1,-7.2 l -1.5,-8.9 c -0.6,-3.4 -3.8,-5.7 -7.2,-5.1 l -112.3,19.1 c -3.4,0.6 -5.7,3.8 -5.1,7.2 l 1.5,8.9 c 0.6,3.4 3.8,5.7 7.2,5.1 z"
   id="path2185" />

					<path
   class="st81"
   d="m 449.2,10713.1 c 0,0 85.4,-10.6 102.4,79.6 0,0 0,0 0,0 4.9,-9.2 7.7,-19.7 7.7,-30.9 0,-36.4 -29.5,-65.8 -65.8,-65.8 -17,0 -32.6,6.5 -44.3,17.1 z"
   id="path2187"
   style="opacity:0.3" />

					<path
   d="m 493.2,10683.8 c -43.2,0 -78.2,35 -78.2,78.2 0,43.2 35,78.2 78.2,78.2 43.2,0 78.2,-35 78.2,-78.2 0,-43.2 -35,-78.2 -78.2,-78.2 z m 0,143.7 c -36.2,0 -65.5,-29.3 -65.5,-65.5 0,-36.2 29.3,-65.5 65.5,-65.5 36.2,0 65.5,29.3 65.5,65.5 0,36.2 -29.3,65.5 -65.5,65.5 z"
   id="path2189" />

					<path
   d="m 361.7,10739.5 c 0,0 7,2.8 7.5,12.6 0.4,9.8 0.8,14.9 1.2,16.4 0.4,1.5 1.1,7.6 2.9,11.2 1.7,3.5 13,14.7 13,14.7 l -5.5,5.1 c 0,0 -15.7,-15.8 -16.7,-18.6 -1,-2.9 -4.9,-22.9 -5.2,-26.3 -0.3,-2.7 -3.9,-14.9 2.8,-15.1 z"
   id="path2191" />

					<path
   class="st10"
   d="m 339,10832.4 c 0.7,4.4 0,10.1 -1.4,26.1 -1.4,16 2.4,35.4 2.4,35.4 4.7,1.6 10.2,0 10.2,0 -0.1,-1.1 0,-39 0,-42.4 0,-3.4 1,-7.2 1.2,-11.1 0.2,-2.6 1.4,-7.5 2.8,-12.5 0.4,-1.5 0.8,-3 1.3,-4.4 0,0 0,0 0,0 0.2,-0.8 0.5,-1.6 0.7,-2.4 1.9,-6.7 4.6,-32.8 4.6,-32.8 0,0 -14.5,-11.7 -21.6,-0.7 -7.1,11 -3.4,19 -3.2,20.4 0.2,1.4 2.3,20 3,24.4 z"
   id="path2193"
   style="fill:#b1b1b1" />

					<path
   class="st10"
   d="m 365,10789.2 c 0,0 2.1,4.9 2.2,6.1 0.2,1.2 5,12.9 6.4,20.8 0.8,4.7 3.1,19.4 3.3,21.3 0.3,3.2 1.8,10.3 2.1,13.6 0.1,1.8 9.1,29.9 11.3,44.6 0,0 -5.2,0.8 -9.1,-0.3 0,0 -7.9,-15.2 -12.3,-36.7 -2.6,-13 -5,-19.9 -7,-25.2 -2.1,-5.3 -13.7,-20.4 -14.9,-22.1 -1.2,-1.7 -8.8,-11.1 -1.6,-21.2 7.2,-10.2 19.6,-0.9 19.6,-0.9 z"
   id="path2195"
   style="fill:#b1b1b1" />

					<path
   d="m 333.6,10800.3 c 20.5,5.5 36.9,0 36.9,0 -1.5,-3.1 -2.6,-6.1 -3.4,-9.1 0,0 0,0 0,0 -0.6,-2.1 -1,-4.1 -1.3,-6.1 v 0 c -1.7,-11.2 0.5,-19.8 0.5,-19.8 -2.4,-19.5 -31.9,-25.3 -34.3,-19.2 -2.4,6.2 4.6,32.8 4.9,35 0.5,2.5 -3.3,19.2 -3.3,19.2 z"
   id="path2197" />

				</g>

				<g
   id="g2307">
					<g
   id="g2203">
						<polygon
   class="st82"
   points="774.3,10726.4 789.6,10754.7 770.2,10765.4 750.7,10734.6 "
   id="polygon2201"
   style="fill:#292d46" />

					</g>

					<g
   id="g2207">
						<polygon
   class="st83"
   points="774.1,10727.3 788.4,10753.8 770.2,10763.7 752,10735 "
   id="polygon2205"
   style="fill:#d4c4bd" />

					</g>

					<g
   id="g2211">
						<path
   class="st76"
   d="m 795.1,10748.4 c 0,0 -3.4,-1.6 -4.9,-2.5 -1.5,-0.8 -5.3,-2 -5.6,-2.3 -0.3,-0.3 -11.3,-1 -12,-1.5 -0.7,-0.6 -1.3,1.4 1.5,2 2.9,0.6 6.8,2.2 7,3.3 0.2,1.1 -2.9,1.4 -3.3,2.3 -0.3,0.9 0.1,0.7 0.5,0.9 0.5,0.2 3.7,-1.6 5.2,-1.1 1.5,0.5 3.7,-0.2 4.8,0.2 1.1,0.4 6.5,2.2 6.5,2.2 z"
   id="path2209"
   style="fill:#de9a80" />

					</g>

					<g
   id="g2215">
						<path
   class="st84"
   d="m 789,10750.8 -1.7,-0.6 c 0,0 2.2,-5.1 3.1,-5 1.1,0.1 2.5,0.5 2.5,0.5 z"
   id="path2213"
   style="fill:#dccac2" />

					</g>

					<g
   id="g2219">
						<path
   class="st85"
   d="m 788.6,10751.6 c 0.2,-0.2 3.7,-6.8 3.7,-6.8 l 7.4,1 -4,7.9 z"
   id="path2217"
   style="fill:#cb8c60" />

					</g>

					<g
   id="g2223">
						<path
   class="st76"
   d="m 769.3,10761.5 c 0,0 -2.8,-2.6 -4.2,-3.6 -1.4,-1.1 -4,-4.2 -4.3,-4.4 -0.4,-0.2 -5.3,-10.3 -6.1,-10.7 -0.8,-0.4 0.8,-1.8 2.5,0.7 1.7,2.4 4.7,5.6 5.8,5.4 1.1,-0.2 0.2,-3.3 0.9,-4 0.7,-0.7 0.7,-0.2 1.1,0.2 0.4,0.3 -0.1,4.2 1,5.3 1.1,1.1 1.2,3.5 2,4.4 0.8,0.9 4.6,5.3 4.6,5.3 z"
   id="path2221"
   style="fill:#de9a80" />

					</g>

					<g
   id="g2227">
						<path
   class="st86"
   d="m 830.5,10898.3 c 0,0 0.6,4.3 0.7,4.9 0.1,0.6 6.8,-0.4 6.8,-0.4 l 0.5,-5.1 c 0.1,0.1 -7.2,0 -8,0.6 z"
   id="path2225"
   style="fill:#424872" />

					</g>

					<g
   id="g2233">
						<g
   id="g2231">
							<path
   d="m 831.1,10902.7 c 0,0 -2.1,2.6 -4.2,3.7 -2.1,1.1 -5.3,1.6 -6.6,2.7 -0.9,0.8 -3.2,4.4 5.4,4.4 8.6,-0.1 12.8,0.5 13.7,-0.9 0.9,-1.4 -1.3,-10.2 -1.3,-10.2 0,0 -2.1,0.7 -7,0.3 z"
   id="path2229" />

						</g>

					</g>

					<g
   id="g2237">
						<path
   class="st86"
   d="m 782,10898.3 c 0,0 0.6,4.3 0.7,4.9 0.1,0.6 6.8,-0.4 6.8,-0.4 l 0.5,-5.1 c 0.1,0.1 -7.1,0 -8,0.6 z"
   id="path2235"
   style="fill:#424872" />

					</g>

					<g
   id="g2241">
						<path
   d="m 782.6,10902.7 c 0,0 -2.1,2.6 -4.2,3.7 -2.1,1.1 -9.7,2 -10.9,3.2 -0.9,0.8 -2.4,4.2 9.8,3.9 8.6,-0.2 12.8,0.5 13.7,-0.9 0.9,-1.4 -1.3,-10.2 -1.3,-10.2 0,0 -2,0.8 -7.1,0.3 z"
   id="path2239" />

					</g>

					<g
   id="g2247">
						<g
   id="g2245">
							<path
   d="m 824.9,10786.4 c 0,0 6.4,10.1 5.9,19.2 -0.5,9.1 2.3,19.1 3.3,28.6 1.1,10.6 5.4,35.8 5.6,41.5 0.2,5.7 -0.7,23.9 -0.7,23.9 l -8.7,0.2 c 0,0 -7.3,-44 -9.2,-48.5 -1.9,-4.5 -11.3,-36.5 -11.6,-40.1 -0.4,-3.5 15.4,-24.8 15.4,-24.8 z"
   id="path2243" />

						</g>

					</g>

					<g
   id="g2253">
						<g
   id="g2251">
							<path
   d="m 791.4,10787.8 c 0,0 -4.8,25 -5.4,30.6 -0.6,5.6 -1.1,27 -1.4,30.5 -0.3,3.5 -2.1,45.7 -3.8,50.9 H 792 c 0,0 8.6,-30.7 8.6,-45.2 0,-14.5 6.6,-31.6 10.9,-41.1 4.3,-9.5 14,-9.8 16.7,-27.6 -0.1,0 -33.2,-3.7 -36.8,1.9 z"
   id="path2249" />

						</g>

					</g>

					<g
   id="g2257">
						<path
   class="st76"
   d="m 814.3,10703.7 c 0,0 -8.5,-3.2 -12.5,3.3 -3.9,6.5 -3.6,19.5 0.7,21.1 4.3,1.6 10.8,0.8 13,-3.3 2.2,-4.1 4.2,-9.9 4.1,-13.9 -0.1,-4 -3.1,-6.1 -5.3,-7.2 z"
   id="path2255"
   style="fill:#de9a80" />

					</g>

					<g
   id="g2261">
						<path
   class="st76"
   d="m 803.5,10728.4 c 0,0 0.4,2.3 -0.2,3.4 -0.6,1.1 11.1,1.2 11.1,1.2 0,0 0.9,-6.2 2.7,-11.4 1.7,-5.2 -13.6,6.8 -13.6,6.8 z"
   id="path2259"
   style="fill:#de9a80" />

					</g>

					<g
   id="g2265">
						<path
   class="st87"
   d="m 817.1,10721.6 c 0,0 -0.8,1.3 -4.1,0.8 -3.3,-0.5 -7.3,-4.9 -8.7,-5.4 -1.4,-0.5 -1.4,-1.3 -1.4,-1.3 l -0.9,1.3 -1.5,0.1 c 0,0 1.3,-3.9 -0.7,-5.5 -2,-1.6 2.1,-12.6 12.6,-9 0,0 8.1,2.2 7.8,6.8 -0.2,4.7 -1.3,9.9 -3.1,12.2 z"
   id="path2263"
   style="fill:#3a3f47" />

					</g>

					<g
   id="g2269">
						<path
   class="st83"
   d="m 802.6,10731.7 c 0,0 0,-2.2 1,-2.4 1,-0.2 10.9,-1.2 12.1,-0.7 v 2.5 c -0.1,0 -2.4,1.5 -13.1,0.6 z"
   id="path2267"
   style="fill:#d4c4bd" />

					</g>

					<g
   id="g2273">
						<path
   class="st76"
   d="m 803.2,10714.1 c 0.2,-0.8 2.1,-3 2.9,-0.6 0.8,2.4 -1.1,5.5 -2.2,5.3 -1.1,-0.3 -1.2,-2.8 -0.7,-4.7 z"
   id="path2271"
   style="fill:#de9a80" />

					</g>

					<g
   id="g2277">
						<path
   class="st88"
   d="m 763.4,10757.3 c 0,0 0,0 0,0 0,0 -0.1,0 0,0 z"
   id="path2275"
   style="fill:#323756" />

					</g>

					<g
   id="g2283">
						<g
   id="g2281">
							<path
   d="m 832.1,10810.5 c 0,0 -5.2,1.5 -14.2,2.5 -8.9,1 -31.2,-0.4 -31.4,-1.4 -0.1,-1.1 4.8,-39.3 4.5,-41.2 -0.3,-2 -0.4,-9 -0.4,-9 -0.1,1.9 -2.1,9.8 -4.4,14 -0.9,1.5 -3.7,6.4 -5.1,5.3 -6.7,-5.3 -17,-25.4 -17.7,-25.6 0.6,-0.2 4.9,-2.2 5.5,-2.4 0.5,-0.2 5.4,4.9 8.3,8.1 1.3,1.4 2.2,2.4 2.2,2.4 0.8,-1.9 3.9,-13.8 4.9,-18 2.2,-9.3 1.8,-9.7 1.8,-9.7 6.5,-2 16.4,-6 16.4,-6 l 13.1,-0.5 c 0,0 12,2.6 16.7,4.8 0.4,0.2 0.5,10.7 1.7,13.5 l -3.9,8.3 c 0,0 -2.3,16.4 -2.7,23.7 -0.2,3.2 4.7,31.2 4.7,31.2 z"
   id="path2279" />

						</g>

					</g>

					<g
   id="g2289">
						<g
   id="g2287">
							<path
   d="m 834.6,10763 c -0.3,1.1 -1.9,2 -2.9,2.4 -0.6,0.3 -1.4,0.3 -2.1,0.2 l -0.5,-0.1 v 0 l -9,-1.7 c 0,0 -2,-22.6 12.2,-28 0.4,0.2 5.4,17.1 2.3,27.2 z"
   id="path2285" />

						</g>

					</g>

					<g
   id="g2293">
						<path
   d="m 831.7,10765.5 v 0 c -0.6,0.3 -1.4,0.3 -2.1,0.2 l -0.5,-0.1 v 0 l 0.9,-11.5 z"
   id="path2291" />

					</g>

					<g
   id="g2297">
						<path
   d="m 779.4,10765.4 -1.1,4.6 c 0,0 -1.2,-4.7 -1.1,-7.1 1.3,1.5 2.2,2.5 2.2,2.5 z"
   id="path2295" />

					</g>

					<g
   id="g2301">
						<path
   class="st87"
   d="m 816.7,10704.4 c 0,0 11.2,-1.3 0.2,17.4 z"
   id="path2299"
   style="fill:#3a3f47" />

					</g>

					<g
   id="g2305">
						<polygon
   class="st82"
   points="768.6,10729.9 759.7,10733 758.5,10731 767.5,10727.9 "
   id="polygon2303"
   style="fill:#292d46" />

					</g>

				</g>

			</g>
  </g>
</svg>
