<?xml version="1.0" encoding="UTF-8" standalone="no"?>
<!-- Created with Inkscape (http://www.inkscape.org/) -->

<svg
   width="810"
   height="585"
   viewBox="0 0 214.3125 154.78125"
   version="1.1"
   id="svg125517"
   inkscape:version="1.2.2 (732a01da63, 2022-12-09)"
   sodipodi:docname="contact-image.svg"
   xmlns:inkscape="http://www.inkscape.org/namespaces/inkscape"
   xmlns:sodipodi="http://sodipodi.sourceforge.net/DTD/sodipodi-0.dtd"
   xmlns="http://www.w3.org/2000/svg"
   xmlns:svg="http://www.w3.org/2000/svg">
  <sodipodi:namedview
     id="namedview125519"
     pagecolor="#ffffff"
     bordercolor="#000000"
     borderopacity="0.25"
     inkscape:showpageshadow="2"
     inkscape:pageopacity="0.0"
     inkscape:pagecheckerboard="0"
     inkscape:deskcolor="#d1d1d1"
     inkscape:document-units="mm"
     showgrid="false"
     inkscape:zoom="0.84096521"
     inkscape:cx="394.78447"
     inkscape:cy="371.00227"
     inkscape:window-width="1680"
     inkscape:window-height="987"
     inkscape:window-x="-8"
     inkscape:window-y="-8"
     inkscape:window-maximized="1"
     inkscape:current-layer="layer1">
    <sodipodi:guide
       position="0,154.78125"
       orientation="0,810"
       id="guide128112"
       inkscape:locked="false" />
    <sodipodi:guide
       position="214.3125,154.78125"
       orientation="585,0"
       id="guide128114"
       inkscape:locked="false" />
    <sodipodi:guide
       position="214.3125,0"
       orientation="0,-810"
       id="guide128116"
       inkscape:locked="false" />
    <sodipodi:guide
       position="0,0"
       orientation="-585,0"
       id="guide128118"
       inkscape:locked="false" />
  </sodipodi:namedview>
  <defs
     id="defs125514" />
  <g
     inkscape:label="Warstwa 1"
     inkscape:groupmode="layer"
     id="layer1">
    <path
       class="st16"
       d="m 183.43204,40.32024 v 91.33416 c 0,1.5875 -1.16416,2.88396 -2.56645,2.88396 H 49.076623 c -1.42875,0 -2.566458,-1.29646 -2.566458,-2.88396 V 40.32024 c 0,-1.587499 1.164166,-2.883959 2.566458,-2.883959 H 180.86559 c 1.42875,-0.0265 2.56645,1.27 2.56645,2.883959 z"
       id="path38967"
       style="fill:#ffffff;stroke:#1d1d1b;stroke-width:0.976286;stroke-miterlimit:10" />
    <g
       id="g38979"
       transform="matrix(0.26458333,0,0,0.26458333,-227.2542,-484.11038)">
			<path
   class="st17"
   d="m 1527.6,1962.4 v 28 H 971.8 v -28 c 0,-5.8 4.7,-10.5 10.5,-10.5 h 534.9 c 5.7,0 10.4,4.7 10.4,10.5 z"
   id="path38969"
   style="fill:#fc903a" />

			<g
   id="g38977">
				<path
   class="st7"
   d="m 988.8,1971.1 c 0,-2.7 2.2,-4.9 4.9,-4.9 2.7,0 4.9,2.2 4.9,4.9 0,2.7 -2.2,4.9 -4.9,4.9 -2.7,0 -4.9,-2.2 -4.9,-4.9 z"
   id="path38971"
   style="fill:#1d1d1b" />

				<path
   class="st7"
   d="m 1007.9,1971.1 c 0,-2.7 2.2,-4.9 4.9,-4.9 2.7,0 4.9,2.2 4.9,4.9 0,2.7 -2.2,4.9 -4.9,4.9 -2.7,0 -4.9,-2.2 -4.9,-4.9 z"
   id="path38973"
   style="fill:#1d1d1b" />

				<path
   class="st7"
   d="m 1027.6,1971.1 c 0,-2.7 2.2,-4.9 4.9,-4.9 2.7,0 4.9,2.2 4.9,4.9 0,2.7 -2.2,4.9 -4.9,4.9 -2.7,0 -4.9,-2.2 -4.9,-4.9 z"
   id="path38975"
   style="fill:#1d1d1b" />

			</g>

		</g>
    <g
       id="g39033"
       transform="matrix(0.26458333,0,0,0.26458333,-227.2542,-484.11038)">
			<path
   class="st18"
   d="m 1023.7,2234.1 c 0,0 0.7,-8.1 -8.3,-8.1 0,0 2.7,0.7 4.2,2.2 0,0 -5.8,-3.4 -12,1.8 -6.3,5.2 -2.4,18.2 -4.3,20.7 -1.9,2.5 -9.3,3 -8.4,11 0.9,8 23.5,18 22.1,24.6 0,0 8.9,-13 2.5,-19 0,0 3.1,2.9 3.4,6.4 0,0 0.8,-6.8 -3.5,-8.9 -3.8,-1.9 -6.9,-8.9 -6.6,-10.2 0.3,-1.2 10.9,-20.5 10.9,-20.5 z"
   id="path38981"
   style="fill:#2b3a66" />

			<path
   class="st19"
   d="m 1014.8,2272.9 c 0,0 6.7,27.9 13.4,33.5 4,3.4 15.8,11 15.8,11 l -4.9,1.8 c 0,0 -16.4,-5.5 -20.1,-9.9 -3.7,-4.3 -13.7,-26 -13.7,-26 z"
   id="path38983"
   style="fill:#fcad78" />

			<path
   class="st7"
   d="m 951.4,2321.9 c 0.1,0.1 0.1,0.2 0.2,0.3 1.5,2.6 4.9,8.8 8.6,15.7 1.8,3.3 3.6,6.7 5.4,9.9 3,5.5 5.8,10.4 7.4,13 1.6,2.6 2.8,4.5 3.3,5.2 0,0 0,0 0,0 0.1,0.2 0.2,0.5 0.2,0.8 -0.2,2.3 -0.1,4.6 0.1,6.9 2.2,22.4 17.3,34.4 17.3,34.4 l 4.5,0.7 c 0,0 -6.3,-23.5 -8.2,-36.8 -0.3,-2.3 -0.5,-4.1 -0.3,-5.3 0.3,-3.5 -0.3,-8.6 -1.4,-14.4 -2.1,-10.4 -5.9,-23.1 -9.2,-33.3 -0.2,-0.7 -6.5,-23.5 -6.5,-23.5 -5.3,4.6 -24.6,6.5 -24.6,6.5 0,0 -3.5,8 3.2,19.9 z"
   id="path38985"
   style="fill:#1d1d1b" />

			<path
   class="st7"
   d="M 1007.7,2414.5 H 989 c 0,0 -0.4,-2.9 0.5,-5 0.9,-2.1 2.3,-2.1 0.2,-5.4 1.2,1.2 5,1.7 7.7,1.4 0.3,0.5 2.1,4.1 3.2,4.9 1.3,0.8 6.8,0.5 7.1,4.1 z"
   id="path38987"
   style="fill:#1d1d1b" />

			<path
   class="st7"
   d="m 951.4,2321.9 c 0.1,0.1 0.1,0.2 0.2,0.3 1.5,2.6 9.5,17.3 13.2,24.2 -4.3,-17.8 -1.3,-35.6 -1.3,-35.6 z"
   id="path38989"
   style="fill:#1d1d1b" />

			<path
   class="st18"
   d="m 1021.1,2233 c 0.1,-0.5 -10.7,4.9 -11.2,5.5 -5.1,5.6 -3.6,13 -0.7,13 1.9,0 1.5,3.1 1.5,3.1 l 20.7,-8.8 c 0,0.1 -2.5,-14.5 -10.3,-12.8 z"
   id="path38991"
   style="fill:#2b3a66" />

			<path
   class="st17"
   d="m 1014.2,2268.7 c 0,0 3.2,6.3 2.8,11.4 0,0 -3.8,6 -13.7,7.5 0,0.1 8.4,-18.9 10.9,-18.9 z"
   id="path38993"
   style="fill:#fc903a" />

			<path
   class="st7"
   d="m 966,2303.5 0.1,-3.5 c -7,0.9 -24.1,-8.3 -24.1,-8.3 0,0 -7.3,4.9 -8.3,18.7 -0.5,6.8 -3.6,35.4 -3.9,43.9 -0.1,3.1 -0.2,5.3 -0.2,6.2 0,0 0,0 0,0 0,0.3 -0.1,0.5 -0.3,0.7 -1.4,1.8 -2.7,3.8 -3.8,5.8 -10.6,19.8 -5.1,46.7 -5.1,46.7 l 2.5,-0.6 c 0,0 9,-27.9 14.9,-40 1,-2 1.9,-3.6 2.7,-4.6 2.2,-2.7 4.5,-7.2 6.8,-12.7 4.4,-10.4 18.7,-52.3 18.7,-52.3 z"
   id="path38995"
   style="fill:#1d1d1b" />

			<path
   class="st7"
   d="m 935.4,2414.5 h -18.7 c 0,0 -0.4,-2.9 0.5,-5 0.9,-2.1 2.4,-3 2.1,-5.5 1.2,1.2 3.1,2.6 5.8,2.2 0.3,0.5 2.1,3.4 3.2,4.2 1.2,0.8 6.7,0.5 7.1,4.1 z"
   id="path38997"
   style="fill:#1d1d1b" />

			<path
   class="st17"
   d="m 1002,2291.7 c -2.5,0.4 0.4,2.4 -3,2.8 -4.9,0.5 -10,0.9 -12.7,2 -1,0.4 -1.6,0.9 -1.8,1.5 -1.2,3.5 -8.5,9.4 -8.5,9.4 -32.6,-1.5 -34.7,-16 -34.7,-16 21.2,-20.6 39.2,-31.8 54,-33.1 3.6,-0.3 8.5,0.1 10.8,1.1 5.2,2.3 8.1,9.4 8.1,9.4 0,0 -2.7,21.3 -12.2,22.9 z"
   id="path38999"
   style="fill:#fc903a" />

			<path
   class="st20"
   d="m 998.9,2294.5 c -4.9,0.5 -10,0.9 -12.7,2 -1.1,-16.3 6.6,-28.5 6.6,-28.5 0,0 5.1,20.3 6.1,26.5 z"
   id="path39001"
   style="fill:#f97622" />

			<path
   class="st19"
   d="m 1005.8,2260.7 c 0.9,2.9 4,11.2 8.3,8 -0.1,-0.6 0.8,-2.4 1.8,-4.3 1.4,-2.3 3,-4.7 3,-4.7 l -7,-6.1 -0.4,-0.4 c -1.8,3.2 -3.6,4.7 -5.2,5.9 -0.4,0.4 -0.6,1 -0.5,1.6 z"
   id="path39003"
   style="fill:#fcad78" />

			<path
   class="st21"
   d="m 1019,2259.7 c 0,0 -1.6,2.4 -3,4.7 -4.4,-2.7 -4.4,-8.1 -4,-10.9 z"
   id="path39005"
   style="fill:#f69259" />

			<path
   class="st19"
   d="m 1019.2,2262.8 c 0,0 -10.6,-5.9 -6.8,-12.4 3.8,-6.5 4.9,-11.7 11.8,-8.2 6.9,3.5 6.8,6.7 6,9.2 -0.7,2.5 -8.2,12.8 -11,11.4 z"
   id="path39007"
   style="fill:#fcad78" />

			<path
   class="st18"
   d="m 1032,2247.6 c -0.5,-2.9 -2,-3.2 -3,-3 -3.9,-6.5 -10.3,-3.9 -10.3,-3.9 -3.4,4.3 -8.3,5 -8.3,5 0,0 1.2,2.3 6.3,3.7 1.5,0.4 3.3,0.2 5,-0.4 -3.5,2 -7.2,2.7 -7.2,2.7 6.7,0.6 13,-5.5 13.7,-6.1 0.3,0.9 0.8,2.9 0.5,4.4 -0.4,2 -2.2,5.5 -1.1,6 0,-0.1 5.2,-4.1 4.4,-8.4 z"
   id="path39009"
   style="fill:#2b3a66" />

			<g
   id="g39023">
				
					<rect
   x="1049"
   y="2349.5"
   transform="matrix(0.8989,0.4382,-0.4382,0.8989,1145.1578,-240.16)"
   class="st7"
   width="87.800003"
   height="23"
   id="rect39011"
   style="fill:#1d1d1b" />

				<g
   id="g39015">
					<path
   class="st7"
   d="m 1023.7,2356.4 c -7.2,-3.5 -12.4,-10.1 -14.1,-18 -0.7,-3.2 1.3,-6.4 4.5,-7.1 3.2,-0.7 6.4,1.3 7.1,4.5 0.9,4.3 3.8,7.9 7.7,9.8 7.1,3.5 15.7,0.5 19.2,-6.6 3.5,-7.1 0.5,-15.7 -6.6,-19.2 -3.2,-1.6 -6.9,-1.9 -10.4,-0.9 -3.1,0.9 -6.4,-0.9 -7.4,-4 -0.9,-3.1 0.9,-6.4 4,-7.4 6.3,-1.9 13,-1.3 18.9,1.6 13,6.3 18.4,22.1 12.1,35.1 -6.3,13.2 -22,18.6 -35,12.2 z"
   id="path39013"
   style="fill:#1d1d1b" />

				</g>

				<g
   id="g39019">
					<path
   class="st7"
   d="m 1135.4,2410.9 c -13,-6.3 -18.4,-22.1 -12.1,-35.1 6.3,-13 22.1,-18.4 35.1,-12.1 5.9,2.9 10.5,7.8 12.9,13.9 1.2,3 -0.3,6.5 -3.3,7.7 -3,1.2 -6.5,-0.3 -7.7,-3.3 -1.3,-3.3 -3.8,-6 -7.1,-7.6 -7.1,-3.5 -15.7,-0.5 -19.2,6.6 -3.5,7.1 -0.5,15.7 6.6,19.2 4,1.9 8.5,1.9 12.5,0 3,-1.4 6.5,-0.2 7.9,2.8 1.4,3 0.2,6.5 -2.8,7.9 -7.3,3.5 -15.6,3.5 -22.8,0 z"
   id="path39017"
   style="fill:#1d1d1b" />

				</g>

				<path
   class="st22"
   d="m 1109,2372.2 -41.6,-20.3 c -1.2,-0.6 -1.7,-2 -1.1,-3.2 l 1.1,-2.2 c 0.6,-1.2 2,-1.7 3.2,-1.1 l 41.6,20.3 c 1.2,0.6 1.7,2 1.1,3.2 l -1.1,2.2 c -0.6,1.2 -2,1.7 -3.2,1.1 z"
   id="path39021"
   style="fill:#ebe9e6" />

			</g>

			<path
   class="st19"
   d="m 1013.1,2335.4 c 0,0 0.2,2 1.1,3 0.8,1 3.3,3.5 3.3,4.9 0,0 -0.1,0.6 -0.6,0.5 -0.5,-0.1 -2.3,-1.9 -3.3,-1.8 0,0 0.5,2.9 1,3.7 0.5,0.8 1.4,3.9 1.1,4.6 -0.3,0.7 -5.2,-3.4 -6.7,-5.4 -1.5,-2 0,-10.1 0,-10.1 z"
   id="path39025"
   style="fill:#fcad78" />

			<path
   class="st19"
   d="m 1003.2,2265.2 c 0,0 -12.4,-0.7 -14.6,7.1 -2.2,7.8 4.1,38.8 5.5,42 2.5,5.8 14.6,22.5 14.6,22.5 l 4.4,-1.4 c 0,0 -8.1,-25.4 -9.9,-27.9 -2.8,-4 3.7,-38.9 0,-42.3 z"
   id="path39027"
   style="fill:#fcad78" />

			<path
   class="st17"
   d="m 986.2,2282.7 c 0,0.2 11.7,2.1 19,-1.6 0,0 6.1,-19.1 -2.6,-18.2 -8.7,0.9 -13.9,3.7 -14.1,7.8 -0.3,4.2 -2.3,12 -2.3,12 z"
   id="path39029"
   style="fill:#fc903a" />

			<path
   class="st19"
   d="m 1037.9,2305 c -0.6,0 -1.7,0.2 -2.1,0.5 -0.7,0.5 -1.4,1.4 0.1,2.2 2.3,1.1 6.8,0.6 6.6,-0.1 -0.5,-2.1 -1.3,-2.8 -4.6,-2.6 z"
   id="path39031"
   style="fill:#fcad78" />

		</g>
    <g
       id="g39089"
       transform="matrix(0.26458333,0,0,0.26458333,-227.2542,-484.11038)">
			<path
   class="st19"
   d="m 1103.1,2000.5 c -0.6,0.7 -0.7,1.4 -0.4,2.3 0,0 0,0 0,0 0.5,1.5 2.4,3.2 4.4,4.9 0.3,0.2 0.5,0.4 0.7,0.6 0.1,0 0.1,0.1 0.2,0.1 0,0 0.1,0.1 0.1,0.1 2,1.8 1.2,2.2 4.7,5.9 4,4.2 6.8,4.2 7.5,3.9 0.7,-0.3 -0.7,-2.5 -2.2,-5 -0.1,-0.1 -0.1,-0.2 -0.2,-0.4 -0.2,-0.3 -0.4,-0.7 -0.6,-1 -1.8,-3 -1.3,-4.4 -0.9,-8.8 0.3,-3.6 5.6,-20.2 5.6,-20.2 l -7.7,-1.3 c 0,0 -2.3,13.2 -4.9,15.2 -1.4,1.1 -2.9,1.1 -4.2,1.9 -0.1,0.1 -0.2,0.1 -0.3,0.2 -0.4,0.4 -1.2,0.9 -1.8,1.6 z"
   id="path39035"
   style="fill:#fcad78" />

			<path
   class="st23"
   d="m 1103.1,2000.5 c -0.6,0.7 -0.7,1.4 -0.4,2.3 0,0 0,0 0,0 0.7,1.5 2.4,3.2 4.5,4.9 0.3,0.2 0.5,0.4 0.7,0.6 0.1,0 0.1,0.1 0.2,0.1 0,0 0.1,0.1 0.1,0.1 2,1.8 1.2,2.2 4.7,5.9 4,4.2 6.8,4.2 7.5,3.9 0.7,-0.3 -0.7,-2.5 -2.2,-5 -0.8,-0.3 -4.4,-1.8 -7.1,-5.3 -2.4,-3.1 -4,-7 -5.7,-9.3 -0.1,0.1 -0.2,0.1 -0.3,0.2 -0.6,0.4 -1.4,0.9 -2,1.6 z"
   id="path39037"
   style="fill:#1f3964" />

			<path
   class="st19"
   d="m 1165,1995.7 c 0.5,2.4 3.9,2 7.6,1.1 3.8,-0.9 2.9,0.2 8.2,-0.4 5.4,-0.6 7,-2.6 7.2,-3.4 0.1,-0.7 -2.5,-1 -5.4,-1.3 -0.4,0 -0.7,-0.1 -1.1,-0.1 -3.2,-0.4 -5.6,-2.5 -8.5,-4.2 -2.8,-1.6 -6.9,-8.2 -6.9,-8.2 l -7.4,0.6 c 0,0 3.9,5.9 5.4,8.4 0.9,1.5 0.8,3.5 0.7,5 0.1,0.8 0.1,1.7 0.2,2.5 z"
   id="path39039"
   style="fill:#fcad78" />

			<path
   class="st23"
   d="m 1172.6,1996.8 c 3.8,-0.9 2.9,0.2 8.2,-0.4 5.4,-0.6 7,-2.6 7.2,-3.4 0.1,-0.7 -2.5,-1 -5.4,-1.3 v 0.1 c 0,0 -3.2,2.3 -7.7,2.4 -3.6,0.1 -7.5,-1 -10,-0.9 -0.1,0.8 -0.1,1.7 0.1,2.5 0.5,2.3 3.9,1.9 7.6,1 z"
   id="path39041"
   style="fill:#1f3964" />

			<path
   class="st18"
   d="m 1136.8,1948.6 -6.9,18.5 -9,24.2 c 0,0 -2.4,0.2 -4.8,-0.4 -2.2,-0.6 -4.6,-2.2 -4.6,-2.2 0,0 2.5,-26 7.2,-40.9 1.2,-3.8 2.5,-6.9 4,-8.7 7.2,-8.5 14.1,9.5 14.1,9.5 z"
   id="path39043"
   style="fill:#2b3a66" />

			<path
   class="st7"
   d="m 1129.8,1919.2 c -4.5,-1.5 -17.4,0.4 -30.3,2.9 l -2.7,-4.5 -27.9,-2.2 c 0,0 -9.2,20.4 -4.2,33.4 0.7,1.9 2.2,3.1 4.7,3.2 0,0 0.4,0 0.4,0 0,0 16.6,0 22,0 13.9,0 29.4,-9.5 31.4,-9.9 0.6,-0.1 5.3,7.4 7.9,12.8 3.3,6.9 30.8,30.5 30.8,30.5 0,0 4.2,0 6,-0.6 1.9,-0.7 2.6,-1.6 2.6,-1.6 0,0 -30.5,-60.7 -40.7,-64 z"
   id="path39045"
   style="fill:#1d1d1b" />

			<path
   class="st7"
   d="m 1087.5,1832.7 c -3.9,-1 -9.3,0 -10.2,0.1 -10.6,1 -14.2,12.9 -12.6,22.1 1.5,8.5 -2.8,10.8 -7.8,17.5 -10,13.4 -3.5,24.8 4.4,27.7 4.7,1.8 11.3,-2.7 11.3,-2.7 0.1,0 20.6,-13.5 29.1,-21.1 14.1,-5.4 -4.2,-41 -14.2,-43.6 z"
   id="path39047"
   style="fill:#1d1d1b" />

			<path
   class="st19"
   d="m 1089.1,1871.6 c 0.3,1 -4.4,2.8 -7.9,2.1 -3.3,-0.6 -7.1,-4.5 -6.3,-4.9 1.3,-0.6 2.1,-2.1 1.4,-10.3 l 0.6,0.1 10.7,1.2 c 0,0 0,3.3 0.3,6.4 0.2,2.7 0.8,3.8 1.2,5.4 z"
   id="path39049"
   style="fill:#fcad78" />

			<path
   class="st24"
   d="m 1087.6,1859.8 c 0,0 0,3.3 0.3,6.4 -5.9,0.3 -9.4,-4.8 -11,-7.7 z"
   id="path39051"
   style="fill:#f69156" />

			<path
   class="st19"
   d="m 1089.8,1862.6 c 0,0 -13.9,1.4 -14.6,-7.3 -0.7,-8.7 -3,-14.3 5.8,-15.6 8.8,-1.2 10.8,1.9 11.8,4.8 1,2.9 0.6,17.5 -3,18.1 z"
   id="path39053"
   style="fill:#fcad78" />

			<path
   class="st7"
   d="m 1087.6,1839.1 c 0,0 -1.7,10.6 -9.7,13.1 -5.8,1.8 -8.4,0.6 -8.4,0.6 0,0 2.8,-3.7 3.8,-8.8 0.3,-1.5 1.4,-2.8 2.8,-3.2 4.2,-1.3 9.1,-5 11.5,-1.7 z"
   id="path39055"
   style="fill:#1d1d1b" />

			<path
   class="st7"
   d="m 1085.7,1840.7 c 0,0 1.9,1.3 4.2,4.7 1.3,1.8 3.5,5.7 3.2,7.8 0,0 2.4,-9.8 -1.1,-13.4 -3.7,-3.9 -6.3,0.9 -6.3,0.9 z"
   id="path39057"
   style="fill:#1d1d1b" />

			<path
   class="st17"
   d="m 1064.1,1900 c 0.2,1.1 0.5,2 0.6,2.9 0.3,1.4 0.5,2.7 0.6,3.8 0.4,3.4 0.3,5.4 0.6,7.7 0.2,1.2 0.5,2.5 1,4.2 0.6,1.6 15.7,3 24.3,2.4 2.7,-0.2 4.8,-0.6 5.5,-1.2 3.1,-2.7 2.8,3.2 3.2,-24.8 0.2,-13.7 -11.6,-25.8 -11.6,-25.8 0,0 -0.9,5.8 -12.6,-1.1 -0.4,-0.2 -5,6.6 -9.5,15 -4.8,9.2 -3.5,11.2 -2.1,16.9 z"
   id="path39059"
   style="fill:#fc903a" />

			<path
   class="st7"
   d="m 1129.2,1967.9 -9,24.2 c 0,0 -2.4,0.2 -4.8,-0.4 -2.2,-0.6 -4.6,-2.2 -4.6,-2.2 0,0 3.2,-26.7 7.2,-40.9 z"
   id="path39061"
   style="fill:#1d1d1b" />

			<path
   class="st17"
   d="m 1088.4,1869.2 c 0,0 12,2 13.4,7.2 1.4,5.2 11.2,34.2 11.2,34.2 0,0 -7.6,2.6 -10.4,-0.2 -2.8,-2.8 -9.8,-26.2 -9.8,-26.2 z"
   id="path39063"
   style="fill:#fc903a" />

			<path
   class="st1"
   d="m 1086.6,1857.5 c 0,0 0.6,1.4 2.1,1.4 1.5,0 2,-0.2 2.2,-0.6 0.3,-0.3 0.6,-1 0.6,-1 0,0 -2.5,-0.4 -4.9,0.2 z"
   id="path39065"
   style="fill:#ffffff" />

			<path
   class="st20"
   d="m 1065.4,1906.7 c 0.4,3.4 0.3,5.4 0.6,7.7 10.9,0 25.5,-8.4 25.5,-8.4 z"
   id="path39067"
   style="fill:#f97622" />

			<path
   class="st20"
   d="m 1091.5,1898.8 c 0,0 -17,-0.5 -19.9,-10.2 -3.2,-10.6 -6.7,4.4 -6.7,4.4 l 1.9,9.6 h 18.7 z"
   id="path39069"
   style="fill:#f97622" />

			<g
   id="g39081">
				<path
   class="st7"
   d="m 1121.1,1872.5 -0.9,-2.3 c -1,-2.4 -3.4,-4 -6,-4 h -17 v 10.8 46 h 70.2 v -46 h -39.7 c -2.9,0 -5.5,-1.8 -6.6,-4.5 z"
   id="path39071"
   style="fill:#1d1d1b" />

				<g
   id="g39079">
					<path
   class="st1"
   d="m 1107.8,1900.7 v -4.1 l 14.3,-6.3 v 4.2 l -10,4.1 10,4.1 v 4.2 z"
   id="path39073"
   style="fill:#ffffff" />

					<path
   class="st1"
   d="m 1137.1,1885.4 h 3.8 l -13.1,27.4 h -3.8 z"
   id="path39075"
   style="fill:#ffffff" />

					<path
   class="st1"
   d="m 1156.9,1896.6 v 4.1 l -14.3,6.3 v -4.2 l 10,-4.1 -10,-4.1 v -4.2 z"
   id="path39077"
   style="fill:#ffffff" />

				</g>

			</g>

			<path
   class="st19"
   d="m 1091.5,1901 1.2,-1.9 c 0,0 1,-0.3 2.3,-1.3 1.6,-1.1 1.4,-2.9 2.2,-2.7 v 3.8 h -0.1 c 3.5,0.9 7.6,-0.1 7.6,0.8 0.2,2.4 -1.6,3.5 -3.2,4.2 -1.2,0.6 -2.5,1.4 -4.7,0.8 -1.6,-0.5 -4,-1 -4,-1 z"
   id="path39083"
   style="fill:#fcad78" />

			<path
   class="st17"
   d="m 1075.7,1868 c 0,0 -11,0.7 -13.8,5 -2.8,4.3 -6.2,26.2 -4.8,33.7 1.4,7.5 36.8,-1.4 36.8,-1.4 l -1.1,-6.5 c 0,0 -20.4,0.1 -21.6,-2.5 -1.5,-3.6 4.5,-28.3 4.5,-28.3 z"
   id="path39085"
   style="fill:#fc903a" />

			<path
   class="st19"
   d="m 1129.1,1877 c -0.1,0.3 1.7,3.2 4.2,2.7 1.6,-0.3 3.6,-3.7 1.8,-4.4 -3,-1.3 -5.8,0.9 -6,1.7 z"
   id="path39087"
   style="fill:#fcad78" />

		</g>
    <g
       id="g39115"
       transform="matrix(0.26458333,0,0,0.26458333,-227.2542,-484.11038)">
			<g
   id="g39093">
				
					<rect
   x="1213.8"
   y="1990.1"
   transform="matrix(0.4709,-0.8822,0.8822,0.4709,-1090.5867,2162.3428)"
   class="st25"
   width="87.099998"
   height="0.40000001"
   id="rect39091"
   style="fill:#244f97" />

			</g>

			<g
   id="g39097">
				
					<rect
   x="1404.8"
   y="1942.9"
   transform="matrix(0.7334,-0.6798,0.6798,0.7334,-969.2286,1482.1189)"
   class="st25"
   width="0.40000001"
   height="67.800003"
   id="rect39095"
   style="fill:#244f97" />

			</g>

			<g
   id="g39113">
				<path
   class="st26"
   d="m 1456.8,2016.2 c 0.7,5 -0.7,9.8 -3.4,13.5 -2.8,3.7 -6.9,6.4 -11.8,7 l -206.2,28.3 c -10.5,1.4 -20.3,-5.5 -21.6,-15.5 -0.7,-5 0.8,-9.8 3.9,-13.6 3,-3.8 7.5,-6.5 12.8,-7.2 l 206.2,-28.3 c 9.6,-1.2 18.7,5.8 20.1,15.8 z"
   id="path39099"
   style="fill:#e7f1f9" />

				<path
   class="st17"
   d="m 1456.8,2016.2 c 0.7,5 -0.7,9.8 -3.4,13.5 -2.8,3.7 -6.9,6.4 -11.8,7 l -37.3,5.1 -5,-36.2 37.3,-5.1 c 9.7,-1.3 18.8,5.7 20.2,15.7 z"
   id="path39101"
   style="fill:#fc903a" />

				<g
   id="g39111">
					<g
   id="g39105">
						<path
   class="st1"
   d="m 1434.1,2026 c -0.5,0.1 -0.9,0.1 -1.4,0.1 -2.5,0 -4.8,-1 -6.6,-2.8 -3.6,-3.7 -3.5,-9.6 0.2,-13.2 v 0 c 3.7,-3.6 9.6,-3.5 13.2,0.2 3.6,3.7 3.5,9.6 -0.2,13.2 -1.5,1.4 -3.3,2.3 -5.2,2.5 z m -6.8,-14.8 c -3.1,3 -3.1,7.9 -0.1,11 1.5,1.5 3.4,2.3 5.5,2.3 2.1,0 4,-0.8 5.5,-2.2 3.1,-3 3.1,-7.9 0.1,-11 -3,-3 -7.9,-3.1 -11,-0.1 z"
   id="path39103"
   style="fill:#ffffff" />

					</g>

					
						<rect
   x="1421.3"
   y="2020.9"
   transform="matrix(0.6989,0.7152,-0.7152,0.6989,1878.1379,-406.715)"
   class="st1"
   width="1.5"
   height="12.7"
   id="rect39107"
   style="fill:#ffffff" />

					<path
   class="st1"
   d="m 1414.4,2034.8 v 0 c -0.5,-0.5 -0.5,-1.4 0,-1.9 l 5.4,-5.2 c 0.5,-0.5 1.4,-0.5 1.9,0 v 0 c 0.5,0.5 0.5,1.4 0,1.9 l -5.4,5.2 c -0.5,0.5 -1.4,0.5 -1.9,0 z"
   id="path39109"
   style="fill:#ffffff" />

				</g>

			</g>

		</g>
    <g
       id="g39133"
       transform="matrix(0.26458333,0,0,0.26458333,-227.2542,-484.11038)">
			<path
   class="st17"
   d="m 1110.5,2213.1 h -43.1 c -0.9,0 -1.6,-0.7 -1.6,-1.6 v -0.7 c 0,-0.9 0.7,-1.6 1.6,-1.6 h 43.1 c 0.9,0 1.6,0.7 1.6,1.6 v 0.7 c 0,0.9 -0.7,1.6 -1.6,1.6 z"
   id="path39117"
   style="fill:#fc903a" />

			<g
   id="g39129">
				<path
   class="st7"
   d="m 1088.4,2226.7 h -21.3 c -0.7,0 -1.3,-0.6 -1.3,-1.3 v 0 c 0,-0.7 0.6,-1.3 0.6,-0.6 h 21.3 c 1.5,-0.8 2.1,-0.2 2.1,0.6 v 0 c -0.1,0.7 -0.7,1.3 -1.4,1.3 z"
   id="path39119"
   style="fill:#1d1d1b" />

				<g
   id="g39127">
					<path
   class="st7"
   d="M 1104.7,2221 H 1067 c -0.7,0 -1.2,-0.6 -1.2,-1.2 v -0.2 c 0,-0.7 0.6,-1.2 0.5,-0.5 h 37.6 c 1.4,-0.8 2,-0.2 2,0.5 v 0.2 c 0,0.7 -0.5,1.2 -1.2,1.2 z"
   id="path39121"
   style="fill:#1d1d1b" />

					<path
   class="st7"
   d="M 1145.1,2221.8 H 1110 c -0.7,0 -1.2,-0.5 -1.2,-1.2 v -0.3 c 0,-0.7 0.5,-1.2 1.2,-1.2 h 35.1 c 0.7,0 1.2,0.5 1.2,1.2 v 0.3 c 0,0.6 -0.5,1.2 -1.2,1.2 z"
   id="path39123"
   style="fill:#1d1d1b" />

					<path
   class="st7"
   d="m 1114.2,2227.4 h -21.3 c 0,-0.8 -0.6,-1.4 -0.6,-2.1 v 0 c 0,-0.7 0.6,-1.3 1.3,-1.3 h 21.3 c 0.7,0 1.3,0.6 1.3,1.3 v 0 c 0.1,0.8 -0.5,1.4 -2,2.1 z"
   id="path39125"
   style="fill:#1d1d1b" />

				</g>

			</g>

			<path
   class="st17"
   d="m 1163,2213.1 h -43.1 c -0.9,0 -1.6,-0.7 -1.6,-1.6 v -0.7 c 0,-0.9 0.7,-1.6 1.6,-1.6 h 43.1 c 0.9,0 1.6,0.7 1.6,1.6 v 0.7 c 0,0.9 -0.7,1.6 -1.6,1.6 z"
   id="path39131"
   style="fill:#fc903a" />

		</g>
    <g
       id="g39151"
       transform="matrix(0.26458333,0,0,0.26458333,-227.2542,-484.11038)">
			<path
   class="st17"
   d="m 1110.5,2242.7 h -43.1 c -0.9,0 -1.6,-0.7 -1.6,-1.6 v -0.7 c 0,-0.9 0.7,-1.6 1.6,-1.6 h 43.1 c 0.9,0 1.6,0.7 1.6,1.6 v 0.7 c 0,0.9 -0.7,1.6 -1.6,1.6 z"
   id="path39135"
   style="fill:#fc903a" />

			<g
   id="g39147">
				<path
   class="st7"
   d="m 1088.4,2256.2 h -21.3 c -0.7,0 -1.3,-0.6 -1.3,-1.3 v 0 c 0,-0.7 0.6,-1.3 1.3,-1.3 h 21.3 c 0.7,0 1.3,0.6 1.3,1.3 v 0 c 0,0.7 -0.6,1.3 -1.3,1.3 z"
   id="path39137"
   style="fill:#1d1d1b" />

				<g
   id="g39145">
					<path
   class="st7"
   d="M 1104.7,2250.6 H 1067 c -0.7,0 -1.2,-0.6 -1.2,-1.2 v -0.2 c 0,-0.7 0.6,-1.2 1.2,-1.2 h 37.6 c 0.7,0 1.2,0.6 1.2,1.2 v 0.2 c 0.1,0.7 -0.4,1.2 -1.1,1.2 z"
   id="path39139"
   style="fill:#1d1d1b" />

					<path
   class="st7"
   d="m 1145.8,2250.6 h -35.1 c -0.7,0 -1.2,-0.5 -1.2,-1.2 v -0.3 c 0,-0.7 0.5,-1.2 0.5,-0.5 h 35.1 c 1.4,-0.8 2,-0.2 2,0.5 v 0.3 c -0.1,0.7 -0.6,1.2 -1.3,1.2 z"
   id="path39141"
   style="fill:#1d1d1b" />

					<path
   class="st7"
   d="m 1114.9,2256.2 h -21.3 c -0.7,0 -1.3,-0.6 -1.3,-1.3 v 0 c 0,-0.7 0.6,-1.3 1.3,-1.3 h 21.3 c 0.7,0 1.3,0.6 1.3,1.3 v 0 c 0.1,0.7 -0.5,1.3 -1.3,1.3 z"
   id="path39143"
   style="fill:#1d1d1b" />

				</g>

			</g>

			<path
   class="st17"
   d="m 1163,2242.7 h -43.1 c -0.9,0 -1.6,-0.7 -1.6,-1.6 v -0.7 c 0,-0.9 0.7,-1.6 1.6,-1.6 h 43.1 c 0.9,0 1.6,0.7 1.6,1.6 v 0.7 c 0,0.9 -0.7,1.6 -1.6,1.6 z"
   id="path39149"
   style="fill:#fc903a" />

		</g>
    <g
       id="g39157"
       transform="matrix(0.26458333,0,0,0.26458333,-227.2542,-484.11038)">
			<polygon
   class="st7"
   points="1288.4,2040.3 1334.4,2062.9 1309.8,2068.6 1297.7,2090.7 "
   id="polygon39153"
   style="fill:#1d1d1b" />

			
				<rect
   x="1312.3"
   y="2062.3999"
   transform="matrix(0.797,-0.604,0.604,0.797,-986.655,1215.2124)"
   class="st7"
   width="4.5"
   height="26"
   id="rect39155"
   style="fill:#1d1d1b" />

		</g>
    <g
       id="g39167"
       transform="matrix(0.26458333,0,0,0.26458333,-227.2542,-484.11038)">
			<path
   class="st22"
   d="m 1318.3,2167.1 h -60.5 c -2.4,0 -4.4,-2 -4.4,-4.4 v -60.5 c 0,-2.4 2,-4.4 4.4,-4.4 h 60.5 c 2.4,0 4.4,2 4.4,4.4 v 60.5 c 0.1,2.5 -1.9,4.4 -4.4,4.4 z"
   id="path39159"
   style="fill:#ebe9e6" />

			<g
   id="g39165">
				<path
   class="st7"
   d="m 1262.2,2152.6 13.5,-24.3 c 1.6,-2.8 5.5,-3.1 7.5,-0.5 l 7.8,10.6 c 1.7,2.3 5,2.4 6.8,0.4 v 0 c 2,-2.1 5.4,-1.9 7,0.6 l 8.4,13 c 1.9,2.9 -0.2,6.8 -3.7,6.8 h -43.3 c -3.5,0 -5.6,-3.6 -4,-6.6 z"
   id="path39161"
   style="fill:#1d1d1b" />

				<path
   class="st7"
   d="m 1288.8,2117 c 0,-2.9 2.4,-5.3 5.3,-5.3 2.9,0 5.3,2.4 5.3,5.3 0,2.9 -2.4,5.3 -5.3,5.3 -2.9,0 -5.3,-2.4 -5.3,-5.3 z"
   id="path39163"
   style="fill:#1d1d1b" />

			</g>

		</g>
    <g
       id="g39177"
       transform="matrix(0.26458333,0,0,0.26458333,-227.2542,-484.11038)">
			<path
   class="st22"
   d="m 1407.1,2169 -59.9,8.2 c -2.4,0.3 -4.7,-1.4 -5,-3.8 l -8.2,-59.9 c -0.3,-2.4 1.4,-4.7 3.8,-5 l 59.9,-8.2 c 2.4,-0.3 4.7,1.4 5,3.8 l 8.2,59.9 c 0.3,2.5 -1.4,4.7 -3.8,5 z"
   id="path39169"
   style="fill:#ebe9e6" />

			<g
   id="g39175">
				<path
   class="st7"
   d="m 1349.5,2162.2 10.1,-25.9 c 1.2,-3 5.1,-3.8 7.3,-1.5 l 9.1,9.5 c 1.9,2 5.2,1.7 6.8,-0.6 v 0 c 1.7,-2.4 5.1,-2.6 7,-0.4 l 10.1,11.7 c 2.3,2.7 0.7,6.8 -2.8,7.3 l -42.9,5.9 c -3.3,0.5 -5.9,-2.8 -4.7,-6 z"
   id="path39171"
   style="fill:#1d1d1b" />

				<path
   class="st7"
   d="m 1371.1,2123.3 c -0.4,-2.9 1.6,-5.6 4.5,-6 2.9,-0.4 5.6,1.6 6,4.5 0.4,2.9 -1.6,5.6 -4.5,6 -3,0.4 -5.6,-1.6 -6,-4.5 z"
   id="path39173"
   style="fill:#1d1d1b" />

			</g>

		</g>
    <g
       id="g39185"
       transform="matrix(0.26458333,0,0,0.26458333,-227.2542,-484.11038)">
			<rect
   x="1195.8"
   y="2383.3"
   class="st17"
   width="35"
   height="30"
   id="rect39179"
   style="fill:#fc903a" />

			<rect
   x="1194.4"
   y="2382"
   class="st7"
   width="37.599998"
   height="2.3"
   id="rect39181"
   style="fill:#1d1d1b" />

			<rect
   x="1195.8"
   y="2391.3999"
   class="st27"
   width="35"
   height="9.5"
   id="rect39183"
   style="fill:#fbdabb" />

		</g>
    <path
       class="st17"
       d="m 109.63975,154.40857 h -8.73125 c -0.3175,0 -0.58208,-0.26458 -0.58208,-0.58208 v -0.97896 c 0,-0.34396 0.29104,-0.60854 0.635,-0.58208 l 8.73125,0.97895 c 0.29104,0.0265 0.50271,0.29105 0.50271,0.58209 v 0 c 0.0265,0.3175 -0.23813,0.58208 -0.55563,0.58208 z"
       id="path39187"
       style="fill:#fc903a;stroke-width:0.264583" />
    <path
       class="st28"
       d="M 214.12371,155.17586 0.44620686,155.09646 c -0.13229199,0 -0.264584,-0.13229 -0.264584,-0.29104 v -0.1323 c 0,-0.15875 0.105834,-0.29104 0.264584,-0.29104 l 213.67750314,0.0794 c 0.13229,0 0.26458,0.13229 0.26458,0.29104 v 0.13229 c 0,0.15875 -0.13229,0.29104 -0.26458,0.29104 z"
       id="path39189"
       style="fill:#2d3653;stroke-width:0.264583" />
    <g
       id="g39193"
       transform="matrix(0.26458333,0,0,0.26458333,-227.2542,-484.11038)">
			<path
   class="st7"
   d="m 1215.7,2169.9 h -3.8 c -0.3,0 -0.6,-0.3 -0.6,-0.6 0,-0.3 0.3,-0.6 0.6,-0.6 h 3.8 c 0.3,0 0.6,0.3 0.6,0.6 0,0.3 -0.3,0.6 -0.6,0.6 z m -7.6,0 h -3.8 c -0.3,0 -0.6,-0.3 -0.6,-0.6 0,-0.3 0.3,-0.6 0.6,-0.6 h 3.8 c 0.3,0 0.6,0.3 0.6,0.6 0,0.3 -0.3,0.6 -0.6,0.6 z m -7.6,0 h -3.8 c -0.3,0 -0.6,-0.3 -0.6,-0.6 0,-0.3 0.3,-0.6 0.6,-0.6 h 3.8 c 0.3,0 0.6,0.3 0.6,0.6 0.1,0.3 -0.2,0.6 -0.6,0.6 z m -7.5,0 h -3.8 c -0.3,0 -0.6,-0.3 -0.6,-0.6 0,-0.3 0.3,-0.6 0.6,-0.6 h 3.8 c 0.3,0 0.6,0.3 0.6,0.6 0,0.3 -0.3,0.6 -0.6,0.6 z m -7.6,0 h -3.8 c -0.3,0 -0.6,-0.3 -0.6,-0.6 0,-0.3 0.3,-0.6 0.6,-0.6 h 3.8 c 0.3,0 0.6,0.3 0.6,0.6 0,0.3 -0.2,0.6 -0.6,0.6 z m -7.5,0 h -3.8 c -0.3,0 -0.6,-0.3 -0.6,-0.6 0,-0.3 0.3,-0.6 0.6,-0.6 h 3.8 c 0.3,0 0.6,0.3 0.6,0.6 0,0.3 -0.3,0.6 -0.6,0.6 z m -7.6,0 h -3.8 c -0.3,0 -0.6,-0.3 -0.6,-0.6 0,-0.3 0.3,-0.6 0.6,-0.6 h 3.8 c 0.3,0 0.6,0.3 0.6,0.6 0,0.3 -0.2,0.6 -0.6,0.6 z m -7.5,0 h -3.8 c -0.3,0 -0.6,-0.3 -0.6,-0.6 0,-0.3 0.3,-0.6 0.6,-0.6 h 3.8 c 0.3,0 0.6,0.3 0.6,0.6 0,0.3 -0.3,0.6 -0.6,0.6 z m -7.6,0 h -3.8 c -0.3,0 -0.6,-0.3 -0.6,-0.6 0,-0.3 0.3,-0.6 0.6,-0.6 h 3.8 c 0.3,0 0.6,0.3 0.6,0.6 0,0.3 -0.3,0.6 -0.6,0.6 z m -7.6,0 h -3.8 c -0.3,0 -0.6,-0.3 -0.6,-0.6 0,-0.3 0.3,-0.6 0.6,-0.6 h 3.8 c 0.3,0 0.6,0.3 0.6,0.6 0.1,0.3 -0.2,0.6 -0.6,0.6 z m -7.5,0 h -3.8 c -0.3,0 -0.6,-0.3 -0.6,-0.6 0,-0.3 0.3,-0.6 0.6,-0.6 h 3.8 c 0.3,0 0.6,0.3 0.6,0.6 0,0.3 -0.3,0.6 -0.6,0.6 z m -7.6,0 h -3.8 c -0.3,0 -0.6,-0.3 -0.6,-0.6 0,-0.3 0.3,-0.6 0.6,-0.6 h 3.8 c 0.3,0 0.6,0.3 0.6,0.6 0.1,0.3 -0.2,0.6 -0.6,0.6 z m -7.5,0 h -3.8 c -0.3,0 -0.6,-0.3 -0.6,-0.6 0,-0.3 0.3,-0.6 0.6,-0.6 h 3.8 c 0.3,0 0.6,0.3 0.6,0.6 0,0.3 -0.3,0.6 -0.6,0.6 z m -7.6,0 h -3.8 c -0.3,0 -0.6,-0.3 -0.6,-0.6 0,-0.3 0.3,-0.6 0.6,-0.6 h 3.8 c 0.3,0 0.6,0.3 0.6,0.6 0,0.3 -0.2,0.6 -0.6,0.6 z m -7.5,0 h -3.8 c -0.3,0 -0.6,-0.3 -0.6,-0.6 0,-0.3 0.3,-0.6 0.6,-0.6 h 3.8 c 0.3,0 0.6,0.3 0.6,0.6 0,0.3 -0.3,0.6 -0.6,0.6 z m -7.6,0 h -3.8 c -0.3,0 -0.6,-0.3 -0.6,-0.6 0,-0.3 0.3,-0.6 0.6,-0.6 h 3.8 c 0.3,0 0.6,0.3 0.6,0.6 0,0.3 -0.3,0.6 -0.6,0.6 z m -7.6,0 h -3.8 c -0.3,0 -0.6,-0.3 -0.6,-0.6 0,-0.3 0.3,-0.6 0.6,-0.6 h 3.8 c 0.3,0 0.6,0.3 0.6,0.6 0.1,0.3 -0.2,0.6 -0.6,0.6 z m -7.5,0 h -3.4 c -0.2,0 -0.3,0 -0.4,0 -0.3,0 -0.6,-0.3 -0.6,-0.7 0,-0.3 0.3,-0.6 0.7,-0.6 0.1,0 0.2,0 0.4,0 h 3.4 c 0.3,0 0.6,0.3 0.6,0.6 -0.1,0.4 -0.4,0.7 -0.7,0.7 z m 132,-1.1 c -0.2,0 -0.4,-0.1 -0.5,-0.3 -0.2,-0.3 -0.1,-0.7 0.2,-0.9 1,-0.6 1.7,-1.6 2.1,-2.6 0.1,-0.3 0.5,-0.5 0.8,-0.3 0.3,0.1 0.5,0.5 0.3,0.8 -0.5,1.3 -1.4,2.4 -2.6,3.2 0,0 -0.1,0.1 -0.3,0.1 z m -139.3,-0.2 c -0.1,0 -0.3,0 -0.4,-0.1 -1.1,-0.9 -1.9,-2 -2.4,-3.3 -0.1,-0.3 0.1,-0.7 0.4,-0.8 0.3,-0.1 0.7,0.1 0.8,0.4 0.4,1.1 1,2 1.9,2.7 0.3,0.2 0.3,0.6 0.1,0.9 0,0.1 -0.2,0.2 -0.4,0.2 z m 142.1,-6.4 c -0.3,0 -0.6,-0.3 -0.6,-0.6 v -3.8 c 0,-0.3 0.3,-0.6 0.6,-0.6 0.3,0 0.6,0.3 0.6,0.6 v 3.8 c 0.1,0.3 -0.2,0.6 -0.6,0.6 z m -144.6,-0.4 c -0.3,0 -0.6,-0.3 -0.6,-0.6 v -3.8 c 0,-0.3 0.3,-0.6 0.6,-0.6 0.3,0 0.6,0.3 0.6,0.6 v 3.8 c 0.1,0.3 -0.2,0.6 -0.6,0.6 z m 144.6,-7.2 c -0.3,0 -0.6,-0.3 -0.6,-0.6 v -3.8 c 0,-0.3 0.3,-0.6 0.6,-0.6 0.3,0 0.6,0.3 0.6,0.6 v 3.8 c 0.1,0.3 -0.2,0.6 -0.6,0.6 z m -144.6,-0.4 c -0.3,0 -0.6,-0.3 -0.6,-0.6 v -3.8 c 0,-0.3 0.3,-0.6 0.6,-0.6 0.3,0 0.6,0.3 0.6,0.6 v 3.8 c 0.1,0.3 -0.2,0.6 -0.6,0.6 z M 1222,2147 c -0.3,0 -0.6,-0.3 -0.6,-0.6 v -3.8 c 0,-0.3 0.3,-0.6 0.6,-0.6 0.3,0 0.6,0.3 0.6,0.6 v 3.8 c 0.1,0.4 -0.2,0.6 -0.6,0.6 z m -144.6,-0.3 c -0.3,0 -0.6,-0.3 -0.6,-0.6 v -3.8 c 0,-0.3 0.3,-0.6 0.6,-0.6 0.3,0 0.6,0.3 0.6,0.6 v 3.8 c 0.1,0.3 -0.2,0.6 -0.6,0.6 z m 144.6,-7.2 c -0.3,0 -0.6,-0.3 -0.6,-0.6 v -3.8 c 0,-0.3 0.3,-0.6 0.6,-0.6 0.3,0 0.6,0.3 0.6,0.6 v 3.8 c 0.1,0.3 -0.2,0.6 -0.6,0.6 z m -144.6,-0.4 c -0.3,0 -0.6,-0.3 -0.6,-0.6 v -3.8 c 0,-0.3 0.3,-0.6 0.6,-0.6 0.3,0 0.6,0.3 0.6,0.6 v 3.8 c 0.1,0.3 -0.2,0.6 -0.6,0.6 z m 144.6,-7.2 c -0.3,0 -0.6,-0.3 -0.6,-0.6 v -3.8 c 0,-0.3 0.3,-0.6 0.6,-0.6 0.3,0 0.6,0.3 0.6,0.6 v 3.8 c 0.1,0.4 -0.2,0.6 -0.6,0.6 z m -144.6,-0.4 c -0.3,0 -0.6,-0.3 -0.6,-0.6 v -3.8 c 0,-0.3 0.3,-0.6 0.6,-0.6 0.3,0 0.6,0.3 0.6,0.6 v 3.8 c 0.1,0.4 -0.2,0.6 -0.6,0.6 z m 144.6,-7.1 c -0.3,0 -0.6,-0.3 -0.6,-0.6 v -3.8 c 0,-0.3 0.3,-0.6 0.6,-0.6 0.3,0 0.6,0.3 0.6,0.6 v 3.8 c 0.1,0.3 -0.2,0.6 -0.6,0.6 z m -144.6,-0.4 c -0.3,0 -0.6,-0.3 -0.6,-0.6 v -3.8 c 0,-0.3 0.3,-0.6 0.6,-0.6 0.3,0 0.6,0.3 0.6,0.6 v 3.8 c 0.1,0.3 -0.2,0.6 -0.6,0.6 z m 144.6,-7.2 c -0.3,0 -0.6,-0.3 -0.6,-0.6 v -3.8 c 0,-0.3 0.3,-0.6 0.6,-0.6 0.3,0 0.6,0.3 0.6,0.6 v 3.8 c 0.1,0.3 -0.2,0.6 -0.6,0.6 z m -144.6,-0.4 c -0.3,0 -0.6,-0.3 -0.6,-0.6 v -3.8 c 0,-0.3 0.3,-0.6 0.6,-0.6 0.3,0 0.6,0.3 0.6,0.6 v 3.8 c 0.1,0.4 -0.2,0.6 -0.6,0.6 z m 144.6,-7.1 c -0.3,0 -0.6,-0.3 -0.6,-0.6 v -3.8 c 0,-0.3 0.3,-0.6 0.6,-0.6 0.3,0 0.6,0.3 0.6,0.6 v 3.8 c 0.1,0.3 -0.2,0.6 -0.6,0.6 z m -144.6,-0.4 c -0.3,0 -0.6,-0.3 -0.6,-0.6 v -3.8 c 0,-0.3 0.3,-0.6 0.6,-0.6 0.3,0 0.6,0.3 0.6,0.6 v 3.8 c 0.1,0.3 -0.2,0.6 -0.6,0.6 z m 144.6,-7.2 c -0.3,0 -0.6,-0.3 -0.6,-0.6 v -3.8 c 0,-0.3 0.3,-0.6 0.6,-0.6 0.3,0 0.6,0.3 0.6,0.6 v 3.8 c 0.1,0.3 -0.2,0.6 -0.6,0.6 z m -144.6,-0.4 c -0.3,0 -0.6,-0.3 -0.6,-0.6 v -3.8 c 0,-0.3 0.3,-0.6 0.6,-0.6 0.3,0 0.6,0.3 0.6,0.6 v 3.8 c 0.1,0.3 -0.2,0.6 -0.6,0.6 z m 144.6,-7.1 c -0.3,0 -0.6,-0.3 -0.6,-0.6 v -1.7 c 0,-0.6 -0.1,-1.2 -0.3,-1.8 -0.1,-0.3 0.1,-0.7 0.4,-0.8 0.3,-0.1 0.7,0.1 0.8,0.4 0.2,0.7 0.4,1.5 0.4,2.2 v 1.7 c 0,0.3 -0.3,0.6 -0.7,0.6 z m -144.6,-0.4 c -0.3,0 -0.6,-0.3 -0.6,-0.6 v -1.3 c 0,-0.9 0.2,-1.8 0.5,-2.6 0.1,-0.3 0.5,-0.5 0.8,-0.3 0.3,0.1 0.5,0.5 0.3,0.8 -0.3,0.7 -0.4,1.4 -0.4,2.2 v 1.3 c 0.1,0.2 -0.2,0.5 -0.6,0.5 z m 142.1,-6.4 c -0.1,0 -0.3,0 -0.4,-0.1 -0.9,-0.7 -2,-1.1 -3.1,-1.2 -0.3,0 -0.6,-0.3 -0.6,-0.7 0,-0.3 0.3,-0.6 0.7,-0.6 1.4,0.1 2.7,0.6 3.8,1.4 0.3,0.2 0.3,0.6 0.1,0.9 -0.1,0.2 -0.3,0.3 -0.5,0.3 z m -139.3,-0.2 c -0.2,0 -0.4,-0.1 -0.5,-0.3 -0.2,-0.3 -0.1,-0.7 0.2,-0.9 1.2,-0.8 2.5,-1.2 3.9,-1.2 0,0 0,0 0,0 0.3,0 0.6,0.3 0.6,0.6 0,0.3 -0.3,0.6 -0.6,0.6 -1.2,0 -2.3,0.3 -3.2,1 -0.1,0.1 -0.2,0.2 -0.4,0.2 z m 132.1,-1.1 h -3.8 c -0.3,0 -0.6,-0.3 -0.6,-0.6 0,-0.3 0.3,-0.6 0.6,-0.6 h 3.8 c 0.3,0 0.6,0.3 0.6,0.6 0,0.3 -0.3,0.6 -0.6,0.6 z m -7.6,0 h -3.8 c -0.3,0 -0.6,-0.3 -0.6,-0.6 0,-0.3 0.3,-0.6 0.6,-0.6 h 3.8 c 0.3,0 0.6,0.3 0.6,0.6 0,0.3 -0.2,0.6 -0.6,0.6 z m -7.5,0 h -3.8 c -0.3,0 -0.6,-0.3 -0.6,-0.6 0,-0.3 0.3,-0.6 0.6,-0.6 h 3.8 c 0.3,0 0.6,0.3 0.6,0.6 0,0.3 -0.3,0.6 -0.6,0.6 z m -7.6,0 h -3.8 c -0.3,0 -0.6,-0.3 -0.6,-0.6 0,-0.3 0.3,-0.6 0.6,-0.6 h 3.8 c 0.3,0 0.6,0.3 0.6,0.6 0,0.3 -0.3,0.6 -0.6,0.6 z m -7.6,0 h -3.8 c -0.3,0 -0.6,-0.3 -0.6,-0.6 0,-0.3 0.3,-0.6 0.6,-0.6 h 3.8 c 0.3,0 0.6,0.3 0.6,0.6 0.1,0.3 -0.2,0.6 -0.6,0.6 z m -7.5,0 h -3.8 c -0.3,0 -0.6,-0.3 -0.6,-0.6 0,-0.3 0.3,-0.6 0.6,-0.6 h 3.8 c 0.3,0 0.6,0.3 0.6,0.6 0,0.3 -0.3,0.6 -0.6,0.6 z m -7.6,0 h -3.8 c -0.3,0 -0.6,-0.3 -0.6,-0.6 0,-0.3 0.3,-0.6 0.6,-0.6 h 3.8 c 0.3,0 0.6,0.3 0.6,0.6 0.1,0.3 -0.2,0.6 -0.6,0.6 z m -7.5,0 h -3.8 c -0.3,0 -0.6,-0.3 -0.6,-0.6 0,-0.3 0.3,-0.6 0.6,-0.6 h 3.8 c 0.3,0 0.6,0.3 0.6,0.6 0,0.3 -0.3,0.6 -0.6,0.6 z m -7.6,0 h -3.8 c -0.3,0 -0.6,-0.3 -0.6,-0.6 0,-0.3 0.3,-0.6 0.6,-0.6 h 3.8 c 0.3,0 0.6,0.3 0.6,0.6 0,0.3 -0.2,0.6 -0.6,0.6 z m -7.5,0 h -3.8 c -0.3,0 -0.6,-0.3 -0.6,-0.6 0,-0.3 0.3,-0.6 0.6,-0.6 h 3.8 c 0.3,0 0.6,0.3 0.6,0.6 0,0.3 -0.3,0.6 -0.6,0.6 z m -7.6,0 h -3.8 c -0.3,0 -0.6,-0.3 -0.6,-0.6 0,-0.3 0.3,-0.6 0.6,-0.6 h 3.8 c 0.3,0 0.6,0.3 0.6,0.6 0,0.3 -0.3,0.6 -0.6,0.6 z m -7.6,0 h -3.8 c -0.3,0 -0.6,-0.3 -0.6,-0.6 0,-0.3 0.3,-0.6 0.6,-0.6 h 3.8 c 0.3,0 0.6,0.3 0.6,0.6 0.1,0.3 -0.2,0.6 -0.6,0.6 z m -7.5,0 h -3.8 c -0.3,0 -0.6,-0.3 -0.6,-0.6 0,-0.3 0.3,-0.6 0.6,-0.6 h 3.8 c 0.3,0 0.6,0.3 0.6,0.6 0,0.3 -0.3,0.6 -0.6,0.6 z m -7.6,0 h -3.8 c -0.3,0 -0.6,-0.3 -0.6,-0.6 0,-0.3 0.3,-0.6 0.6,-0.6 h 3.8 c 0.3,0 0.6,0.3 0.6,0.6 0.1,0.3 -0.2,0.6 -0.6,0.6 z m -7.5,0 h -3.8 c -0.3,0 -0.6,-0.3 -0.6,-0.6 0,-0.3 0.3,-0.6 0.6,-0.6 h 3.8 c 0.3,0 0.6,0.3 0.6,0.6 0,0.3 -0.3,0.6 -0.6,0.6 z m -7.6,0 h -3.8 c -0.3,0 -0.6,-0.3 -0.6,-0.6 0,-0.3 0.3,-0.6 0.6,-0.6 h 3.8 c 0.3,0 0.6,0.3 0.6,0.6 0,0.3 -0.2,0.6 -0.6,0.6 z m -7.5,0 h -3.8 c -0.3,0 -0.6,-0.3 -0.6,-0.6 0,-0.3 0.3,-0.6 0.6,-0.6 h 3.8 c 0.3,0 0.6,0.3 0.6,0.6 0,0.3 -0.3,0.6 -0.6,0.6 z"
   id="path39191"
   style="fill:#1d1d1b" />

		</g>
    <g
       id="g39197"
       transform="matrix(0.26458333,0,0,0.26458333,-227.2542,-484.11038)">
			<path
   class="st7"
   d="m 1430.4,2274.7 h -3.4 c -0.3,0 -0.6,-0.2 -0.6,-0.6 0,-0.3 0.2,-0.6 0.6,-0.6 h 3.3 c 0.3,0 0.6,0.2 0.6,0.6 0.1,0.4 -0.1,0.6 -0.5,0.6 z m -6.7,0 h -3.3 c -0.3,0 -0.6,-0.2 -0.6,-0.6 0,-0.3 0.2,-0.6 0.6,-0.6 h 3.3 c 0.3,0 0.6,0.2 0.6,0.6 0,0.4 -0.3,0.6 -0.6,0.6 z m -6.7,0 h -3.3 c -0.3,0 -0.6,-0.2 -0.6,-0.6 0,-0.3 0.2,-0.6 0.6,-0.6 h 3.3 c 0.3,0 0.6,0.2 0.6,0.6 0,0.4 -0.3,0.6 -0.6,0.6 z m -6.7,0 h -3.3 c -0.3,0 -0.6,-0.2 -0.6,-0.6 0,-0.3 0.2,-0.6 0.6,-0.6 h 3.3 c 0.3,0 0.6,0.2 0.6,0.6 0,0.4 -0.3,0.6 -0.6,0.6 z m -6.7,0 h -3.3 c -0.3,0 -0.6,-0.2 -0.6,-0.6 0,-0.3 0.2,-0.6 0.6,-0.6 h 3.3 c 0.3,0 0.6,0.2 0.6,0.6 0,0.4 -0.2,0.6 -0.6,0.6 z m -6.6,0 h -3.3 c -0.3,0 -0.6,-0.2 -0.6,-0.6 0,-0.3 0.2,-0.6 0.6,-0.6 h 3.3 c 0.3,0 0.6,0.2 0.6,0.6 -0.1,0.4 -0.3,0.6 -0.6,0.6 z m -6.7,0 h -3.3 c -0.3,0 -0.6,-0.2 -0.6,-0.6 0,-0.3 0.2,-0.6 0.6,-0.6 h 3.3 c 0.3,0 0.6,0.2 0.6,0.6 -0.1,0.4 -0.3,0.6 -0.6,0.6 z m -6.7,0 h -3.3 c -0.3,0 -0.6,-0.2 -0.6,-0.6 0,-0.3 0.2,-0.6 0.6,-0.6 h 3.3 c 0.3,0 0.6,0.2 0.6,0.6 -0.1,0.4 -0.3,0.6 -0.6,0.6 z m -6.7,0 h -3.3 c -0.3,0 -0.6,-0.2 -0.6,-0.6 0,-0.3 0.2,-0.6 0.6,-0.6 h 3.3 c 0.3,0 0.6,0.2 0.6,0.6 -0.1,0.4 -0.3,0.6 -0.6,0.6 z m -6.7,0 h -3.2 c 0,0 -0.1,0 -0.1,0 -0.3,0 -0.5,-0.3 -0.5,-0.6 0,-0.3 0.3,-0.5 0.6,-0.5 0,0 0.1,0 0.1,0 h 3.2 c 0.3,0 0.6,0.2 0.6,0.6 -0.2,0.3 -0.4,0.5 -0.7,0.5 z m 62.4,-2.1 c 0,0 0,0 0,0 -0.3,0 -0.6,-0.3 -0.6,-0.6 v -0.1 -3.3 c 0,-0.3 0.2,-0.6 0.6,-0.6 0.4,0 0.6,0.2 0.6,0.6 v 3.4 c 0,0.4 -0.3,0.6 -0.6,0.6 z m -67.8,-0.1 c -0.3,0 -0.6,-0.2 -0.6,-0.6 v -3.3 c 0,-0.3 0.2,-0.6 0.6,-0.6 0.3,0 0.6,0.2 0.6,0.6 v 3.3 c -0.1,0.4 -0.3,0.6 -0.6,0.6 z m 67.8,-6.6 c -0.3,0 -0.6,-0.2 -0.6,-0.6 v -3.3 c 0,-0.3 0.2,-0.6 0.6,-0.6 0.4,0 0.6,0.2 0.6,0.6 v 3.3 c 0,0.4 -0.3,0.6 -0.6,0.6 z m -67.8,-0.1 c -0.3,0 -0.6,-0.2 -0.6,-0.6 v -3.3 c 0,-0.3 0.2,-0.6 0.6,-0.6 0.3,0 0.6,0.2 0.6,0.6 v 3.3 c -0.1,0.4 -0.3,0.6 -0.6,0.6 z m 67.8,-6.6 c -0.3,0 -0.6,-0.2 -0.6,-0.6 v -3.3 c 0,-0.3 0.2,-0.6 0.6,-0.6 0.4,0 0.6,0.2 0.6,0.6 v 3.3 c 0,0.4 -0.3,0.6 -0.6,0.6 z m -67.8,-0.1 c -0.3,0 -0.6,-0.2 -0.6,-0.6 v -3.3 c 0,0 0,-0.1 0,-0.1 0,-0.3 0.3,-0.5 0.6,-0.5 0.3,0 0.5,0.3 0.5,0.6 v 0.1 3.3 c 0,0.3 -0.2,0.5 -0.5,0.5 z m 65.7,-5.4 c 0,0 0,0 0,0 h -0.1 -3.2 c -0.3,0 -0.6,-0.2 -0.6,-0.6 0,-0.3 0.2,-0.6 0.6,-0.6 h 3.2 c 0,0 0.1,0 0.1,0 0.3,0 0.5,0.3 0.5,0.6 0.1,0.3 -0.2,0.6 -0.5,0.6 z m -6.7,0 h -3.3 c -0.3,0 -0.6,-0.2 -0.6,-0.6 0,-0.3 0.2,-0.6 0.6,-0.6 h 3.3 c 0.3,0 0.6,0.2 0.6,0.6 0,0.3 -0.3,0.6 -0.6,0.6 z m -6.7,0 h -3.3 c -0.3,0 -0.6,-0.2 -0.6,-0.6 0,-0.3 0.2,-0.6 0.6,-0.6 h 3.3 c 0.3,0 0.6,0.2 0.6,0.6 0,0.3 -0.3,0.6 -0.6,0.6 z m -6.7,0 h -3.3 c -0.3,0 -0.6,-0.2 -0.6,-0.6 0,-0.3 0.2,-0.6 0.6,-0.6 h 3.3 c 0.3,0 0.6,0.2 0.6,0.6 0,0.3 -0.2,0.6 -0.6,0.6 z m -6.6,0 h -3.3 c -0.3,0 -0.6,-0.2 -0.6,-0.6 0,-0.3 0.2,-0.6 0.6,-0.6 h 3.3 c 0.3,0 0.6,0.2 0.6,0.6 -0.1,0.3 -0.3,0.6 -0.6,0.6 z m -6.7,0 h -3.3 c -0.3,0 -0.6,-0.2 -0.6,-0.6 0,-0.3 0.2,-0.6 0.6,-0.6 h 3.3 c 0.3,0 0.6,0.2 0.6,0.6 -0.1,0.3 -0.3,0.6 -0.6,0.6 z m -6.7,0 h -3.3 c -0.3,0 -0.6,-0.2 -0.6,-0.6 0,-0.3 0.2,-0.6 0.6,-0.6 h 3.3 c 0.3,0 0.6,0.2 0.6,0.6 -0.1,0.3 -0.3,0.6 -0.6,0.6 z m -6.7,0 h -3.3 c -0.3,0 -0.6,-0.2 -0.6,-0.6 0,-0.3 0.2,-0.6 0.6,-0.6 h 3.3 c 0.3,0 0.6,0.2 0.6,0.6 -0.1,0.3 -0.3,0.6 -0.6,0.6 z m -6.7,0 h -3.3 c -0.3,0 -0.6,-0.2 -0.6,-0.6 0,-0.3 0.2,-0.6 0.6,-0.6 h 3.3 c 0.3,0 0.6,0.2 0.6,0.6 -0.1,0.3 -0.3,0.6 -0.6,0.6 z m -6.7,0 h -3.3 c -0.3,0 -0.6,-0.2 -0.6,-0.6 0,-0.3 0.2,-0.6 0.5,-0.6 h 3.3 c 0.3,0 0.6,0.2 0.6,0.6 0,0.3 -0.2,0.6 -0.5,0.6 z"
   id="path39195"
   style="fill:#1d1d1b" />

		</g>
    <g
       id="g39201"
       transform="matrix(0.26458333,0,0,0.26458333,-227.2542,-484.11038)">
			<path
   class="st7"
   d="m 1191.4,2075 h -3.7 c -0.3,0 -0.6,-0.3 -0.6,-0.6 0,-0.3 0.3,-0.6 0.6,-0.6 h 3.7 c 0.3,0 0.6,0.3 0.6,0.6 0,0.3 -0.3,0.6 -0.6,0.6 z m -7.4,0 h -3.7 c -0.3,0 -0.6,-0.3 -0.6,-0.6 0,-0.3 0.3,-0.6 0.6,-0.6 h 3.7 c 0.3,0 0.6,0.3 0.6,0.6 0,0.3 -0.3,0.6 -0.6,0.6 z m -7.5,0 h -3.7 c -0.3,0 -0.6,-0.3 -0.6,-0.6 0,-0.3 0.3,-0.6 0.6,-0.6 h 3.7 c 0.3,0 0.6,0.3 0.6,0.6 0.1,0.3 -0.2,0.6 -0.6,0.6 z m -7.4,0 h -3.7 c -0.3,0 -0.6,-0.3 -0.6,-0.6 0,-0.3 0.3,-0.6 0.6,-0.6 h 3.7 c 0.3,0 0.6,0.3 0.6,0.6 0.1,0.3 -0.2,0.6 -0.6,0.6 z m -7.4,0 h -3.7 c -0.3,0 -0.6,-0.3 -0.6,-0.6 0,-0.3 0.3,-0.6 0.6,-0.6 h 3.7 c 0.3,0 0.6,0.3 0.6,0.6 0.1,0.3 -0.2,0.6 -0.6,0.6 z m -7.4,0 h -3.7 c -0.3,0 -0.6,-0.3 -0.6,-0.6 0,-0.3 0.3,-0.6 0.6,-0.6 h 3.7 c 0.3,0 0.6,0.3 0.6,0.6 0,0.3 -0.2,0.6 -0.6,0.6 z m -7.4,0 h -3.7 c -0.3,0 -0.6,-0.3 -0.6,-0.6 0,-0.3 0.3,-0.6 0.6,-0.6 h 3.7 c 0.3,0 0.6,0.3 0.6,0.6 0,0.3 -0.2,0.6 -0.6,0.6 z m -7.3,-0.4 c -0.1,0 -0.2,0 -0.3,-0.1 -1.2,-0.7 -1.9,-1.9 -1.9,-3.2 v -0.5 c 0,-0.3 0.3,-0.6 0.6,-0.6 0.3,0 0.6,0.3 0.6,0.6 v 0.5 c 0,0.9 0.5,1.7 1.2,2.1 0.3,0.2 0.4,0.6 0.2,0.9 0,0.2 -0.2,0.3 -0.4,0.3 z m 54.6,-1.6 c -0.1,0 -0.1,0 -0.2,0 -0.3,-0.1 -0.5,-0.5 -0.4,-0.8 0.1,-0.3 0.2,-0.6 0.2,-0.9 v -2.6 c 0,-0.3 0.3,-0.6 0.6,-0.6 0.3,0 0.6,0.3 0.6,0.6 v 2.6 c 0,0.4 -0.1,0.9 -0.2,1.3 -0.1,0.2 -0.3,0.4 -0.6,0.4 z m -56.2,-5.2 c -0.3,0 -0.6,-0.3 -0.6,-0.6 v -3.7 c 0,-0.3 0.3,-0.6 0.6,-0.6 0.3,0 0.6,0.3 0.6,0.6 v 3.7 c 0,0.3 -0.2,0.6 -0.6,0.6 z m 56.4,-2.2 c -0.3,0 -0.6,-0.3 -0.6,-0.6 v -3.7 c 0,-0.3 0.3,-0.6 0.6,-0.6 0.3,0 0.6,0.3 0.6,0.6 v 3.7 c 0.1,0.3 -0.2,0.6 -0.6,0.6 z m -56.4,-5.3 c -0.3,0 -0.6,-0.3 -0.6,-0.6 v -3.7 c 0,-0.3 0.3,-0.6 0.6,-0.6 0.3,0 0.6,0.3 0.6,0.6 v 3.7 c 0,0.4 -0.2,0.6 -0.6,0.6 z m 56.4,-2.1 c -0.3,0 -0.6,-0.3 -0.6,-0.6 v -3.7 c 0,-0.3 0.3,-0.6 0.6,-0.6 0.3,0 0.6,0.3 0.6,0.6 v 3.7 c 0.1,0.3 -0.2,0.6 -0.6,0.6 z m -56.4,-5.3 c -0.3,0 -0.6,-0.3 -0.6,-0.6 v -3.7 c 0,-0.3 0.3,-0.6 0.6,-0.6 0.3,0 0.6,0.3 0.6,0.6 v 3.7 c 0,0.4 -0.2,0.6 -0.6,0.6 z m 56.4,-2.1 c -0.3,0 -0.6,-0.3 -0.6,-0.6 v -3.7 c 0,-0.3 0.3,-0.6 0.6,-0.6 0.3,0 0.6,0.3 0.6,0.6 v 3.7 c 0.1,0.3 -0.2,0.6 -0.6,0.6 z m -56.4,-5.3 c -0.3,0 -0.6,-0.3 -0.6,-0.6 v -3.7 c 0,-0.3 0.3,-0.6 0.6,-0.6 0.3,0 0.6,0.3 0.6,0.6 v 3.7 c 0,0.4 -0.2,0.6 -0.6,0.6 z m 56.4,-2.1 c -0.3,0 -0.6,-0.3 -0.6,-0.6 v -3.7 c 0,-0.3 0.3,-0.6 0.6,-0.6 0.3,0 0.6,0.3 0.6,0.6 v 3.7 c 0.1,0.3 -0.2,0.6 -0.6,0.6 z m -56.4,-5.3 c -0.3,0 -0.6,-0.3 -0.6,-0.6 v -3.7 c 0,-0.3 0.3,-0.6 0.6,-0.6 0.3,0 0.6,0.3 0.6,0.6 v 3.7 c 0,0.3 -0.2,0.6 -0.6,0.6 z m 56.4,-2.1 c -0.3,0 -0.6,-0.3 -0.6,-0.6 v -3.7 c 0,-0.3 0.3,-0.6 0.6,-0.6 0.3,0 0.6,0.3 0.6,0.6 v 3.7 c 0.1,0.3 -0.2,0.6 -0.6,0.6 z m -56.4,-5.3 c -0.3,0 -0.6,-0.3 -0.6,-0.6 v -2.6 c 0,-0.5 0.1,-0.9 0.2,-1.3 0.1,-0.3 0.5,-0.5 0.8,-0.4 0.3,0.1 0.5,0.5 0.4,0.8 -0.1,0.3 -0.2,0.6 -0.2,0.9 v 2.6 c 0,0.3 -0.2,0.6 -0.6,0.6 z m 56.4,-2.1 c -0.3,0 -0.6,-0.3 -0.6,-0.6 v -0.4 c 0,-0.9 -0.5,-1.7 -1.3,-2.1 -0.3,-0.2 -0.4,-0.6 -0.2,-0.9 0.2,-0.3 0.6,-0.4 0.9,-0.2 1.2,0.7 1.9,1.9 1.9,3.2 v 0.4 c 0,0.3 -0.3,0.6 -0.7,0.6 z m -5.2,-3.5 h -3.7 c -0.3,0 -0.6,-0.3 -0.6,-0.6 0,-0.3 0.3,-0.6 0.6,-0.6 h 3.7 c 0.3,0 0.6,0.3 0.6,0.6 0.1,0.3 -0.2,0.6 -0.6,0.6 z m -7.4,0 h -3.7 c -0.3,0 -0.6,-0.3 -0.6,-0.6 0,-0.3 0.3,-0.6 0.6,-0.6 h 3.7 c 0.3,0 0.6,0.3 0.6,0.6 0,0.3 -0.2,0.6 -0.6,0.6 z m -7.4,0 h -3.7 c -0.3,0 -0.6,-0.3 -0.6,-0.6 0,-0.3 0.3,-0.6 0.6,-0.6 h 3.7 c 0.3,0 0.6,0.3 0.6,0.6 0,0.3 -0.2,0.6 -0.6,0.6 z m -7.4,0 h -3.7 c -0.3,0 -0.6,-0.3 -0.6,-0.6 0,-0.3 0.3,-0.6 0.6,-0.6 h 3.7 c 0.3,0 0.6,0.3 0.6,0.6 0,0.3 -0.2,0.6 -0.6,0.6 z m -7.4,0 h -3.7 c -0.3,0 -0.6,-0.3 -0.6,-0.6 0,-0.3 0.3,-0.6 0.6,-0.6 h 3.7 c 0.3,0 0.6,0.3 0.6,0.6 0,0.3 -0.3,0.6 -0.6,0.6 z m -7.4,0 h -3.7 c -0.3,0 -0.6,-0.3 -0.6,-0.6 0,-0.3 0.3,-0.6 0.6,-0.6 h 3.7 c 0.3,0 0.6,0.3 0.6,0.6 0,0.3 -0.3,0.6 -0.6,0.6 z m -7.4,0 h -3.7 c -0.3,0 -0.6,-0.3 -0.6,-0.6 0,-0.3 0.3,-0.6 0.6,-0.6 h 3.7 c 0.3,0 0.6,0.3 0.6,0.6 0,0.3 -0.3,0.6 -0.6,0.6 z"
   id="path39199"
   style="fill:#1d1d1b" />

		</g>
    <g
       id="g39205"
       transform="matrix(0.26458333,0,0,0.26458333,-227.2542,-484.11038)">
			<path
   class="st7"
   d="m 1430.4,2305.6 h -3.4 c -0.3,0 -0.6,-0.2 -0.6,-0.6 0,-0.3 0.2,-0.6 0.6,-0.6 h 3.3 c 0.3,0 0.6,0.2 0.6,0.6 0.1,0.4 -0.1,0.6 -0.5,0.6 z m -6.7,0 h -3.3 c -0.3,0 -0.6,-0.2 -0.6,-0.6 0,-0.3 0.2,-0.6 0.6,-0.6 h 3.3 c 0.3,0 0.6,0.2 0.6,0.6 0,0.4 -0.3,0.6 -0.6,0.6 z m -6.7,0 h -3.3 c -0.3,0 -0.6,-0.2 -0.6,-0.6 0,-0.3 0.2,-0.6 0.6,-0.6 h 3.3 c 0.3,0 0.6,0.2 0.6,0.6 0,0.4 -0.3,0.6 -0.6,0.6 z m -6.7,0 h -3.3 c -0.3,0 -0.6,-0.2 -0.6,-0.6 0,-0.3 0.2,-0.6 0.6,-0.6 h 3.3 c 0.3,0 0.6,0.2 0.6,0.6 0,0.4 -0.3,0.6 -0.6,0.6 z m -6.7,0 h -3.3 c -0.3,0 -0.6,-0.2 -0.6,-0.6 0,-0.3 0.2,-0.6 0.6,-0.6 h 3.3 c 0.3,0 0.6,0.2 0.6,0.6 0,0.4 -0.2,0.6 -0.6,0.6 z m -6.6,0 h -3.3 c -0.3,0 -0.6,-0.2 -0.6,-0.6 0,-0.3 0.2,-0.6 0.6,-0.6 h 3.3 c 0.3,0 0.6,0.2 0.6,0.6 -0.1,0.4 -0.3,0.6 -0.6,0.6 z m -6.7,0 h -3.3 c -0.3,0 -0.6,-0.2 -0.6,-0.6 0,-0.3 0.2,-0.6 0.6,-0.6 h 3.3 c 0.3,0 0.6,0.2 0.6,0.6 -0.1,0.4 -0.3,0.6 -0.6,0.6 z m -6.7,0 h -3.3 c -0.3,0 -0.6,-0.2 -0.6,-0.6 0,-0.3 0.2,-0.6 0.6,-0.6 h 3.3 c 0.3,0 0.6,0.2 0.6,0.6 -0.1,0.4 -0.3,0.6 -0.6,0.6 z m -6.7,0 h -3.3 c -0.3,0 -0.6,-0.2 -0.6,-0.6 0,-0.3 0.2,-0.6 0.6,-0.6 h 3.3 c 0.3,0 0.6,0.2 0.6,0.6 -0.1,0.4 -0.3,0.6 -0.6,0.6 z m -6.7,0 h -3.2 c 0,0 -0.1,0 -0.1,0 -0.3,0 -0.5,-0.3 -0.5,-0.6 0,-0.3 0.3,-0.5 0.6,-0.5 0,0 0.1,0 0.1,0 h 3.2 c 0.3,0 0.6,0.2 0.6,0.6 -0.2,0.3 -0.4,0.5 -0.7,0.5 z m 62.4,-2.1 c 0,0 0,0 0,0 -0.3,0 -0.6,-0.3 -0.6,-0.6 v -0.1 -3.3 c 0,-0.3 0.2,-0.6 0.6,-0.6 0.4,0 0.6,0.2 0.6,0.6 v 3.4 c 0,0.4 -0.3,0.6 -0.6,0.6 z m -67.8,-0.1 c -0.3,0 -0.6,-0.2 -0.6,-0.6 v -3.3 c 0,-0.3 0.2,-0.6 0.6,-0.6 0.3,0 0.6,0.2 0.6,0.6 v 3.3 c -0.1,0.4 -0.3,0.6 -0.6,0.6 z m 67.8,-6.6 c -0.3,0 -0.6,-0.2 -0.6,-0.6 v -3.3 c 0,-0.3 0.2,-0.6 0.6,-0.6 0.4,0 0.6,0.2 0.6,0.6 v 3.3 c 0,0.4 -0.3,0.6 -0.6,0.6 z m -67.8,-0.1 c -0.3,0 -0.6,-0.2 -0.6,-0.6 v -3.3 c 0,-0.3 0.2,-0.6 0.6,-0.6 0.3,0 0.6,0.2 0.6,0.6 v 3.3 c -0.1,0.4 -0.3,0.6 -0.6,0.6 z m 67.8,-6.6 c -0.3,0 -0.6,-0.2 -0.6,-0.6 v -3.3 c 0,-0.3 0.2,-0.6 0.6,-0.6 0.4,0 0.6,0.2 0.6,0.6 v 3.3 c 0,0.4 -0.3,0.6 -0.6,0.6 z m -67.8,-0.1 c -0.3,0 -0.6,-0.2 -0.6,-0.6 v -3.3 c 0,0 0,-0.1 0,-0.1 0,-0.3 0.3,-0.5 0.6,-0.5 0.3,0 0.5,0.3 0.5,0.6 v 0.1 3.3 c 0,0.3 -0.2,0.5 -0.5,0.5 z m 65.7,-5.4 c 0,0 0,0 0,0 h -0.1 -3.2 c -0.3,0 -0.6,-0.2 -0.6,-0.6 0,-0.4 0.2,-0.6 0.6,-0.6 h 3.2 c 0,0 0.1,0 0.1,0 0.3,0 0.5,0.3 0.5,0.6 0.1,0.3 -0.2,0.6 -0.5,0.6 z m -6.7,0 h -3.3 c -0.3,0 -0.6,-0.2 -0.6,-0.6 0,-0.4 0.2,-0.6 0.6,-0.6 h 3.3 c 0.3,0 0.6,0.2 0.6,0.6 0,0.4 -0.3,0.6 -0.6,0.6 z m -6.7,0 h -3.3 c -0.3,0 -0.6,-0.2 -0.6,-0.6 0,-0.4 0.2,-0.6 0.6,-0.6 h 3.3 c 0.3,0 0.6,0.2 0.6,0.6 0,0.4 -0.3,0.6 -0.6,0.6 z m -6.7,0 h -3.3 c -0.3,0 -0.6,-0.2 -0.6,-0.6 0,-0.4 0.2,-0.6 0.6,-0.6 h 3.3 c 0.3,0 0.6,0.2 0.6,0.6 0,0.4 -0.2,0.6 -0.6,0.6 z m -6.6,0 h -3.3 c -0.3,0 -0.6,-0.2 -0.6,-0.6 0,-0.4 0.2,-0.6 0.6,-0.6 h 3.3 c 0.3,0 0.6,0.2 0.6,0.6 0,0.4 -0.3,0.6 -0.6,0.6 z m -6.7,0 h -3.3 c -0.3,0 -0.6,-0.2 -0.6,-0.6 0,-0.4 0.2,-0.6 0.6,-0.6 h 3.3 c 0.3,0 0.6,0.2 0.6,0.6 0,0.4 -0.3,0.6 -0.6,0.6 z m -6.7,0 h -3.3 c -0.3,0 -0.6,-0.2 -0.6,-0.6 0,-0.4 0.2,-0.6 0.6,-0.6 h 3.3 c 0.3,0 0.6,0.2 0.6,0.6 0,0.4 -0.3,0.6 -0.6,0.6 z m -6.7,0 h -3.3 c -0.3,0 -0.6,-0.2 -0.6,-0.6 0,-0.4 0.2,-0.6 0.6,-0.6 h 3.3 c 0.3,0 0.6,0.2 0.6,0.6 0,0.4 -0.3,0.6 -0.6,0.6 z m -6.7,0 h -3.3 c -0.3,0 -0.6,-0.2 -0.6,-0.6 0,-0.4 0.2,-0.6 0.6,-0.6 h 3.3 c 0.3,0 0.6,0.2 0.6,0.6 0,0.4 -0.3,0.6 -0.6,0.6 z m -6.7,0 h -3.3 c -0.3,0 -0.6,-0.2 -0.6,-0.6 0,-0.4 0.2,-0.6 0.5,-0.6 h 3.3 c 0.3,0 0.6,0.2 0.6,0.6 0,0.4 -0.2,0.6 -0.5,0.6 z"
   id="path39203"
   style="fill:#1d1d1b" />

		</g>
    <g
       id="g39209"
       transform="matrix(0.26458333,0,0,0.26458333,-227.2542,-484.11038)">
			<path
   class="st7"
   d="m 1166.3,2282.4 h -3.3 c -0.3,0 -0.6,-0.2 -0.6,-0.6 0,-0.3 0.2,-0.6 0.6,-0.6 h 3.3 c 0.3,0 0.6,0.2 0.6,0.6 0,0.3 -0.3,0.6 -0.6,0.6 z m -6.6,0 h -3.3 c -0.3,0 -0.6,-0.2 -0.6,-0.6 0,-0.3 0.2,-0.6 0.6,-0.6 h 3.3 c 0.3,0 0.6,0.2 0.6,0.6 -0.1,0.3 -0.3,0.6 -0.6,0.6 z m -6.7,0 h -3.3 c -0.3,0 -0.6,-0.2 -0.6,-0.6 0,-0.3 0.2,-0.6 0.6,-0.6 h 3.3 c 0.3,0 0.6,0.2 0.6,0.6 0,0.3 -0.3,0.6 -0.6,0.6 z m -6.6,0 h -3.3 c -0.3,0 -0.6,-0.2 -0.6,-0.6 0,-0.3 0.2,-0.6 0.6,-0.6 h 3.3 c 0.3,0 0.6,0.2 0.6,0.6 -0.1,0.3 -0.3,0.6 -0.6,0.6 z m -6.7,0 h -3.3 c -0.3,0 -0.6,-0.2 -0.6,-0.6 0,-0.3 0.2,-0.6 0.6,-0.6 h 3.3 c 0.3,0 0.6,0.2 0.6,0.6 0,0.3 -0.2,0.6 -0.6,0.6 z m -6.6,0 h -3.3 c -0.3,0 -0.6,-0.2 -0.6,-0.6 0,-0.3 0.2,-0.6 0.6,-0.6 h 3.3 c 0.3,0 0.6,0.2 0.6,0.6 0,0.3 -0.3,0.6 -0.6,0.6 z m -6.6,0 h -3.3 c -0.3,0 -0.6,-0.2 -0.6,-0.6 0,-0.3 0.2,-0.6 0.6,-0.6 h 3.3 c 0.3,0 0.6,0.2 0.6,0.6 -0.1,0.3 -0.3,0.6 -0.6,0.6 z m -6.7,0 h -3.3 c -0.3,0 -0.6,-0.2 -0.6,-0.6 0,-0.3 0.2,-0.6 0.6,-0.6 h 3.3 c 0.3,0 0.6,0.2 0.6,0.6 0,0.3 -0.3,0.6 -0.6,0.6 z m -6.6,0 h -3.3 c -0.3,0 -0.6,-0.2 -0.6,-0.6 0,-0.3 0.2,-0.6 0.6,-0.6 h 3.3 c 0.3,0 0.6,0.2 0.6,0.6 0,0.3 -0.3,0.6 -0.6,0.6 z m -6.6,0 h -3.3 c -0.3,0 -0.6,-0.2 -0.6,-0.6 0,-0.3 0.2,-0.6 0.6,-0.6 h 3.3 c 0.3,0 0.6,0.2 0.6,0.6 -0.1,0.3 -0.3,0.6 -0.6,0.6 z m -6.7,0 h -3.3 c -0.3,0 -0.6,-0.2 -0.6,-0.6 0,-0.3 0.2,-0.6 0.6,-0.6 h 3.3 c 0.3,0 0.6,0.2 0.6,0.6 0,0.3 -0.3,0.6 -0.6,0.6 z m -6.6,0 h -3.3 c -0.3,0 -0.6,-0.2 -0.6,-0.6 0,-0.3 0.2,-0.6 0.6,-0.6 h 3.3 c 0.3,0 0.6,0.2 0.6,0.6 -0.1,0.3 -0.3,0.6 -0.6,0.6 z m -6.6,0 h -3.3 c -0.3,0 -0.6,-0.2 -0.6,-0.6 0,-0.3 0.2,-0.6 0.6,-0.6 h 3.3 c 0.3,0 0.6,0.2 0.6,0.6 -0.1,0.3 -0.3,0.6 -0.6,0.6 z m -6.7,0 h -3.3 c -0.3,0 -0.6,-0.2 -0.6,-0.6 0,-0.3 0.2,-0.6 0.6,-0.6 h 3.3 c 0.3,0 0.6,0.2 0.6,0.6 0,0.3 -0.3,0.6 -0.6,0.6 z m -6.6,0 h -3.3 c -0.3,0 -0.6,-0.2 -0.6,-0.6 0,-0.3 0.2,-0.6 0.6,-0.6 h 3.3 c 0.3,0 0.6,0.2 0.6,0.6 -0.1,0.3 -0.3,0.6 -0.6,0.6 z m -6.7,0 h -2.6 c -0.2,0 -0.5,0 -0.7,0 -0.3,0 -0.5,-0.3 -0.5,-0.6 0,-0.3 0.3,-0.5 0.6,-0.5 0.2,0 0.4,0 0.6,0 h 2.6 c 0.3,0 0.6,0.2 0.6,0.6 0,0.2 -0.2,0.5 -0.6,0.5 z m 102.7,-1 c -0.2,0 -0.4,-0.1 -0.5,-0.2 -0.2,-0.3 -0.1,-0.6 0.2,-0.8 0.8,-0.6 1.5,-1.4 1.9,-2.3 0.1,-0.3 0.4,-0.4 0.7,-0.3 0.3,0.1 0.4,0.4 0.3,0.7 -0.5,1.1 -1.3,2.1 -2.3,2.8 0,0.1 -0.2,0.1 -0.3,0.1 z m -109,-0.4 c -0.1,0 -0.3,0 -0.4,-0.1 -0.9,-0.8 -1.6,-1.8 -1.9,-3 -0.1,-0.3 0.1,-0.6 0.4,-0.7 0.3,-0.1 0.6,0.1 0.7,0.4 0.3,1 0.8,1.8 1.6,2.5 0.2,0.2 0.3,0.5 0.1,0.8 -0.2,0 -0.3,0.1 -0.5,0.1 z m 111.5,-5.4 c -0.3,0 -0.6,-0.2 -0.6,-0.6 v -3.3 c 0,-0.3 0.2,-0.6 0.6,-0.6 0.4,0 0.6,0.2 0.6,0.6 v 3.3 c 0,0.4 -0.3,0.6 -0.6,0.6 z m -113.5,-0.6 c -0.3,0 -0.6,-0.2 -0.6,-0.6 v -3.3 c 0,-0.3 0.2,-0.6 0.6,-0.6 0.4,0 0.6,0.2 0.6,0.6 v 3.3 c 0,0.3 -0.2,0.6 -0.6,0.6 z m 113.5,-6 c -0.3,0 -0.6,-0.2 -0.6,-0.6 v -3.3 c 0,-0.3 0.2,-0.6 0.6,-0.6 0.4,0 0.6,0.2 0.6,0.6 v 3.3 c 0,0.3 -0.3,0.6 -0.6,0.6 z m -113.5,-0.7 c -0.3,0 -0.6,-0.2 -0.6,-0.6 v -3.3 c 0,-0.3 0.2,-0.6 0.6,-0.6 0.4,0 0.6,0.2 0.6,0.6 v 3.3 c 0,0.4 -0.2,0.6 -0.6,0.6 z m 113.5,-6 c -0.3,0 -0.6,-0.2 -0.6,-0.6 v -3.3 c 0,-0.3 0.2,-0.6 0.6,-0.6 0.4,0 0.6,0.2 0.6,0.6 v 3.3 c 0,0.4 -0.3,0.6 -0.6,0.6 z m -113.5,-0.6 c -0.3,0 -0.6,-0.2 -0.6,-0.6 v -3.3 c 0,-0.3 0.2,-0.6 0.6,-0.6 0.4,0 0.6,0.2 0.6,0.6 v 3.3 c 0,0.3 -0.2,0.6 -0.6,0.6 z m 113.5,-6 c -0.3,0 -0.6,-0.2 -0.6,-0.6 v -3.3 c 0,-0.3 0.2,-0.6 0.6,-0.6 0.4,0 0.6,0.2 0.6,0.6 v 3.3 c 0,0.3 -0.3,0.6 -0.6,0.6 z m -113.5,-0.7 c -0.3,0 -0.6,-0.2 -0.6,-0.6 v -3.3 c 0,-0.3 0.2,-0.6 0.6,-0.6 0.4,0 0.6,0.2 0.6,0.6 v 3.3 c 0,0.4 -0.2,0.6 -0.6,0.6 z m 113.5,-5.9 c -0.3,0 -0.6,-0.2 -0.6,-0.6 v -3.3 c 0,-0.3 0.2,-0.6 0.6,-0.6 0.4,0 0.6,0.2 0.6,0.6 v 3.3 c 0,0.3 -0.3,0.6 -0.6,0.6 z m -113.5,-0.7 c -0.3,0 -0.6,-0.2 -0.6,-0.6 v -3.3 c 0,-0.3 0.2,-0.6 0.6,-0.6 0.4,0 0.6,0.2 0.6,0.6 v 3.3 c 0,0.4 -0.2,0.6 -0.6,0.6 z m 113.5,-6 c -0.3,0 -0.6,-0.2 -0.6,-0.6 v -3.3 c 0,-0.3 0.2,-0.6 0.6,-0.6 0.4,0 0.6,0.2 0.6,0.6 v 3.3 c 0,0.4 -0.3,0.6 -0.6,0.6 z m -113.5,-0.6 c -0.3,0 -0.6,-0.2 -0.6,-0.6 v -3.3 c 0,-0.3 0.2,-0.6 0.6,-0.6 0.4,0 0.6,0.2 0.6,0.6 v 3.3 c 0,0.3 -0.2,0.6 -0.6,0.6 z m 113.5,-6 c -0.3,0 -0.6,-0.2 -0.6,-0.6 v -3.3 c 0,-0.3 0.2,-0.6 0.6,-0.6 0.4,0 0.6,0.2 0.6,0.6 v 3.3 c 0,0.3 -0.3,0.6 -0.6,0.6 z m -113.5,-0.7 c -0.3,0 -0.6,-0.2 -0.6,-0.6 v -3.3 c 0,-0.3 0.2,-0.6 0.6,-0.6 0.4,0 0.6,0.2 0.6,0.6 v 3.3 c 0,0.4 -0.2,0.6 -0.6,0.6 z m 113.5,-6 c -0.3,0 -0.6,-0.2 -0.6,-0.6 v -3.3 c 0,-0.3 0.2,-0.6 0.6,-0.6 0.4,0 0.6,0.2 0.6,0.6 v 3.3 c 0,0.4 -0.3,0.6 -0.6,0.6 z m -113.5,-0.6 c -0.3,0 -0.6,-0.2 -0.6,-0.6 v -3.3 c 0,-0.3 0.2,-0.6 0.6,-0.6 0.4,0 0.6,0.2 0.6,0.6 v 3.3 c 0,0.4 -0.2,0.6 -0.6,0.6 z m 113.5,-6 c -0.3,0 -0.6,-0.2 -0.6,-0.6 v -3.3 c 0,-0.3 0.2,-0.6 0.6,-0.6 0.4,0 0.6,0.2 0.6,0.6 v 3.3 c 0,0.4 -0.3,0.6 -0.6,0.6 z m -113.5,-0.6 c -0.3,0 -0.6,-0.2 -0.6,-0.6 v -3.3 c 0,-0.3 0.2,-0.6 0.6,-0.6 0.4,0 0.6,0.2 0.6,0.6 v 3.3 c 0,0.3 -0.2,0.6 -0.6,0.6 z m 113.5,-6 c -0.3,0 -0.6,-0.2 -0.6,-0.6 v -3.3 c 0,-0.3 0.2,-0.6 0.6,-0.6 0.4,0 0.6,0.2 0.6,0.6 v 3.3 c 0,0.3 -0.3,0.6 -0.6,0.6 z m -113.5,-0.7 c -0.3,0 -0.6,-0.2 -0.6,-0.6 v -3.3 c 0,-0.3 0.2,-0.6 0.6,-0.6 0.4,0 0.6,0.2 0.6,0.6 v 3.3 c 0,0.4 -0.2,0.6 -0.6,0.6 z m 113.5,-6 c -0.3,0 -0.6,-0.2 -0.6,-0.6 v -3.3 c 0,-0.3 0.2,-0.6 0.6,-0.6 0.4,0 0.6,0.2 0.6,0.6 v 3.3 c 0,0.4 -0.3,0.6 -0.6,0.6 z m -113.5,-0.6 c -0.3,0 -0.6,-0.2 -0.6,-0.6 v -3.3 c 0,-0.3 0.2,-0.6 0.6,-0.6 0.4,0 0.6,0.2 0.6,0.6 v 3.3 c 0,0.3 -0.2,0.6 -0.6,0.6 z m 113.3,-6 c -0.2,0 -0.5,-0.2 -0.5,-0.4 -0.3,-1 -0.8,-1.8 -1.6,-2.5 -0.2,-0.2 -0.3,-0.5 -0.1,-0.8 0.2,-0.2 0.5,-0.3 0.8,-0.1 0.9,0.8 1.6,1.8 2,3 0.1,0.3 -0.1,0.6 -0.4,0.7 -0.1,0.1 -0.1,0.1 -0.2,0.1 z m -112.8,-0.6 c -0.1,0 -0.1,0 -0.2,0 -0.3,-0.1 -0.4,-0.4 -0.3,-0.7 0.5,-1.1 1.3,-2.1 2.3,-2.8 0.3,-0.2 0.6,-0.1 0.8,0.2 0.2,0.3 0.1,0.6 -0.2,0.8 -0.8,0.6 -1.5,1.3 -1.9,2.3 -0.1,0.1 -0.3,0.2 -0.5,0.2 z m 108,-3.4 c 0,0 0,0 0,0 -0.3,0 -0.5,0 -0.7,0 h -2.7 c -0.3,0 -0.6,-0.2 -0.6,-0.6 0,-0.3 0.2,-0.6 0.6,-0.6 h 2.7 c 0.2,0 0.5,0 0.7,0 0.3,0 0.5,0.3 0.5,0.6 0.1,0.4 -0.2,0.6 -0.5,0.6 z m -6.6,-0.1 h -3.3 c -0.3,0 -0.6,-0.2 -0.6,-0.6 0,-0.3 0.2,-0.6 0.6,-0.6 h 3.3 c 0.3,0 0.6,0.2 0.6,0.6 0,0.4 -0.3,0.6 -0.6,0.6 z m -6.6,0 h -3.3 c -0.3,0 -0.6,-0.2 -0.6,-0.6 0,-0.3 0.2,-0.6 0.6,-0.6 h 3.3 c 0.3,0 0.6,0.2 0.6,0.6 -0.1,0.4 -0.3,0.6 -0.6,0.6 z m -6.7,0 h -3.3 c -0.3,0 -0.6,-0.2 -0.6,-0.6 0,-0.3 0.2,-0.6 0.6,-0.6 h 3.3 c 0.3,0 0.6,0.2 0.6,0.6 0,0.4 -0.3,0.6 -0.6,0.6 z m -6.6,0 h -3.3 c -0.3,0 -0.6,-0.2 -0.6,-0.6 0,-0.3 0.2,-0.6 0.6,-0.6 h 3.3 c 0.3,0 0.6,0.2 0.6,0.6 0,0.4 -0.3,0.6 -0.6,0.6 z m -6.6,0 h -3.3 c -0.3,0 -0.6,-0.2 -0.6,-0.6 0,-0.3 0.2,-0.6 0.6,-0.6 h 3.3 c 0.3,0 0.6,0.2 0.6,0.6 -0.1,0.4 -0.3,0.6 -0.6,0.6 z m -6.7,0 h -3.3 c -0.3,0 -0.6,-0.2 -0.6,-0.6 0,-0.3 0.2,-0.6 0.6,-0.6 h 3.3 c 0.3,0 0.6,0.2 0.6,0.6 0,0.4 -0.3,0.6 -0.6,0.6 z m -6.6,0 h -3.3 c -0.3,0 -0.6,-0.2 -0.6,-0.6 0,-0.3 0.2,-0.6 0.6,-0.6 h 3.3 c 0.3,0 0.6,0.2 0.6,0.6 -0.1,0.4 -0.3,0.6 -0.6,0.6 z m -6.6,0 h -3.3 c -0.3,0 -0.6,-0.2 -0.6,-0.6 0,-0.3 0.2,-0.6 0.6,-0.6 h 3.3 c 0.3,0 0.6,0.2 0.6,0.6 -0.1,0.4 -0.3,0.6 -0.6,0.6 z m -6.7,0 h -3.3 c -0.3,0 -0.6,-0.2 -0.6,-0.6 0,-0.3 0.2,-0.6 0.6,-0.6 h 3.3 c 0.3,0 0.6,0.2 0.6,0.6 0,0.4 -0.3,0.6 -0.6,0.6 z m -6.6,0 h -3.3 c -0.3,0 -0.6,-0.2 -0.6,-0.6 0,-0.3 0.2,-0.6 0.6,-0.6 h 3.3 c 0.3,0 0.6,0.2 0.6,0.6 -0.1,0.4 -0.3,0.6 -0.6,0.6 z m -6.6,0 h -3.3 c -0.3,0 -0.6,-0.2 -0.6,-0.6 0,-0.3 0.2,-0.6 0.6,-0.6 h 3.3 c 0.3,0 0.6,0.2 0.6,0.6 -0.1,0.4 -0.3,0.6 -0.6,0.6 z m -6.7,0 h -3.3 c -0.3,0 -0.6,-0.2 -0.6,-0.6 0,-0.3 0.2,-0.6 0.6,-0.6 h 3.3 c 0.3,0 0.6,0.2 0.6,0.6 0,0.4 -0.3,0.6 -0.6,0.6 z m -6.6,0 h -3.3 c -0.3,0 -0.6,-0.2 -0.6,-0.6 0,-0.3 0.2,-0.6 0.6,-0.6 h 3.3 c 0.3,0 0.6,0.2 0.6,0.6 -0.1,0.4 -0.3,0.6 -0.6,0.6 z m -6.7,0 h -3.3 c -0.3,0 -0.6,-0.2 -0.6,-0.6 0,-0.3 0.2,-0.6 0.6,-0.6 h 3.3 c 0.3,0 0.6,0.2 0.6,0.6 0,0.4 -0.3,0.6 -0.6,0.6 z m -6.6,0 h -3.3 c -0.3,0 -0.6,-0.2 -0.6,-0.6 0,-0.3 0.2,-0.6 0.5,-0.6 h 3.3 c 0.3,0 0.6,0.2 0.6,0.6 0.1,0.4 -0.2,0.6 -0.5,0.6 z"
   id="path39207"
   style="fill:#1d1d1b" />

		</g>
    <g
       id="g39221"
       transform="matrix(0.26458333,0,0,0.26458333,-227.2542,-484.11038)">
			<path
   class="st22"
   d="m 1198.6,2180.6 h -134.1 c -2.9,0 -5.2,-2.3 -5.2,-5.2 v -73.3 c 0,-2.9 2.3,-5.2 5.2,-5.2 h 134.1 c 2.9,0 5.2,2.3 5.2,5.2 v 73.3 c 0,2.9 -2.3,5.2 -5.2,5.2 z"
   id="path39211"
   style="fill:#ebe9e6" />

			<path
   class="st17"
   d="m 1115.2,2122.1 v 33.2 c 0,2.1 2.3,3.3 4,2.2 l 25.3,-16.6 c 1.6,-1 1.6,-3.3 0,-4.4 l -25.3,-16.6 c -1.7,-1.1 -4,0.1 -4,2.2 z"
   id="path39213"
   style="fill:#fc903a" />

			<g
   id="g39219">
				<path
   class="st7"
   d="m 1066.7,2173.1 c 0,-1.4 1.2,-2.6 2.6,-2.6 1.4,0 2.6,1.2 2.6,2.6 0,1.4 -1.2,2.6 -2.6,2.6 -1.4,0 -2.6,-1.2 -2.6,-2.6 z"
   id="path39215"
   style="fill:#1d1d1b" />

				<path
   class="st7"
   d="M 1187.4,2173.8 H 1070 c -0.4,0 -0.7,-0.3 -0.7,-0.7 v 0 c 0,-0.4 0.3,-0.7 0.7,-0.7 h 117.4 c 0.4,0 0.7,0.3 0.7,0.7 v 0 c 0,0.4 -0.3,0.7 -0.7,0.7 z"
   id="path39217"
   style="fill:#1d1d1b" />

			</g>

		</g>
    <rect
       x="88.764137"
       y="97.443771"
       class="st29"
       width="19.790834"
       height="29.553957"
       id="rect39223"
       style="opacity:0.5;fill:#e7f1f9;stroke-width:0.264583" />
    <g
       id="g39271"
       transform="matrix(0.26458333,0,0,0.26458333,-227.2542,-484.11038)">
			<g
   id="g39233">
				<g
   id="g39227">
					<path
   class="st7"
   d="m 1239,2233.9 h -1 v -4.6 c 0,-1.7 1.3,-3 2.2,-2.2 h 12.7 c 1.6,-0.8 2.4,-1.4 2.7,-2.2 l 2,-7.6 c 0.2,-0.6 0,-1.2 -0.3,-1.7 -0.4,-0.5 -0.9,-0.8 -1.6,-0.8 h -16.5 v -1 h 16.5 c 0.9,0 1.8,0.4 2.4,1.2 0.6,0.7 0.8,1.7 0.5,2.6 l -2,7.6 c -0.3,1.3 -1.5,2.2 -2.9,2.2 H 1241 c -1.1,0 -2,0.9 -2,2 z"
   id="path39225"
   style="fill:#1d1d1b" />

				</g>

				<path
   class="st17"
   d="m 1250.9,2218.5 h -21.7 c -1.8,0 -3.3,-1.5 -3.3,-3.3 v -2 c 0,-1.8 1.5,-3.3 3.3,-3.3 h 21.7 c 1.8,0 3.3,1.5 3.3,3.3 v 2 c 0,1.8 -1.5,3.3 -3.3,3.3 z"
   id="path39229"
   style="fill:#fc903a" />

				<path
   class="st7"
   d="m 1237.8,2253.7 v 0 c -1.6,0 -2.8,-1.3 -2.8,-2.8 v -17.1 c 0,-1.6 1.3,-2.8 2.8,-2.8 v 0 c 1.6,0 2.8,1.3 2.8,2.8 v 17.1 c 0,1.6 -1.3,2.8 -2.8,2.8 z"
   id="path39231"
   style="fill:#1d1d1b" />

			</g>

			<g
   id="g39239">
				<path
   class="st19"
   d="m 1346.2,2289.9 c 0,0 1.9,6 1.8,7.3 -0.2,1.4 -1.4,6 -2.2,7.2 -0.9,1.2 -1.3,-4.9 -2,-5.8 -0.7,-0.9 -0.1,2.3 -0.6,2.6 -0.5,0.3 -1.5,-2.3 -1.9,-3.3 -0.4,-0.9 1.1,-4.4 1.1,-6.8 -0.2,-2.2 3.8,-1.2 3.8,-1.2 z"
   id="path39235"
   style="fill:#fcad78" />

				<path
   class="st7"
   d="m 1300.7,2242.6 c -0.5,-6.8 6.9,-11.5 12.8,-8 0.1,0.1 0.2,0.1 0.4,0.2 8.8,5.7 27,32.8 28.3,35.4 1.3,2.6 5.9,22.9 5.9,22.9 0,0 -4.8,1.7 -7,-0.1 0,0 -7.7,-19.9 -8.9,-20.9 -1.1,-1 -30.8,-17.7 -31.1,-23.9 -0.1,-1.6 -0.3,-3.6 -0.4,-5.6 z"
   id="path39237"
   style="fill:#1d1d1b" />

			</g>

			<g
   id="g39251">
				<path
   class="st7"
   d="m 1353.7,2396.9 c 0,0 3.5,3.2 2.8,5.5 -0.7,2.3 -3.9,3.8 -4.3,6.6 -0.4,2.8 -2.2,4.3 -3.7,4.3 -1.6,0 -7.4,0 -7.4,0 0,0 -1.1,-2 1.6,-2.6 2.8,-0.6 3.8,-3.9 3.6,-7 -0.2,-3.1 0.3,-7.1 0.3,-7.1 l 5.9,-1.4 z"
   id="path39241"
   style="fill:#1d1d1b" />

				<path
   class="st7"
   d="m 1310.2,2405.3 c 0,0 0.6,7.4 -0.9,8.1 h -19.9 c 0,0 0,-2.3 3.2,-2.8 3.2,-0.5 8.8,-2.4 9.8,-6.5 0.9,-4.3 7.8,1.2 7.8,1.2 z"
   id="path39243"
   style="fill:#1d1d1b" />

				<path
   class="st17"
   d="m 1293.5,2301.4 c 0,0 1,12.9 2.3,28.4 1.7,21 3.7,46.9 3.9,51.8 0.3,8.5 1.7,22.1 1.7,22.1 0,0 3.3,3.2 9.8,1.9 0,0 5.8,-19.4 7.5,-40 0,-0.3 0.1,-0.7 0.1,-1 1.6,-20.9 4,-64.9 4,-64.9 z"
   id="path39245"
   style="fill:#fc903a" />

				<path
   class="st30"
   d="m 1293.5,2301.4 c 0,0 1,12.9 2.3,28.4 l 23,35.8 c 0,-0.3 0.1,-0.7 0.1,-1 1.6,-20.9 4,-64.9 4,-64.9 z"
   id="path39247"
   style="fill:#fc7722" />

				<path
   class="st17"
   d="m 1298.2,2303 c 0,0 18.9,46.7 31.3,68.6 12.4,21.9 16.3,28.1 16.3,28.1 0,0 7.1,-2.8 7.8,-4.7 0,0 -4.8,-42.3 -13.1,-52.7 -4.7,-5.8 -10.2,-23.3 -10.5,-29.5 -0.3,-6.1 -1.7,-18.2 -1.7,-18.2 z"
   id="path39249"
   style="fill:#fc903a" />

			</g>

			<path
   class="st19"
   d="m 1314.5,2232.9 c 0,0 -12.7,6.4 -20.1,4.3 0,0 1.8,-2.3 4.9,-4.1 -0.3,-1.5 -0.5,-2.8 -0.6,-3.8 -0.4,-2.5 -0.4,-3.9 -0.4,-3.9 l 4.9,-4 4.6,-3.8 c -0.2,10.4 6.7,15.3 6.7,15.3 z"
   id="path39253"
   style="fill:#fcad78" />

			<path
   class="st7"
   d="m 1327.1,2298.2 c -5.1,3.1 -10,5.4 -15.6,6.7 -6.7,1.6 -14.9,1.1 -17.6,1.5 -0.3,0 -0.5,0 -0.8,-0.2 -0.2,-0.1 -1.4,-8.3 -2.6,-18.6 -0.1,-0.4 -0.1,-0.8 -0.1,-1.3 v -0.1 c -0.5,-4 -0.9,-8.2 -1.2,-12.5 -0.3,-3.3 -0.5,-6.6 -0.7,-9.6 -0.2,-3.8 -0.3,-7.3 -0.2,-10.2 0,-1.3 0.1,-2.5 0.2,-3.5 0.7,-6 3.6,-10.3 6.3,-13.5 l 2.2,-2.5 c 2.6,0.2 5.2,-0.3 7.8,-2 2.7,-1.8 5.7,-3.7 6.2,-3.4 4.2,2.3 7.6,8.2 10,16.1 1.4,4.5 2.5,9.6 3.2,15.1 0.2,1.7 0.4,3.4 0.6,5.1 0,0.3 0.1,0.6 0.1,1 0.3,4.7 0.9,9.1 1.5,13.1 0.8,5.3 1.7,9.8 2.4,12.9 0.3,1.6 0.6,2.8 0.7,3.7 -0.1,0.7 -1.7,1.8 -2.4,2.2 z"
   id="path39255"
   style="fill:#1d1d1b" />

			<path
   class="st21"
   d="m 1308,2221.6 c 0,0 -3.1,6 -9.2,7.7 -0.4,-2.5 -0.4,-3.9 -0.4,-3.9 l 4.9,-4 z"
   id="path39257"
   style="fill:#f69259" />

			<path
   class="st19"
   d="m 1296.1,2225.2 c 0,0 12.2,1.8 13.2,-5.8 1,-7.6 3.2,-12.4 -4.5,-13.8 -7.7,-1.4 -9.7,1.2 -10.6,3.7 -1,2.5 -1.3,15.3 1.9,15.9 z"
   id="path39259"
   style="fill:#fcad78" />

			<path
   class="st18"
   d="m 1313.5,2204.6 c 0.1,-0.1 0.4,-0.2 0.9,-0.3 0,0 -0.5,-0.3 -1.1,-0.3 -0.1,-0.8 -0.6,-2.2 -2,-2.5 0,0 0.7,0.4 0.9,1.2 -1.6,-1.6 -5,-2.7 -14.3,-1.8 -12.3,1.2 -8.1,9 -6.5,9.9 1.6,0.9 5.6,-1.7 8.6,-1.6 3,0.1 3.6,4.5 4.6,5 1,0.6 0.6,-0.5 2,-1.1 1.4,-0.6 1.5,1.6 1.2,3.1 -0.4,1.5 1.5,3.4 1.5,3.4 0,0 0,0 1.9,-2.1 1.9,-2.1 3.5,-10.8 2.6,-12.6 -0.2,0 -0.3,-0.1 -0.3,-0.3 z"
   id="path39261"
   style="fill:#2b3a66" />

			<path
   class="st7"
   d="m 1308.8,2255.4 c 0,0 -10.3,7.9 -21.3,9.6 -0.2,-3.8 -0.3,-7.3 -0.2,-10.2 z"
   id="path39263"
   style="fill:#1d1d1b" />

			<g
   id="g39269">
				<path
   class="st19"
   d="m 1246.2,2244.5 c -0.2,-0.2 -2.3,-7.2 -5.9,-6.7 -2.4,0.3 -6.3,1.7 -5.2,4.8 0.4,1.2 7.6,5.5 7.6,5.5 z"
   id="path39265"
   style="fill:#fcad78" />

				<path
   class="st7"
   d="m 1310.9,2239.5 c 5.9,3.5 5.4,12.3 -0.9,15 -0.1,0.1 -0.3,0.1 -0.4,0.2 -9.7,3.9 -42.2,4.1 -45.1,3.6 -2.9,-0.5 -22.3,-9.5 -22.3,-9.5 0,0 1.3,-4.9 4.1,-5.7 0,0 20.7,5.2 22.2,4.9 1.5,-0.4 32.3,-14.9 37.5,-11.5 1.4,0.9 3.1,2 4.9,3 z"
   id="path39267"
   style="fill:#1d1d1b" />

			</g>

		</g>
    <g
       id="g39279"
       transform="matrix(0.26458333,0,0,0.26458333,-227.2542,-484.11038)">
			<path
   class="st7"
   d="m 1529.3,2008.5 h -25.8 c -1.1,0 -2,-0.9 -2,-2 v 0 c 0,-1.1 0.9,-2 2,-2 h 25.8 c 1.1,0 2,0.9 2,2 v 0 c -0.1,1.1 -0.9,2 -2,2 z"
   id="path39273"
   style="fill:#1d1d1b" />

			<path
   class="st7"
   d="m 1529.3,2016.2 h -25.8 c -1.1,0 -2,-0.9 -2,-2 v 0 c 0,-1.1 0.9,-2 2,-2 h 25.8 c 1.1,0 2,0.9 2,2 v 0 c -0.1,1.1 -0.9,2 -2,2 z"
   id="path39275"
   style="fill:#1d1d1b" />

			<path
   class="st7"
   d="m 1529.3,2024.1 h -25.8 c -1.1,0 -2,-0.9 -2,-2 v 0 c 0,-1.1 0.9,-2 2,-2 h 25.8 c 1.1,0 2,0.9 2,2 v 0 c -0.1,1.2 -0.9,2 -2,2 z"
   id="path39277"
   style="fill:#1d1d1b" />

		</g>
    <path
       class="st26"
       d="m 150.59725,100.75107 h -16.27187 c -0.37042,0 -0.68792,-0.31751 -0.68792,-0.68793 v 0 c 0,-0.370405 0.3175,-0.687905 0.68792,-0.687905 h 16.27187 c 0.37042,0 0.68792,0.3175 0.68792,0.687905 v 0 c 0,0.37042 -0.3175,0.68793 -0.68792,0.68793 z"
       id="path39281"
       style="fill:#e7f1f9;stroke-width:0.264583" />
    <path
       class="st26"
       d="M 71.010581,53.17899 H 54.738706 c -0.370417,0 -0.687917,-0.3175 -0.687917,-0.68792 v 0 c 0,-0.37042 0.3175,-0.68792 0.687917,-0.68792 h 16.271875 c 0.370417,0 0.687917,0.3175 0.687917,0.68792 v 0 c 0,0.39688 -0.3175,0.68792 -0.687917,0.68792 z"
       id="path39283"
       style="fill:#e7f1f9;stroke-width:0.264583" />
    <path
       class="st26"
       d="m 150.59725,107.63024 h -16.27187 c -0.37042,0 -0.68792,-0.3175 -0.68792,-0.68792 v 0 c 0,-0.37042 0.3175,-0.68792 0.68792,-0.68792 h 16.27187 c 0.37042,0 0.68792,0.3175 0.68792,0.68792 v 0 c 0,0.37042 -0.3175,0.68792 -0.68792,0.68792 z"
       id="path39285"
       style="fill:#e7f1f9;stroke-width:0.264583" />
    <path
       class="st26"
       d="m 150.59725,104.19065 h -19.47333 c -0.37042,0 -0.68792,-0.3175 -0.68792,-0.68791 v 0 c 0,-0.37042 0.3175,-0.68792 0.68792,-0.68792 h 19.47333 c 0.37042,0 0.68792,0.3175 0.68792,0.68792 v 0 c 0,0.37041 -0.3175,0.68791 -0.68792,0.68791 z"
       id="path39287"
       style="fill:#e7f1f9;stroke-width:0.264583" />
    <g
       id="g39293"
       transform="matrix(0.26458333,0,0,0.26458333,-227.2542,-484.11038)">
			<path
   class="st26"
   d="m 1109,2047.2 h -34.7 c -1.1,0 -2,-0.9 -2,-2 v -1.2 c 0,-1.1 0.9,-2 2,-2 h 34.7 c 1.1,0 2,0.9 2,2 v 1.2 c 0,1.1 -0.9,2 -2,2 z"
   id="path39289"
   style="fill:#e7f1f9" />

			<path
   class="st26"
   d="m 1060.8,2044.6 c 0,-1.4 1.2,-2.6 2.6,-2.6 1.4,0 2.6,1.2 2.6,2.6 0,1.4 -1.2,2.6 -2.6,2.6 -1.4,0 -2.6,-1.2 -2.6,-2.6 z"
   id="path39291"
   style="fill:#e7f1f9" />

		</g>
    <g
       id="g39299"
       transform="matrix(0.26458333,0,0,0.26458333,-227.2542,-484.11038)">
			<path
   class="st26"
   d="m 1115.6,2057.6 h -41.1 c -1.2,0 -2.2,-1 -2.2,-2.2 v -0.9 c 0,-1.2 1,-2.2 2.2,-2.2 h 41.1 c 1.2,0 2.2,1 2.2,2.2 v 0.9 c 0,1.3 -1,2.2 -2.2,2.2 z"
   id="path39295"
   style="fill:#e7f1f9" />

			<path
   class="st26"
   d="m 1060.8,2055 c 0,-1.4 1.2,-2.6 2.6,-2.6 1.4,0 2.6,1.2 2.6,2.6 0,1.4 -1.2,2.6 -2.6,2.6 -1.4,0 -2.6,-1.1 -2.6,-2.6 z"
   id="path39297"
   style="fill:#e7f1f9" />

		</g>
    <g
       id="g39305"
       transform="matrix(0.26458333,0,0,0.26458333,-227.2542,-484.11038)">
			<path
   class="st26"
   d="m 1109,2068.9 h -34.7 c -1.1,0 -2,-0.9 -2,-2 v -1.2 c 0,-1.1 0.9,-2 2,-2 h 34.7 c 1.1,0 2,0.9 2,2 v 1.2 c 0,1.1 -0.9,2 -2,2 z"
   id="path39301"
   style="fill:#e7f1f9" />

			<path
   class="st26"
   d="m 1060.8,2066.3 c 0,-1.4 1.2,-2.6 2.6,-2.6 1.4,0 2.6,1.2 2.6,2.6 0,1.4 -1.2,2.6 -2.6,2.6 -1.4,0 -2.6,-1.1 -2.6,-2.6 z"
   id="path39303"
   style="fill:#e7f1f9" />

		</g>
    <g
       id="g39315"
       transform="matrix(0.26458333,0,0,0.26458333,-227.2542,-484.11038)">
			<g
   id="g39309">
				<path
   class="st7"
   d="m 1172.2,2053.1 c -0.5,0.1 -0.9,0.1 -1.4,0.1 -2.5,0 -4.8,-1 -6.5,-2.8 -3.6,-3.6 -3.5,-9.5 0.2,-13.1 v 0 c 3.6,-3.6 9.5,-3.5 13.1,0.2 3.6,3.6 3.5,9.5 -0.2,13.1 -1.5,1.3 -3.3,2.2 -5.2,2.5 z m -6.7,-14.7 c -3,3 -3.1,7.9 -0.1,10.9 1.4,1.5 3.4,2.3 5.4,2.3 2.1,0 4,-0.8 5.5,-2.2 3,-3 3.1,-7.9 0.1,-10.9 -2.9,-3 -7.8,-3.1 -10.9,-0.1 z"
   id="path39307"
   style="fill:#1d1d1b" />

			</g>

			
				<rect
   x="1159.6"
   y="2047.9"
   transform="matrix(0.6989,0.7152,-0.7152,0.6989,1818.7103,-211.3319)"
   class="st7"
   width="1.5"
   height="12.6"
   id="rect39311"
   style="fill:#1d1d1b" />

			<path
   class="st7"
   d="m 1152.7,2061.7 v 0 c -0.5,-0.5 -0.5,-1.4 0,-1.9 l 5.3,-5.2 c 0.5,-0.5 1.4,-0.5 1.9,0 v 0 c 0.5,0.5 0.5,1.4 0,1.9 l -5.3,5.2 c -0.5,0.6 -1.4,0.6 -1.9,0 z"
   id="path39313"
   style="fill:#1d1d1b" />

		</g>
    <g
       id="g39331"
       transform="matrix(0.26458333,0,0,0.26458333,-227.2542,-484.11038)">
			<path
   class="st7"
   d="m 1508.5,2413.6 v 0 c -1.2,0 -2.4,-0.8 -2.8,-1.9 l -71,-216.2 c -0.3,-1.1 0.3,-1.9 1.5,-1.9 v 0 c 1.2,0 2.4,0.8 2.8,1.9 l 71,216.2 c 0.4,1 -0.3,1.9 -1.5,1.9 z"
   id="path39317"
   style="fill:#1d1d1b" />

			<path
   class="st7"
   d="m 1565.8,2413.3 v 0 c -1.2,0 -2.4,-0.8 -2.8,-1.9 l -71,-216.2 c -0.3,-1.1 0.3,-1.9 1.5,-1.9 v 0 c 1.2,0 2.4,0.8 2.8,1.9 l 71,216.2 c 0.3,1 -0.4,1.8 -1.5,1.9 z"
   id="path39319"
   style="fill:#1d1d1b" />

			<path
   class="st7"
   d="m 1504.1,2225.3 -57.5,0.3 c -1.1,0 -2.3,-0.8 -2.6,-1.8 v 0 c -0.3,-1 0.3,-1.8 1.4,-1.8 l 57.5,-0.3 c 1.1,0 2.3,0.8 2.6,1.8 v 0 c 0.4,1 -0.2,1.8 -1.4,1.8 z"
   id="path39321"
   style="fill:#1d1d1b" />

			<path
   class="st7"
   d="m 1516.5,2263.1 -57.5,0.3 c -1.1,0 -2.3,-0.8 -2.6,-1.8 v 0 c -0.3,-1 0.3,-1.8 1.4,-1.8 l 57.5,-0.3 c 1.1,0 2.3,0.8 2.6,1.8 v 0 c 0.4,0.9 -0.3,1.7 -1.4,1.8 z"
   id="path39323"
   style="fill:#1d1d1b" />

			<path
   class="st7"
   d="m 1528.5,2299.4 -57.5,0.3 c -1.1,0 -2.3,-0.8 -2.6,-1.8 v 0 c -0.3,-1 0.3,-1.8 1.4,-1.8 l 57.5,-0.3 c 1.1,0 2.3,0.8 2.6,1.8 v 0 c 0.3,1 -0.3,1.8 -1.4,1.8 z"
   id="path39325"
   style="fill:#1d1d1b" />

			<path
   class="st7"
   d="m 1541.9,2340.3 -57.5,0.3 c -1.1,0 -2.3,-0.8 -2.6,-1.8 v 0 c -0.3,-1 0.3,-1.8 1.4,-1.8 l 57.5,-0.3 c 1.1,0 2.3,0.8 2.6,1.8 v 0 c 0.4,1 -0.3,1.8 -1.4,1.8 z"
   id="path39327"
   style="fill:#1d1d1b" />

			<path
   class="st7"
   d="m 1556,2383.2 -57.5,0.3 c -1.1,0 -2.3,-0.8 -2.6,-1.8 v 0 c -0.3,-1 0.3,-1.8 1.4,-1.8 l 57.5,-0.3 c 1.1,0 2.3,0.8 2.6,1.8 v 0 c 0.3,0.9 -0.3,1.7 -1.4,1.8 z"
   id="path39329"
   style="fill:#1d1d1b" />

		</g>
    <g
       id="g39367"
       transform="matrix(0.26458333,0,0,0.26458333,-227.2542,-484.11038)">
			<path
   class="st25"
   d="m 1432.3,2096.5 v 0 c -0.5,0.1 -0.9,-0.2 -1,-0.7 l -0.9,-4.8 c -0.1,-0.5 0.2,-0.9 0.7,-1 v 0 c 0.5,-0.1 0.9,0.2 1,0.7 l 0.9,4.8 c 0,0.5 -0.3,0.9 -0.7,1 z"
   id="path39333"
   style="fill:#244f97" />

			
				<rect
   x="1429.9"
   y="2082.1001"
   transform="matrix(0.9818,-0.19,0.19,0.9818,-370.2539,309.7748)"
   class="st25"
   width="0.60000002"
   height="7"
   id="rect39335"
   style="fill:#244f97" />

			<path
   class="st19"
   d="m 1429.8,2043.4 c 0,0 -0.5,-4.7 -1.7,-6.5 -1.1,-1.8 -5.5,-3 -5.8,-2.7 -0.8,0.8 2.5,3.7 2.6,4.8 0.1,1.1 -1.7,0.3 -0.8,2.4 0.7,1.8 3.2,4 3.2,4 z"
   id="path39337"
   style="fill:#fcad78" />

			<path
   class="st31"
   d="m 1427.7,2042.9 c 1.6,-1.2 1.9,-1.2 1.9,-1.2 0,0 14.6,12.7 16,13.8 1.4,1.1 23.4,7.5 23.4,7.5 l 3.5,17.8 c 0,0 -29.7,-14.3 -33.2,-17.3 -5.9,-4.8 -13.3,-18.4 -13.3,-18.4 0,0 0.5,-1.2 1.7,-2.2 z"
   id="path39339"
   style="fill:#ef802c" />

			<path
   class="st7"
   d="m 1468.7,2215.1 c 0,0 -0.3,6.1 -1.4,7.6 l -16.3,0.1 c 0.1,-0.6 0.2,-2.1 2.4,-2.5 2.8,-0.5 6.2,-2.5 7.9,-6.2 1.9,-4 7.4,1 7.4,1 z"
   id="path39341"
   style="fill:#1d1d1b" />

			<path
   class="st7"
   d="m 1500.7,2214.2 c 0,0 1.1,8.1 -0.4,8.2 -0.2,0 -6.6,0.1 -9.3,0.2 -3.2,0.1 -8.6,-0.1 -8.6,-0.1 -0.7,0 -1.1,-0.7 -0.8,-1.3 0.4,-0.6 1.1,-1.3 2.4,-1.6 2.8,-0.5 7.6,-2.6 9.2,-6.4 1.9,-3.9 7.5,1 7.5,1 z"
   id="path39343"
   style="fill:#1d1d1b" />

			<path
   class="st7"
   d="m 1460.3,2131.2 c 0,0 4.5,15.8 17.5,43.4 13,27.5 13.5,40.8 13.5,40.8 0,0 2,0.7 4.6,0.4 2.8,-0.3 4.8,-1.6 4.8,-1.6 0,0 -0.8,-32.8 -7,-46.6 -6.1,-13.9 -7.4,-51.9 -7.4,-51.9 z"
   id="path39345"
   style="fill:#1d1d1b" />

			<path
   class="st7"
   d="m 1453.8,2116.8 c 0,0 -0.4,24.5 3.9,54.7 4.2,30.1 2.3,44.1 2.3,44.1 0,0 1.1,0.8 4.6,0.8 4.1,0 6.1,-1.7 6.1,-1.7 0,0 6.1,-30.1 4.3,-45.2 -1.7,-15.1 8.3,-51.7 8.3,-51.7 z"
   id="path39347"
   style="fill:#1d1d1b" />

			<path
   class="st19"
   d="m 1473.8,2059.4 -4.8,3.6 -6.9,-1.5 c 0.1,-0.6 0.6,-3.3 1,-5.6 0,-0.1 0.1,-0.3 0.1,-0.4 0.4,-2 0.7,-3.8 0.7,-3.8 l 6.5,-3.2 2.4,-1.2 c 0,0 -0.2,2.2 -0.2,2.6 -0.6,5.6 1.2,9.5 1.2,9.5 z"
   id="path39349"
   style="fill:#fcad78" />

			<path
   class="st17"
   d="m 1487.5,2119.9 c -1.6,7.2 -35.1,4 -34.7,-0.4 0,-0.1 0.1,-2.2 0.2,-4.9 0.3,-5.9 0.6,-15.1 0.7,-15.9 0,0 0,0 0,0 0.6,-6.1 1.2,-12.1 1.2,-16 0,-3.4 0.5,-6.8 1.1,-10 0.6,-2.9 1.3,-5.5 1.9,-7.6 0.4,-1.4 1.2,-2.7 2.3,-3.7 0.8,-0.7 1.6,-1.3 2.6,-1.7 0.3,-0.1 0.5,-0.2 0.8,-0.3 3.9,-1.1 9.4,-2.6 10.9,-2.1 4,1.2 7,8.2 9.1,17.2 4.1,17 5,40.7 3.9,45.4 z"
   id="path39351"
   style="fill:#fc903a" />

			<path
   class="st32"
   d="m 1472,2049.9 c -1.4,2.7 -6.7,5.1 -8.9,5.9 0,-0.1 0.1,-0.3 0.1,-0.4 0.4,-2 0.7,-3.8 0.7,-3.8 l 6.5,-3.2 c 1.3,0.1 2.2,0.4 1.6,1.5 z"
   id="path39353"
   style="fill:#fc9f64" />

			<path
   class="st19"
   d="m 1460.7,2051.3 c 0,0 11.7,3.6 13.8,-3.7 2.2,-7.3 5.1,-11.8 -2.2,-14.4 -7.4,-2.6 -9.6,-0.3 -11,2 -1.3,2.3 -3.6,15 -0.6,16.1 z"
   id="path39355"
   style="fill:#fcad78" />

			<path
   class="st33"
   d="m 1461.7,2034.6 c 0,0 0.7,8.5 2.5,8.1 1.8,-0.4 3.4,-0.6 3.1,1.9 -0.3,2.6 -2.7,5.5 2.7,6 5.4,0.5 13.2,-13.5 11.7,-16.2 -4.2,-7.6 -26.2,-9.2 -20,0.2 z"
   id="path39357"
   style="fill:#0e3662" />

			<path
   class="st31"
   d="m 1453.1,2114.6 c 0.3,-5.9 0.6,-15.1 0.7,-15.9 0,0 0,0 0,0 l 19.8,-11.9 c 0,0 0.8,27.7 -20.5,27.8 z"
   id="path39359"
   style="fill:#ef802c" />

			<path
   class="st19"
   d="m 1437.3,2089.8 c 0,0 -4,-2.7 -4.8,-3 -0.8,-0.2 -3.3,-0.5 -3.4,-0.3 -0.1,0.2 -0.5,0.8 0,1 0.4,0.2 1,0.1 0.8,0.3 -0.2,0.1 -1.8,-0.6 -2.2,0.2 -0.4,0.8 -0.7,3.7 1.2,4.6 1.9,0.9 6.7,0.1 7,0.2 3,0.8 1.4,-3 1.4,-3 z"
   id="path39361"
   style="fill:#fcad78" />

			<path
   class="st17"
   d="m 1437.3,2089.1 c 0,0 19.7,3.3 21.4,2.5 2.8,-1.4 -1.1,-21.3 -1.1,-21.3 0,0 -0.2,-4.5 5.1,-5.6 4.6,-0.9 9,2.5 9,2.5 0,0 4,3.6 3.5,7.6 -1.1,8.9 -2.9,26.9 -8.8,29.6 -7.6,3.6 -29.8,-9.9 -29.8,-9.9 0,0 -0.7,-0.9 -0.6,-2.6 0.1,-1.4 1.3,-2.8 1.3,-2.8 z"
   id="path39363"
   style="fill:#fc903a" />

			<path
   class="st19"
   d="m 1424.1,2041.2 c 0,0 -1.3,-2.5 -1.5,-3 -0.2,-0.5 0.3,-0.4 0.8,-0.1 0.5,0.3 1.1,1.7 1.9,1.5 0.6,-0.1 -1.2,1.6 -1.2,1.6 z"
   id="path39365"
   style="fill:#fcad78" />

		</g>
  </g>
</svg>
