<?xml version="1.0" encoding="UTF-8" standalone="no"?>
<!-- Created with Inkscape (http://www.inkscape.org/) -->

<svg
   width="64"
   height="64"
   viewBox="0 0 16.933333 16.933334"
   version="1.1"
   id="svg70627"
   xmlns="http://www.w3.org/2000/svg"
   xmlns:svg="http://www.w3.org/2000/svg">
  <defs
     id="defs70624" />
  <g
     id="layer1">
    <g
       id="FB_00000170979664691563333030000010586471374362654908_"
       transform="matrix(0.26458333,0,0,0.26458333,-159.66558,-1688.1772)">
				<path
   d="m 665.9,6412.6 c 0,-16.8 -13.6,-30.5 -30.5,-30.5 -16.9,0 -30.5,13.6 -30.5,30.5 0,15.2 11.1,27.8 25.7,30.1 v -21.3 h -7.7 v -8.8 h 7.7 v -6.7 c 0,-7.6 4.6,-11.9 11.5,-11.9 3.3,0 6.8,0.6 6.8,0.6 v 7.5 h -3.8 c -3.8,0 -5,2.3 -5,4.8 v 5.7 h 8.5 l -1.4,8.8 h -7.1 v 21.3 c 14.6,-2.3 25.8,-14.9 25.8,-30.1 z"
   id="path65475" />

				<path
   class="st1"
   d="m 647.3,6421.4 1.4,-8.8 h -8.5 v -5.7 c 0,-2.4 1.2,-4.8 5,-4.8 h 3.8 v -7.5 c 0,0 -3.5,-0.6 -6.8,-0.6 -7,0 -11.5,4.2 -11.5,11.9 v 6.7 H 623 v 8.8 h 7.7 v 21.3 c 1.6,0.2 3.1,0.4 4.8,0.4 1.7,0 3.2,-0.1 4.8,-0.4 v -21.3 z"
   id="path65477"
   style="fill:#ffffff" />

			</g>
  </g>
</svg>
