<?xml version="1.0" encoding="UTF-8" standalone="no"?>
<!-- Created with Inkscape (http://www.inkscape.org/) -->

<svg
   width="352"
   height="292"
   viewBox="0 0 93.133335 77.258334"
   version="1.1"
   id="svg9536"
   xmlns="http://www.w3.org/2000/svg"
   xmlns:svg="http://www.w3.org/2000/svg">
  <defs
     id="defs9533" />
  <g
     id="layer1">
    <g
       id="g9570"
       transform="matrix(0.25701305,0,0,0.26320218,-269.75463,-1076.9028)">
      <path
         class="st1"
         d="m 1059.9,4383.2 c 0.2,0.5 0.7,0.8 1.2,0.8 3.6,0.3 11.7,0.6 13.1,0.6 h 0.4 v 0 c 0.6,0 1.1,-0.1 1.7,-0.2 v 0 c 1.8,-0.3 3.4,-1.2 4.9,-2 0.2,-0.1 0.3,-0.2 0.5,-0.3 0.6,-0.1 1.2,-0.2 1.8,-0.3 7.5,-1.4 14.6,-5.4 19.7,-11.1 1.4,-1.6 2.4,-3.1 3.1,-4.5 1.2,-2.6 0.9,-5.4 0.6,-8 0,-0.3 -0.1,-0.7 -0.1,-1 -0.1,-0.7 -0.3,-1.4 -0.5,-2.1 l -0.1,-0.3 c -0.9,-3.1 -1.9,-6.3 -2.8,-9.4 -0.7,-2.2 -1.4,-4.4 -2,-6.6 -0.8,-2.6 -1.5,-6.4 -0.6,-9.8 1,-3.7 4.3,-4 8,-4.4 0.4,0 0.8,-0.1 1.2,-0.1 2.4,-0.2 4.8,-0.4 7.1,-0.5 h 0.2 c 4.7,-0.3 9.6,-0.6 14.4,-1.7 6.6,-1.5 12.7,-4.4 18.7,-7.2 2.2,-1.1 4.6,-2.2 6.9,-3.2 l 0.3,-0.1 c 3.6,-1.6 7.7,-3.3 9.5,-7 0.9,-1.7 1.1,-3.6 1.4,-5.5 0.2,-1.1 0.3,-2.2 0.6,-3.2 1,-3.8 3.8,-6.7 5.9,-8.4 2.7,-2.2 6.8,-5.2 10.8,-6.8 6.2,-0.8 12.5,-0.7 18.7,-0.5 2.1,0.1 4.4,0.1 6.6,0.1 13.5,0.1 27.1,-1.4 40.3,-4.5 -0.1,0.3 -0.1,0.7 0,1 0.3,0.7 1.1,0.7 2,0.6 0.5,-0.1 1.1,-0.3 1.6,-0.4 v 0 c 1.2,-0.5 3,-1.3 5,-2.2 6.6,-2.9 16.5,-7.4 22.7,-8.6 0.4,-0.1 0.8,-0.2 1.1,-0.3 0.2,-0.1 0.7,-0.4 0.9,-1 0.1,-0.5 -0.1,-0.8 -0.3,-1.1 7.1,-3.6 14,-8.2 20.6,-12.6 3.3,1.4 7.3,-1 8.5,-2.1 0.7,-0.6 1.3,-1.3 1.8,-2 0.4,-0.5 0.8,-1 1.3,-1.4 1.1,-1.2 2.5,-2.2 3.8,-3.2 l 0.6,-0.5 c 4.4,-3.3 8.5,-7 12.5,-10.5 4.4,-3.9 9,-8 13.9,-11.5 0.7,0.6 1.4,0.8 1.9,1.1 0.1,0.1 0.3,0.1 0.4,0.2 1.6,2.6 0.2,11.9 -0.4,16 -0.1,0.6 -0.2,1.1 -0.2,1.5 -0.2,1.6 -0.5,3.2 -0.8,4.7 l -0.1,0.5 c -0.3,1.4 -0.6,2.9 -0.2,4.5 0.2,0.8 0.5,1.4 1,1.9 0.3,0.3 0.6,0.5 0.8,0.7 0.1,0.1 0.2,0.2 0.3,0.2 -0.2,1.3 -0.6,2.3 -1.1,3.4 -1.9,-0.8 -4.2,-0.6 -6,0.5 -0.3,0 -0.6,0.1 -1,0.2 -0.5,0.2 -0.9,0.4 -1.4,0.8 -0.8,0.7 -1.4,1.8 -1.8,3.1 -0.3,1.1 -0.4,2.2 -0.4,3.3 -0.1,3.1 0.1,6.2 0.6,9.3 0.3,1.6 0.6,3.2 1.4,4.6 0.2,0.3 0.5,0.5 0.8,0.5 0.1,0 0.2,0 0.3,0 0.2,0 0.4,-0.1 0.6,-0.3 v 0 c 2.9,-2.9 5.9,-5.9 8.8,-8.8 l 0.3,-0.3 v -0.1 c 0.1,-0.2 0.2,-0.4 0.4,-0.7 0.1,0.4 0.2,0.8 0.3,1.3 0.8,3 1.5,5.8 2.8,8.4 0.5,0.9 1.1,0.9 1.4,0.9 v 0 c 0.5,-0.1 0.7,-0.4 0.9,-0.6 2.3,-3.2 4.5,-6.5 6.5,-9.9 l 0.2,-0.3 v 0 c 1.3,-2.7 2.7,-6.2 3.6,-8.9 0.8,-2.3 1.7,-5 1.9,-7.9 0.2,-2.4 -0.1,-4.9 -0.4,-7 -0.9,-6.6 -2.6,-13.2 -4.3,-19.5 -0.3,-1.1 -0.4,-2.2 -0.5,-3.3 -0.1,-1.1 -0.2,-2.2 -0.5,-3.3 -0.4,-1.6 -1.3,-3.2 -2.6,-4.9 -2.8,-3.6 -7.8,-7.3 -13.6,-6.6 -1.5,0.2 -2.9,0.6 -4.2,1.1 l -16.4,5.3 c -0.4,0.1 -0.9,0.3 -1.3,0.4 0.6,-1.5 0.9,-3.1 1,-4.4 0.1,-1.2 0.3,-2.5 0.3,-3.8 0.1,-1.8 0.1,-3.7 -0.1,-5.6 0,-0.6 0,-1.1 0.1,-1.7 0.2,0.1 0.5,0.2 0.8,0.1 0.4,-0.1 0.7,-0.3 0.9,-0.6 0.3,-0.6 0.1,-1.3 -0.5,-1.7 0,0 -0.1,0 -0.1,0 0.1,-0.1 0.1,-0.1 0.2,-0.2 3.5,-4.2 7.4,-7.4 11.8,-9.3 3.1,-1.4 6.4,-2.2 9.7,-2.3 0.7,1.5 1.5,3 2.2,4.5 l 0.1,0.2 c 2.1,4.3 4.2,8.8 7.8,12 1.3,1.2 2.9,2.3 5,3.5 5.4,3 11.4,4.6 16.9,4.7 1.7,1.4 3.5,2.7 5.2,3.8 0,0.1 0,0.3 0,0.4 0.1,0.4 0.5,0.6 0.8,0.6 0.8,1.6 1.3,3.3 1.5,5 0,0.2 0,0.4 0.1,0.6 0.1,0.9 0.2,1.7 0.6,2.6 0.4,0.8 1,1.6 1.9,2.4 1.4,1.2 3.9,1.7 5.9,1.3 0.1,0 0.3,-0.1 0.4,-0.1 0.2,0.2 0.4,0.4 0.6,0.5 1,0.7 2.2,0.9 3.3,0.7 1,-0.2 1.9,-0.6 2.7,-1.3 1.5,-1.3 2.3,-3.1 3,-4.8 l 0.1,-0.3 c 0.6,-1.5 1.2,-3 2.3,-4.1 0.1,-0.2 0.3,-0.3 0.5,-0.5 0.7,-0.7 1.5,-1.5 1.6,-2.7 0.1,-0.8 -0.3,-1.6 -0.5,-2.1 -2.3,-5.2 -5,-10.5 -7.6,-15.7 0,0 0,-0.1 0,-0.1 0,-0.1 0.1,-0.2 0.1,-0.3 0,-0.1 0,-0.2 0,-0.3 0.1,-0.2 0.2,-0.4 0.2,-0.6 0,-0.7 -0.5,-1.2 -1.1,-1.3 -0.2,0 -0.3,0 -0.5,0 -3.8,-7.5 -7.6,-15.3 -10.2,-23.1 l 0.8,-0.1 -0.5,-1.6 c -1.9,-5.7 -3.7,-11.1 -10.2,-16.9 4,-4.1 6.9,-7.9 9.2,-11.8 0.5,-0.8 1,-1.7 1.2,-2.7 0,-0.1 0.1,-0.4 0,-0.8 -0.1,-0.3 -0.3,-0.5 -0.6,-0.7 -0.5,-0.2 -1.1,0 -1.3,0.1 -1.4,0.6 -2.7,1.5 -3.8,2.5 0.2,-0.7 0.4,-1.2 0.5,-1.5 0,-0.1 0.1,-0.5 -0.1,-0.8 -0.2,-0.3 -0.6,-0.7 -1.3,-0.5 -1.5,0.4 -8.5,7.5 -11.6,12.3 -0.9,-0.3 -1.9,-0.6 -2.6,-0.7 -1.6,-0.7 -2.5,-1.4 -3.5,-2 l -0.2,-0.2 c -1.1,-0.8 -2.3,-1.7 -3.8,-1.7 -0.9,0 -1.7,0.4 -2.4,0.7 -0.6,0.3 -1.2,0.5 -1.8,0.5 -0.7,0 -1.5,-0.5 -2.2,-0.9 -0.1,-0.1 -0.3,-0.2 -0.4,-0.3 -1.5,-0.9 -2.9,-1.1 -4,-0.5 -0.4,0.2 -0.7,0.4 -0.9,0.7 -0.2,0.2 -0.4,0.3 -0.5,0.4 -0.8,0.5 -2,0 -3.2,-0.4 l -0.1,-0.1 c -1.3,-0.5 -3.3,-1.1 -5.2,-0.6 -0.8,0.2 -1.6,0.7 -2.3,1.1 -0.4,0.2 -0.7,0.4 -1.1,0.6 -1.3,0.7 -4.4,1 -6.2,0.5 -0.2,0 -0.4,0 -0.5,0 -0.7,-1.1 -1.3,-1.8 -1.8,-2.2 0.2,-0.5 0.3,-1.3 -0.2,-1.8 -0.6,-0.7 -1.8,-0.3 -2.2,-0.2 -4.5,1.7 -11.9,6.6 -12.8,7.2 0,0 -27,0.7 -27.3,0.7 0,0 0,0 0,0 -3.3,-4.1 -8.3,-10.2 -10.7,-13.2 0.5,-0.7 0.7,-1.3 0.7,-1.6 0,-0.7 -0.1,-1.8 -0.4,-2.7 0.3,-0.4 0.7,-0.7 1,-0.8 0.1,0 0.3,0 0.4,0.1 1,0.9 2.1,1.7 3.3,2.4 0.8,0.5 1.8,1 2.9,0.8 0.1,0 0.3,-0.1 0.4,-0.1 0.7,-0.3 1.2,-0.8 1.6,-1.3 0.5,-0.6 0.9,-1.3 1.4,-1.9 0.5,-0.7 1,-1.4 1.5,-2.1 0.9,-1.1 2,-2.1 3.2,-2.8 0.2,-0.1 0.5,-0.3 0.6,-0.7 0.1,-0.3 0,-0.5 0,-0.6 -0.5,-1.8 -1,-5.1 -0.3,-8.7 2.5,1 5,2.1 6.5,2.9 0.2,0.1 0.4,0.1 0.5,0.1 0.2,0 0.4,-0.2 0.6,-0.4 0.2,-0.4 0.1,-0.9 -0.3,-1.1 -1.2,-0.6 -3.1,-1.5 -5.2,-2.4 0.9,-4.1 -0.1,-8.9 -2.6,-12 -2.7,-3.2 -5.4,-5.5 -11.1,-6.6 -4.3,-0.9 -9.7,0.3 -13.2,2.9 -2.6,1.9 -4.3,4.9 -5,8.6 -0.6,3.1 -0.4,6.7 0.6,9.9 v 0.1 c 0.1,0.1 0.1,0.2 0.2,0.3 -0.2,0.2 -0.4,0.5 -0.6,0.8 l -0.1,0.1 c 0,0.1 -0.1,0.3 -0.1,0.4 -3.7,-0.7 -7.2,0.2 -9.5,1.1 -3.8,1.5 -7.1,3.8 -10.3,6.1 l -1,0.7 c -14.4,10.3 -29.8,18.5 -45.8,24.4 l -1.5,0.6 1.3,0.9 c 0.8,0.5 1.7,1.1 2.5,1.5 l 0.3,0.2 0.3,-0.1 c 2.4,-0.7 4.8,-1.4 7.1,-2.2 -0.5,0.4 -1,0.8 -1.5,1.2 0,0 0,0 0,0 -2.6,2.1 -5,4.4 -6.7,7.2 -1.4,2.3 -2.2,5.2 -2.1,8.1 0,3.1 1.2,5.4 3.9,7.3 2.3,1.6 4.9,2.4 7.3,3.1 0.9,0.3 1.8,0.5 2.7,0.8 1.1,0.6 2.3,1.3 3.6,2 4.8,2.7 10.1,5.7 14.7,8 -4.5,4.2 -10.3,7.9 -16.3,10.1 -6.6,2.5 -14.1,3.7 -22.9,4 -0.6,0 -1.1,0.4 -1.4,1 -0.2,0.6 0,1.2 0.4,1.6 0.8,0.7 1.6,1.2 2.6,1.8 -0.7,0.7 -1.1,1.6 -1.2,2.6 -0.1,1.2 0.5,2.5 1.5,3.3 -1.7,0.4 -3.5,0.9 -4.7,1.3 -0.2,0.1 -0.6,0.2 -0.8,0.6 -0.3,0.5 -0.1,1 0,1.2 0.3,0.7 0.6,1.5 1,2.2 0.1,0.1 0.1,0.3 0.2,0.4 -10,2.4 -20.3,3.7 -29.3,3.6 -0.6,0 -1.3,0 -1.9,0 -2.1,0 -4.3,-0.1 -6.5,0.1 -4.9,0.4 -9.6,1.8 -14,3.2 -3.4,1.1 -7,2.4 -11.3,4.1 -0.6,0.2 -1.1,0.4 -1.7,0.6 -3.6,1.4 -7.4,2.8 -10.9,4.7 -1.2,0.6 -2.3,1.3 -3.4,2 -1.2,-0.2 -2.5,-0.5 -3.9,-0.8 -3.7,-0.7 -7.8,-1.6 -11,-2.1 -3.1,-0.6 -6.6,-1.2 -10.1,-1.2 -5.9,0 -12.1,1.9 -18.4,5.5 -2.8,1.6 -5.1,3.3 -6.9,5 -4.3,4.1 -7,9.6 -7.8,15.4 -0.7,5.9 0.5,11.9 3.6,16.9 2.4,3.9 5.8,7.1 9,10.1 1.4,1.3 2.8,2.6 4.1,4 3.1,3.2 5.3,6.5 6.5,9.6 0.8,2.3 1.5,4.7 1,7.3 -1.4,0.2 -2.8,0.4 -4.1,1.1 -1.7,1 -2.8,2.7 -2.8,4.6 v 0.1 c 0.2,3.3 1.3,6.5 2.4,9.6 l 0.3,0.8 c 0.5,1.3 0.9,2.7 1.3,4 -0.6,3.6 -3.6,6.2 -6.3,8.2 -1.7,1.3 -3.5,2.5 -5.2,3.6 l -0.9,0.6 c -0.7,0.5 -1.6,1.1 -2.1,2.1 l -0.3,0.5 0.4,0.4 c 0.9,1.1 2.6,1.5 4.3,1 1,-0.3 1.8,-0.7 2.6,-1.2 0.2,-0.1 0.3,-0.2 0.5,-0.3 -0.1,0.2 -0.3,0.5 -0.3,0.8 0,0.7 0.5,1.3 1.2,1.6 0.4,0.1 0.7,0.1 1,0.1 v 0 c 0.6,0 1.2,-0.1 1.7,-0.2 2.8,-0.5 5.3,-1.8 7.1,-3.7 1.7,7 3,14.1 3.9,21.3 0.2,1.6 0.4,3.7 1.1,5.6 -0.5,0.8 -1,2 -1.4,3 -0.2,-0.1 -0.4,-0.2 -0.7,-0.3 -0.3,-0.1 -0.7,-0.2 -1.1,-0.2 0,0 0,0 -0.1,-0.1 -0.7,-0.8 -1.9,-1.1 -3.4,-0.7 -3.5,0.9 -6.9,3 -9.9,6 -2,2.1 -3.9,4.6 -6,7.9 0.4,0.1 0.4,0.7 0.6,1.1 z m 318.8,-177.8 c 0.1,0 0.1,0 0.2,0 0.2,0 0.4,-0.1 0.5,-0.2 0.1,0.1 0.3,0.3 0.4,0.4 -0.4,-0.2 -0.8,-0.2 -1.1,-0.2 z m -27,-23.1 c 2,0.1 3.9,0.4 5.7,1 0.2,0.6 0.3,1.1 0.5,1.7 0.6,1.9 1.4,4.1 2.6,6.1 0,0.1 -0.1,0.1 -0.1,0.2 -0.3,0.4 -0.2,0.9 0.2,1.1 0.2,0.1 0.4,0.2 0.6,0.1 0.1,0 0.2,-0.1 0.3,-0.1 1.9,2.3 4.6,4.1 8.3,5.5 1.4,0.5 2.7,0.9 3.9,1.2 1.2,1.5 2.5,2.9 4,4.3 0,0 0,0 0,0.1 -0.3,0.6 -0.2,1.3 0.4,1.7 0.1,0.1 0.2,0.1 0.3,0.1 -4.2,-0.6 -8.5,-2 -12.6,-4.3 -2,-1.1 -3.5,-2.1 -4.7,-3.2 -3.4,-3 -5.4,-7.4 -7.4,-11.5 l -0.1,-0.2 c -0.7,-1.3 -1.3,-2.5 -1.9,-3.8 z m 6.1,71.4 c 0.5,-1.1 0.8,-2.2 1.1,-3.3 0.3,0.3 0.7,0.6 1,0.9 0.3,0.2 0.5,0.4 0.7,0.6 -0.2,0.7 -0.5,1.4 -0.8,2.1 -0.5,-0.2 -1.2,-0.3 -2,-0.3 z m -120.1,-89.2 c 0.7,-0.1 1.3,-0.4 1.9,-0.6 l 11.5,-4 c 3.4,-1.2 6.8,-2.4 10.2,-3.8 2.8,-1.2 5.3,-2.6 7.4,-4 0.3,-0.2 3,-2.5 4.3,-3.8 l 9.4,7 c 0.6,0.5 1.3,0.9 2.1,1.2 -1,0.6 -1.9,1.4 -2.8,2.8 -0.4,0.2 -1,0.2 -1.6,0.1 -0.2,0 -0.4,0 -0.7,0 -2.1,-0.1 -4.3,0.9 -5.6,2.6 -0.2,0.2 -0.3,0.5 -0.5,0.7 -0.3,0.5 -0.6,0.9 -1,1.2 -0.6,0.4 -1.4,0.4 -2.3,0.5 h -0.1 c -1.8,0.1 -4.1,0.4 -5.5,2 -0.4,0.4 -0.6,0.9 -0.9,1.3 -0.1,0.2 -0.3,0.5 -0.4,0.7 -1,1.5 -1.8,2 -3.3,2.7 -0.3,0.1 -0.7,0.2 -1.1,0.3 -0.8,0.2 -1.7,0.4 -2.4,1 -0.4,-0.2 -0.8,-0.4 -1.3,-0.5 -0.7,0 -1.5,0.7 -1.8,1.1 -0.2,0.2 -0.3,0.4 -0.5,0.7 -0.1,0 -0.3,0 -0.5,0 h -0.1 c -0.7,0.1 -1.1,0.2 -1.4,0.4 -0.4,-0.3 -0.7,-0.6 -1.1,-0.8 -0.5,-0.4 -0.9,-0.7 -1.3,-1.1 -3.5,-2.8 -7.1,-5.4 -10.6,-7.7 z m -160.7,95.2 c -1.8,-2 -2.3,-5.2 -1.4,-8.2 1,-3.3 3.4,-5.6 5.3,-7.1 5.9,-4.5 14.5,-5.4 21.7,-2.5 -2.8,2.9 -5.2,6.1 -7.1,9.6 -1.3,2.2 -2,4.7 -2.6,6.8 -0.4,1.6 -0.8,3.3 -1.1,5.1 -1.6,-0.8 -3.4,-0.7 -4.9,-0.6 -0.3,0 -0.7,0 -1,0 -2.9,0.1 -6.6,-0.5 -8.9,-3.1 z m 18,109.1 c 0.1,-0.2 0.2,-0.4 0.2,-0.6 0,0.1 0.1,0.2 0.1,0.3 0,0.1 0,0.2 0,0.2 0,0 -0.1,0.1 -0.3,0.1 z m -6.7,-33.6 c 0.1,0 0.1,0 0,0 3.3,7.3 4.9,12.3 5.7,15.1 0.4,1.3 0.7,2.6 0.8,3.9 0.1,0.9 0.1,1.8 0,2.8 -0.1,-0.2 -0.1,-0.5 -0.2,-0.7 -1.9,-7.1 -3.7,-13.3 -5.6,-18.9 l -0.1,-0.2 c -0.1,-0.7 -0.4,-1.3 -0.6,-2 z"
         id="path7299"
         style="fill:#ffffff" />
      <path
         class="st5"
         d="m 1271,4206.8 c -2.7,9.4 -11.7,15 -19,16.8 -4.6,1.1 -4.6,-0.3 -13.6,0.4 -5.7,0.5 -9.9,1.4 -18.1,3.4 -15.7,3.6 -17.5,5.1 -20.8,3.8 -3.5,-1.4 -7.6,-5.4 -9.8,-17.4 4.9,-1.7 12,-4.5 20.1,-8.7 8.2,-4.2 10,-6.1 13.4,-5.6 9.1,1.2 9,15.7 18.8,18.3 7.3,2 17,-3.6 20.6,-11.2 4.3,-9.2 -1.4,-19.5 -2.2,-21 -3.5,-6.1 -8.9,-9.6 -7.6,-11.9 0.6,-1.1 2.4,-1.5 3.6,-1.3 2.5,0.3 4,3 5.3,5.4 6.8,12 7.2,9.9 8.5,14.1 0.9,3 2.6,8.6 0.8,14.9 z"
         id="path7301"
         style="fill:#dd8002" />
      <path
         class="st5"
         d="m 1287.3,4108 c 1.1,1.7 1.3,3.6 0.4,4.7 -0.8,1 -2.2,1.1 -2.7,1.1 -3,0.2 -4.2,-2.3 -6,-1.8 -1.3,0.4 -1,1.8 -3.1,4 -0.9,0.9 -2.5,2.6 -4.2,2.7 -3.6,0.2 -8.1,-6.2 -6.5,-9.8 1.1,-2.4 4.3,-2.9 6.9,-3.4 6.2,-1 11.6,0.8 15.2,2.5 z"
         id="path7303"
         style="fill:#dd8002" />
      <path
         d="m 1390.8,4170 c 0.1,0.4 0.2,0.9 0.1,1.4 -0.2,1.2 -1.3,2.2 -2.5,2.4 -0.1,0 -0.2,0 -0.4,0 -1.2,0.1 -2.4,-0.5 -3.1,-1.6 -0.4,-0.7 -0.6,-1.5 -0.5,-2.3 -0.4,0 -0.8,-0.1 -1.2,-0.3 -0.4,-0.3 -0.6,-0.6 -0.8,-0.9 -0.6,-0.9 -1.3,-2 -1.4,-3.3 0,-0.4 0.2,-0.8 0.6,-1 0.3,-0.1 0.8,0.3 1.2,1.5 0.2,0.7 0.6,1.3 1,1.9 0.1,0.1 0.2,0.3 0.3,0.4 0.2,0.1 0.6,0.1 0.8,0.1 0.4,0 0.7,-0.1 1.1,-0.1 1.6,-0.2 3.3,-0.4 4.9,0.3 0.4,0.2 0.6,0.7 0.4,1.1 -0.1,0.2 -0.3,0.3 -0.5,0.4 z"
         id="path7305" />
      <path
         d="m 1290.1,4115.4 c 1.1,-0.2 2.9,0.6 2.9,0.6 0.2,0.1 0.3,0.3 0.2,0.5 -0.1,0.1 -0.2,0.2 -0.3,0.2 -0.1,0 -0.2,0 -0.2,0 0,0 0,0 0,0 -0.1,0.1 -0.1,0.3 -0.3,0.4 -0.1,0.1 -0.3,0.2 -0.5,0.2 -0.1,0 -0.3,0 -0.5,0 -0.5,-0.1 -0.7,-0.3 -0.8,-0.5 -0.1,-0.2 -0.2,-0.4 -0.2,-0.6 0,0 -0.1,0 -0.1,0 0,0 0,0 0,0 -0.2,0 -0.4,-0.1 -0.5,-0.3 -0.1,-0.3 0,-0.5 0.3,-0.5 z"
         id="path7307" />
      <path
         d="m 1073.3,4311.8 c -0.2,-0.2 -0.3,-0.6 0,-0.9 0.2,-0.2 0.6,-0.3 0.9,0 0.4,0.4 1.3,0.3 2.5,-0.3 0.3,-0.1 0.6,-0.3 0.9,-0.4 2.8,-1.4 5.7,-2.8 8.9,-3 0.3,0 0.6,0.2 0.6,0.6 0,0.3 -0.2,0.6 -0.6,0.6 -2.9,0.1 -5.7,1.5 -8.4,2.9 -0.3,0.1 -0.6,0.3 -0.9,0.4 -0.3,0.2 -0.9,0.5 -1.6,0.6 -0.8,0.1 -1.7,0.1 -2.3,-0.5 z"
         id="path7309" />
      <path
         d="m 1218,4233.9 c -1,-0.3 -2,-0.8 -2.7,-1.7 -0.3,-0.3 -0.2,-0.9 0.1,-1.1 0.3,-0.3 0.9,-0.2 1.1,0.1 0.6,0.7 1.5,1 2.4,1.3 0.5,-0.7 1.1,-1.4 1.6,-2.1 0.3,-0.3 0.6,-0.7 1,-1 0.4,-0.3 0.6,-0.7 0.8,-1.2 l 0.4,-1 c 3,-7.5 6.1,-15.3 10.3,-22.3 1.7,-2.9 3.7,-5.7 5.8,-8.6 2.7,-3.7 5.7,-8 9.7,-11.1 0.9,-0.7 2.4,-1.7 3.8,-1.5 1,0.2 1.9,0.9 2.5,2 0.5,1 0.8,2.2 1,3.3 v 0 c 0.2,1.2 0.5,2.6 0.5,3.9 0,0.8 -11.3,11.8 -24.5,37.1 -0.2,0.4 -0.2,0.9 0,1.3 0,0.1 0.1,0.2 0.1,0.3 0,0 0,0 0,0 0.4,-0.1 0.9,0.2 0.9,0.7 0.1,0.4 -0.2,0.8 -0.5,0.9 0.1,0.5 0.3,1.1 0.4,1.6 0.2,0.6 0.3,1.2 0.5,1.8 0.5,1.6 1.1,3.3 2.5,5 v 0 h 0.1 c 0.2,0.1 0.6,0.2 1.1,0.4 1.7,-4.6 3.3,-9.2 4.8,-13.9 0.1,-0.4 0.6,-0.7 1,-0.5 0.4,0.1 0.7,0.6 0.5,1 -1.5,4.7 -3.1,9.4 -4.8,14 1.7,0.7 3.8,1.6 4.9,2.1 h 0.1 c 1.2,0.6 2.4,1.5 2.8,2.4 0.2,0.4 -0.1,0.9 -0.6,0.9 -3.2,-0.2 -6.1,-0.4 -9,-0.8 0,0.1 -0.1,0.2 -0.1,0.3 0.3,0 0.5,0 0.8,0 0.4,0 0.8,0.4 0.8,0.8 0,0.4 -0.3,0.7 -0.7,0.8 0,0 -0.1,0 -0.1,0 -1.2,0 -2.4,-0.1 -3.6,-0.4 -0.4,-0.1 -0.7,-0.5 -0.6,-1 0.1,-0.4 0.5,-0.7 1,-0.6 0.2,0.1 0.5,0.1 0.7,0.1 0,-0.1 0.1,-0.2 0.1,-0.3 -4.2,-0.6 -8.2,-1.6 -13,-3.1 -2.2,-0.7 -4.8,-1.6 -7.2,-3 -0.3,-0.2 -0.5,-0.5 -0.3,-0.8 1,-1.9 2.2,-4.1 3.6,-6.1 z"
         id="path7311" />
      <path
         d="m 1059.9,4383.2 c 0.2,0.5 0.7,0.8 1.2,0.8 3.6,0.3 11.7,0.6 13.1,0.6 h 0.4 v 0 c 0.6,0 1.2,-0.1 1.7,-0.2 v 0 c 1.8,-0.3 3.4,-1.2 4.9,-2 0.2,-0.1 0.3,-0.2 0.5,-0.3 0.6,-0.1 1.2,-0.2 1.8,-0.3 7.5,-1.4 14.6,-5.4 19.7,-11.1 1.4,-1.6 2.4,-3.1 3.1,-4.5 1.2,-2.6 0.9,-5.4 0.6,-8 0,-0.3 -0.1,-0.7 -0.1,-1 -0.1,-0.7 -0.3,-1.4 -0.5,-2.1 l -0.1,-0.3 c -0.9,-3.1 -1.9,-6.3 -2.8,-9.4 -0.7,-2.2 -1.4,-4.4 -2,-6.6 -0.8,-2.6 -1.5,-6.4 -0.6,-9.8 1,-3.7 4.3,-4 8,-4.4 0.4,0 0.8,-0.1 1.2,-0.1 2.4,-0.2 4.8,-0.4 7.1,-0.5 h 0.2 c 4.7,-0.3 9.6,-0.6 14.4,-1.7 6.6,-1.5 12.7,-4.4 18.7,-7.2 2.2,-1.1 4.6,-2.2 6.9,-3.2 l 0.3,-0.1 c 3.6,-1.6 7.7,-3.3 9.5,-7 0.9,-1.7 1.1,-3.6 1.4,-5.5 0.2,-1.1 0.3,-2.2 0.6,-3.2 1,-3.8 3.8,-6.7 5.9,-8.4 2.7,-2.2 6.8,-5.2 10.8,-6.8 6.2,-0.8 12.5,-0.7 18.7,-0.5 2.1,0.1 4.4,0.1 6.6,0.1 13.5,0.1 27.1,-1.4 40.3,-4.5 -0.1,0.3 -0.1,0.7 0,1 0.3,0.7 1.1,0.7 2,0.6 0.5,-0.1 1.1,-0.3 1.6,-0.4 v 0 c 1.2,-0.5 3,-1.3 5,-2.2 6.6,-2.9 16.5,-7.4 22.7,-8.6 0.4,-0.1 0.8,-0.2 1.1,-0.3 0.2,-0.1 0.7,-0.4 0.9,-1 0.1,-0.5 -0.1,-0.8 -0.3,-1.1 7.1,-3.7 14,-8.2 20.6,-12.6 3.3,1.4 7.3,-1 8.5,-2.1 0.7,-0.6 1.3,-1.3 1.8,-2 0.4,-0.5 0.8,-1 1.3,-1.4 1.1,-1.2 2.5,-2.2 3.8,-3.2 l 0.6,-0.5 c 4.4,-3.3 8.5,-7 12.5,-10.5 4.4,-3.9 9,-8 13.9,-11.5 0.7,0.6 1.4,0.9 1.9,1.1 0.1,0.1 0.3,0.1 0.4,0.2 1.6,2.6 0.2,11.9 -0.4,16 -0.1,0.6 -0.2,1.1 -0.2,1.5 -0.2,1.6 -0.5,3.2 -0.8,4.7 l -0.1,0.5 c -0.3,1.4 -0.6,2.9 -0.2,4.5 0.2,0.8 0.5,1.4 1,1.9 0.3,0.3 0.6,0.5 0.8,0.7 0.1,0.1 0.2,0.2 0.3,0.2 -0.2,1.3 -0.6,2.3 -1.1,3.4 -1.9,-0.8 -4.2,-0.6 -6,0.5 -0.3,0 -0.6,0.1 -1,0.2 -0.5,0.2 -0.9,0.4 -1.4,0.8 -0.8,0.7 -1.4,1.8 -1.8,3.1 -0.3,1.1 -0.4,2.2 -0.4,3.3 -0.1,3.1 0.1,6.2 0.6,9.3 0.3,1.6 0.6,3.2 1.4,4.6 0.2,0.3 0.5,0.5 0.8,0.5 0.1,0 0.2,0 0.3,0 0.2,0 0.4,-0.1 0.6,-0.3 v 0 c 2.9,-2.9 5.9,-5.9 8.8,-8.8 l 0.3,-0.3 v -0.1 c 0.1,-0.2 0.2,-0.4 0.4,-0.7 0.1,0.4 0.2,0.8 0.3,1.3 0.8,3 1.5,5.8 2.8,8.4 0.5,0.9 1.1,0.9 1.4,0.9 v 0 c 0.5,-0.1 0.7,-0.4 0.9,-0.6 2.3,-3.2 4.5,-6.5 6.5,-9.9 l 0.2,-0.3 v 0 c 1.3,-2.7 2.7,-6.2 3.6,-8.9 0.8,-2.3 1.7,-5 1.9,-7.9 0.2,-2.4 -0.1,-4.9 -0.4,-7 -0.9,-6.6 -2.6,-13.2 -4.3,-19.5 -0.3,-1.1 -0.4,-2.2 -0.5,-3.3 -0.1,-1.1 -0.2,-2.2 -0.5,-3.3 -0.4,-1.6 -1.3,-3.2 -2.6,-4.9 -2.8,-3.6 -7.8,-7.3 -13.6,-6.6 -1.5,0.2 -2.9,0.6 -4.2,1.1 l -16.4,5.3 c -0.4,0.1 -0.9,0.3 -1.3,0.4 0.6,-1.5 0.9,-3.1 1,-4.4 0.1,-1.2 0.3,-2.5 0.3,-3.8 0.1,-1.8 0.1,-3.7 -0.1,-5.6 0,-0.6 0,-1.1 0.1,-1.7 0.2,0.1 0.5,0.2 0.8,0.1 0.4,-0.1 0.7,-0.3 0.9,-0.6 0.3,-0.6 0.1,-1.3 -0.5,-1.7 0,0 -0.1,0 -0.1,0 0.1,-0.1 0.1,-0.1 0.2,-0.2 3.5,-4.2 7.4,-7.4 11.8,-9.3 3.1,-1.4 6.4,-2.2 9.7,-2.3 0.7,1.5 1.5,3 2.2,4.5 l 0.1,0.2 c 2.1,4.3 4.2,8.8 7.8,12 1.3,1.2 2.9,2.3 5,3.5 5.4,3 11.4,4.6 16.9,4.7 1.7,1.4 3.5,2.7 5.2,3.7 0,0.1 0,0.3 0,0.4 0.1,0.4 0.5,0.6 0.8,0.6 0.8,1.6 1.3,3.3 1.5,5 0,0.2 0,0.4 0.1,0.6 0.1,0.9 0.2,1.8 0.6,2.6 0.4,0.8 1,1.6 1.9,2.4 1.4,1.2 3.9,1.7 5.9,1.3 0.1,0 0.3,-0.1 0.4,-0.1 0.2,0.2 0.4,0.4 0.6,0.5 1,0.7 2.2,0.9 3.3,0.7 1,-0.2 1.9,-0.7 2.7,-1.3 1.5,-1.3 2.3,-3.1 3,-4.8 l 0.1,-0.3 c 0.6,-1.5 1.2,-3 2.3,-4.1 0.1,-0.2 0.3,-0.3 0.5,-0.5 0.7,-0.7 1.5,-1.5 1.6,-2.7 0.1,-0.8 -0.3,-1.6 -0.5,-2.1 -2.3,-5.2 -5,-10.5 -7.6,-15.7 0,0 0,-0.1 0,-0.1 0,-0.1 0.1,-0.2 0.1,-0.3 0,-0.1 0,-0.2 0,-0.3 0.1,-0.2 0.2,-0.4 0.2,-0.6 0,-0.7 -0.5,-1.2 -1.1,-1.3 -0.2,0 -0.3,0 -0.5,0 -3.8,-7.5 -7.6,-15.3 -10.2,-23.1 l 0.8,-0.1 -0.5,-1.5 c -1.9,-5.7 -3.7,-11.1 -10.2,-16.9 4,-4.1 6.9,-7.9 9.2,-11.8 0.5,-0.8 1,-1.7 1.2,-2.7 0,-0.1 0.1,-0.4 0,-0.8 -0.1,-0.3 -0.3,-0.5 -0.6,-0.7 -0.5,-0.2 -1.1,0 -1.3,0.1 -1.4,0.6 -2.7,1.5 -3.8,2.5 0.2,-0.7 0.4,-1.2 0.5,-1.5 0,-0.1 0.1,-0.5 -0.1,-0.8 -0.2,-0.3 -0.6,-0.7 -1.3,-0.5 -1.5,0.4 -8.5,7.5 -11.6,12.3 -0.9,-0.3 -1.9,-0.6 -2.6,-0.7 -1.6,-0.7 -2.5,-1.4 -3.5,-2.1 l -0.2,-0.2 c -1.1,-0.8 -2.3,-1.7 -3.8,-1.7 -0.9,0 -1.7,0.4 -2.4,0.7 -0.6,0.3 -1.2,0.5 -1.8,0.5 -0.7,0 -1.5,-0.5 -2.2,-0.9 -0.1,-0.1 -0.3,-0.2 -0.4,-0.3 -1.5,-0.9 -2.9,-1.1 -4,-0.5 -0.4,0.2 -0.7,0.4 -0.9,0.7 -0.2,0.2 -0.4,0.3 -0.5,0.4 -0.8,0.5 -2,0 -3.2,-0.4 h -0.1 c -1.3,-0.5 -3.3,-1.1 -5.2,-0.6 -0.8,0.2 -1.6,0.7 -2.3,1.1 -0.4,0.2 -0.7,0.4 -1.1,0.6 -1.3,0.7 -4.4,1 -6.2,0.5 -0.2,0 -0.4,0 -0.5,0 -0.7,-1.1 -1.3,-1.8 -1.8,-2.2 0.2,-0.5 0.3,-1.3 -0.2,-1.8 -0.6,-0.7 -1.8,-0.3 -2.2,-0.2 -4.5,1.7 -11.9,6.6 -12.8,7.2 0,0 -27,0.7 -27.3,0.7 0,0 0,0 0,0 -4.4,-5.5 -11.9,-14.7 -12.1,-15 -0.7,-1 -1.4,-2.1 -2.2,-3 -2.6,-3.1 -7.9,-7.5 -11.7,-7.5 -0.5,0 -0.3,-0.9 0.7,-0.9 3.8,0 9.1,4.4 11.7,7.5 0.8,0.9 1.5,2 2.2,3 0.4,0.6 0.8,1.2 1.2,1.7 0,0 0.1,0 0.1,0 0.1,-0.1 0.2,-0.4 0.2,-0.7 0,-0.7 -0.1,-1.8 -0.3,-2.7 0.3,-0.5 0.7,-0.7 1,-0.8 0.1,0 0.3,0 0.4,0.1 1,0.9 2.1,1.7 3.3,2.4 0.8,0.5 1.8,1 2.9,0.8 0.1,0 0.3,-0.1 0.4,-0.1 0.7,-0.3 1.2,-0.8 1.6,-1.3 0.5,-0.6 0.9,-1.3 1.4,-1.9 0.5,-0.7 1,-1.4 1.5,-2.1 0.9,-1.1 2,-2.1 3.2,-2.8 0.2,-0.1 0.5,-0.3 0.6,-0.7 0.1,-0.3 0,-0.5 0,-0.6 -0.5,-1.8 -1,-5.1 -0.3,-8.7 2.5,1 5,2.1 6.5,2.9 0.2,0.1 0.4,0.1 0.5,0.1 0.2,0 0.4,-0.2 0.6,-0.4 0.2,-0.4 0.1,-0.9 -0.3,-1.1 -1.2,-0.6 -3.1,-1.5 -5.2,-2.4 0.9,-4.1 -0.1,-8.9 -2.6,-12 -2.7,-3.2 -5.4,-5.5 -11.1,-6.6 -4.3,-0.9 -9.7,0.3 -13.2,2.9 -2.6,1.9 -4.3,4.9 -5,8.6 -0.6,3.1 -0.4,6.7 0.6,9.9 v 0.1 c 0.1,0.1 0.1,0.2 0.2,0.3 -0.2,0.2 -0.4,0.5 -0.6,0.8 l -0.1,0.1 c 0,0.1 -0.1,0.3 -0.1,0.4 -3.7,-0.7 -7.2,0.2 -9.5,1.1 -3.8,1.5 -7.1,3.8 -10.3,6.1 l -1,0.7 c -14.4,10.3 -29.8,18.5 -45.8,24.4 l -1.5,0.6 1.3,0.9 c 0.8,0.5 1.7,1.1 2.5,1.5 l 0.3,0.2 0.3,-0.1 c 2.4,-0.7 4.8,-1.4 7.1,-2.2 -0.5,0.4 -1,0.8 -1.5,1.2 0,0 0,0 0,0 -2.6,2.1 -5,4.4 -6.7,7.2 -1.4,2.3 -2.2,5.2 -2.1,8.1 0,3.1 1.2,5.4 3.9,7.3 2.3,1.6 4.9,2.4 7.3,3.1 0.9,0.3 1.8,0.5 2.7,0.8 1.1,0.6 2.3,1.3 3.6,2 4.8,2.7 10.1,5.7 14.7,8 -4.5,4.2 -10.3,7.9 -16.3,10.1 -6.6,2.5 -14.1,3.7 -22.9,4 -0.6,0 -1.1,0.4 -1.4,1 -0.2,0.6 0,1.2 0.4,1.6 0.8,0.6 1.6,1.2 2.6,1.8 -0.7,0.7 -1.1,1.6 -1.2,2.6 -0.1,1.2 0.5,2.5 1.5,3.3 -1.7,0.4 -3.5,0.9 -4.7,1.3 -0.2,0.1 -0.6,0.2 -0.8,0.6 -0.3,0.5 -0.1,1 0,1.2 0.3,0.7 0.6,1.5 1,2.2 0.1,0.1 0.1,0.3 0.2,0.4 -10,2.4 -20.3,3.7 -29.3,3.6 -0.6,0 -1.3,0 -1.9,0 -2.1,0 -4.3,-0.1 -6.5,0.1 -4.9,0.4 -9.6,1.8 -14,3.2 -3.4,1.1 -7,2.4 -11.3,4.1 -0.6,0.2 -1.1,0.4 -1.7,0.6 -3.6,1.4 -7.4,2.8 -10.9,4.7 -1.2,0.6 -2.3,1.3 -3.4,2 -1.2,-0.2 -2.5,-0.5 -3.9,-0.8 -3.7,-0.7 -7.8,-1.6 -11,-2.1 -3.1,-0.6 -6.6,-1.2 -10.1,-1.2 -5.9,0 -12.1,1.9 -18.4,5.5 -2.8,1.6 -5.1,3.3 -6.9,5 -4.3,4.1 -7,9.6 -7.8,15.4 -0.7,5.9 0.5,11.9 3.6,16.9 2.4,3.9 5.8,7.1 9,10.1 1.4,1.3 2.8,2.6 4.1,4 3.1,3.2 5.3,6.5 6.5,9.6 0.8,2.3 1.5,4.7 1,7.3 -1.4,0.2 -2.8,0.4 -4.1,1.1 -1.7,1 -2.8,2.7 -2.8,4.6 v 0.1 c 0.2,3.3 1.3,6.5 2.4,9.6 l 0.3,0.8 c 0.5,1.3 0.9,2.7 1.3,4 -0.6,3.6 -3.6,6.2 -6.2,8.2 -1.7,1.3 -3.5,2.5 -5.2,3.6 l -0.9,0.6 c -0.7,0.5 -1.6,1.1 -2.1,2.1 l -0.2,0.5 0.4,0.4 c 0.9,1.1 2.6,1.5 4.3,1 1,-0.3 1.8,-0.7 2.6,-1.2 0.2,-0.1 0.3,-0.2 0.5,-0.3 -0.1,0.2 -0.3,0.5 -0.3,0.8 0,0.7 0.5,1.3 1.2,1.6 0.4,0.1 0.7,0.1 1,0.1 v 0 c 0.6,0 1.2,-0.1 1.7,-0.2 2.8,-0.5 5.3,-1.8 7.1,-3.7 1.7,7 3,14.1 3.9,21.3 0.2,1.6 0.4,3.7 1.1,5.6 -0.5,0.8 -1,2 -1.4,3 -0.2,-0.1 -0.4,-0.2 -0.7,-0.3 -0.3,-0.1 -0.7,-0.2 -1.1,-0.2 0,0 0,-0.1 -0.1,-0.1 -0.7,-0.8 -1.9,-1.1 -3.4,-0.7 -3.5,0.9 -6.9,3 -9.9,6 -2,2.1 -3.9,4.6 -6,7.9 0,0.2 0,0.8 0.2,1.2 z m 214.2,-264.4 c 1,-0.5 2,-1.3 2.3,-2 0,0 0,0 0,0 0.2,0.4 0.5,0.9 0.9,1.2 0.1,0.1 0.2,0.1 0.4,0.1 0.1,0 0.2,-0.1 0.2,-0.1 0.2,-0.2 0.2,-0.4 0,-0.6 -0.5,-0.4 -0.8,-1 -0.9,-1.6 0.2,-0.4 0.4,-0.8 0.6,-1.2 v 0 c 0.2,-0.5 0.5,-1 0.8,-1.3 0.5,-0.3 1.2,-0.2 1.7,0 0.5,0.2 1,0.5 1.5,0.8 0.2,0.1 0.4,0.3 0.7,0.4 0.7,0.4 1.8,1 3,0.9 1.1,-0.1 2.2,-0.8 2.7,-1.9 0.4,-0.7 0.6,-1.8 0.6,-2.8 0.2,0 0.3,0.1 0.5,0.1 1.2,0.3 3,0.9 4.9,1.6 -0.8,3.8 -0.2,7.5 0.3,9.4 0,0 0,0 0,0 -1.3,0.9 -2.5,1.9 -3.4,3.1 -0.2,0.2 -0.3,0.4 -0.5,0.6 -0.3,-0.2 -0.5,-0.4 -0.7,-0.7 -0.2,-0.3 -0.6,-0.3 -0.9,-0.1 -0.3,0.2 -0.3,0.6 -0.1,0.9 0.3,0.4 0.6,0.7 1,0.9 -0.1,0.2 -0.3,0.4 -0.4,0.6 -0.4,0.6 -0.9,1.3 -1.3,1.8 -0.3,0.4 -0.7,0.8 -1.1,0.9 -0.7,0.3 -1.6,-0.2 -2.3,-0.6 -1,-0.6 -1.9,-1.2 -2.7,-1.9 -0.6,-0.5 -1.5,-0.6 -2.2,-0.1 -0.3,0.2 -0.6,0.4 -0.7,0.5 -0.2,-0.6 -0.4,-1.2 -0.6,-1.8 -0.1,-0.2 -0.5,-1.1 -0.6,-1.3 -0.5,-1.2 -1.2,-2.4 -2.1,-3.7 v 0 c -0.4,-0.7 -1,-1.4 -1.6,-2.1 z m -3.4,-3.2 c 1.3,-0.1 2.5,-0.4 3,-0.7 1.4,-0.7 2,-1.9 2.5,-3 0.7,-1.3 1.1,-2.1 2.7,-2.1 3.1,0 5.7,0.2 8,0.6 0,0.8 -0.2,1.8 -0.4,2.3 -0.3,0.6 -0.9,1 -1.5,1 -0.5,0.1 -1.2,-0.1 -2,-0.6 -0.2,-0.1 -0.4,-0.3 -0.6,-0.4 -0.6,-0.4 -1.1,-0.7 -1.8,-1 -1.2,-0.5 -2.4,-0.4 -3.3,0.2 -0.7,0.5 -1.1,1.3 -1.4,2 v 0 c -0.3,0.7 -0.7,1.5 -1.1,2.2 -0.3,0.5 -1.4,1.3 -2.1,1.5 -0.5,-0.8 -1.3,-1.4 -2,-2 z m -187.4,252.3 c 0.2,0.4 0.5,0.8 0.7,1.2 -0.2,0.1 -0.4,0.3 -0.6,0.4 -0.1,0.1 -0.2,0.2 -0.3,0.2 -0.2,0.1 -0.4,0.3 -0.6,0.5 0.1,-0.6 0.4,-1.5 0.8,-2.3 z m 19.3,-125.9 c -2.8,2.9 -5.2,6.1 -7.1,9.6 -1.3,2.2 -2,4.7 -2.6,6.8 -0.4,1.6 -0.8,3.3 -1.1,5.1 -1.6,-0.8 -3.4,-0.7 -4.9,-0.6 -0.3,0 -0.7,0 -1,0 -2.8,0 -6.6,-0.5 -8.8,-3.1 -1.8,-2 -2.3,-5.2 -1.4,-8.2 1,-3.3 3.4,-5.6 5.3,-7.1 5.8,-4.5 14.4,-5.4 21.6,-2.5 z m 116.8,-62.7 c 4.9,1.4 10,2.8 15,4.2 -0.7,0.9 -1.5,1.8 -2.4,2.7 -3.8,-1.9 -8.4,-4.5 -12.6,-6.9 z m -2.3,-32.7 c -1,1.5 -2.2,2.9 -3.5,4.2 -0.7,-0.4 -1.5,-0.7 -2.2,-1 0.7,-0.6 1.4,-1.1 2.1,-1.7 1.2,-0.5 2.4,-1 3.6,-1.5 z m 67.4,9.9 c -1,0.6 -1.9,1.4 -2.8,2.8 -0.4,0.2 -1,0.2 -1.6,0.1 -0.2,0 -0.4,0 -0.7,0 -2.1,-0.1 -4.3,0.9 -5.6,2.6 -0.2,0.2 -0.3,0.5 -0.5,0.7 -0.3,0.5 -0.6,0.9 -1,1.2 -0.6,0.4 -1.4,0.4 -2.3,0.5 h -0.1 c -1.8,0.1 -4.1,0.4 -5.5,2 -0.4,0.4 -0.6,0.9 -0.9,1.3 -0.1,0.2 -0.3,0.5 -0.4,0.7 -1,1.5 -1.8,2 -3.3,2.7 -0.3,0.1 -0.7,0.2 -1.1,0.3 -0.8,0.2 -1.7,0.4 -2.4,0.9 -0.4,-0.2 -0.8,-0.4 -1.3,-0.5 -0.7,0 -1.5,0.7 -1.8,1.1 -0.2,0.2 -0.3,0.4 -0.5,0.7 -0.1,0 -0.3,0 -0.5,0 h -0.1 c -0.7,0.1 -1.1,0.2 -1.4,0.4 -0.4,-0.3 -0.7,-0.6 -1.1,-0.8 -0.4,-0.4 -0.9,-0.7 -1.3,-1.1 -3.5,-2.8 -7.1,-5.4 -10.6,-7.7 0.7,-0.1 1.3,-0.4 1.9,-0.6 l 11.5,-4 c 3.4,-1.2 6.8,-2.4 10.2,-3.8 2.8,-1.2 5.3,-2.6 7.4,-4 0.3,-0.2 3,-2.5 4.3,-3.8 l 9.4,7 c 0.6,0.7 1.4,1.1 2.1,1.3 z m -14.8,52.4 c -1.7,3.9 -4.7,7.2 -8.4,9.6 -0.4,-1.1 -0.7,-2.2 -1.1,-3.3 6.1,-5.1 9.2,-13.6 7.8,-21.5 -0.1,-0.4 -0.1,-0.7 -0.2,-1.1 0.5,-0.4 1,-0.7 1.5,-1 2,5 3.1,11.2 0.4,17.3 z m -1.1,-22.2 c -2.5,-4.3 -5.4,-8.1 -8.8,-11.4 3.4,-2.3 7.1,-4.5 10.9,-6.7 3.9,3.6 9.5,9.7 13.2,14.4 -0.1,0.1 -0.1,0.2 -0.2,0.3 -0.1,0.2 -0.1,0.4 -0.2,0.6 -4.9,1 -9.4,2.7 -13.6,5.3 -0.4,-0.8 -0.9,-1.7 -1.3,-2.5 z m -14.5,-12.4 c 0.2,-0.3 0.6,-0.7 0.8,-0.8 0.3,0.1 0.6,0.3 0.9,0.6 4.5,3.6 8.3,8.2 11.3,13.5 0.5,0.8 0.9,1.7 1.4,2.6 -0.4,0.3 -0.8,0.6 -1.2,0.8 -2.1,-7 -6.8,-13.1 -13.2,-16.7 z m 77.2,-34.5 c 0,0 0,0 0,0 v 0 c -0.1,0 -0.9,-0.1 -2.3,0 0.4,-0.2 0.8,-0.4 1.2,-0.5 0.7,-0.2 1,-0.1 1.1,-0.1 0.1,0.1 0.1,0.3 0,0.6 z m 2.5,5 c -0.1,0 -0.1,0 -0.2,0 l -5.1,0.6 c -0.2,0 -0.4,0.2 -0.4,0.5 0,0.2 0.2,0.4 0.4,0.4 l 4.7,-0.5 c -0.5,0.5 -1.3,0.9 -2,1 -0.3,0 -0.6,0.1 -1,0.1 -1.4,0.1 -3.2,0.3 -4.6,1.8 -1,1.1 -2.2,1.7 -3.5,1.8 -1.3,0.1 -2.8,-0.1 -4.3,-0.6 0.2,-1.6 -0.3,-2.7 -0.6,-3.3 0,0 3.9,-2.5 7.6,-4.6 3.5,-1.4 5.8,-1.2 6.1,-1.2 0.1,0 0.3,0.2 0.7,0.5 l -4.7,0.6 c -0.2,0 -0.4,0.2 -0.4,0.5 0,0.3 0.2,0.4 0.5,0.4 l 5.3,-0.7 c 0.2,0.3 0.4,0.6 0.7,1 l -5.3,0.6 c -0.2,0 -0.4,0.2 -0.4,0.5 0,0.2 0.2,0.4 0.5,0.4 l 5.7,-0.7 c 0.1,0.1 0.1,0.2 0.2,0.3 0.2,0.1 0.2,0.3 0.1,0.6 z m 67.2,45.9 c -4.3,0 -8.4,0.9 -12.2,2.7 -0.3,0.1 -0.5,0.2 -0.8,0.4 -2,-4.1 -4.2,-8.2 -6.3,-12.2 -3.8,-7.1 -7.7,-14.5 -10.9,-21.9 0.1,-1 0.3,-1.9 0.4,-2.9 0.8,1.1 1.8,2.3 2.4,3 0.2,0.2 0.5,0.6 1,0.8 0.5,0.2 1.1,0 1.4,0 2.1,-0.5 4.3,-0.8 6.5,-0.9 0.7,0 1.5,0 2.1,0.2 0.6,0.2 1.1,0.7 1.5,1.1 1.2,1.1 1.9,2.6 2.7,4.1 0.2,0.3 0.3,0.7 0.5,1 0.2,0.5 0.7,0.9 1.2,1.3 v 0 c 2.9,7.8 6.7,15.6 10.5,23.3 z m -19.6,6.5 c -0.2,-0.4 -0.7,-0.6 -1.1,-0.3 -2.5,1.3 -5.9,1.2 -10,-0.5 -3.6,-1.4 -6.2,-3.2 -7.9,-5.4 2.1,-3.4 3.3,-7.3 4.3,-10.7 1.4,-4.8 2.3,-8.8 3,-12.6 0.2,-1.4 0.5,-2.9 0.7,-4.4 1,3 2,5.6 3.2,8.5 0.7,1.7 1.5,3.3 2.2,5 l 0.6,1.4 c 2.6,5.7 5.1,11.7 7.6,18.2 -2.1,1.6 -3.9,3.5 -5.5,5.8 -0.9,-0.9 -1.7,-1.8 -2.5,-2.7 0.9,0 1.7,0 2.4,-0.2 0.9,-0.2 1.8,-0.5 2.6,-0.9 0.5,-0.3 0.6,-0.8 0.4,-1.2 z m 4,-2 c -2,-5.2 -4,-10.1 -6.1,-14.8 0.3,0.6 0.7,1.2 1,1.9 2.1,4 4.3,8.1 6.3,12.2 -0.4,0.2 -0.8,0.5 -1.2,0.7 z m 2.1,10 c 0,-0.5 0.2,-1.1 0.6,-1.4 0.2,-0.1 0.3,-0.2 0.5,-0.3 0.1,0 0.2,-0.1 0.3,-0.1 0.1,0 0.2,0 0.3,0 0.7,0 1.4,0.5 1.6,1.1 0.2,0.7 0,1.5 -0.6,1.9 -0.6,0.4 -1.4,0.4 -2,0 -0.4,-0.2 -0.7,-0.7 -0.7,-1.2 z m 14.9,-11.9 c -1.3,2.7 -6.5,10.1 -10.8,14.3 0,-0.1 0,-0.1 0,-0.2 0.8,-0.9 1.1,-2.2 0.7,-3.3 -0.4,-1.3 -1.8,-2.3 -3.1,-2.3 -0.4,0 -0.7,0.1 -1.1,0.2 -0.1,0 -0.1,0.1 -0.2,0.1 -0.5,-1.5 -1.1,-3 -1.6,-4.5 0.6,-0.4 1.3,-0.9 2,-1.2 0.1,0 0.1,0 0.2,-0.1 0.1,0 0.1,-0.1 0.2,-0.1 0.4,-0.2 0.8,-0.4 1.2,-0.6 3.9,-1.8 8,-2.6 12.4,-2.4 0,0 0,0.1 0.1,0.1 z m -9.5,16.4 c -0.2,-0.3 -0.7,-0.4 -1,-0.2 4.3,-3.8 9.2,-10.8 11.3,-14.4 2.4,4.8 4.9,9.8 7.1,14.6 0.2,0.5 0.4,0.9 0.4,1.3 0,0.6 -0.6,1.1 -1.2,1.7 -0.2,0.2 -0.3,0.3 -0.5,0.5 -0.5,0.6 -0.9,1.2 -1.3,1.8 -0.3,-0.2 -0.8,-0.2 -1,0.1 -0.4,0.4 -0.6,0.4 -0.6,0.4 0,0 0,-0.1 0,-0.1 0,-0.1 0,-0.3 0,-0.5 0.3,-1.2 1.2,-2.2 2.2,-3.3 0,0 0.2,-0.2 0.2,-0.2 0.4,-0.1 0.7,-0.4 0.7,-0.9 0,-0.4 -0.4,-0.8 -0.9,-0.7 -0.6,0.1 -1,0.5 -1.2,0.7 -1.2,1.2 -2.3,2.4 -2.6,4 -0.1,0.5 -0.1,0.9 0,1.3 0.1,0.6 0.6,1.1 1.1,1.3 0.3,0.1 0.6,0.1 0.8,0.1 0.1,0 0.3,-0.1 0.4,-0.1 -0.1,0.3 -0.2,0.6 -0.4,0.9 l -0.1,0.3 c -0.6,1.6 -1.4,3.2 -2.6,4.2 -1,0.9 -2.8,1.4 -4,0.5 -0.4,-0.3 -0.7,-0.7 -1,-1.3 -0.5,-0.9 -0.8,-1.8 -1.1,-2.8 -0.1,-0.3 -0.2,-0.6 -0.3,-1 -1,-3 -2.5,-5.7 -4.4,-8.2 z m -3.5,1.6 c 0.7,-0.4 1.4,-0.9 2.2,-1.6 -0.2,0.3 -0.2,0.7 0,0.9 1.8,2.3 3.2,4.9 4.1,7.7 0.1,0.3 0.2,0.6 0.3,0.9 0.3,1 0.6,2 1.1,3 -1.5,0.2 -3.3,-0.2 -4.3,-1 -0.7,-0.6 -1.2,-1.2 -1.4,-1.8 -0.3,-0.6 -0.4,-1.4 -0.4,-2.1 0,-0.2 0,-0.4 -0.1,-0.6 -0.1,-1.8 -0.7,-3.7 -1.5,-5.4 z m -5,-4.2 c 0.7,0 1.3,-0.1 2,-0.2 0.2,0.3 0.5,0.6 0.8,0.9 0.7,0.5 1.7,0.7 2.5,0.5 0.2,0 0.4,-0.1 0.5,-0.1 0.1,0.1 0.3,0.1 0.4,0.1 -0.8,0.7 -1.6,1.3 -2.3,1.6 -0.2,-0.2 -0.4,-0.3 -0.6,-0.4 -1,-0.6 -2.1,-1.5 -3.3,-2.4 z m -4.1,-3.3 c 1.3,-2 2.9,-3.7 4.6,-5.2 0.6,1.5 1.1,3 1.6,4.5 -0.4,0.6 -0.7,1.3 -0.7,2.1 0,0 0,0.1 0,0.1 -1.1,0.2 -2.3,0.2 -3.5,0.2 -0.6,-0.5 -1.3,-1.1 -2,-1.7 z m -1.6,1.6 c 0.1,0 0.1,0 0.2,0 0.2,0 0.4,-0.1 0.5,-0.2 0.1,0.1 0.3,0.3 0.4,0.4 -0.4,-0.2 -0.8,-0.2 -1.1,-0.2 z m -27,-23.1 c 2,0.1 3.9,0.4 5.7,1 0.2,0.6 0.3,1.1 0.5,1.7 0.6,1.9 1.4,4.1 2.6,6.1 0,0.1 -0.1,0.1 -0.1,0.2 -0.3,0.4 -0.2,0.9 0.2,1.1 0.2,0.1 0.4,0.2 0.6,0.1 0.1,0 0.2,-0.1 0.3,-0.1 1.9,2.3 4.6,4.1 8.3,5.5 1.4,0.5 2.7,0.9 3.9,1.2 1.2,1.5 2.5,2.9 4,4.3 0,0 0,0.1 0,0.1 -0.3,0.6 -0.2,1.3 0.4,1.7 0.1,0.1 0.2,0.1 0.3,0.1 -4.2,-0.6 -8.5,-2 -12.6,-4.2 -2,-1.1 -3.5,-2.1 -4.7,-3.2 -3.4,-3 -5.4,-7.4 -7.4,-11.5 l -0.1,-0.2 c -0.7,-1.4 -1.3,-2.6 -1.9,-3.9 z m -16.7,-32 c -0.6,-1.1 -1.8,-2.6 -2.2,-3.2 0.4,-0.2 0.8,-0.5 1.1,-0.8 0.1,0 0.2,0 0.4,0 2.6,-0.5 5.8,-0.8 7.6,-1 8,-0.8 18.6,-1.5 29.3,0.7 0.2,0 0.4,0.1 0.6,0.1 -0.7,2.5 -1.3,5.2 -1.8,8 -0.1,0.2 -0.1,0.4 -0.1,0.6 -0.3,1.6 -0.5,3.2 -0.7,4.8 0,0 0,0 0,0.1 0,0 0,0 0,0.1 0,0 0,0.1 0,0.1 0,0 0,0 0,0 -0.1,0.4 -0.1,0.8 -0.2,1.2 -0.3,2.3 -0.6,4.4 -1,6.5 -0.7,3.8 -1.6,7.7 -2.9,12.5 -0.9,3.2 -2,6.6 -3.7,9.7 -0.9,-1.6 -1.5,-3.3 -2,-5 -0.7,-2.2 -1.4,-4.6 -1.6,-7 -0.6,-6.5 2.7,-13.4 8.1,-17.1 0.4,-0.3 0.5,-0.8 0.2,-1.1 -0.3,-0.4 -0.8,-0.5 -1.1,-0.2 -6,4.1 -9.5,11.4 -8.8,18.6 0.1,1.3 0.3,2.6 0.7,3.8 -1.9,-0.5 -3.9,-0.8 -6,-0.8 -5,-10.5 -10.3,-20.7 -15.9,-30.6 z m -48.1,32.8 c 0,0 0,0 0,0 -0.4,-0.4 -0.9,-0.7 -1.4,-0.8 h -0.1 c 0,0 -0.1,0 -0.1,0 -3.6,-4.7 -9.2,-10.8 -13.2,-14.5 9.3,-5.1 19.4,-9.6 29,-12.8 1.4,0 13.4,-1.1 16.1,-1.4 0.3,0 0.5,-0.3 0.5,-0.6 0,-0.5 0,-1.4 0,-2.3 1.6,0.5 3.1,0.7 4.5,0.6 0.2,0 0.3,0 0.5,-0.1 1.3,-0.2 2.6,-1 3.6,-2.1 1.1,-1.2 2.6,-1.4 4,-1.5 0.3,0 0.6,-0.1 0.9,-0.1 0,0.1 0.1,0.2 0.2,0.3 0,0 1.6,2 2.2,3.1 5.4,9.7 10.5,19.6 15.4,29.6 -3.2,0.2 -6.5,1 -9.6,2.4 -4.5,2.1 -8.7,5.4 -12.4,9.8 -0.1,0.2 -0.3,0.3 -0.4,0.5 -12.8,-6.4 -28.5,-9 -39.7,-10.1 z m -1.5,0.9 c 0,0 0,0 0,0 0,0.1 0,0.2 0,0.2 0,0.1 0,0.1 0,0.2 -0.1,0 -0.1,-0.1 -0.2,-0.1 0,0 -0.1,-0.1 0,-0.2 0,-0.1 0.1,-0.1 0.2,-0.1 v 0 c 0,0 0,0 0,0 z m 67.6,75.2 c 0.2,-0.8 0.4,-1.4 0.7,-1.9 0.4,-0.5 0.9,-0.9 1.4,-1 0.6,-0.1 1.4,0.1 2,0.6 0.7,0.5 1.2,1.3 1.6,2 0.9,1.4 1.7,2.8 2.4,4.3 0.4,0.8 0.9,1.8 1.2,2.8 -1.8,3.1 -3.8,6.2 -5.9,9.1 -1.1,-2.4 -1.8,-4.9 -2.5,-7.7 -0.9,-2.8 -1.5,-5.6 -0.9,-8.2 z m -6.7,-0.7 c 0.4,0.5 0.7,1.1 1,1.6 1.1,2.2 1.9,4.5 2.5,6.9 -2.7,2.6 -5.4,5.4 -8,8 -0.5,-1 -0.7,-2.2 -0.9,-3.3 -0.5,-3 -0.7,-6 -0.6,-9 0,-1.1 0.1,-2 0.3,-2.9 0.3,-1 0.7,-1.8 1.3,-2.3 0.3,-0.2 0.5,-0.4 0.8,-0.5 0.5,-0.2 1.1,-0.1 1.8,0.2 0.7,0.2 1.3,0.7 1.8,1.3 z m 2.6,-39.3 c 0.2,-0.2 0.5,-0.3 0.7,-0.5 0.2,-0.1 0.4,-0.3 0.6,-0.3 0.3,0 0.8,0.4 1.1,0.8 v 0 c 1.1,1.1 2.3,2.1 3.7,2.8 0.4,0.2 0.7,0.6 0.8,1.1 0.8,4 1.3,8.1 1.5,12.2 0.1,1.4 0.1,2.7 0.1,4.1 0,1.6 0.1,3.2 0.1,4.9 0.1,1.2 0.2,2.3 0.3,3.5 -0.5,2.3 -1.3,4.5 -2.1,6.2 -0.6,0.2 -1.1,0.5 -1.4,0.9 -0.8,0.2 -1.5,0.8 -2.1,1.6 -0.5,0.7 -0.8,1.5 -1,2.5 -0.4,1.8 -0.3,3.6 0,5.4 -0.2,0.3 -0.3,0.6 -0.5,0.8 -0.6,-2 -1.3,-3.9 -2.2,-5.8 -0.3,-0.6 -0.7,-1.3 -1.2,-1.9 -0.5,-0.6 -1,-1.1 -1.7,-1.4 1,-0.2 2.1,0 3,0.4 0.2,0.1 0.5,0.1 0.8,0.1 0.4,-0.1 0.7,-0.3 0.9,-0.6 0.7,-1.3 1.3,-2.6 1.5,-4.3 0.1,-0.5 -0.1,-1 -0.5,-1.3 -0.2,-0.2 -0.4,-0.3 -0.6,-0.4 -0.2,-0.1 -0.4,-0.3 -0.5,-0.4 -0.3,-0.3 -0.5,-0.7 -0.6,-1.2 -0.3,-1.3 -0.1,-2.5 0.2,-3.9 l 0.1,-0.5 c 0.3,-1.5 0.5,-3.1 0.8,-4.7 0.1,-0.4 0.1,-0.9 0.2,-1.5 1.1,-7.5 1.9,-14.8 0,-17.3 l -0.1,-0.2 -0.2,-0.1 c -0.2,-0.1 -0.5,-0.2 -0.7,-0.3 -0.2,-0.3 -0.6,-0.5 -1,-0.7 z m 10,31.2 c 0.3,0.3 0.7,0.6 1,0.9 0.3,0.2 0.5,0.4 0.7,0.6 -0.2,0.7 -0.5,1.4 -0.8,2.1 -0.6,-0.1 -1.3,-0.3 -2.1,-0.3 0.6,-1.1 1,-2.3 1.2,-3.3 z m -97.1,-30.3 c 4.2,-2.6 7.4,-6.2 9.4,-10.6 3,-6.7 1.7,-13.5 -0.6,-18.8 4.2,-2.6 8.7,-4.3 13.5,-5.2 0.3,0.2 0.6,0.4 1,0.5 0.3,0.1 0.6,0.1 0.9,0 0.3,-0.1 0.6,-0.2 0.9,-0.4 0,0 0,0 0,0 10.9,1 26.2,3.6 38.8,9.9 -0.2,0.8 -0.3,1.7 -0.3,2.6 0.1,1.8 0.2,3.6 0.1,5.4 -0.1,1.2 -0.2,2.5 -0.3,3.7 -0.2,1.8 -0.8,3.8 -1.5,5.1 -1,0.3 -2,0.5 -3,0.7 -2.7,0.5 -5.3,0.7 -8.6,0.9 -0.5,0 -0.8,0.5 -0.8,0.9 0.1,0.4 0.5,0.7 0.9,0.7 3.2,-0.2 6,-0.3 8.7,-0.9 2.2,-0.5 4.4,-1.2 6.5,-1.8 l 16.4,-5.3 c 1.3,-0.4 2.6,-0.8 3.9,-1 5,-0.6 9.5,2.7 12.1,6 1.2,1.5 1.9,2.9 2.3,4.3 0.3,1 0.3,2 0.5,3 0.1,1.2 0.2,2.3 0.5,3.6 1.6,6.3 3.3,12.8 4.3,19.4 0.3,2 0.5,4.3 0.4,6.6 -0.2,2.7 -1,5.3 -1.8,7.5 -0.7,2.1 -1.8,4.8 -2.9,7.1 -0.2,-0.5 -0.5,-1 -0.7,-1.5 -0.7,-1.5 -1.6,-3 -2.5,-4.5 -0.5,-0.9 -1.1,-1.7 -2,-2.4 -0.2,-0.2 -0.4,-0.3 -0.6,-0.4 0.8,0 1.6,0.1 2.3,0.3 0.2,0.1 0.4,0.1 0.6,0 0.4,-0.1 0.7,-0.3 0.9,-0.6 0.5,-1 0.8,-1.9 1.1,-2.9 0.1,-0.4 0,-0.8 -0.2,-1.2 -0.4,-0.4 -0.8,-0.7 -1.2,-1 -0.4,-0.3 -0.8,-0.6 -1,-0.9 -0.2,-0.3 -0.3,-0.8 -0.3,-1.4 -0.1,-1.2 -0.2,-2.4 -0.3,-3.5 -0.1,-1.6 -0.1,-3.2 -0.1,-4.8 0,-1.3 0,-2.7 -0.1,-4.1 -0.2,-4.2 -0.7,-8.4 -1.5,-12.5 -0.2,-1 -0.8,-1.8 -1.7,-2.2 -1.2,-0.6 -2.3,-1.4 -3.3,-2.4 v 0 c -0.6,-0.6 -1.3,-1.4 -2.5,-1.3 -0.6,0.1 -1.1,0.4 -1.4,0.6 -0.5,0.4 -1,0.7 -1.5,1.1 0,0 -0.1,0.1 -0.1,0.1 -5.1,3.7 -9.9,7.9 -14.5,11.9 -4,3.5 -8.1,7.2 -12.4,10.4 l -0.6,0.5 c -1.4,1 -2.8,2.1 -4,3.4 -0.5,0.5 -0.9,1 -1.4,1.5 -0.6,0.7 -1.1,1.3 -1.7,1.9 -1.1,1 -4.6,2.9 -7,1.6 -0.8,-0.5 -1.5,-1.3 -2.2,-2.1 -0.2,-0.2 -0.4,-0.4 -0.5,-0.6 -2.9,-3.2 -6.5,-5.6 -10,-7.9 -0.8,-0.6 -1.7,-1.1 -2.5,-1.7 -3.9,-2.7 -8.3,-6 -10.4,-10.7 -0.2,-0.5 -0.8,-0.6 -1.2,-0.3 -0.3,0.2 -0.4,0.7 -0.3,1.1 2.3,5.1 6.8,8.6 11,11.4 0.8,0.6 1.7,1.1 2.5,1.7 3.4,2.2 7,4.6 9.7,7.6 0.2,0.2 0.3,0.4 0.5,0.6 0.5,0.6 1,1.2 1.6,1.7 -6.6,4.4 -13.4,8.8 -20.4,12.4 -0.2,-0.1 -0.3,-0.2 -0.5,-0.3 l -0.1,-0.1 c -3.2,-1.9 -5.7,-4.2 -7.4,-6.8 -1.1,-1.6 -1.9,-3.4 -2.8,-5.1 -0.6,-1.2 -1.1,-2.4 -1.6,-3.6 -0.9,-2.1 -1.6,-4.4 -2.3,-6.6 -0.6,-2.2 -1.2,-4.5 -1.7,-6.9 -0.1,-0.4 -0.4,-0.6 -0.8,-0.6 -0.1,0 -0.2,0 -0.3,0 -1.2,-4.3 -2.5,-8.6 -3.9,-12.8 z m 2.3,12.9 c -0.9,0.2 -1.8,0.5 -2.7,0.9 -1.3,-3.8 -2.7,-7.7 -4.1,-11.5 0.4,-0.1 0.7,-0.3 1.1,-0.4 0.7,-0.3 1.3,-0.6 2,-1 1.2,4 2.5,8 3.7,12 z m -6.4,-12.5 c -0.3,0.1 -0.6,0.3 -1,0.4 -0.3,-0.9 -0.7,-1.8 -1,-2.7 0.9,-0.4 1.7,-0.9 2.5,-1.5 0.2,-0.1 0.4,-0.3 0.6,-0.4 0.3,1 0.7,2.1 1,3.1 -0.6,0.4 -1.3,0.7 -2.1,1.1 z m -137.4,101.7 c 1.1,-0.1 2.1,-0.3 3.2,-0.6 3.3,-0.7 6.4,-2 9.5,-3.2 h 0.1 c 5.6,-2.9 11.1,-5.1 16.6,-6.6 l 0.6,-0.2 c 3,-0.8 6.1,-1.7 8.3,-4.1 2.2,-2.4 2.7,-5.8 3,-8.5 0.1,-1.6 0.2,-3.2 0.2,-4.9 0.4,-0.9 1.4,-2.1 2.1,-3 3.9,-4.3 9.6,-7.5 16.5,-9.3 -2.4,1.5 -4.6,3.2 -6.3,4.5 -2.3,1.9 -5.3,5 -6.5,9.3 -0.3,1.1 -0.5,2.3 -0.6,3.4 -0.2,1.8 -0.5,3.5 -1.2,5 -1.6,3.2 -5.2,4.7 -8.7,6.3 l -0.3,0.1 c -2.3,1 -4.7,2.1 -6.9,3.2 -5.9,2.8 -11.9,5.7 -18.3,7.1 -3.8,0.9 -7.6,1.2 -11.3,1.5 z m -28.6,52.2 c 0.1,-0.1 0.2,-0.3 0.3,-0.4 0.9,-1 1.5,-2.2 2.1,-3.3 h 0.1 c 0.2,0 0.3,-0.1 0.5,-0.1 0.7,-0.1 1.4,-0.3 1.8,-0.7 0.4,-0.4 0.5,-1 0.4,-1.6 -0.1,-0.4 -0.2,-0.7 -0.4,-0.9 l -0.1,-0.1 c -0.3,-0.6 -0.5,-1.2 -0.6,-1.9 0.1,-1.2 0,-2.3 -0.1,-3.5 0.5,-2.5 0.9,-5 0.6,-7.6 -0.1,-1.4 -0.5,-2.9 -0.9,-4.2 -0.8,-3 -2.5,-8.2 -6,-16.1 0.7,-0.9 0.9,-1.7 1.1,-2.3 0,0 0,0 0,0 0.1,0 0.2,0.1 0.3,0.2 1.3,0.8 3.3,-0.4 6.6,-3.9 1.7,-1.8 3.3,-3.7 3.9,-4.4 2.7,-0.2 5.4,-0.3 8,-0.4 0.4,0 0.8,0 1.2,-0.1 -0.3,0 -0.5,0 -0.8,0.1 -0.4,0 -0.8,0.1 -1.2,0.1 -3.8,0.3 -8.2,0.7 -9.5,5.6 -1,3.7 -0.2,7.8 0.6,10.7 0.7,2.2 1.4,4.5 2.1,6.6 1,3 2,6.2 2.8,9.3 l 0.1,0.3 c 0.2,0.6 0.3,1.2 0.4,1.9 0,0.3 0.1,0.7 0.1,1 0.3,2.6 0.6,5 -0.4,7.2 -0.6,1.3 -1.5,2.6 -2.8,4.1 -2.8,3.1 -6.1,5.7 -9.9,7.5 0.2,-1.2 0,-2.3 -0.3,-3.1 z m 2.3,-24.1 c 0.4,1.3 0.7,2.6 0.8,3.9 0.1,0.9 0.1,1.8 0,2.8 -0.1,-0.2 -0.1,-0.5 -0.2,-0.7 -1.9,-7.1 -3.7,-13.3 -5.6,-18.9 l -0.1,-0.2 c -0.2,-0.7 -0.4,-1.3 -0.6,-2 0,0 0.1,-0.1 0.1,-0.1 3.2,7.4 4.8,12.4 5.6,15.2 z m 1.3,18.4 c -0.1,0 -0.2,0.1 -0.3,0.1 0.1,-0.2 0.2,-0.4 0.2,-0.6 0,0.1 0.1,0.2 0.1,0.3 0.1,0.1 0,0.2 0,0.2 z m -9.9,11.1 c 1.8,-1.3 3.4,-2.6 5,-4.1 0.2,0.8 0.3,1.7 0.2,2.3 -1.7,0.7 -3.4,1.3 -5.2,1.8 z m -9.6,3.1 c 0.9,-1.6 1.7,-3.3 2.5,-5.2 0.7,-1.6 1.1,-3.1 1.4,-4.3 0.3,-1.2 0.4,-2.3 0.3,-3.1 0.3,0.1 0.6,0.4 0.8,0.6 0,0.1 0.3,0.4 0.6,0.7 0.2,0.2 0.4,0.4 0.6,0.5 0.2,0.1 0.4,0.1 0.6,0 0.2,0 0.5,-0.2 0.6,-0.3 0.3,-0.3 0.5,-0.5 0.8,-0.6 0.1,-0.1 0.2,-0.1 0.3,-0.2 0.3,-0.2 0.7,-0.5 1,-0.8 0.5,-0.5 0.5,-1.3 0.1,-1.8 -1.7,-2.4 -2.2,-5.8 -2.5,-8.1 -1,-7.7 -2.4,-15.4 -4.3,-23 0,0 0,0 0,-0.1 -1,-4 -2.1,-7.9 -3.4,-11.9 0,0 0,0 0,-0.1 -0.5,-1.4 -0.9,-2.8 -1.4,-4.2 l -0.3,-0.8 c -1,-3 -2.1,-6.1 -2.3,-9.2 0,-1.3 0.7,-2.5 1.9,-3.2 1.2,-0.7 2.6,-0.8 4,-1 1.6,-0.2 3.2,-0.3 4.8,-0.3 3.5,-0.2 7.2,-0.4 10.7,-1.3 3.3,-0.8 6.4,-2 9.3,-3.7 0.7,-0.4 1.5,-0.9 2,-1.8 1.2,-1.7 0.9,-4.2 -1.1,-7.5 -0.6,-1.1 -1.3,-2.2 -2,-3.3 -1.7,-2.8 -3.4,-5.6 -4.8,-8.6 -2.2,-4.7 -3.3,-8.9 -3.3,-12.8 0,-3 0.7,-6 1.5,-8.8 0.5,-2 1.2,-4.4 2.4,-6.4 2,-3.7 4.6,-7 7.6,-10 0,0 0,0 0.1,-0.1 3,-2.9 6.3,-5.4 10,-7.4 3.4,-1.8 7.1,-3.2 10.7,-4.6 0.6,-0.2 1.1,-0.4 1.7,-0.6 4.3,-1.7 7.9,-2.9 11.2,-4 4.3,-1.4 8.9,-2.8 13.6,-3.1 2.1,-0.2 4.2,-0.1 6.3,-0.1 0.6,0 1.3,0 1.9,0 9.2,0.1 19.8,-1.3 30,-3.8 2,4.2 4.2,8.5 6.9,12.4 0.2,0.3 0.5,0.7 0.9,0.9 0.4,0.2 0.9,0.3 1.3,0.3 0.9,0.1 1.9,0 2.7,-0.1 2.3,-0.2 4.8,-0.5 7.4,-1 3.6,-0.7 7.5,-1.6 11.2,-2.8 0.5,-0.1 0.8,-0.5 0.9,-1 0,0 0,-0.1 0,-0.1 0.1,-0.4 -0.3,-0.8 -0.7,-0.7 -6.6,2.1 -13.4,3.5 -18.9,3.9 -0.8,0.1 -1.7,0.1 -2.5,0.1 -0.2,0 -0.4,0 -0.6,-0.1 -0.1,-0.1 -0.3,-0.3 -0.4,-0.5 -3.1,-4.3 -5.4,-9.3 -7.7,-14.1 -0.3,-0.6 -0.5,-1.2 -0.8,-1.8 2.1,-0.6 5.7,-1.6 7.6,-1.8 0.1,0 0.2,0 0.3,-0.1 0.1,0 0.2,0 0.4,0 0.4,0 0.7,-0.1 1,-0.2 5.9,-1.1 11.4,-4 17.2,-7.4 0.7,-0.4 1.5,-0.9 2.4,-1.4 0.6,-0.4 1.2,-0.8 1.8,-1.1 4.6,1.5 8.4,4.7 9.2,6.7 0.8,-1.6 1.7,-3.1 2.6,-4.6 1.8,-2.9 3.8,-5.8 5.8,-8.6 2.5,-3.5 5.3,-7.5 9,-10.6 -12.3,-3.1 -25,-6.6 -36.7,-10.1 -2.2,-0.7 -4.8,-1.4 -6.8,-2.9 -2.2,-1.6 -3.2,-3.4 -3.2,-6 0,-2.6 0.6,-5.2 1.9,-7.2 1.5,-2.5 3.7,-4.6 6.1,-6.5 0.9,0.3 1.9,0.7 2.8,1.1 -0.9,0.9 -1.8,1.8 -2.7,2.7 -0.2,0.3 -0.8,0.9 -0.7,1.6 l 0.1,0.5 0.4,0.2 c 3.6,1.5 7.5,1.8 11.3,2.1 4,0.3 7.7,0.6 11.2,2.2 0.4,0.2 0.7,0.3 1.1,0.5 0.8,0.4 1.7,0.8 2.6,1.1 4.3,2.7 8.6,5.8 12.9,9.1 0.4,0.3 0.9,0.7 1.3,1.1 2.6,2 5.3,4.2 7.5,6.6 1.8,1.9 3.8,6 2.5,8.6 -0.4,0.8 -0.8,1.5 -1.2,2.2 -0.1,0.2 -0.2,0.4 -0.2,0.7 0,0.1 0,0.1 0,0.2 0,0.8 -0.3,1.6 -0.8,2.2 -5.6,6.4 -14.6,19.9 -16.8,23.4 1.6,0.8 3.2,1.4 4.8,1.7 -0.4,1.2 -0.8,2.4 -1.2,3.6 -0.7,0 -1.5,0 -2.2,0 -1.4,0 -2.8,-0.1 -4.1,-0.3 -0.4,0 -0.7,0.1 -0.9,0.5 0,0 0,0.1 -0.1,0.1 -0.2,0.4 0,1 0.5,1 1.5,0.2 3,0.3 4.5,0.3 0.6,0 1.2,0 1.7,0 -0.1,0.4 -0.3,0.9 -0.4,1.3 -0.1,0.4 0.1,0.9 0.5,1 0.1,0 0.3,0.1 0.4,0 0.3,-0.1 0.5,-0.3 0.6,-0.6 0.2,-0.6 0.4,-1.2 0.6,-1.9 2.1,-0.1 4,-0.3 5.9,-0.7 1.9,-0.3 3.6,-0.8 5.3,-1.4 1.5,3.9 2.9,7.9 4.2,11.9 -0.1,0.1 -0.3,0.2 -0.4,0.3 -0.2,0.2 -0.3,0.5 -0.3,0.8 0,0.1 0,0.1 0.1,0.2 2.1,4.6 4.3,9.4 5.3,14.5 1,5.2 0.4,10.4 -1.8,14.7 -0.8,1.7 -4.2,4.6 -9.9,8.6 -13.7,3.4 -27.9,5 -42,4.9 -2.2,0 -4.4,-0.1 -6.5,-0.1 -6.7,-0.2 -13.7,-0.4 -20.5,0.7 -9,1.4 -16.6,5.2 -21.4,10.6 -0.1,0.1 -0.5,0.6 -1,1.2 -0.1,-2 -0.2,-4 -0.3,-6 -0.1,-1.6 -0.2,-3.2 -0.3,-4.8 -0.5,-11.7 0.5,-23.4 2.9,-34.8 0.1,-0.4 -0.2,-0.9 -0.6,-1 -0.4,-0.1 -0.9,0.2 -1,0.6 -2.5,11.6 -3.5,23.4 -3,35.2 0.1,1.6 0.2,3.2 0.3,4.8 0.3,4.4 0.6,9 0.2,13.5 -0.2,2.4 -0.7,5.5 -2.5,7.6 -1.8,2 -4.7,2.8 -7.5,3.6 l -0.6,0.2 c -5.7,1.6 -11.2,3.8 -16.9,6.7 -3,1.2 -6.1,2.4 -9.2,3.1 -3,0.7 -6,0.9 -8.7,1 -1.7,0.1 -3.4,0.2 -5.1,0.2 -2.8,0.1 -5.6,0.2 -8.4,0.4 0,0 0,0 -0.1,0 -3.4,0.3 -6.8,0.6 -10.1,1.3 h -0.1 c -3.1,0.9 -4.7,4.1 -4.9,6.8 -0.2,2.7 0.7,5.3 1.6,7.8 l 0.1,0.2 c 1.9,5.6 3.7,11.8 5.6,18.8 0.5,1.7 0.9,3.4 1.1,5 0,0.1 0,0.2 0,0.2 0.1,1 0.2,2.1 0.1,3.1 0,0.1 0,0.2 0,0.3 -0.1,0.6 -0.2,1.2 -0.3,1.8 -0.9,2 -1.7,4.2 -3.1,5.8 -0.5,0.6 -1,1.1 -1.5,1.6 -2.5,2.3 -5.2,4.4 -8.1,6.1 -0.1,0 -0.1,0.1 -0.2,0.1 -0.2,0.1 -0.3,0.2 -0.5,0.3 -1.3,0.8 -2.8,1.6 -4.4,1.8 v 0 c 0.5,0.4 0.4,0.4 0.3,0.4 z m 169.3,-159.6 c 0.4,-1.1 0.7,-2.2 1.1,-3.3 1.5,0.1 3,0 4.6,-0.3 1.1,-0.2 2.3,-0.5 3.4,-1 0.3,0.9 0.7,1.7 1,2.6 -3.1,1.2 -6.5,1.8 -10.1,2 z m -183.7,159.2 c 1.9,-3.1 3.7,-5.5 5.7,-7.5 2.8,-2.8 6,-4.8 9.1,-5.6 0.1,0 0.2,-0.1 0.4,-0.1 0.7,-0.1 1.2,0 1.4,0.2 0.3,0.3 1.1,1.8 -1.2,7.6 -0.9,2.3 -1.9,4.2 -3,6 -2.2,-0.1 -9,-0.3 -12.4,-0.6 z"
         id="path7313" />
      <text
         transform="translate(1256.7301,4371.2407)"
         class="st114 st56 st57"
         id="text7496"
         style="font-size:138.616px;font-family:MyriadPro-Regular;fill:#ffffff;stroke:#000000;stroke-miterlimit:10">x</text>
    </g>
  </g>
</svg>
