<?xml version="1.0" encoding="UTF-8" standalone="no"?>
<!-- Created with Inkscape (http://www.inkscape.org/) -->

<svg
   width="64"
   height="64"
   viewBox="0 0 16.933333 16.933334"
   version="1.1"
   id="svg70627"
   inkscape:version="1.2.2 (732a01da63, 2022-12-09)"
   sodipodi:docname="instagram-icon.svg"
   xmlns:inkscape="http://www.inkscape.org/namespaces/inkscape"
   xmlns:sodipodi="http://sodipodi.sourceforge.net/DTD/sodipodi-0.dtd"
   xmlns="http://www.w3.org/2000/svg"
   xmlns:svg="http://www.w3.org/2000/svg">
  <sodipodi:namedview
     id="namedview70629"
     pagecolor="#ffffff"
     bordercolor="#000000"
     borderopacity="0.25"
     inkscape:showpageshadow="2"
     inkscape:pageopacity="0.0"
     inkscape:pagecheckerboard="0"
     inkscape:deskcolor="#d1d1d1"
     inkscape:document-units="mm"
     showgrid="false"
     inkscape:zoom="4.7572176"
     inkscape:cx="98.58704"
     inkscape:cy="23.543174"
     inkscape:window-width="1680"
     inkscape:window-height="987"
     inkscape:window-x="-8"
     inkscape:window-y="-8"
     inkscape:window-maximized="1"
     inkscape:current-layer="layer1">
    <sodipodi:guide
       position="0,16.933333"
       orientation="0,62"
       id="guide75499"
       inkscape:locked="false" />
    <sodipodi:guide
       position="16.96326,23.718637"
       orientation="62,0"
       id="guide75501"
       inkscape:locked="false" />
    <sodipodi:guide
       position="21.134553,0.025691064"
       orientation="0,-62"
       id="guide75503"
       inkscape:locked="false" />
    <sodipodi:guide
       position="0,0.52916667"
       orientation="-62,0"
       id="guide75505"
       inkscape:locked="false" />
  </sodipodi:namedview>
  <defs
     id="defs70624" />
  <g
     inkscape:label="Warstwa 1"
     inkscape:groupmode="layer"
     id="layer1">
    <g
       id="IG_00000106139853109218586190000013868683638670800770_"
       transform="matrix(0.26458333,0,0,0.26458333,-213.21409,-1688.1576)">
				<circle
   cx="837.79999"
   cy="6412.6001"
   r="30.5"
   id="circle65458" />

				<g
   id="g65466">
					<path
   class="st1"
   d="m 837.8,6396.9 c 5.1,0 5.7,0 7.8,0.1 1.9,0.1 2.9,0.4 3.6,0.7 0.9,0.3 1.5,0.8 2.2,1.4 0.7,0.7 1.1,1.3 1.4,2.2 0.3,0.7 0.6,1.7 0.7,3.6 0.1,2 0.1,2.6 0.1,7.8 0,5.1 0,5.7 -0.1,7.8 -0.1,1.9 -0.4,2.9 -0.7,3.6 -0.3,0.9 -0.8,1.5 -1.4,2.2 -0.7,0.7 -1.3,1.1 -2.2,1.4 -0.7,0.3 -1.7,0.6 -3.6,0.7 -2,0.1 -2.6,0.1 -7.8,0.1 -5.2,0 -5.7,0 -7.8,-0.1 -1.9,-0.1 -2.9,-0.4 -3.6,-0.7 -0.9,-0.3 -1.5,-0.8 -2.2,-1.4 -0.7,-0.7 -1.1,-1.3 -1.4,-2.2 -0.3,-0.7 -0.6,-1.7 -0.7,-3.6 -0.1,-2 -0.1,-2.6 -0.1,-7.8 0,-5.1 0,-5.7 0.1,-7.8 0.1,-1.9 0.4,-2.9 0.7,-3.6 0.3,-0.9 0.8,-1.5 1.4,-2.2 0.7,-0.7 1.3,-1.1 2.2,-1.4 0.7,-0.3 1.7,-0.6 3.6,-0.7 2.1,-0.1 2.7,-0.1 7.8,-0.1 m 0,-3.5 c -5.2,0 -5.9,0 -7.9,0.1 -2,0.1 -3.4,0.4 -4.7,0.9 -1.3,0.5 -2.3,1.1 -3.4,2.2 -1.1,1.1 -1.7,2.1 -2.2,3.4 -0.5,1.2 -0.8,2.6 -0.9,4.7 -0.1,2 -0.1,2.7 -0.1,7.9 0,5.2 0,5.9 0.1,7.9 0.1,2 0.4,3.4 0.9,4.7 0.5,1.3 1.1,2.3 2.2,3.4 1.1,1.1 2.1,1.7 3.4,2.2 1.2,0.5 2.6,0.8 4.7,0.9 2,0.1 2.7,0.1 7.9,0.1 5.2,0 5.9,0 7.9,-0.1 2,-0.1 3.4,-0.4 4.7,-0.9 1.3,-0.5 2.3,-1.1 3.4,-2.2 1.1,-1.1 1.7,-2.1 2.2,-3.4 0.5,-1.2 0.8,-2.6 0.9,-4.7 0.1,-2 0.1,-2.7 0.1,-7.9 0,-5.2 0,-5.9 -0.1,-7.9 -0.1,-2 -0.4,-3.4 -0.9,-4.7 -0.5,-1.3 -1.1,-2.3 -2.2,-3.4 -1.1,-1.1 -2.1,-1.7 -3.4,-2.2 -1.2,-0.5 -2.6,-0.8 -4.7,-0.9 -2,0 -2.6,-0.1 -7.9,-0.1 z"
   id="path65460"
   style="fill:#ffffff" />

					<path
   class="st1"
   d="m 837.8,6402.8 c -5.4,0 -9.9,4.4 -9.9,9.9 0,5.4 4.4,9.9 9.9,9.9 5.5,0 9.9,-4.4 9.9,-9.9 0,-5.5 -4.4,-9.9 -9.9,-9.9 z m 0,16.2 c -3.5,0 -6.4,-2.9 -6.4,-6.4 0,-3.5 2.9,-6.4 6.4,-6.4 3.5,0 6.4,2.9 6.4,6.4 0,3.6 -2.8,6.4 -6.4,6.4 z"
   id="path65462"
   style="fill:#ffffff" />

					<circle
   class="st1"
   cx="848.09998"
   cy="6402.3999"
   r="2.3"
   id="circle65464"
   style="fill:#ffffff" />

				</g>

			</g>
  </g>
</svg>
