<?xml version="1.0" encoding="UTF-8" standalone="no"?>
<!-- Created with Inkscape (http://www.inkscape.org/) -->

<svg
   width="64"
   height="64"
   viewBox="0 0 16.933333 16.933334"
   version="1.1"
   id="svg70627"
   xmlns="http://www.w3.org/2000/svg"
   xmlns:svg="http://www.w3.org/2000/svg">
  <defs
     id="defs70624" />
  <g
     id="layer1">
    <g
       id="In_00000011019562656556378420000005015697673679465914_"
       transform="matrix(0.26458333,0,0,0.26458333,-320.31474,-1688.2132)">
				<circle
   cx="1242.8"
   cy="6412.6001"
   r="30.5"
   id="circle65429" />

				<g
   id="g65437">
					<path
   class="st0"
   d="m 1245.2,6408.5 c 0.5,-0.6 0.9,-1.1 1.4,-1.6 1.6,-1.5 3.5,-2.2 5.6,-2.2 1.2,0 2.4,0.1 3.5,0.4 2.6,0.8 4.2,2.6 4.9,5.2 0.5,1.9 0.7,3.9 0.7,5.9 0,4.2 0,8.4 0,12.6 0,0.4 -0.1,0.5 -0.5,0.5 -2.2,0 -4.3,0 -6.5,0 -0.4,0 -0.5,-0.1 -0.5,-0.5 0,-4 0,-8 0,-12 0,-1 -0.1,-2 -0.3,-3 -0.5,-1.8 -1.8,-2.7 -3.7,-2.6 -2.6,0.1 -3.9,1.4 -4.2,4 -0.1,0.6 -0.1,1.2 -0.1,1.9 0,3.9 0,7.8 0,11.7 0,0.4 -0.1,0.5 -0.5,0.5 -2.2,0 -4.4,0 -6.6,0 -0.4,0 -0.5,-0.1 -0.5,-0.4 0,-7.7 0,-15.4 0,-23.1 0,-0.4 0.1,-0.5 0.5,-0.5 2.1,0 4.1,0 6.2,0 0.4,0 0.5,0.1 0.5,0.5 0.1,0.8 0.1,1.7 0.1,2.7 z"
   id="path65431"
   style="fill:#f7f7f7" />

					<path
   class="st0"
   d="m 1233.3,6417.3 c 0,3.8 0,7.6 0,11.4 0,0.4 -0.1,0.6 -0.5,0.5 -2.2,0 -4.3,0 -6.5,0 -0.3,0 -0.5,-0.1 -0.5,-0.4 0,-7.7 0,-15.5 0,-23.2 0,-0.3 0.1,-0.4 0.4,-0.4 2.2,0 4.4,0 6.6,0 0.4,0 0.5,0.2 0.5,0.5 0,3.9 0,7.7 0,11.6 z"
   id="path65433"
   style="fill:#f7f7f7" />

					<path
   class="st0"
   d="m 1233.9,6397.6 c 0,2.4 -1.9,4.3 -4.3,4.3 -2.4,0 -4.3,-2 -4.3,-4.3 0,-2.4 2,-4.3 4.3,-4.3 2.3,0 4.3,1.9 4.3,4.3 z"
   id="path65435"
   style="fill:#f7f7f7" />

				</g>

			</g>
  </g>
</svg>
