<?xml version="1.0" encoding="UTF-8" standalone="no"?>
<!-- Created with Inkscape (http://www.inkscape.org/) -->

<svg
   width="64"
   height="64"
   viewBox="0 0 16.933333 16.933334"
   version="1.1"
   id="svg70627"
   xmlns="http://www.w3.org/2000/svg"
   xmlns:svg="http://www.w3.org/2000/svg">
  <defs
     id="defs70624" />
  <g
     id="layer1">
    <circle
       cx="8.4538193"
       cy="8.5094872"
       r="8.0697918"
       id="circle65469"
       style="stroke-width:0.264583" />
    <g
       id="logo_00000021120053372294029510000011508197242308060332_"
       transform="matrix(0.26458333,0,0,0.26458333,-186.43826,-1688.1576)">
					<path
   id="bubble_00000070116732864273696640000010772053593630037143_"
   class="st2"
   d="m 736.6,6390 c -13,0 -23,9.5 -23,22.3 0,6.7 2.8,12.5 7.2,16.5 0.4,0.3 0.6,0.8 0.6,1.3 l 0.1,4.1 c 0,1.3 1.4,2.2 2.6,1.6 l 4.6,-2 c 0.4,-0.2 0.8,-0.2 1.2,-0.1 2.1,0.6 4.3,0.9 6.7,0.9 13,0 23,-9.5 23,-22.3 0,-12.8 -10,-22.3 -23,-22.3 z"
   style="clip-rule:evenodd;fill:#ffffff;fill-rule:evenodd" />

					<path
   id="bolt_00000073689025239711449310000014871373376005215145_"
   class="st3"
   d="m 722.8,6418.9 6.8,-10.7 c 1.1,-1.7 3.4,-2.1 5,-0.9 l 5.4,4 c 0.5,0.4 1.2,0.4 1.7,0 l 7.3,-5.5 c 1,-0.7 2.2,0.4 1.6,1.5 l -6.8,10.7 c -1.1,1.7 -3.4,2.1 -5,0.9 l -5.4,-4 c -0.5,-0.4 -1.2,-0.4 -1.7,0 l -7.3,5.5 c -1,0.7 -2.3,-0.5 -1.6,-1.5 z"
   style="clip-rule:evenodd;fill-rule:evenodd" />

				</g>
  </g>
</svg>
