<?xml version="1.0" encoding="UTF-8" standalone="no"?>
<!-- Created with Inkscape (http://www.inkscape.org/) -->

<svg
   width="1920"
   height="1164"
   viewBox="0 0 507.99999 307.975"
   version="1.1"
   id="svg56829"
   xmlns:xlink="http://www.w3.org/1999/xlink"
   xmlns="http://www.w3.org/2000/svg"
   xmlns:svg="http://www.w3.org/2000/svg">
  <defs
     id="defs56826">
    <clipPath
       id="SVGID_00000075156961288135108950000014919688577648839101_">
				<use
   xlink:href="#SVGID_00000147219354885452315180000007171758185664383158_"
   style="overflow:visible"
   id="use8359" />

			</clipPath>
    <clipPath
       id="SVGID_00000035494094323764869390000010774114824805261754_">
							<use
   xlink:href="#SVGID_00000139294022380844519810000007596640362572719500_"
   style="overflow:visible"
   id="use8527" />

						</clipPath>
    <clipPath
       id="SVGID_00000062160985246258319700000016823622650097095555_">
						<use
   xlink:href="#SVGID_00000082331612997978909380000009869831802555696028_"
   style="overflow:visible"
   id="use8581" />

					</clipPath>
    <clipPath
       id="SVGID_00000029035383362455678760000002126985923120062383_">
				<use
   xlink:href="#SVGID_00000065056050929071685900000009601030875394618024_"
   style="overflow:visible"
   id="use8627" />

			</clipPath>
    <rect
       id="SVGID_00000147219354885452315180000007171758185664383158_"
       x="-50"
       y="288.60001"
       width="1920"
       height="1080" />
    <circle
       id="SVGID_00000109747586746527352050000007619733788411815329_"
       cx="649.59998"
       cy="913.40002"
       r="38.200001" />
    <circle
       id="SVGID_00000139294022380844519810000007596640362572719500_"
       cx="649.59998"
       cy="913.40002"
       r="38.200001" />
    <circle
       id="SVGID_00000026150016493459271760000015330298333114146452_"
       cx="649.59998"
       cy="913.40002"
       r="38.200001" />
    <circle
       id="SVGID_00000059293719061302850230000012778044934242309044_"
       cx="603.09998"
       cy="913.40002"
       r="38.200001" />
    <circle
       id="SVGID_00000082331612997978909380000009869831802555696028_"
       cx="603.09998"
       cy="913.40002"
       r="38.200001" />
    <circle
       id="SVGID_00000055685171578207079430000008646950501665660566_"
       cx="603.09998"
       cy="913.40002"
       r="38.200001" />
    <circle
       id="SVGID_00000065056050929071685900000009601030875394618024_"
       class="st43"
       cx="240.89999"
       cy="917.29999"
       r="74.199997" />
  </defs>
  <g
     id="layer1">
    <rect
       style="fill:#d2d0cd;stroke-width:0.264583"
       id="rect59523"
       width="565.05505"
       height="382.57626"
       x="-30.203388"
       y="-31.461863" />
    <rect
       x="0.21186337"
       y="0.66276246"
       class="st33"
       width="508"
       height="285.75"
       id="rect8354"
       style="fill:#d2d0cd;stroke-width:0.264583" />
    <g
       id="g8486"
       transform="matrix(0.26458333,0,0,0.26458333,13.441035,-53.444532)">
			<defs
   id="defs8357">
				<rect
   id="rect58905"
   x="-50"
   y="288.60001"
   width="1920"
   height="1080" />

			</defs>

			<clipPath
   id="clipPath57595">
				<use
   xlink:href="#SVGID_00000147219354885452315180000007171758185664383158_"
   style="overflow:visible"
   id="use57593" />

			</clipPath>

			<g
   clip-path="url(#SVGID_00000075156961288135108950000014919688577648839101_)"
   id="g8484">
				<g
   id="g8366">
					<g
   id="g8364">
						<path
   class="st36"
   d="m 1941.2,388.7 c -199.5,349.4 -414.1,580 -555.5,648.3 -114.8,55.5 -219.6,59.4 -219.6,59.4 -84.1,3.1 -138.5,-16.9 -189.7,-29.5 -20.4,-5 -274.7,-64.1 -485.3,45.1 -12.5,6.5 -230.1,123.4 -281.5,351.9 -52.7,234.3 122.9,348.2 93.8,534.3 -35.6,227.5 -348.6,173.8 -641.2,469.1 -46.7,47.1 -348.8,361.4 -312.8,776.7 6.5,74.5 40.5,465.8 338.8,578.6 166.2,62.8 273.9,-170.5 672.4,-245 115.7,-21.6 173.7,-31.6 245,-10.4 228.4,67.7 200.3,327.5 417,547.3 281.8,285.8 585.7,106.7 787.1,390.9 106,149.6 148.8,378.5 53.4,526.5 -69.7,108.2 -198.2,149.7 -359.7,175.9 C 957.9,5296.4 737.2,5097 354,5117.9 c -433.3,23.6 -966.2,322.8 -1088.1,784.5 -108.9,413.2 72.5,957.9 375.5,1042.6 443.6,124 745.3,-850.4 1443.9,-865.3 686.9,-14.7 1415,905.7 1245.8,1324 -142.6,352.7 -933.3,373.8 -1016.5,375.3 -467.6,8.3 -543.7,-162.3 -912.2,-119.9 -375.4,43.2 -901.3,289.9 -1053,787.1 -144,472.2 80.5,1070 354.5,1115.5 325.5,54.1 443.8,-730.6 1060.8,-886.2 576.8,-145.4 1364.7,283.3 1380.1,706.9 14.2,392.9 -634.7,859.4 -1161.1,817.8 -316.3,-25 -467.5,-223.9 -813.2,-148.6 -76.7,16.7 -341.4,74.4 -465.2,312.8 -12.1,23.3 -103.8,206.7 -35.2,418.3 84.4,260.4 354.6,387.4 563,402.7 240,17.6 421.6,-111.9 496.5,-164.2 176.2,-123.1 190.3,-233 297.1,-308.8 134.7,-95.6 400.4,-125.4 980.8,194.4"
   id="path8362"
   style="fill:none;stroke:#ffffff;stroke-width:3.5296;stroke-miterlimit:10;stroke-dasharray:42.3207, 42.3207" />

					</g>

				</g>

				<g
   id="g8480">
					<path
   class="st1"
   d="m 1112.6,831.6 c 8.1,-7.7 13.7,-17.1 14.4,-18.2 2.2,-3.7 3.5,-6.5 6.9,-10 3.6,-3.7 5.1,-3.5 7.7,-6.9 0.9,-1.2 4.4,-5.9 3.8,-11.5 -0.4,-4.3 -3,-7.7 -3.1,-7.7 -0.2,0.1 3.1,13.3 12.3,17.2 2,0.9 3.1,0.8 5.4,1.1 5.3,0.9 10.8,3.5 24.5,16.5 9.6,9.1 8.4,9.2 17.6,17.6 5.6,5.1 9.5,8.2 14.6,12.3 7.7,6.1 10.9,8.2 14.2,10 6.3,3.4 9.7,5.2 14.2,4.6 1.8,-0.2 3.1,-0.8 4.2,0 1.7,1.2 1.2,4.3 0.4,11.1 -0.6,4.7 -1,9.5 -1.5,14.2 -1.1,9.6 -1,11 -0.8,12.3 0.9,5.7 3.4,9.7 4.6,11.5 0.6,0.9 3.2,4.8 8.1,8.4 1,0.7 4.4,3.2 9.2,5 9.8,3.6 18.9,1.9 26.8,0.4 3,-0.6 7.8,-2.2 17.2,-5.4 9.9,-3.3 12.7,-4.7 14.6,-7.7 2.7,-4.3 2.1,-9.4 1.9,-11.1 -0.6,-5 -2.9,-6.9 -5,-14.9 -0.6,-2.3 -0.9,-4.2 -1.1,-5.4 11,-3.1 20.1,-3.3 26.1,-3.1 20.5,0.9 39.8,9.8 46.8,15.3 0.7,0.5 2.4,2 5.2,3.1 5.4,2.1 9.8,0.9 13.8,0.8 5.5,-0.2 9.4,1.4 17.2,4.8 4.4,1.9 14.3,7.2 34.1,42.3 3.7,6.5 8.5,15.5 13.8,26.7 -5.6,-1 -7,-0.7 -7.2,-0.3 -0.4,1.1 6.7,5.5 14.9,6.3 5,0.5 9.5,-0.5 9.5,-0.3 0,0.3 -13.5,1.1 -14.1,4.6 -0.2,1.5 2.5,3.4 8.1,7.2 5.1,3.5 8.4,5.2 8.3,5.5 -0.3,0.6 -24.2,-10.6 -24.7,-9.5 -0.6,1.2 29.8,18.4 29,19.8 -0.5,1 -15.1,-6.5 -17,-3.7 -0.1,0.2 -0.2,0.5 0,1.7 0.9,5 3.7,8.1 3.5,8.3 -1,0.9 -14.4,-12.6 -14.4,-12.6 -8.7,-8.8 -13.1,-13.2 -15.2,-16.1 -4.3,-5.6 -5.4,-9.4 -12.6,-32.2 -6.7,-21.3 -10.2,-32 -15.5,-37.4 -2.7,-2.7 -9.6,-9.6 -20.4,-10.9 -3.9,-0.5 -7.2,-0.1 -9.5,0.3 1.6,2 3.7,5 5.5,8.9 1,2.2 7.6,16.9 1.9,30.3 -4.4,10.2 -11.4,9.1 -15.3,20.7 -0.5,1.6 -2.4,7.6 -1.5,15.3 0.3,2.8 1.3,10.2 6.5,16.9 5.9,7.5 10.8,5.8 13.8,12.3 1.8,4 1.5,8 0.8,16.1 -0.5,5.6 -1.4,9.7 -1.9,11.9 -5,22.5 -2.5,36 -8.4,37.9 -3.1,1 -7,-1.7 -8.8,0.4 -1.3,1.5 0,3.6 -1.2,4.6 -2.2,1.8 -10.6,-2.6 -10.3,-6.1 0.1,-1.8 2.4,-2.3 6.1,-5 0,0 4.2,-3.1 8.8,-9.2 6.7,-9 6.9,-24.2 1.5,-35.6 -3.3,-6.9 -7.9,-11.1 -8.8,-11.9 -7.1,-6.2 -10.9,-4.1 -18,-10 -8.4,-6.8 -8.3,-13.9 -13.4,-14.2 -4.7,-0.2 -8.6,5.6 -10.7,8.8 -1.5,2.3 -5.2,7.8 -4.6,14.6 0.4,4 2,6 0.8,8.8 -1.2,2.6 -3.8,3.7 -5.7,4.6 -5.5,2.5 -10.5,6.2 -16.1,8.4 -22.6,9.2 -25.3,18.2 -38.3,21.1 -1.5,0.3 -5,1 -6.9,3.8 -2.5,3.9 -0.2,9.1 -1.5,9.6 -1.2,0.5 -2.6,-4.4 -7.3,-6.9 -4.7,-2.5 -9.2,-0.7 -9.6,-1.9 -0.4,-1.4 4.9,-3.4 12.6,-8.8 4.6,-3.3 4.8,-4 8.8,-6.9 6.5,-4.7 11.5,-6.6 16.1,-8.8 11,-5.3 22.3,-10.6 28,-20.7 1.4,-2.4 2.3,-4.9 4.2,-23.8 1.2,-11.7 1.9,-21.4 2.3,-28 -2.6,0.6 -6.9,1.7 -12.3,3.1 -19.2,4.9 -33.1,9.1 -34.9,9.6 -11.6,3.4 -38.1,6.4 -103.7,4.6 -6.4,5.3 -11.4,10.1 -14.9,13.8 -1.7,1.8 -3.8,4.2 -8,9.2 -5,5.9 -5.7,7 -5.7,8.6 -0.2,5.3 6.3,10.9 6.3,10.9 v 0 c 0,0 2.5,0.2 6.3,0.6 -1.2,1.4 -3.1,3.7 -4.6,6.9 -1.9,4 -1.8,6.1 -2.9,6.3 -1.3,0.2 -2.8,-2.3 -8.6,-13.8 -1.4,-2.9 -2.6,-5.3 -3.5,-6.9 -2.5,4 -4.7,7.3 -6.3,9.8 -9.2,13.8 -13.9,20.7 -18.4,22.4 -2.2,0.8 -5.5,1.5 -8.6,4.6 -1.8,1.8 -2.9,3.8 -3.5,5.2 -3.6,-3.1 -7.3,-6.1 -10.9,-9.2 4.3,-1.9 8.6,-3.8 12.9,-5.7 2.4,-2.7 5.7,-6.7 9.5,-11.5 6.8,-8.6 6.3,-8.9 13.2,-17.8 8.4,-10.9 9.7,-11.4 10.3,-14.9 1.3,-7.6 -4.1,-10 -2.3,-17.2 1.3,-5.4 5.9,-10.5 10.9,-12.7 5.3,-2.3 7.9,0 11.5,-2.9 5,-3.9 4.6,-11.6 4.6,-12.1 -0.3,-5.2 -3,-5.6 -4,-10.3 -1.6,-7.4 4,-10.9 6.3,-21.3 1.3,-5.8 0.8,-10.1 0,-17.2 -1.6,-13.9 -5.4,-13.7 -7.5,-28.7 -0.6,-4.1 -0.9,-8.6 -3.4,-14.4 -1.8,-4.1 -3.4,-7.7 -6.9,-9.2 -4,-1.6 -8.1,0.5 -14.9,4 -9.2,4.8 -15.5,10.3 -15.5,10.3 -5.3,4.6 -7.4,7.8 -10.9,7.5 -1,-0.1 -2.8,-1.2 -6.3,-3.4 -4,-2.5 -6,-3.8 -6.9,-5.2 -2.4,-3.7 -1.4,-8.3 -1.1,-9.2 1,-6.4 6.2,-7 14.5,-15 z"
   id="path8368"
   style="fill:#ffffff" />

					<g
   id="g8478">
						<path
   class="st37"
   d="m 1249.2,856.1 c 0.8,2.8 1.7,7 1.4,12.1 -0.2,4.3 -1.1,6.6 -1.7,9.8 -0.5,2.5 -2.4,11.7 0.6,21 0.7,2.1 4.3,12.7 14.7,18.1 4.2,2.2 8.2,2.8 10.4,3.2 1.6,0.2 5.7,0.7 14.6,-0.6 5.6,-0.8 6.5,-1.4 17.2,-4 13.2,-3.2 16.1,-3.3 18.7,-6.6 2.7,-3.3 3.3,-7.7 3.4,-8.6 0.4,-2.5 0.2,-4.4 -0.6,-8.6 -1.9,-11.3 -3,-16.9 -5.2,-17.3 -1.1,-0.2 -1.4,0.8 -4,2.3 -2.8,1.6 -5.1,2 -8.3,2.6 -5,0.9 -9,0.8 -13.8,0.6 -7,-0.3 -7.2,-1 -8.9,-0.3 -6.2,2.4 -7.9,12.1 -8.3,14.4 -1.7,9.4 1.8,14.6 -0.9,16.4 -3,2 -9.8,-3 -11.5,-4.3 -3.9,-2.9 -6,-6 -6.6,-6.9 -4.4,-6.6 -8.2,-18.9 -3.2,-27 2.6,-4.2 7.1,-6.5 7.2,-11.8 0,-1.5 -0.3,-2.7 -0.6,-3.5 -4.9,-0.5 -9.8,-0.8 -14.6,-1 z"
   id="path8370"
   style="fill:#db8024" />

						<g
   id="g8384">
							<g
   id="g8382">
								<path
   class="st37"
   d="m 1245.4,836.8 c -0.1,0.1 -2.6,0.4 -2.7,0.3 -0.8,-0.4 -2.4,-3.1 -2.5,-4.2 l -0.1,-0.6 c 0.3,-0.1 2.1,-1.2 2.1,-1.2 0.1,0 0.3,1.4 2,2.2 l 0.7,0.3 0.1,0.8 c 0,0.4 0.1,1.2 0.2,1.6 0.2,0.4 0.2,0.8 0.2,0.8 z"
   id="path8372"
   style="fill:#db8024" />

								<path
   class="st37"
   d="m 1298.7,822.8 c -0.2,0.2 -15.3,7.6 -24.7,8.4 l -0.9,0.1 c 0,0 6.5,-4.1 8.2,-6.3 3.9,-4.8 8.5,-9.4 14.6,-8.6 1,0.1 1.8,0.4 2.1,0.8 0.4,0.4 0.2,1.2 0.6,4.2 0.1,0.8 0.2,1.4 0.1,1.4 z"
   id="path8374"
   style="fill:#db8024" />

								<path
   class="st37"
   d="m 1253.8,810.2 c -0.2,0.1 -0.6,0.9 -1.3,2.8 -1.9,5.1 -2.4,5.6 -5.7,8.2 -3.5,2.7 -7.2,5.2 -10.8,7.2 -1.1,0.6 -2.7,1.8 -3.6,2.6 -3.2,0.6 -3.3,1.2 -4.5,2 -0.4,0.3 -1,0.3 -1.5,0 -0.5,-0.4 -1,-0.6 -1.3,-0.9 0.1,-0.1 1,-2.6 3.3,-5.3 1.9,-2.2 8.9,-9.3 11.1,-11.2 4,-3.5 6.5,-6.7 7.4,-9.1 0.3,-0.9 0.5,-1.7 0.6,-3.7 0.1,-0.9 0.2,-2.4 0.3,-3.4 0.1,-1 0.2,-2.7 0.3,-3.9 0.1,-1.2 0.2,-2.5 0.2,-2.8 0,-0.4 0.1,-1.7 0.2,-3.1 0.2,-3.8 0.5,-4.9 0.5,-6 0,-0.9 0.2,-0.2 0.2,0.2 0,0.2 0.1,1.5 0.3,2.8 2.3,18.5 4.8,23.5 4.3,23.6 z"
   id="path8376"
   style="fill:#db8024" />

								<path
   class="st37"
   d="m 1265.2,759.7 c -0.1,0.1 -0.6,0.9 -1.2,1.8 -3.3,4.9 -4.4,10.2 -7.8,14.7 -1.8,2.3 -2.3,2.7 -3.4,1.9 -0.4,-0.3 -0.6,-0.6 -1.2,-1.8 -1.1,-2.3 -1.1,-3.3 -1.2,-3.9 0.6,-0.1 1.2,0.6 4.5,-2.1 2.1,-1.7 3.5,-3.2 7.2,-7.7 3.2,-4 3,-3.7 3.1,-3.4 0.1,0.1 0.1,0.4 0,0.5 z"
   id="path8378"
   style="fill:#db8024" />

								<path
   class="st37"
   d="m 1282.5,776.5 c -0.9,-1.9 -2.1,-3.4 -3.9,-4.7 -1.8,-1.3 -3.3,-1.8 -5.7,-1.8 -1.4,0 -1.7,0 -2.5,0.3 -2.8,1 -5.5,3.8 -7.4,7.8 -1.2,2.6 -2.1,5.4 -2.5,8.1 -0.3,1.8 -0.3,3.7 -0.4,5.5 -0.1,2.1 0,4.2 1,6.1 0.3,0.7 0.8,1.3 1.3,1.8 0.1,0.1 1.9,1.2 1.9,1.1 0.1,-1 0.2,-2.6 0.4,-4 0.4,-5.1 2.4,-16.7 3.3,-17.4 0.3,-0.2 0.7,-0.2 1.1,0 0,0 0.1,0.1 0.1,0.3 0.1,0 0.3,0 0.4,0.1 0.7,0.1 1.1,0.8 1,1.5 -0.7,3.7 -2.3,11.5 -3.2,20.8 -0.2,1.8 -0.2,2.7 -0.4,11.3 0,1.3 -0.1,5.2 -0.3,6.4 -0.3,1.4 -2.9,2.2 -4.8,3 -5.4,2.3 -10,4.9 -12.1,5.9 1.4,2 -0.7,3.4 -0.7,3.5 0.1,0 1,4.5 1,4.6 0.2,0.1 19.7,-7.2 24.9,-10.7 3.7,-2.5 4.6,-17.2 5.1,-20.9 0.3,-2.1 0.5,-3.9 0.6,-5.4 0.1,-0.1 0.3,-0.2 0.3,-0.2 0.2,-0.2 0.3,-0.3 0.5,-0.5 0.3,-0.4 0.5,-0.9 0.8,-1.4 0.2,-0.5 0.4,-0.9 0.6,-1.4 1,-2.7 1.6,-5.6 1.8,-8.4 0.2,-3.7 -0.6,-7.8 -2.2,-11.3 z m -9.8,4.8 c 0.1,0 0.1,0.1 0.2,0.1 -0.1,0 -0.1,0 -0.2,-0.1 z"
   id="path8380"
   style="fill:#db8024" />

							</g>

						</g>

						<path
   class="st38"
   d="m 1150.9,801.8 c 0.4,0.3 1.1,0 1.1,-0.5 0,-0.2 -0.2,-0.6 -0.4,-1 -0.9,-1.6 -6.1,-14 -8,-21.2 l -0.3,-1.1 0.4,0.4 c 4.5,5.2 8.8,13.8 10.4,18.9 0.5,1.8 0.7,2 1,2.1 0.4,0.1 0.8,-0.1 0.9,-0.5 0.2,-0.7 -1.6,-5.1 -1.6,-5.1 h 0.5 c 0.7,0 1.9,0.4 2.1,0.4 v 0.6 c 0,1.5 -1.8,8.2 -5.3,14.3 -0.9,1.7 -1,1.7 -0.6,2.1 l 0.3,0.3 -0.3,0.4 c -0.5,0.7 -0.1,1.4 0.7,1.2 0.8,-0.2 4.8,-6 6.6,-9.5 2.7,-5.4 2.8,-8.4 3.1,-8.4 0.2,0 1.6,0.7 2.7,1.4 3.2,1.9 7.2,4.8 12.3,8.9 14.5,11.6 14.7,15.8 16,15.5 0.4,-0.1 0.6,-0.4 0.6,-0.8 0,-0.8 -5.3,-7.6 -15.5,-15.8 -13.6,-10.9 -15.9,-10.2 -15.9,-11 0,-0.4 -0.8,-0.8 -2.4,-1.4 -1.6,-0.5 -2.1,-0.5 -2.4,0 -0.2,0.4 -0.1,0.2 -2,0.1 l -1.1,-0.1 c -0.5,-1 -3.1,-6.5 -5.3,-9.9 -1.7,-2.6 -4.8,-6.5 -5.7,-7.1 -0.6,-0.4 -0.9,-0.4 -1.3,-0.1 -0.3,0.2 -0.3,0.3 -0.3,0.9 0.6,5.2 8.3,24.9 9.7,26 z m 7.8,-8.3 c 0.1,0 0.4,0.1 0.8,0.2 0.4,0.1 0.7,0.3 0.7,0.4 0,0.1 -0.1,0.7 -0.3,1.3 -0.8,3.3 -2.2,6.7 -4.3,10.1 -1.3,2.1 -1.4,2.3 -0.7,0.7 3.9,-8.5 3.5,-12.7 3.8,-12.7 z"
   id="path8386"
   style="fill:#171717" />

						<path
   class="st38"
   d="m 1132.1,797.2 c 1.8,-1.5 4.1,-3 6.3,-4 4.3,-1.9 6,-1.4 6.5,-2.1 0.1,-0.2 0.2,-0.3 0,-0.6 -0.2,-0.4 -0.3,-0.4 -0.8,-0.4 -0.4,0 -2.8,0.5 -3.6,0.8 l -0.5,0.2 c 0,-0.1 -1.7,-2.8 -2.9,-6.4 -0.4,-1.2 -0.9,-4 -0.9,-4.5 0,-0.3 0.1,-0.3 0.6,0.4 4.8,6.5 4.6,10.1 6.1,9.3 0.5,-0.3 0.4,-0.7 -0.4,-2.5 -1.5,-3.2 -2.1,-4.3 -3.9,-6.8 -1.3,-1.9 -2.2,-2.9 -2.7,-3.1 -0.2,-0.1 -0.4,-0.2 -0.4,-0.2 0,0 -0.2,0.1 -0.3,0.1 -0.5,0.2 -0.6,0.7 -0.5,2.6 0.1,1.9 0.3,3.2 0.8,4.7 0.5,1.7 2.1,5.3 2.9,6.5 l 0.3,0.5 c 0,0 -1.9,0.6 -4.2,2 -1.1,0.7 -3.2,2.3 -3.8,2.9 -0.5,0.6 -0.6,0.8 -0.3,1.2 0.4,0.3 0.8,0.2 1.7,-0.6 z"
   id="path8388"
   style="fill:#171717" />

						<path
   class="st38"
   d="m 1150,806.8 c 0.9,1.2 1.1,1.3 1.6,0.9 0.6,-0.4 0.4,-0.9 -1.1,-2.8 -3.1,-3.8 -6.1,-6.6 -8.4,-7.7 -0.4,-0.2 -0.7,-0.4 -0.7,-0.5 0,-0.2 1.1,-1.8 1.6,-2.3 0.9,-1 2,-1.5 2,-2 0,-1.5 -2.4,-0.2 -4.3,2.8 -0.6,0.9 -0.7,1 -1,0.9 -1.9,-0.4 -3.8,0 -4.3,1 -0.5,0.9 0.5,1.6 1.1,0.8 0.6,-0.8 2.6,-0.5 2.6,-0.4 0,0 -0.2,0.3 -0.3,0.7 -0.7,1.2 -0.7,1.8 -0.2,2.1 0.5,0.3 0.7,0.1 1.4,-1.1 0.3,-0.6 0.6,-1.2 0.6,-1.2 0.1,-0.1 2,1 2.7,1.5 1.7,1.5 4.8,4.8 6.7,7.3 z"
   id="path8390"
   style="fill:#171717" />

						<path
   class="st38"
   d="m 1164.2,793.7 c 0.9,-0.3 4.4,-0.1 5.1,0.1 0.9,0.3 1.6,0.2 1.8,0 0.3,-0.6 0,-1 -1.1,-1.3 -1,-0.3 -5.1,-0.4 -6,-0.2 -0.9,0.3 -1.3,0.8 -1,1.3 0.1,0.3 0.4,0.4 1.2,0.1 z"
   id="path8392"
   style="fill:#171717" />

						<path
   class="st38"
   d="m 1138.2,794.2 c -0.3,-0.4 -0.8,-0.4 -1.7,0.1 -2.5,1.4 -4.7,3.3 -5.2,4.4 -0.2,0.5 0.1,1 0.6,1 0.4,0 0.4,0 1.2,-1 0.9,-1 2.9,-2.5 4.2,-3.2 1.1,-0.5 1.3,-0.8 0.9,-1.3 z"
   id="path8394"
   style="fill:#171717" />

						<path
   class="st38"
   d="m 1167,795.1 c 0,0.4 0.4,0.8 0.9,0.7 0.4,-0.1 2.6,0.3 4.5,0.8 1.7,0.4 2.1,0.4 2.4,0.1 0.3,-0.3 0.3,-0.7 -0.1,-1 -0.3,-0.2 -2.9,-0.8 -4.4,-1 -1.2,-0.3 -3.3,-0.8 -3.3,0.4 z"
   id="path8396"
   style="fill:#171717" />

						<path
   class="st38"
   d="m 1172.7,799.4 c 0.1,0.4 0.6,0.5 1.2,0.1 0.6,-0.3 5,-1.6 2.4,-0.6 -0.5,0.2 -0.9,0.4 -1.1,0.6 -0.3,0.3 -0.3,0.8 0.1,1 0.8,0.5 1,-0.9 9.3,-2 2.3,-0.3 4.5,-0.5 6,-0.5 0.8,0 1.2,0 1.4,-0.2 0.3,-0.2 0.3,-0.8 0,-1.1 -0.2,-0.2 -0.5,-0.2 -1.9,-0.2 -0.9,0 -1.8,0 -2,0 -0.2,0 -1.2,0.1 -2.2,0.2 -1.6,0.2 -4.9,0.7 -5.4,0.8 -0.4,0.1 0.1,-0.6 -0.8,-0.9 -0.5,-0.2 -4.6,0.7 -5.9,1.3 -1,0.5 -1.3,0.9 -1.1,1.5 z"
   id="path8398"
   style="fill:#171717" />

						<path
   class="st38"
   d="m 1185.2,800.5 c 0.2,-0.2 2.1,-0.5 3.8,-0.6 1.6,-0.1 2,-0.2 2,-0.8 0,-0.6 -0.7,-0.8 -2.2,-0.7 -1.1,0.1 -3.2,0.4 -3.7,0.6 -0.9,0.3 -1.3,0.9 -0.8,1.4 0.3,0.2 0.7,0.3 0.9,0.1 z"
   id="path8400"
   style="fill:#171717" />

						<path
   class="st38"
   d="m 1183.7,802.6 c 0.1,0.4 0.4,0.5 1.1,0.3 0.6,-0.1 3.3,-0.1 4.8,0.1 0.9,0.1 1.3,0 1.4,-0.5 0.1,-0.5 -0.2,-0.7 -1,-0.9 -0.7,-0.2 -4.7,-0.3 -5.3,-0.1 -0.8,0.2 -1.2,0.6 -1,1.1 z"
   id="path8402"
   style="fill:#171717" />

						<path
   class="st38"
   d="m 1183.3,805.3 c 0.2,0.3 0.2,0.3 1.7,0 1.8,-0.3 6.6,0.3 9.9,1.3 1,0.3 1.2,0.3 1.5,0.2 0.2,-0.1 0.3,-0.2 0.3,-0.6 0,-0.3 -0.1,-0.5 -0.4,-0.7 -2,-1.3 -14.7,-2.9 -13,-0.2 z"
   id="path8404"
   style="fill:#171717" />

						<path
   class="st38"
   d="m 1189.8,806.8 c -0.3,0.2 -0.4,0.7 -0.1,1 0.1,0.1 0.4,0.2 0.8,0.2 0.8,0 2.9,0.4 4.8,1 1.5,0.4 2.1,0.4 2.2,0 0.2,-0.7 -0.2,-0.9 -2.3,-1.5 -3,-0.8 -5,-1 -5.4,-0.7 z"
   id="path8406"
   style="fill:#171717" />

						<path
   class="st38"
   d="m 1133.1,815.9 c 0.3,-0.1 0.4,-0.3 0.7,-1.1 0.1,-0.2 0.2,-0.1 0.9,0.6 0.5,0.5 1.1,0.9 1.4,1.1 0.6,0.3 1.6,0.3 2.4,0.1 0.7,-0.2 2.3,-1.2 2.7,-1.6 l 0.3,-0.3 0.3,0.2 c 0.4,0.3 1,0.3 1.2,0.1 0.3,-0.3 0.2,-0.9 -0.1,-1.1 -0.2,-0.1 -1.1,-0.9 -2.1,-1.7 -1,-0.8 -2.1,-1.7 -2.5,-2 -1.2,-0.9 -2.1,-1.2 -2.9,-0.9 -0.7,0.2 -1.2,0.8 -1.8,2 -0.7,1.5 -1.5,3.8 -1.4,4.1 0.1,0.4 0.5,0.6 0.9,0.5 z m 6.8,-2.4 c 0.1,0 0.2,0.1 0.3,0.2 0.1,0.1 0.1,0.2 0.1,0.2 -0.3,0.2 -0.7,0.5 -0.7,0.4 -0.1,-0.1 0.2,-0.8 0.3,-0.8 z m -3.4,-1.7 c 0,-0.2 0.1,-0.5 0.1,-0.7 l 0.1,-0.3 0.5,0.4 c 0.3,0.2 0.7,0.5 0.9,0.7 l 0.4,0.4 -0.4,-0.1 c -0.2,0 -0.7,-0.1 -1,-0.1 h -0.6 z m -1.9,0.9 c 0.1,-0.2 0.2,-0.5 0.2,-0.6 0.1,-0.2 0.1,-0.2 0.2,0.9 l 0.1,0.9 -0.3,-0.4 c -0.4,-0.4 -0.4,-0.4 -0.2,-0.8 z"
   id="path8408"
   style="fill:#171717" />

						<path
   class="st38"
   d="m 1195.2,809.5 c -0.3,0.1 -0.6,0.5 -0.6,0.8 0,0.5 0.3,0.5 2.3,0.6 1.7,0.1 2,0.1 2.2,-0.1 0.4,-0.3 0.4,-0.8 0,-1.1 -0.2,-0.1 -3.3,-0.3 -3.9,-0.2 z"
   id="path8410"
   style="fill:#171717" />

						<path
   class="st38"
   d="m 1198.6,813.8 c 0.3,-0.3 0.2,-0.8 -0.2,-1.1 -1.8,-1.1 -9,-1.5 -9.6,-1.2 -0.5,0.2 -0.6,0.7 -0.4,1.1 0.1,0.2 0.3,0.2 1.5,0.2 1.7,0 4.8,0.4 6.6,0.8 1.6,0.4 1.8,0.4 2.1,0.2 z"
   id="path8412"
   style="fill:#171717" />

						<path
   class="st38"
   d="m 1196,815.7 c 1.6,0.4 2,0.4 2.2,0 0.2,-0.3 0.2,-0.3 0,-0.6 -0.1,-0.2 -0.4,-0.4 -0.6,-0.5 -0.8,-0.3 -3.9,-0.9 -5,-0.9 -1,-0.1 -1.1,-0.1 -1.3,0.2 -0.3,0.3 -0.3,0.6 -0.1,0.9 0.3,0.3 1.1,0 4.8,0.9 z"
   id="path8414"
   style="fill:#171717" />

						<path
   class="st38"
   d="m 1196.8,819.6 c 0.2,0.3 0.5,0.3 1.3,0.1 1.6,-0.5 5.5,-0.8 7.5,-0.6 1.3,0.1 1.6,0.1 1.8,-0.3 1.2,-2.2 -8.5,-1.1 -10.2,-0.2 -0.5,0.1 -0.7,0.6 -0.4,1 z"
   id="path8416"
   style="fill:#171717" />

						<path
   class="st38"
   d="m 1129.4,833.7 c 0.4,0.5 1.2,0.1 1.2,-0.6 0,-0.4 0.2,-0.7 1.2,-1.9 1.8,-2.1 11.9,-11.9 12.5,-12.2 0.6,-0.3 0.7,-1.1 0.1,-1.3 -0.4,-0.2 -0.5,-0.1 -0.9,0.1 -0.7,0.4 -5.4,5.1 -9.5,8.9 -0.8,0.8 -1.9,1.8 -2.3,2.4 -1.3,1.6 -3.4,3.4 -2.3,4.6 z"
   id="path8418"
   style="fill:#171717" />

						<path
   class="st38"
   d="m 1204.2,820.6 c 1.6,-0.1 1.7,-0.1 2,-0.3 0.3,-0.3 0.3,-0.5 0,-0.8 -0.3,-0.3 -0.4,-0.3 -1.6,-0.3 -0.7,0 -1.7,0.1 -2.1,0.1 -1.1,0.1 -1.4,0.3 -1.6,0.6 -0.1,0.2 -0.1,0.4 0.1,0.6 0.2,0.5 0,0.2 3.2,0.1 z"
   id="path8420"
   style="fill:#171717" />

						<path
   class="st38"
   d="m 1200.4,822 c -1.3,0.4 -1.1,1.7 -0.1,1.5 1.5,-0.3 4.2,-0.2 6.1,0.2 1,0.2 1.3,0.2 1.6,-0.3 0.2,-0.3 0.2,-0.3 0,-0.6 -0.4,-0.6 -1.8,-0.8 -4.9,-0.9 -1.5,0 -2.5,0 -2.7,0.1 z"
   id="path8422"
   style="fill:#171717" />

						<path
   class="st38"
   d="m 1204.2,824.9 c -1.4,0.3 -1.5,1.1 -0.9,1.5 0.4,0.3 0.5,0.3 1.1,0 0.5,-0.2 0.6,-0.2 2.1,-0.2 6.2,0.3 8.5,1.6 9.2,1.6 0.4,0 0.7,-0.3 0.7,-0.6 0,-1.8 -10.2,-2.7 -12.2,-2.3 z"
   id="path8424"
   style="fill:#171717" />

						<path
   class="st38"
   d="m 1212.9,828 c -0.9,-0.4 -3.8,-0.8 -4.4,-0.3 -0.3,0.3 -0.3,0.6 -0.1,0.9 0.3,0.4 1.8,0.2 3.5,0.6 0.8,0.2 0.9,0.2 1.2,0 0.2,-0.2 0.3,-0.3 0.3,-0.6 -0.1,-0.4 -0.2,-0.5 -0.5,-0.6 z"
   id="path8426"
   style="fill:#171717" />

						<path
   class="st38"
   d="m 1217.3,834.7 c -1.5,-0.2 -1.8,-0.2 -2.1,0.1 -0.5,0.5 -0.1,1.2 0.7,1.2 0.7,0 2.3,0.4 3.9,0.8 1.5,0.5 1.6,0.5 1.9,0.3 0.3,-0.2 0.4,-0.6 0.1,-0.9 -0.4,-0.5 -2.5,-1.2 -4.5,-1.5 z"
   id="path8428"
   style="fill:#171717" />

						<path
   class="st38"
   d="m 1221.7,839.2 c 0.4,-0.2 0.4,-0.7 0.1,-1 -0.5,-0.5 -3.4,-1.4 -4.1,-1.1 -0.3,0.1 -0.5,0.4 -0.5,0.7 0,0.6 0.9,0.5 2.9,1.2 1.2,0.3 1.3,0.4 1.6,0.2 z"
   id="path8430"
   style="fill:#171717" />

						<path
   class="st38"
   d="m 1217.4,839.9 c -0.6,0 -0.8,0 -1,0.1 -0.3,0.2 -0.4,0.8 -0.1,1 0.1,0.1 0.7,0.2 1.3,0.3 1,0.1 1.1,0.1 1.3,-0.1 0.2,-0.2 0.2,-0.3 0.1,-0.6 -0.2,-0.4 -0.7,-0.6 -1.6,-0.7 z"
   id="path8432"
   style="fill:#171717" />

						<path
   class="st38"
   d="m 1359.8,968.5 c 4.6,-4.5 8.5,-6.9 16.3,-10.1 14.3,-5.9 17.5,-9.6 18.8,-10.4 0.7,-0.4 0.6,-1.3 -0.2,-1.4 -1,-0.1 -0.6,1 -8,5.1 -10.9,6 -16.7,6.7 -24,12.2 -1.2,0.9 -4.4,3.8 -4.7,4.2 -0.3,0.4 -0.4,1 -0.1,1.2 0.6,0.4 0.9,0.2 1.9,-0.8 z"
   id="path8434"
   style="fill:#171717" />

						<path
   class="st38"
   d="m 1483.3,977.6 c -10.8,0 -14.1,-4.1 -20.2,-12.1 -2.2,-2.9 -6.6,-10.2 -7.8,-12.9 -0.2,-0.5 -0.4,-1 -0.5,-1 -0.2,-0.2 -0.7,-0.2 -0.9,0 -0.3,0.4 -0.3,0.8 0.3,2 1.2,2.6 2.9,5.6 5.2,9.3 3.1,4.9 8,10.7 10.6,12.7 4.1,3.1 10.7,4.4 17.5,3.4 4,-0.6 5.7,-0.9 8.9,-1.8 2.7,-0.8 6.2,-2 6.5,-2.3 0.4,-0.4 0.2,-1.3 -0.4,-1.3 -0.1,0 -1.3,0.4 -2.6,0.8 -4.7,1.6 -7.3,2.2 -11.3,2.9 -2.1,0.3 -2.5,0.3 -5.3,0.3 z"
   id="path8436"
   style="fill:#171717" />

						<path
   class="st38"
   d="m 1468.7,962 c -0.3,0.2 -0.4,0.3 -0.4,0.7 0,0.4 0.5,0.9 1.7,1.7 3.7,2.4 6.8,3.3 13.1,3.8 6.7,0.5 8,0.7 13.4,2.4 1.8,0.6 1.9,0.6 2.2,0.4 0.4,-0.2 0.5,-0.6 0.2,-1 -0.2,-0.3 -0.9,-0.6 -3.9,-1.5 -11.1,-3.3 -16.1,-0.5 -23.9,-5.2 -2.1,-1.2 -1.7,-1.7 -2.4,-1.3 z"
   id="path8438"
   style="fill:#171717" />

						<path
   class="st38"
   d="m 1496.3,973 c 0.3,-0.4 0.1,-0.9 -0.5,-1.1 -0.5,-0.2 -2.9,-0.2 -6.7,0.2 -1.4,0.1 -2.9,0.2 -3.5,0.2 -2.6,0 -6.2,-0.6 -8.5,-1.3 -1.5,-0.5 -3.9,-1.6 -4.4,-2 -0.4,-0.3 -0.8,-0.3 -1.1,0.1 -0.4,0.6 0,1.1 2,2.1 4.6,2.3 9.4,3.1 15.6,2.5 4.1,-0.4 5.8,-0.3 6.7,-0.3 0.2,-0.1 0.3,-0.2 0.4,-0.4 z"
   id="path8440"
   style="fill:#171717" />

						<path
   class="st38"
   d="m 1488.1,974.9 c -4.2,0.6 -6.9,0.6 -10.2,-0.5 -0.3,-0.1 -0.9,0.2 -0.6,0.9 0.2,0.4 1.9,1 3.4,1.2 1.4,0.2 4.7,0.2 6.6,-0.1 2.4,-0.3 2.8,-0.5 2.6,-1.2 0,-0.4 -0.5,-0.5 -1.8,-0.3 z"
   id="path8442"
   style="fill:#171717" />

						<path
   class="st38"
   d="m 1508,986.6 c -0.1,-0.1 -0.9,-0.5 -1.7,-0.8 -13.2,-4.9 -13,-8.7 -14.4,-7.3 -0.1,0.1 -0.6,0.4 -0.1,0.9 3.7,3.3 8.3,5.8 14.9,8.2 0.9,0.3 0.9,0.3 1.2,0.1 0.4,-0.2 0.4,-0.7 0.1,-1.1 z"
   id="path8444"
   style="fill:#171717" />

						<path
   class="st38"
   d="m 1502.2,990 c 0.5,0.2 0.6,0.2 0.9,0 0.2,-0.2 0.3,-0.3 0.3,-0.6 0,-0.3 -0.2,-0.4 -1.5,-1.2 -2.7,-1.6 -7.8,-5.1 -8.2,-5.6 -0.2,-0.4 -0.8,-0.4 -1,-0.1 -0.2,0.2 -0.2,0.8 0,1.1 0.4,0.4 7.5,5.6 9.5,6.4 z"
   id="path8446"
   style="fill:#171717" />

						<path
   class="st38"
   d="m 1505.4,993.5 c -11.9,-5.4 -13.6,-9.9 -14.9,-9.9 -0.3,0 -0.4,0.1 -0.5,0.3 -0.1,0.2 -0.1,0.4 -0.1,0.6 0.1,0.4 2.9,3.1 4.5,4.4 2.6,2.1 4.9,3.5 8.6,5.2 3.1,1.4 4.1,1.9 4.4,1.8 0.4,-0.1 0.7,-0.6 0.5,-0.9 -0.1,-0.3 -0.2,-0.4 -2.5,-1.5 z"
   id="path8448"
   style="fill:#171717" />

						<path
   class="st38"
   d="m 1502.4,1007.5 c -0.8,-0.6 -7.8,-3.7 -15.4,-10.3 -8.4,-7.3 -8.5,-10.2 -9.5,-9.1 -0.4,0.5 -0.3,0.9 1.1,2.5 8.5,10.5 22.3,18.2 23.6,18.2 0.6,-0.1 0.8,-0.8 0.2,-1.3 z"
   id="path8450"
   style="fill:#171717" />

						<path
   class="st38"
   d="m 1497.5,995.7 c -6.8,-4.5 -7.6,-7.5 -8.5,-6.2 -0.3,0.5 0,0.8 1.8,2.7 2.7,2.7 5.1,4.5 9.3,7 2.5,1.5 3.3,1.9 3.7,1.7 0.2,-0.1 0.4,-0.2 0.4,-0.4 0.5,-1 -1.2,-1.1 -6.7,-4.8 z"
   id="path8452"
   style="fill:#171717" />

						<path
   class="st38"
   d="m 1500.8,994.2 c -0.4,-0.3 -0.5,-0.4 -0.8,-0.1 -0.3,0.2 -0.3,0.8 -0.1,1 0.4,0.4 3.7,1.8 4.3,1.8 0.2,0 0.4,-0.1 0.5,-0.1 0.2,-0.2 0.2,-0.7 0,-0.9 -0.3,-0.2 -3.3,-1.2 -3.9,-1.7 z"
   id="path8454"
   style="fill:#171717" />

						<path
   class="st38"
   d="m 1497.3,1008.7 c 0,-1.1 -3.2,-1.5 -10.2,-7.1 -7.3,-5.9 -6.9,-7.3 -7.8,-6.5 -0.5,0.5 -0.3,0.9 2,3.2 4.1,4.1 8.9,7.7 13.8,10.3 1.7,0.9 2.2,0.9 2.2,0.1 z"
   id="path8456"
   style="fill:#171717" />

						<path
   class="st38"
   d="m 1501.7,1004.1 c 0.7,0 0.8,0 0.9,-0.3 0.2,-0.5 0,-0.8 -0.8,-1.1 -2.6,-0.8 -9.1,-5.6 -9.9,-6.9 -0.3,-0.5 -0.7,-0.5 -1,-0.2 -0.4,0.4 -0.3,0.8 0.6,1.7 1.8,1.9 6,4.9 8.3,6.1 0.9,0.5 1.3,0.6 1.9,0.7 z"
   id="path8458"
   style="fill:#171717" />

						<path
   class="st38"
   d="m 1341.7,1012.8 c 1,-0.2 0.5,-2.7 1.7,-6.7 0.4,-1.3 0.6,-3.2 0.7,-4.8 0,-1.5 0,-1.6 -0.2,-1.8 -0.3,-0.3 -0.3,-0.2 -0.6,-0.1 -0.4,0.1 -0.6,0.7 -0.6,1.9 0,3.3 -1.8,7.3 -1.8,10.4 -0.1,0.7 0.3,1.2 0.8,1.1 z"
   id="path8460"
   style="fill:#171717" />

						<path
   class="st38"
   d="m 1219.5,845.5 c 2.5,-0.3 9.4,2.2 8,1.9 -1.4,-0.3 -2.9,-0.5 -3.4,-0.5 -0.5,0 -0.7,0 -0.9,0.3 -0.3,0.4 -0.3,0.5 0,0.8 0.2,0.2 0.4,0.3 0.8,0.3 0.7,0 3.2,0.5 4.6,1 1.1,0.4 1.2,0.4 1.5,0.2 0.2,-0.1 0.3,-0.3 0.3,-0.5 0,-1.1 -2.9,-1.3 -2.1,-1.5 0.4,-0.1 0.6,-0.5 0.5,-0.8 -0.1,-0.4 -0.8,-0.8 -2.2,-1.3 -2.7,-0.9 -6.4,-1.5 -7.5,-1.2 -0.5,0.1 -0.7,0.4 -0.7,0.8 -0.1,0.4 0.3,0.6 1.1,0.5 z"
   id="path8462"
   style="fill:#171717" />

						<path
   class="st38"
   d="m 1228.2,849.8 c -0.4,0.1 -0.8,0.6 -0.7,0.9 0.1,0.4 0.4,0.6 0.9,0.5 0.5,-0.1 2.5,0.2 3.7,0.6 1.2,0.4 1.4,0.4 1.7,0.1 0.5,-0.5 -0.1,-1.1 -1.3,-1.5 -1.3,-0.4 -3.7,-0.7 -4.3,-0.6 z"
   id="path8464"
   style="fill:#171717" />

						<path
   class="st38"
   d="m 1103.9,846.3 c -1.1,-0.5 -2.1,-0.6 -2.8,-0.3 -0.6,0.3 -1.1,0.9 -1.2,1.5 -0.1,0.3 -0.3,0.9 -0.4,1.4 -0.4,1.4 -0.4,1.9 0.2,2.1 0.5,0.2 0.8,-0.3 1.6,-3.2 0.1,-0.5 0.6,-0.6 1.3,-0.4 0.7,0.2 1.8,0.9 2,1.1 0.2,0.3 0,0.7 -0.7,1.6 -0.8,1 -1.5,2.5 -1.5,3 0,0.4 0.3,0.8 0.7,0.8 0.3,0 0.7,-0.5 0.9,-1.1 0.3,-0.7 0.4,-1 1.2,-2 1,-1.4 1.2,-2.2 0.8,-3.2 -0.3,-0.3 -0.7,-0.6 -2.1,-1.3 z"
   id="path8466"
   style="fill:#171717" />

						<path
   class="st38"
   d="m 1198.1,941.5 c -1.2,-1.1 -2.8,-1.7 -4.4,-1.8 -1.4,-0.1 -3.5,0.4 -4.1,1.8 -0.2,0.5 0,1 0.5,1 0.3,0 0.4,0 0.7,-0.4 0.9,-1.1 2.5,-1.2 3.7,-0.8 1.5,0.4 2.6,1.2 3.5,2.4 1,1.3 1.4,1.5 1.8,1 0.2,-0.2 0.2,-0.3 0.2,-0.6 -0.1,-0.4 -1.2,-1.9 -1.9,-2.6 z"
   id="path8468"
   style="fill:#171717" />

						<path
   class="st38"
   d="m 1410.3,1002.6 c 0.9,1.6 1.1,1.8 1.6,1.8 0.4,0 0.7,-0.4 0.7,-0.7 0,-0.3 -1.5,-2.7 -2.5,-4 -1,-1.4 -2.8,-3.2 -3.1,-3.3 -0.1,0 -0.3,0 -0.4,0 -0.2,0.1 -0.5,0.4 -0.5,0.7 0,0.1 0.5,0.7 1,1.3 1.3,1.2 2.2,2.4 3.2,4.2 z"
   id="path8470"
   style="fill:#171717" />

						<path
   class="st38"
   d="m 1497.3,1012.2 c -2.9,-2.6 -14.1,-6.9 -30,-27.9 -6.3,-8.4 -9.9,-14.7 -12.8,-22.5 -1.2,-3.3 -3.9,-12.2 -5.1,-16.8 -1,-3.9 -1.7,-6.1 -5.5,-17.1 -2.9,-8.4 -5,-13 -8,-17.9 -3.8,-6.1 -9.5,-10.9 -16,-13.5 -3.8,-1.5 -7.6,-1.7 -11.7,-1.4 -1.9,0.1 -3.3,0.3 -3.6,-0.4 -0.8,-1.3 -2.3,-3.6 -2.8,-4.1 -0.5,-0.5 -0.7,-0.5 2,-0.2 0.9,0.1 2.9,0.3 4.4,0.4 12.5,0.8 18.8,2.2 24.5,5.5 3,1.7 6.3,4.1 8.6,6 1.5,1.3 4.5,4.4 6.2,6.3 4.8,5.5 8.7,10.9 12.1,16.9 1.9,3.3 5.3,10.1 6.8,13.6 5.5,13.1 7.5,17.2 11.7,23.8 0.8,1.2 1.5,2.4 1.7,2.6 0.4,0.5 0.8,0.6 1.2,0.4 0.5,-0.3 0.1,-1.1 -0.5,-2.1 -4.8,-7.2 -7.1,-11.7 -11.9,-23.2 -2.7,-6.5 -6.3,-13.7 -9.3,-18.6 -4.9,-7.9 -11.9,-16.4 -17.4,-21.1 -3,-2.5 -8.3,-6 -11.4,-7.4 -5,-2.3 -12.2,-3.6 -21.4,-4.1 -3.3,-0.2 -9.1,-0.3 -10.3,-1.1 -3.1,-2 -8.5,-5.1 -11.9,-6.8 -3.6,-1.8 -5.3,-2.5 -13,-5.4 -10.4,-3.9 -14,-4.8 -19.5,-5.2 -3.2,-0.2 -5.6,0 -11.3,0.8 -5.8,0.8 -19.2,2.4 -19.4,2.6 -0.7,0.5 0.7,-1.6 0.3,-4.4 -0.4,-2.7 -1.8,-7 -2.6,-7.8 -0.9,-0.9 -2.1,0.5 -2.5,0.1 -0.4,-0.4 2.2,-2.3 2.5,-5.7 0.2,-3 -2.6,-4 -5.4,-3.3 -2.4,0.6 -4,1.3 -8.3,3.6 -4.4,2.4 -8.6,4.5 -9.8,4.9 -1.1,0.4 -3.8,1.2 -3.9,1.1 0,0 0.6,-1 1.3,-2.1 3.4,-4.9 5.1,-8.4 6.5,-13.1 1.7,-5.8 2.1,-12.4 0.9,-18.3 -0.4,-2.1 -1.4,-4.9 -2.2,-6 -0.2,-0.3 -0.3,-0.7 -0.5,-2.2 -0.1,-1 -0.2,-2 -0.3,-2.2 0,-0.3 0,-0.4 0.3,-0.5 0.6,-0.2 0.7,-0.5 0.6,-2.3 -0.5,-12.5 -2.9,-24 -7,-33.9 -6.2,-15 -15.6,-24.2 -24.9,-24.3 -0.7,0 -1.5,0 -1.7,0.1 l -0.4,0.1 -0.2,-0.8 c -0.2,-0.8 -0.5,-2.2 -0.4,-2.2 0.5,-0.2 0.7,-0.5 1.4,-2 2.2,-4.7 2.8,-9.5 1.8,-14.3 -2.5,-11.4 -13,-17.8 -23,-15.2 -6.5,1.7 -11.8,6.8 -14.1,13.6 -0.2,0.5 -0.3,0.8 -0.4,0.8 -0.1,0 -3.9,-2.1 -4.2,-2.1 -0.6,0 -0.8,0.8 -0.3,1.1 0.5,0.4 4.5,2.7 4.5,2.7 0,0.5 -0.1,4.3 0.6,6 0.2,0.4 0.4,0.6 1.1,0.9 0.6,0.3 0.8,0.5 0.8,0.6 -0.1,0.3 0.2,3.6 0.4,4.5 0.1,0.6 0.2,1.4 0.2,2.6 v 1.3 c 0,0.3 0.1,0.6 0.4,0.8 1.2,1.2 1.8,1.2 2.9,4.7 0.9,3 1.5,3.7 2.9,4 0.9,0.2 1.5,0.2 2.6,-0.3 2.6,-1 3.4,-0.8 3.4,-0.8 -0.1,0.2 -0.7,1 -0.7,1.4 0,0.3 0.4,0.7 0.7,0.7 0.3,0 0.8,-0.5 1,-0.9 0.1,-0.1 0.2,-0.2 0.2,-0.2 0.2,0.2 0.7,1.8 0.7,2.7 0.1,0.9 0,1.1 -0.2,1.9 -0.3,0.8 -2.4,11.7 -2.5,12.9 -0.1,1.2 -0.2,2.5 -0.3,2.9 -0.1,0.4 -0.2,1.9 -0.2,3.2 -0.1,1.3 -0.2,2.7 -0.2,3.1 0,0.4 -0.1,1.7 -0.2,2.9 -0.1,1.2 -0.2,3.3 -0.4,4.6 -0.1,1.3 -0.3,2.9 -0.3,3.6 -0.2,2.7 -0.9,4.2 -3.3,7 -1,1.2 -2.4,2.5 -4.4,4.3 -2.3,2 -12.8,12.2 -13.7,15.1 -0.1,0.3 -0.2,0.4 -0.8,0.6 -1.5,0.5 -3.4,1.9 -3.4,2.5 0,0.3 0,0.3 -0.3,0.2 -2.9,-0.7 -3.1,-0.7 -5,-0.7 -1.6,0 -1.9,0 -2.2,0.2 -0.4,0.3 -0.5,0.6 -0.3,1 0.5,0.8 3.9,-0.7 9.8,2 1,0.5 1.2,0.5 1.5,0.4 0.4,-0.2 0.5,-0.6 0.2,-1.1 -0.2,-0.3 -1.4,-1 -2.3,-1.3 l -0.4,-0.1 0.6,-0.5 c 0.6,-0.6 2,-1.4 2.3,-1.4 0.1,0 0.5,0.4 1,0.8 0.4,0.4 1.1,0.9 1.6,1.2 -2.9,0.4 -1.4,4.9 0.1,6.3 0.2,0.2 0.2,0.2 -1.4,0.7 -1.4,0.4 -15.3,3.7 -27.9,5.6 -7.7,1.2 -8.4,1.3 -14.9,2 -2.3,0.3 -5.6,0.6 -7.3,0.8 -4,0.5 -13.9,1.4 -13.9,1.3 0,0 -0.3,-0.5 -0.6,-1.1 -0.7,-1.2 -1.8,-2.6 -2.8,-3.8 -0.4,-0.5 -0.9,-1 -1.1,-1.2 l -0.3,-0.3 0.9,-1 c 2.2,-2.3 3.9,-4.9 5.2,-7.8 3.1,-7.5 3.1,-15.7 -0.2,-22.6 -0.8,-1.7 -1.1,-2 -1.6,-1.7 -0.6,0.3 -0.6,0.6 0.1,2.1 1.1,2.1 1.9,4.9 2.3,7.7 0.2,1.4 0.2,5.3 0,6.6 -0.6,4.3 -2,8 -4.1,11.3 -3,4.6 -7.1,7.5 -11.8,8.5 -0.8,0.2 -1.5,0.2 -3.1,0.2 -1.9,0 -2.2,0 -3.4,-0.3 -1.3,-0.3 -2.3,-0.7 -3.3,-1.2 -0.3,-0.2 -0.7,-0.3 -0.8,-0.3 -0.6,0 -0.9,0.7 -0.5,1.2 0.2,0.2 1.9,1.1 2.5,1.2 0.2,0 0.3,0.1 0.3,0.2 0,0.1 -2.7,1.6 -2.8,1.5 -0.2,-0.2 -0.1,-2.8 -2.6,-4.4 -0.3,-0.2 -0.6,-0.4 -0.6,-0.4 0,0 0.2,-0.4 0.5,-0.8 0.9,-1.1 5.7,-8.4 8.2,-12.2 8.4,-13.1 10,-15.6 10.7,-16.3 0.3,-0.3 0.3,-0.4 0.2,-0.8 -0.2,-0.3 -0.6,-0.5 -1,-0.3 -1.1,0.5 -10,15 -15.7,23.5 l -2.8,4.1 -0.5,-0.4 c -4,-3.2 -10.9,-7.4 -18,-10.4 -0.6,-0.2 -1,-0.4 -1,-0.5 0,0 0.8,-1 1.8,-2.1 4.4,-4.9 7.3,-8.5 12.5,-15.4 3.5,-4.7 5.3,-6.8 9.1,-11.1 0.6,-0.7 1.2,-1.4 1.3,-1.5 0.2,-0.5 -0.3,-1.1 -0.8,-0.9 -0.1,0 -0.6,0.5 -1.2,1.1 -0.5,0.6 -1.5,1.6 -2.2,2.4 -2,2.1 -4.1,4.8 -6.7,8.1 -5.2,6.9 -8.7,11.2 -12.9,15.9 l -2.4,2.7 h -0.7 c -1.1,-0.1 -1.9,0.5 -1.9,1.3 0,0.3 0.3,0.9 0.5,1 0.2,0.1 -1.9,2.4 -6.1,6.5 -2,2 -4,4 -4.3,4.5 -0.4,0.5 -0.9,1.1 -1.2,1.5 -0.7,0.9 -1.1,1.7 -1.4,2.9 -0.3,1.2 -0.3,1.8 0.1,3.1 0.4,1.1 0.6,2.2 0.9,5.2 0.4,3.3 1.3,5.6 5.7,7.4 0.9,0.4 1.5,0.3 1.9,0.2 0.2,0 0.5,0.1 0.5,0.4 0.1,0.3 0.2,0.8 0.6,1.3 0.5,0.6 1.1,0.8 2.1,0.6 0.7,-0.1 0.7,-0.1 1.4,0.2 1.3,0.7 2.3,0.6 4,-0.4 1.3,-0.7 2,-1.5 2.9,-2.8 1.7,-2.6 2,-2.9 3.1,-3.8 1.1,-0.8 5.1,-2.9 5.7,-2.9 0.7,0 0.2,-0.3 2.3,-1.3 0.4,-0.2 1.3,-0.6 2,-0.9 0,0 0,0 0.1,0 2.5,0.9 4.2,-0.8 4.5,-1 2.4,-0.1 2.4,0.4 25.6,-1.3 0,0.2 0.7,1.4 1.3,5.8 0.5,3.9 1.1,6.5 2.8,11.7 1.5,4.6 4.7,16 5.9,20.8 0.9,3.8 1.1,4.8 1.6,7.5 0.5,2.8 0.5,5.4 0.2,7.4 -0.5,2.9 -0.8,4 -1.2,4.5 -0.3,0.4 -0.3,0.5 -0.3,1 0.2,2 -2.9,6.9 -5.1,14.3 -2.2,7.1 0.2,12.8 3.3,21 l -0.3,0.4 c -0.5,0.5 -5,7.3 -5.2,7.8 -0.1,0.2 -0.1,0.4 -0.1,0.5 0.1,0.4 -10,2.9 -11.6,3.9 -1.5,0.9 -2.8,3.1 -5.3,6.1 -4,4.8 -3.9,5.3 -1.6,24.1 0,0 0,0 0,0 -1.1,1.1 -4.4,4.6 -4.7,5.2 -3.1,4.9 -3.9,3.6 -6.5,10 -0.3,0.7 -0.8,1.7 -1,2.3 -1.2,2.4 -7,9.2 -8.6,11.2 -2.3,2.7 -3.6,4.2 -7.2,8.1 -1.9,2 -3,3.5 -3.7,4.9 -1.4,3 -6.5,4.7 -9.6,5.8 -3.2,1.1 -3.9,1.5 -8.1,4.6 -0.9,0.7 -7.8,5.9 -7.8,7.1 0,0.6 0.5,1.3 1.7,2.4 4.8,4.6 12.3,4.1 18.6,3.7 0.6,0 1.2,-0.3 1.6,-0.8 0.5,-0.5 1,-1.3 1.1,-2.9 0.1,-1.6 0.5,-4 0.8,-4.6 0.3,-0.6 1.3,-1.7 2.2,-2.3 3.6,-2.6 8,-2.2 10.8,-3.6 0.9,-0.5 3.2,-2.9 4.9,-5.3 1.2,-1.6 4.1,-6.1 4.7,-7.1 1.5,-2.7 6.1,-9.7 7.2,-11.3 1.4,-2.3 1.7,-2.6 3.4,-3.7 2.1,-1.4 2.7,-2.3 2.9,-2.3 0.2,0 0.6,3.2 3.8,7.5 1.1,1.5 2.2,3.1 3.4,4.8 0.7,0.9 1.4,1.9 2.1,2.7 0.6,0.7 1.3,1.4 2,2.1 1.6,1.5 3.1,3.1 4.8,4.4 1.2,1 5.3,4.5 7.1,4.9 0.3,0.1 0.6,0 0.8,-0.3 0.5,-0.6 1.3,-1.8 1.6,-2.6 1.4,-3.1 1.6,-8.2 0.8,-11.6 -0.6,-2.5 -2,-7.2 -4.2,-8.3 -0.6,-0.3 -1.7,-0.4 -2.3,-0.2 -0.9,0.3 -4.4,0.2 -5.2,-0.2 -0.8,-0.4 -1.7,-1.6 -1.7,-2.2 0,-0.5 1.2,-1.5 1.6,-3.6 0.2,-1.3 0.2,-4.1 0,-4.8 -0.1,-0.4 -0.5,-1.8 -0.9,-3.1 -1.2,-4.1 -1.5,-4.5 -1.3,-4.7 0.7,-0.4 1.3,-1.6 4.4,-4.3 5.4,-4.8 11,-11.3 19,-18.6 0.3,-0.3 0.6,-0.6 0.6,-0.8 0,-0.2 0.1,-0.2 0.7,-0.1 8.7,0.9 13.1,-0.1 20.3,0.8 16.6,2.1 17.3,-2 18.2,-1.6 0.3,0.1 2.7,0.5 5,0.8 3.3,0.4 15.7,0.2 18,0.1 3.3,-0.1 3.4,-0.1 3.7,0.1 0.8,0.7 2.7,0.6 3.7,0.6 5.1,-0.2 9.6,-2.2 18.8,-2.6 3.8,-0.1 5.1,-0.3 7,-0.7 1.2,-0.3 1.5,-0.4 1.8,-0.6 0.8,-0.9 3.7,-0.2 28.6,-7.3 18.3,-5.2 22,-5.2 22.6,-5.5 0.3,-0.2 0.4,-0.5 0.3,-0.9 -0.2,-0.5 -0.5,-0.5 -3.1,-0.1 -4.4,0.8 -10.5,2.3 -21.6,5.4 -18.4,5.2 -26.1,6.4 -26.6,6.5 l -1,-1 c -1.6,-1.6 -1.8,-1.2 -3.6,-2.5 -1.2,-0.8 -5,-2.1 -5.1,-3.3 -0.1,-1.3 0.5,-3.8 1.5,-5.7 l 0.5,-0.9 c 0,0 10.9,0.2 13.3,0.1 l 1.7,-0.1 c 0.3,0 0.5,-0.2 0.6,-0.5 0.2,-0.5 0.4,-1.2 0.5,-1.7 0.1,-0.6 0.2,-1.6 0.3,-3.3 l 0.1,-2.3 0.5,-0.3 c 0.3,-0.1 0.6,-0.3 0.8,-0.3 0.7,-0.1 0.9,-1 0.4,-1.3 -0.3,-0.1 -0.8,0 -0.8,0.2 0,0 -0.2,0.1 -0.4,0.1 h -0.4 v -1.4 c 0,-0.8 -0.1,-2 -0.2,-2.8 -0.6,-4 -0.7,-5.1 -0.8,-11.1 0,-3.2 -0.1,-6.1 -0.1,-6.6 l -0.1,-0.9 h 0.8 c 7.3,0 34.7,-6.4 39.1,-12.7 0.9,-1.4 1.2,-2.1 1.7,-4.4 0.6,-2.8 0.6,-3.2 0.5,-5.4 -0.3,-5.1 -1.5,-8.8 -2.8,-13.8 -0.9,-3.4 -1.9,-6.9 -2.3,-7.7 -0.1,-0.3 -0.2,-0.6 -0.2,-0.6 0.2,-0.1 10.2,-1.2 19.1,-2.4 5,-0.7 7.5,-0.9 10.5,-0.7 5.7,0.3 8.7,1.2 20.4,5.6 9.4,3.5 12.6,5 20.3,9.7 3.7,2.2 5.3,3.3 5.9,3.9 2.4,2.6 7.9,13.4 9.8,19.4 2.1,6.5 2.5,13.7 2.1,14.9 -0.1,0.3 -0.2,1 -0.3,1.6 -0.5,6.6 -7,17.2 -11.5,22.6 -5.2,6.2 -8.1,8.6 -17.7,14.3 -16.7,9.9 -15.4,8.2 -24.2,14.6 -6.5,4.7 -7.2,5.5 -9.4,9.9 -1.3,2.6 -1.9,4.1 -2.8,7 -1.3,4.2 -1.5,5.5 -1.4,10.7 0.2,9.5 0.4,5.8 -20,17.2 -0.6,0.3 -0.8,0.4 -0.8,0.3 -0.8,-2.7 -2,-5.2 -2.9,-6.4 -0.7,-0.8 -2.7,-2.4 -3.6,-2.9 -0.3,-0.1 -0.5,-0.3 -0.5,-0.3 0,0 0.4,-0.3 0.8,-0.7 2.4,-1.9 4.4,-5 6.1,-6.8 0.5,-0.6 1.5,-1.7 2.1,-2.5 2,-2.5 1.6,-2.5 3.1,-10.9 1.4,-7.5 2,-12.5 2.3,-19.2 0.4,-9.5 2.5,-23 2.5,-23.5 1.3,-7.7 0.4,-5.5 1.5,-21.6 0.3,-4 0.2,-4.5 0,-4.7 -0.2,-0.2 -0.6,-0.2 -0.9,0 -0.2,0.2 -0.2,0.2 -0.8,8.5 -0.7,9.1 0,10.1 -1.2,17.2 -0.6,3.6 -1.1,8.3 -1.5,11.2 -1.7,10.7 -0.2,14.6 -3.4,32.2 -1.5,8.4 -0.9,8.2 -4.3,11.8 -3.2,3.4 -3.7,5.4 -9.2,9.1 -2,1.4 -27.5,15.1 -30.5,16.8 -2.2,1.2 -3.9,2.5 -5.9,4.9 -0.6,0.7 -1.4,1.6 -1.8,1.8 -4.9,3.7 -12.5,7.3 -14.1,8.3 -1,0.6 -2.4,2 -2.4,2.4 0,0.1 -0.4,0.7 -0.9,1.3 -2.5,3.1 -6.9,10 -7,10.1 -0.5,0.8 1.6,2.3 4,3.3 2.8,1.1 5.2,1.6 9.7,1.2 5,-0.5 7.5,-1.4 9.8,-2.7 1.4,-0.8 0.7,-0.8 1.3,-1.5 0.4,-0.5 0.9,-2.3 1,-4.1 0.3,-4.1 0.7,-5.2 2.6,-7.2 0.8,-0.8 1.2,-1.1 2,-1.4 1,-0.5 2.1,-0.8 3.1,-0.9 1.2,-0.2 2.4,0 3.6,0 1.2,0 2.3,-0.2 3.4,-0.7 1.8,-0.8 3.5,-1.9 5.1,-3.1 2.5,-1.8 5,-3.6 7.5,-5.3 1.2,-0.8 2.4,-1.6 3.6,-2.3 12.2,-7.7 17.2,-10.3 18.5,-11.1 0.2,-0.1 12,-6.6 13.9,-7.2 1.5,-0.5 3,-1.4 4,-2.4 1.7,-1.7 2.1,-2.9 2,-7.2 -0.1,-6.1 0,-7 0.9,-10.2 1,-3.5 1.8,-5.5 3.2,-8.3 1.8,-3.6 2.9,-4.7 7.1,-7.8 0.8,-0.6 1.5,-1.1 1.6,-1.1 0.3,-0.2 2.4,1.8 7,6.4 9.6,9.7 10,9.7 20.9,15.2 4.7,2.3 5,2.6 6.1,4.6 2.2,4.2 4.2,6.3 4.8,7.6 1,1.9 1.6,5.1 1.9,8.2 0.4,3.4 -3.8,30.7 -4.4,32.2 -0.3,0.8 -0.8,1.5 -1.4,2.2 -0.6,0.6 -1.4,1 -2.1,1.3 -3.3,1.6 -7,1.6 -10.1,3.7 -1.4,1 -10,9.5 -10.5,10.4 -0.1,0.1 -0.1,0.5 -0.1,0.8 0,0.6 0.1,0.6 0.7,1.2 1.6,1.4 2.9,2 6.4,3.1 3,0.9 5.9,1.2 9,1.1 1.5,-0.1 2.9,-0.2 4.4,-0.5 0.9,-0.2 2,-0.4 2.8,-0.9 0.2,-0.1 0.3,-0.2 0.4,-0.4 0.7,-1.4 0.5,-2.5 0.8,-3.8 0.3,-1.7 -0.2,-3.3 0.7,-4.2 2.4,-2.5 9.8,-0.6 13.2,-3.8 3.1,-2.9 3.2,-6.4 3.6,-20.9 0.6,-18.2 0.4,-23.2 3.7,-35.2 0.9,-3.1 1.1,-5.4 0.7,-6.8 -0.2,-0.6 -0.3,-0.8 -1.5,-2 -0.8,-0.8 -1.5,-1.4 -1.8,-1.5 -0.7,-0.4 -4.6,-3.2 -6.1,-4.3 -2.6,-2.2 -4.9,-4.6 -7.7,-8.1 -3.6,-4.5 -5.3,-7.6 -6.1,-11.4 -0.2,-1.1 -0.2,-1.5 -0.2,-3.3 0.1,-2.2 0.4,-4.9 0.8,-6.4 0.3,-1.1 3.6,-9.3 3.7,-9.6 0.6,-1.3 -0.2,-0.6 1.7,-2.9 11.7,-13.9 12.3,-23.6 12.7,-24.2 0.3,-0.5 0.4,-3.2 0.3,-5.6 -0.5,-6.8 -1.9,-13.1 -7.5,-23.7 -0.5,-1 -0.9,-1.8 -0.9,-1.8 0,0 0.2,0 0.4,0 0.2,0 3.3,-0.4 4.6,-0.4 2.3,-0.1 4.6,0.3 6.8,1 1.5,0.4 2.9,1 4.2,1.7 6.9,3.5 11.4,8.4 15.7,17 1.7,3.3 3,6.8 5.8,14.6 3.1,8.9 3.6,10.6 4.6,14.3 1.5,5.9 3.6,13 5,16.8 3,8.5 7,15.4 14.3,24.9 9.7,12.6 17.4,19.2 28.8,26.4 0.3,0.2 0.7,0.4 0.9,0.4 0.4,0.4 0.7,-0.4 0.2,-0.8 z M 1121.9,855.6 c -3.4,1.7 -4.4,2.6 -5.9,4.8 -1.8,2.7 -2,3 -3.6,3.8 -0.8,0.4 -1,0.5 -1.5,0.4 -0.3,0 -0.8,-0.2 -1.1,-0.4 -0.5,-0.4 -0.8,-0.4 -2,-0.2 -0.7,0.1 -0.7,0.1 -0.9,-0.2 -0.1,-0.2 -0.2,-0.5 -0.2,-0.7 0,-0.4 0,-0.4 0.6,-0.7 2.4,-1.2 5.4,-5.4 7.4,-7.3 3.2,-3 5.5,-2.8 4.8,-4 -0.4,-0.6 -1,-0.5 -2.6,0.5 -6,3.5 -7.6,9.3 -11.9,10.1 -0.6,0.1 -0.8,0.1 -1.4,-0.1 -2.3,-0.9 -3.8,-2.2 -4.4,-3.8 -0.1,-0.4 -0.3,-1.4 -0.4,-2.4 -0.3,-2.8 -0.5,-4.2 -0.9,-5.3 -0.4,-1.2 -0.4,-1.5 -0.2,-2.4 0.3,-1.1 0.6,-1.6 1.6,-2.9 1.4,-1.9 2.3,-2.8 4.8,-5.1 2,-1.9 5,-5 6.5,-6.7 0.5,-0.5 0.5,-0.5 0.8,-0.4 0.5,0.2 8,3.9 9.5,4.8 1.1,0.6 1.2,0.7 1.1,0.9 -0.7,2.4 -0.9,3.6 -0.9,6.5 0,3.8 0.6,6.4 2.2,9.1 0.2,0.4 0.4,0.7 0.4,0.7 0.1,0 -0.8,0.5 -1.8,1 z m 3.4,-1.7 c 0,0 -1.7,-1.7 -2.4,-6 -0.3,-1.7 -0.3,-5.8 0,-7.3 0.1,-0.6 0.3,-1.3 0.4,-1.5 l 0.1,-0.3 1.5,0.9 c 0.8,0.5 2.3,1.5 3.3,2.2 1,0.7 2,1.4 2.3,1.6 0.5,0.4 0.4,0.5 -0.6,0.6 -1,0.1 -2,0.6 -2.7,1.3 -0.5,0.6 -1.2,1.7 -1.2,2 0,0.1 -0.2,0.2 -0.5,0.3 -1.1,0.4 -1.7,1.1 -1.7,2.1 0,0.8 0.5,1.2 1.9,1.5 1.1,0.2 0.9,0.2 2.1,1.5 0,0 -2.4,1.1 -2.5,1.1 z m 0.4,-4.1 c -0.5,-0.1 -0.6,-0.2 -0.2,-0.4 0.3,-0.3 0.5,-0.3 0.5,-0.1 0,0.1 0,0.3 0.1,0.4 0,0.1 -0.1,0.2 -0.4,0.1 z m 7.7,1 c -0.9,1.9 -3.4,2.1 -4.9,0.5 -1.8,-2 -1.2,-4.8 1.1,-5.6 0.5,-0.2 1.5,0 2.2,0.3 1.7,0.8 2.5,3.1 1.6,4.8 z m 25.5,-0.8 c 0,0 -18.9,1.4 -21.9,1.4 -2.6,0 -2.6,0 -0.7,-1 1.7,-0.9 3.5,-1.9 3.6,-2.1 0.1,-0.1 0.3,-0.1 1.1,0 7.6,1.3 13.3,-3.8 13.6,-3.8 0.1,0 0.5,0.5 1,1.1 1.6,1.6 3.5,4.2 3.3,4.4 z m -51.3,201.5 c -0.2,0.3 -0.4,0.4 -1.2,0.5 -1.9,0.3 -5.3,0.4 -7,0.2 -7.8,-0.6 -9.9,-3.2 -10.8,-4.2 -0.2,-0.2 -0.2,-0.6 0,-0.8 l 0.1,-0.1 c 1.6,-1.6 8.3,-7 8.4,-7 0.2,0 0.3,0.7 2,1.3 4.6,1.8 9.1,5.8 9.1,8.3 -0.1,0.8 -0.3,1.4 -0.6,1.8 z m 2.7,-8.6 c -1.7,1.8 -1.6,3 -1.8,3.7 0,0 -2.4,-3.9 -8.8,-6.4 -1.4,-0.5 -1.4,-0.7 -1.6,-0.9 0.2,-0.1 0.5,-0.2 1.3,-0.7 2,-1.2 6.1,-1.9 9.9,-4.1 2.2,-1.3 3.8,-2.8 4.4,-4.1 0.2,-0.5 1.4,-2.3 1.5,-2.3 0,0 0.2,0.1 0.5,0.2 0.6,0.2 0.7,0.8 0.6,2.8 -0.2,4.8 -2,3.4 0.2,8.3 0,0 -3.2,0.4 -6.2,3.5 z m 187.9,-165.5 c 1.5,-0.5 2.8,-0.7 5.8,-0.8 7.3,-0.4 14.6,-0.2 16.4,-7.2 1,-4.1 -1,-5.8 -0.4,-6.2 0.4,-0.2 0.5,-0.1 0.8,0.5 0.3,0.7 1,3.1 1.4,4.7 0.3,1.2 0.3,2.7 0.1,3.8 -0.4,2 -2.1,3.9 -4.4,4.6 -5.5,1.8 -17.9,1 -22.2,2.3 -0.2,0.1 -0.3,0 -0.3,-0.2 0,-0.2 1.4,-1 2.8,-1.5 z m -2.3,-61 c 1,0.1 1.8,0.4 2.1,0.8 0.4,0.4 0.2,1.2 0.6,4.2 0.1,0.7 0.1,1.4 0.1,1.4 -0.2,0.2 -15.3,7.6 -24.7,8.4 l -0.9,0.1 c 0,0 6.5,-4.1 8.2,-6.3 4,-4.8 8.5,-9.4 14.6,-8.6 z m -25.5,-46.1 c 0.8,-0.3 1,-0.3 2.5,-0.3 2.4,0 3.9,0.5 5.7,1.8 1.8,1.3 3,2.9 3.9,4.7 1.6,3.5 2.4,7.6 2.1,11.2 -0.2,2.9 -0.8,5.7 -1.8,8.4 -0.2,0.5 -0.4,0.9 -0.6,1.4 -0.2,0.5 -0.4,0.9 -0.8,1.4 -0.1,0.2 -0.3,0.4 -0.5,0.5 0,0 -0.4,0.3 -0.4,0.3 0.2,-2.5 0.3,-4.9 0.1,-6.2 -0.1,-1.3 -0.5,-1.7 -1.2,-1.1 -0.3,0.2 -0.3,0.3 -0.2,1.9 0.1,2.6 -0.2,5.6 -0.8,10.3 -0.5,3.6 -1.4,18.4 -5.1,20.9 -5.1,3.5 -22.9,10 -23,9.9 0,0 -0.1,-0.6 -0.2,-1.4 -0.1,-0.7 -0.2,-1.4 -0.2,-1.4 0,-0.1 0.2,-0.4 0.5,-0.7 2.2,-2.5 -0.1,-4.7 -0.2,-4.8 2.1,-1.1 4.7,-2.6 10.1,-4.9 1.9,-0.8 4.5,-1.6 4.8,-3 0.3,-1.2 0.3,-5.1 0.3,-6.4 0.2,-8.6 0.2,-9.5 0.4,-11.3 1.3,-13.4 3.7,-21.9 3.2,-22.1 -0.4,-0.2 -0.8,-0.2 -1.1,0 -0.9,0.7 -2.9,12.3 -3.3,17.4 -0.1,1.4 -0.3,3 -0.4,4 0,0.1 -1.8,-0.9 -1.9,-1.1 -0.6,-0.5 -1,-1.1 -1.3,-1.8 -1,-1.9 -1,-4 -1,-6.1 0,-1.8 0.1,-3.7 0.4,-5.5 0.4,-2.8 1.2,-5.5 2.5,-8.1 2,-4.1 4.7,-6.9 7.5,-7.9 z m -26.6,60.3 c -0.1,-0.4 0.1,-1.2 0.5,-1.7 1.8,-2 5.5,-1.4 5.4,0.8 0,0.4 -0.1,0.8 -0.3,1.1 -1.4,1.8 -5.1,1.8 -5.6,-0.2 z m 5.1,5.3 -0.9,0.2 c -0.5,0.1 -1,0.3 -1.1,0.3 -0.2,0.1 -0.3,-0.4 -0.5,-2.2 l -0.1,-0.6 h 0.5 c 0.2,0 0.7,-0.1 0.9,-0.2 0.8,-0.3 0.9,-0.2 0.9,0.5 0,0.4 0.1,0.9 0.1,1.3 z m -3.5,0.9 c -0.1,0.1 -2.6,0.4 -2.7,0.3 -0.8,-0.4 -2.4,-3.1 -2.5,-4.2 l -0.1,-0.6 c 0.3,-0.1 2.1,-1.2 2.1,-1.2 0.1,0 0.3,1.4 2,2.2 l 0.7,0.3 0.1,0.8 c 0,0.4 0.1,1.2 0.2,1.6 0.2,0.4 0.2,0.8 0.2,0.8 z m 4.1,-10.9 c -0.7,0.4 -0.8,0.5 -1.2,0.3 -0.6,-0.2 -1.8,-0.1 -2.6,0.1 -3,0.8 -3.2,3.1 -3.8,3.3 -0.2,0.1 -3,1.6 -3.2,2.1 -0.1,0.2 -0.2,0.3 -0.3,0.3 -0.1,0 -0.8,-0.3 -1.5,-0.5 -1.6,-0.6 -2.5,-0.8 -3.6,-0.8 0.5,-0.3 0.9,-0.6 1.1,-0.7 0.1,-0.1 0.8,-0.5 1.5,-0.9 3.3,-1.8 12.5,-7.7 14.6,-10.8 0.5,-0.7 1.7,-3.4 2.5,-5.4 0.3,-0.8 0.5,-1.4 0.5,-1.4 0,0 0.4,1 0.9,2.2 2.3,5.5 3.9,7.6 4,7.7 0,-0.1 -5.9,2.6 -8.9,4.5 z m 3.4,-49.4 c -0.4,-0.3 -0.6,-0.6 -1.2,-1.8 -1.1,-2.3 -1.1,-3.3 -1.2,-3.9 0.6,-0.1 1.2,0.6 4.5,-2.1 2.1,-1.7 3.5,-3.2 7.2,-7.7 3.2,-4 3,-3.7 3.1,-3.4 0,0.2 0,0.4 -0.1,0.5 -0.1,0.1 -0.6,0.9 -1.2,1.8 -3.3,4.9 -4.4,10.2 -7.8,14.7 -1.7,2.3 -2.3,2.7 -3.3,1.9 z m -19.4,-38 c 0.1,-0.1 0.3,-0.6 0.4,-1.1 3.1,-9.1 12.4,-14.6 21,-12.4 6.1,1.5 10.5,6.1 12.5,11.9 0.7,2.1 1,3.8 1,6.3 0,2.3 -0.2,3.6 -0.7,5.6 -0.4,1.5 -1.4,4 -1.8,4.4 -0.2,0.2 -2.1,-0.8 -3.5,-1.6 -6.4,-4.1 -6.9,-7 -17.3,-9.2 -5.3,-1.1 -7.3,-1.7 -10.7,-3.2 -1,-0.5 -1,-0.5 -0.9,-0.7 z m 30.3,15.6 -1.3,0.6 c -2.1,1 -11.2,4.7 -11.3,4.6 0,0 0.2,-0.7 0.5,-1.6 2.8,-7.2 2.4,-8.1 2.6,-8.7 0.2,0 1.1,-0.1 1.4,-0.3 0.1,-0.1 0.2,-0.2 0.2,-0.2 0,0 0.7,0.6 1.6,1.2 1.7,1.3 4.6,3.4 5.7,3.9 z m -29.9,-9.2 c -0.5,-1 -0.6,-4.5 -0.5,-4.5 0,0 0.4,0.2 0.9,0.4 2.8,1.3 5.6,2.1 9.9,3 7.5,1.5 8.8,3.1 10.2,3.8 0,0 -6,0.5 -12,-0.2 -3.9,-0.6 -8.1,-1.8 -8.5,-2.5 z m 13.9,18 c -1.2,0.1 -1.1,-0.2 -3.5,0.6 -4.1,1.3 -4.1,0.4 -5.5,-3.8 -0.4,-1.3 -1.1,-2.4 -2.1,-3.4 l -0.5,-0.5 c -0.2,-0.2 -0.3,-0.4 -0.3,-0.7 v -0.5 c 0,-0.5 0,-0.9 0,-0.9 0,0 0.2,0.1 0.5,0.3 0.2,0.2 0.9,0.5 1.5,0.8 3.4,1.7 3.4,-0.5 9.8,-3.8 3.8,-2 2.7,-1.6 5.1,-1.7 l -0.1,0.6 c -0.2,1.4 -2.9,8.6 -4.3,11.7 z m 1.2,1 c 0,0 1.3,-2.5 1.3,-2.6 0.2,-0.1 11,-4.2 13.8,-5.6 0.6,-0.3 0.8,-0.3 0.8,0.1 0,0.3 -0.1,0.4 -0.3,0.4 -1,0 -10.1,13.3 -13.8,13.3 -0.5,0 -0.6,-0.2 -0.7,-1.5 -0.1,-2.8 -0.8,-3.4 -1.1,-4.1 z m -24.3,66.5 c 0.1,-0.1 0.4,-1.4 2.7,-4.1 1.9,-2.2 8.9,-9.3 11.1,-11.2 4,-3.5 6.5,-6.7 7.4,-9.1 0.3,-0.9 0.5,-1.7 0.6,-3.7 0.1,-0.9 0.2,-2.4 0.3,-3.4 0.1,-1 0.2,-2.7 0.3,-3.9 0.1,-1.2 0.2,-2.5 0.2,-2.8 0,-0.4 0.1,-1.7 0.2,-3.1 0.2,-3.8 0.5,-4.9 0.5,-6 0,-0.9 0.2,-0.2 0.2,0.2 0,0.2 0.1,1.5 0.3,2.8 2.3,18.6 4.8,23.5 4.3,23.6 -0.2,0.1 -0.6,0.9 -1.3,2.8 -1.9,5.1 -2.4,5.6 -5.7,8.2 -3.5,2.7 -7.2,5.2 -10.8,7.2 -1.1,0.6 -2.7,1.8 -3.6,2.6 -1.2,0 -1.5,0.1 -2.2,0.3 -0.5,0.2 -1.1,0.4 -1.4,0.6 -0.4,0.2 -0.8,0.7 -1,1.1 -0.7,-0.7 -1.7,-1.6 -2.1,-2.1 z m 1.1,5.2 c -0.1,-0.9 0.1,-1 1.1,-0.9 1.8,0.3 3.2,-0.3 3.5,-1.5 0.1,-0.2 0,-0.4 -0.2,-0.6 -0.4,-0.4 -0.7,-0.3 -1.1,0.2 -0.2,0.3 -0.9,0.7 -1,0.6 -0.1,-0.1 0.6,-0.8 1,-1 0.9,-0.3 1.5,-0.4 3.3,-0.4 1.3,0 2,0.1 2.7,0.3 0.5,0.1 1.3,0.4 1.8,0.6 0.5,0.2 1.1,0.4 1.4,0.4 0.4,0.1 0.5,0.2 0.6,0.6 0.3,0.9 1.1,2.4 1.7,3.1 l 0.6,0.7 -0.6,0.5 c -7.4,5.5 -14.6,1.7 -14.8,-2.6 z m -56.6,46.7 c -2.3,-8.1 -3.1,-11 -4,-13.7 -1.7,-5.3 -2.4,-8.1 -2.8,-12 -0.2,-2.1 -0.5,-3.5 -0.9,-4.7 -0.2,-0.5 -0.2,-0.7 -0.1,-0.7 0.1,0 0.7,-0.1 1.3,-0.1 1.9,-0.1 7.4,-0.6 10.3,-1 8.7,-0.9 16.1,-1.8 17.6,-2.1 0.4,-0.1 2.6,-0.4 5,-0.8 10.4,-1.6 20.3,-3.6 31.8,-6.5 0.5,0.1 3.9,2.8 9.5,1 1.6,-0.5 3.7,-1.7 5,-2.8 0.4,-0.3 0.6,-0.4 1.2,-0.5 2.3,-0.2 5,-0.8 7.6,-1.7 3.1,-1 11,-4.1 14.6,-5.7 1.4,-0.6 1.6,-0.7 1.7,-0.5 0.3,0.5 1.1,1.7 1.5,2.1 l 0.3,0.3 c -0.7,1.1 -1.3,3 -7.1,9.8 -3.3,3.8 -4.3,5.1 -6.2,7.5 -2.4,3 -3.5,4.6 -3.6,4.9 -0.1,0.2 -0.1,0.3 -0.9,0.3 -1,0 -1.8,0.2 -2,0.4 -0.2,0.2 -1,0 -1.3,-0.3 -0.2,-0.3 -0.3,-0.3 -1.5,-0.3 -1.2,0 -1.2,0 -1.2,-0.3 0,-0.5 -0.4,-0.6 -1.9,-0.6 h -1.3 v -0.4 c -0.1,-1.3 -3.9,-1 -4.8,-1 v -0.4 c 0,-0.9 -1.2,-0.6 -1.8,-0.5 -1.8,0.3 -2.7,0.3 -3,0.5 -0.3,0.2 -0.3,0.6 -0.1,0.9 0.2,0.3 0.3,0.3 1.2,0.3 0.5,0 1.2,-0.1 1.4,-0.1 l 0.5,-0.1 c -0.1,0.7 -0.3,0.8 0.2,1.1 0.2,0.1 0.4,0.3 0.4,0.3 0,0.1 -1.4,5.1 -1.8,8.2 -0.3,1.9 -0.3,4.3 -0.3,5.1 l -0.6,0.2 c -0.7,0.3 -1.6,1.3 -1.8,2.2 -0.5,2 -5.4,1.2 -34.9,21.8 -4.5,3.1 -7.1,5.1 -10.9,8 -5.6,4.4 -8.4,6.9 -11.1,9.8 -0.7,0.8 -1.4,1.5 -1.4,1.5 -0.1,0 -1,-2.4 -1.1,-2.7 0.1,-0.3 1.5,-5.7 1.1,-9.6 -0.5,-4.2 -1.8,-9.8 -3.8,-17.1 z m 92.7,-25.1 c -0.1,-0.1 -0.6,-0.4 -1.1,-0.5 -0.5,-0.1 -0.8,-0.3 -0.7,-0.3 0.3,-0.1 1.9,-0.5 2,-0.5 0.1,0 0.3,0.1 0.5,0.3 1.3,1 -0.9,5.6 -1.6,7 -0.8,1.5 -0.8,1.5 -1.1,1.5 -1,-0.1 -8.4,1.5 -9,1.6 v -2.8 c 0,-3.7 -0.3,-4.5 -0.5,-6.6 0.1,0 6.5,0.2 10.3,1.3 1,0.3 1,0.3 1.3,0.1 0.1,-0.4 0.2,-0.8 -0.1,-1.1 z m -19.5,-1.5 h 1.3 v 0.3 c 0,0.2 0.1,0.4 0.2,0.5 0.3,0.3 0.6,0.2 2,0.1 0,0.3 -0.2,0.6 0.1,0.9 0.3,0.2 0.3,0.2 1.8,-0.1 0.5,-0.1 0.9,-0.2 0.9,-0.1 0,0 0.1,0.6 0.2,1.2 0.4,2.4 0.3,8.1 0,8.2 -1.3,0.4 -5.4,1.4 -9.5,2.8 l -2.8,1 c -0.1,-0.2 -0.1,-0.9 -0.7,-1.5 -0.4,-0.4 -0.4,-0.6 -0.5,-1.2 -0.4,-4.1 2,-13.2 2.2,-13.5 0.1,-0.1 2.3,0 2.8,0.1 0.2,0.1 0.2,0.1 0.2,0.4 -0.1,1 0.9,0.9 1.8,0.9 z m 8.1,12.8 c 0,-0.3 0.1,-0.5 0.2,-0.5 0.6,-0.3 8.4,-1.9 8.5,-1.7 0,0 -0.4,0.9 -0.9,2 -2.3,4.9 -2.9,6.4 -3.5,9.2 -0.6,3.2 -0.7,5.4 -0.1,8.6 1.3,7.8 6.9,16.6 11.5,20.4 1,0.8 1,0.9 1,1.3 0,1 -0.9,9.1 -0.9,9.2 -2.6,-1.3 -6.3,-2.3 -9.9,-6.1 -1.1,-1.1 -2.5,-2.9 -3.2,-3.9 -1,-1.5 -2.5,-4.9 -3.1,-7.2 -0.5,-1.6 -1.1,-4.8 -1.4,-6.9 -0.5,-3.5 -0.3,-9.4 0.4,-13.7 0.5,-2.4 1.4,-10 1.4,-10.7 z m -15.8,2.9 c -0.7,0.7 -1.9,0.4 -1.9,-0.4 0,-0.2 0.2,-0.5 0.5,-0.8 0.4,-0.4 0.5,-0.5 0.9,-0.4 0.2,0 0.5,0.2 0.7,0.3 0.3,0.4 0.2,0.9 -0.2,1.3 z m -62,46.7 c -0.1,-0.1 0.1,-1.6 0.2,-1.4 0,0.1 -0.1,1.5 -0.2,1.4 z m -4.1,28.9 c 1.2,3.5 1.3,4.1 1.7,4.3 0.3,0.1 0.4,0.1 0.6,-0.1 0.2,-0.1 0.3,-0.4 0.4,-0.5 0.1,-1.1 -4.8,-12.4 -5.6,-17.9 -0.4,-3.1 -0.3,-5.2 0.6,-8.1 1.1,-3.8 1,-3.2 4.5,-11.7 0,0 0.9,1.6 0.9,1.7 -0.2,1.4 -1.1,3.8 0.1,5.1 0.4,0.4 0.4,0.5 0,3.9 -0.4,3.2 -1.1,14 -0.6,17.7 0.3,2.5 1.2,6.9 1.9,9.3 0.1,0.2 0.1,0.2 -5.7,2 -1.7,0.5 -3,0.9 -3.1,0.9 0,-0.2 4.3,-6.6 4.3,-6.6 z m -27.3,65.1 c 0,-0.2 -1.5,-3 -3.3,-4.2 -1.2,-0.8 -2.6,-1.4 -4,-1.8 -0.1,0 -0.5,0 -0.6,-0.2 -0.1,-0.2 1.6,-4 2.4,-5.4 1.6,-2.9 2.3,-2.3 4.4,-5.9 0.5,-0.9 1.5,-2.1 3,-3.7 0.9,-0.9 0.9,-1 1,-0.7 0.2,0.7 0.8,7.5 1.1,12.2 0.2,3.4 0.5,4.1 0.7,5.4 -3.6,3.4 -3.7,3 -4.7,4.3 z m 26.6,2.5 c 0.2,0.1 0.6,0.4 0.7,0.5 0.9,1.1 2.2,4.7 2.8,7.5 0.3,1.4 0.3,1.7 0.3,3.6 -0.1,3.3 -0.7,5.7 -1.8,7.5 -0.2,0.2 -0.3,0.4 -0.4,0.4 -0.2,0 -1.9,-1.2 -4.1,-2.9 -3.9,-2.9 -5.4,-4.6 -5.4,-4.6 l 0.4,-0.7 c 1.6,-3 0.8,-6.6 3.6,-9.8 0.9,-1 2.6,-2.2 3.9,-1.5 z m -7.5,-0.5 c 0.9,0.4 2.3,0.5 2.9,0.5 -0.3,0.4 -1.9,1.6 -2.8,4.6 -0.5,1.7 -1,6.8 -2,6.4 -0.1,0 -0.2,-0.2 -0.2,-0.2 0,-0.3 -1.8,-2 -4.4,-5.7 -3.2,-4.7 -4.5,-5.5 -6,-10.2 -0.3,-1 -0.6,-1.5 1.3,-2.3 0.6,-0.2 0.8,-0.3 1.6,-0.2 1.5,0.1 2.6,0.9 3.7,1.9 1.5,1.3 2.2,1.6 2.7,2.2 0.6,0.6 0.6,0.1 1,1 0.5,0.7 1.5,1.6 2.2,2 z m 10.8,-34.3 c -8.1,8.6 -9.9,9.5 -11.9,11.5 -0.6,0.7 -1.2,1.2 -1.2,1.2 -0.3,-0.3 -3.2,-11.3 -2.3,-15 0.1,-0.4 0.2,-0.8 0.2,-1 0.1,-0.4 0.1,-0.4 1.5,-1.5 6.2,-4.9 2.9,-4.7 7.2,-5 10.9,-0.8 16.3,0.3 16.6,0.3 -7.9,7.2 -8,7.2 -10.1,9.5 z m 89.6,-37.2 c 0.4,0 0.7,-0.4 0.8,-1.1 0.4,-2.8 2.1,-7.3 3.1,-8.5 v 1.1 c 0,0.9 -0.2,2.7 -0.6,4.6 -0.2,0.8 -0.4,2.1 -0.6,3 -0.2,0.8 -0.4,1.6 -0.4,1.7 -0.1,0.1 -2.2,0.4 -3.3,0.4 -1.4,0 -3.2,0.9 -4.3,2.2 -0.8,0.9 -0.2,1.2 0,1.6 0.3,0.4 2.5,1.5 4.7,2.2 0.6,0.2 1.1,0.3 1.1,0.4 0,0 -0.1,0.3 -0.2,0.7 -0.2,0.4 -0.3,0.6 -0.4,0.7 -0.6,0.1 -0.7,0.2 -0.9,0.5 -0.1,0.3 -0.1,0.4 0,0.6 0.1,0.2 2,0.7 2.8,0.5 0.4,-0.1 0.4,-0.6 0.1,-0.9 -0.2,-0.3 -0.2,-0.4 -0.1,-1 l 0.1,-0.6 0.5,0.1 c 0.6,0.1 0.6,0.1 0.4,0.3 -0.1,0.1 -0.2,0.5 -0.4,1 -1,3.2 -3.7,7 -8.2,11.4 -4.7,4.6 -6,5 -7,5.8 0,0 -16.4,0.6 -20.3,0.2 -1.7,-0.2 -4.8,-0.6 -4.8,-0.7 -0.2,-0.2 2,-3.3 4.3,-12.7 1.1,-4.3 2,-7.2 4,-12.2 1.5,-3.9 3.2,-7.3 5.2,-10.8 1,-1.8 2.7,-4.3 3.1,-4.8 0.5,-0.6 0.3,-1.3 -0.4,-1.3 -0.5,0 -0.6,0.1 -1.8,1.8 -1.8,2.6 -4.1,6.7 -5.8,10.1 -0.9,1.9 -3.6,8.7 -4.4,11.3 -0.4,1.2 -1,3.3 -1.3,4.7 -2.1,8.8 -3.9,11.8 -4.4,13 -0.3,0.8 -1.7,1.8 -3.1,2.2 -4.6,1.4 -9.8,0.8 -14.5,0.2 -1.5,-0.2 -3,-0.4 -4.5,-0.4 -1.4,0 -2.7,0 -4.1,0 -1.9,0 -3.7,0 -5.6,0 -2.6,-0.1 -5.2,-0.3 -7.7,-0.6 -13.1,-1.4 -16.7,-0.1 -19.8,-0.1 -0.3,0 -0.7,0 -0.8,0.1 -0.1,0.1 -0.6,0.6 -1.1,1.3 -0.5,0.6 -1.3,1.6 -1.9,2.2 -1.2,1.2 -3.5,3.1 -3.8,3.1 -0.3,0 -0.5,0.4 -0.5,1.1 0,0.5 0,0.6 -0.2,0.5 -0.1,0 -0.7,-0.2 -1.3,-0.4 -1.3,-0.3 -2.8,-0.4 -4.1,-0.1 -2.7,0.6 -4.3,1.4 -4.4,1.5 -0.1,-1.8 -0.3,-1 -0.3,-6.4 0,-2.3 0,-3.2 2.8,-6.6 0.8,-0.9 1.8,-2.3 2.4,-3 1.5,-2 2.5,-2.8 3.7,-3.2 9.3,-2.6 11.5,-3.7 23.3,-7.2 0.7,-0.2 18.8,-5.6 19.1,-6.1 0.2,-0.3 0,-0.8 -0.4,-1 -0.7,-0.2 -19.2,5.8 -20,5.8 -0.2,0 -1.3,-4.7 -1.9,-8.3 -0.7,-4.4 0.4,-21.1 1,-22.5 0.8,-2.1 0.4,-3.8 0.5,-5 1.6,-1.6 3.3,-4.7 15.8,-14.2 9.5,-7.2 25.7,-17.9 33.9,-22.4 0.9,-0.5 2.9,-1.6 4.2,-2.3 3.4,-1.9 4.3,-2.3 4.4,-2.4 0.3,-0.3 1.2,0.5 2.5,-0.3 1.1,-0.7 1.7,-0.9 3.7,-1.6 1.9,-0.6 9.3,-2.8 10,-2.9 0,0 0.1,0.1 0.1,0.2 0,0.4 -0.8,6.6 -1.1,8.8 -0.5,3.6 -0.8,5.5 -0.9,7.6 -0.6,8.8 1.8,18.5 5.9,23.9 1.3,1.7 4.3,4.8 5.5,5.6 2.4,1.7 7.5,3.8 7.7,4 0.2,0.1 -0.1,1.2 -0.6,6.4 -0.3,3.4 -0.6,6.1 -0.7,6.3 -0.1,0.2 -0.3,0.2 -0.5,0.2 -0.3,0.1 -0.5,0.3 -0.6,0.5 -1,1.3 -1.8,2.7 -2.3,4.2 -0.5,1.7 -1.2,4.5 -1.2,5.4 0.1,0.2 0.3,0.6 0.8,0.6 z m 19.8,-64.9 c -0.5,0.8 -1.5,2.1 -2.2,3 -1.3,1.8 -2.2,3.1 -2.2,3.4 0,0.1 -0.1,0.2 -0.4,0.3 -1.2,0.2 -2.8,1.4 -4.1,2.9 -2.5,2.9 -3.7,6 -4.8,6.7 -0.1,0.1 -0.2,0.2 -0.2,0.4 2.7,9.7 7.5,27 10.5,41 0.1,0.2 0,0.5 -0.1,0.7 0,0.1 -0.1,0.2 -0.2,0.3 -0.9,0.5 -5,3.1 -10,6 0,0 -2,0.8 -2.2,0.7 -0.1,-0.1 0.3,-2.1 0.9,-4.8 0.3,-1.6 0.5,-3.3 0.5,-4.7 0,-1.1 0.6,-4.8 0.7,-5.8 0.4,-4.5 0.9,-8.4 1,-8.4 0.1,0 3.2,1.3 4.7,1.5 0.2,0 0.3,-0.1 0.3,-0.3 -0.1,-0.3 -0.2,-0.7 -0.3,-1 0,-0.2 -0.2,-0.3 -0.3,-0.3 -0.9,-0.3 -4.1,-1.4 -4.2,-1.5 0,0 0,-0.9 0.1,-1.9 0.1,-1 0.3,-2.9 0.4,-4.3 0.3,-3.3 0.2,-3.1 0.7,-2.8 0.1,0.1 0.3,0.1 0.4,0.1 0,0 0,0 0,0 -2.1,-8 -4.1,-14.8 -5.2,-18.5 -0.6,-1.5 -1.5,-3.9 -2,-5.3 -0.3,-0.9 -0.3,-1 -0.2,-1.9 0.4,-2.9 4.6,-12.5 5.7,-14.8 5.7,-12.2 4.5,-14.2 1.7,-19.5 -0.6,-1.1 -0.7,-1.2 -1,-1.2 -0.4,0 -0.7,0.3 -0.7,0.7 0,0.1 0.4,0.9 0.8,1.8 0.4,0.9 0.9,1.9 1.1,2.4 0.3,0.8 0.7,2.6 0.6,2.7 0,0 -0.5,-0.1 -1.1,-0.2 -1.7,-0.5 -2.8,-0.7 -4.4,-0.7 -1.7,0 -2.7,0.1 -4.2,0.5 -1.3,0.3 -2.1,0.7 -2.4,1.1 -0.2,0.3 -0.3,0.3 -1,0.2 -1.3,-0.2 -3.8,-0.4 -3.8,-0.4 -0.1,-0.1 4.1,-5.4 6.1,-7.8 0.8,-1 2.4,-2.8 3.5,-4.1 2.7,-3.1 2.7,-3.1 4.2,-5.4 1.3,-2 3.3,-5.2 3.3,-5.4 0,-0.1 0.1,-0.1 0.4,-0.1 0.7,0.1 4.6,-0.1 6.2,-0.4 3.6,-0.6 9,-2.3 15.4,-5.1 2.4,-1 6.3,-2.8 6.5,-3 0.2,-0.2 0.4,-0.1 0.7,0.5 0.5,0.9 1.2,3.3 1.4,4.2 0.1,0.5 0.2,1.4 0.3,2.1 1.2,8.6 -0.5,17.1 -4.9,24.7 -4.2,7.1 -11.1,14.8 -16,21.7 z m 45.5,8.8 c 1.4,5.3 2.8,10.7 1.7,15.9 -0.5,2.6 -0.8,3.1 -1.6,4.1 -5.2,6.2 -32.4,12.1 -37.9,12.1 h -0.8 c -0.1,-0.8 -0.5,-3.8 -1.2,-6.9 -0.3,-1.3 -0.6,-2.4 -0.6,-2.5 0,-0.3 0.4,-0.2 1.1,-0.4 1.6,-0.4 7.4,-1.9 10.3,-8.1 1.5,-3.2 0.5,-5.4 0,-9.8 -0.5,-4.5 -1.7,-10 -1.6,-10 0,0 0.5,-0.1 1,-0.3 3.5,-0.9 16.9,-0.4 22,-2.2 1.5,-0.5 2.9,-1.5 3.7,-2.5 0.3,-0.3 0.5,-0.6 0.5,-0.6 0,0 0.2,0.3 0.4,0.7 0.7,1.5 1.9,6.4 3,10.5 z m -51,173.8 c 0,0.1 -0.1,0.2 -0.2,0.2 -4,2.8 -12.8,3 -15.9,2.5 -2.1,-0.4 -4.2,-1.2 -5.1,-2 h -0.1 c -0.3,-0.2 -0.3,-0.6 -0.1,-0.9 v -0.1 c 3.6,-5.7 5.2,-7.6 6.8,-9.9 1.5,0.7 1.4,0.9 4.5,1.5 5.3,1.1 7.7,2.5 9.2,5.7 0.3,0.5 1.2,2.3 0.9,3 z m 9.7,-19.5 c -0.5,2.1 -0.4,2 -0.4,4.8 0,0 -6.4,1 -7.9,7.2 -0.2,1 -0.4,4 -0.5,4.5 -0.3,-0.5 -1.3,-3.6 -5.1,-5.4 -3.4,-1.7 -9.4,-2 -9.4,-2.9 0,-0.3 1.8,-1.4 4.1,-2.6 3,-1.6 6,-3.3 8.8,-5.2 0.8,-0.5 1.5,-1 2.2,-1.5 0.6,-0.5 1.3,-0.9 1.8,-1.5 0.9,-1.1 1.8,-2.3 3,-3.2 0.5,-0.4 0.6,-0.6 0.7,-0.6 1.1,0.1 2.3,1.4 2.6,2 0.6,1.1 0.6,2.2 0.1,4.4 z m 109,35 c -2.3,0.8 -5,0.9 -7.4,0.9 -2.9,0 -5.8,-0.5 -8.5,-1.4 -0.9,-0.3 -1.9,-0.6 -2.7,-1.1 -0.5,-0.3 -1.4,-0.7 -1.7,-1.2 -0.1,-0.2 0,-0.4 0.7,-1.1 1,-1.1 8.1,-8.2 8.2,-8.2 0,0 0.5,0.4 1.1,0.8 3.7,3 8.4,2.9 10.6,7.2 0.4,0.9 0.5,1.1 0.5,2 0,1.4 -0.2,1.9 -0.8,2.1 z m 4.4,-9.9 c -1,0.3 -1.6,0.7 -2.3,1.5 -1.8,1.9 -0.2,3.4 -1.8,1.7 -2.5,-2.7 -6.2,-3.5 -8.4,-4.8 -1,-0.5 -2.1,-1.5 -2,-1.6 0.1,-0.2 2.2,-1.1 3.2,-1.4 2.2,-0.6 4.5,-0.9 6.5,-1.9 2.2,-1 3.6,-2.8 4.4,-5.1 0.1,-0.3 0.2,-0.4 0.6,-0.4 1.2,0 2.2,1.4 2.4,2.5 0,0.2 0,0.4 0,0.6 0,2.4 -0.5,5.4 0.9,7.5 0.8,1.4 0.1,0.3 -3.5,1.4 z M 1396,959.5 c -1.7,3.9 -1.9,4.7 -2.3,7.5 -0.8,5.5 -0.4,8.5 1.6,12.6 1.7,3.5 5.9,9 9.9,12.9 6.1,5.9 11.1,7.7 11.7,9.7 0.8,2.8 -2.2,8.7 -3.3,17.5 -0.1,1 -0.2,1.9 -0.2,2 0,0 -0.3,-0.2 -0.7,-0.5 -2.8,-2.2 -6.8,-2.1 -9.9,-0.8 -0.5,0.2 -0.8,0.3 -0.8,0.3 -0.1,-0.1 -0.5,-4.2 -2,-7.3 -0.4,-0.8 -5.5,-7.6 -5.2,-8.2 0.2,-0.4 -0.1,-0.7 -1.1,-1.5 -3,-2.2 -11.3,-5.9 -13.9,-7.5 -6.2,-3.8 -11.5,-10.7 -18.2,-16.4 l -0.3,-0.3 1.9,-1.3 c 4.8,-3.3 6.1,-3.6 17.2,-10.1 9.6,-5.6 12.9,-7.8 16.2,-10.7 0.6,-0.5 1.1,-0.9 1.1,-1 -0.3,-0.1 -0.8,1 -1.7,3.1 z"
   id="path8472"
   style="fill:#171717" />

						<path
   class="st38"
   d="m 1268.4,743.2 c 0,2.3 -0.2,3.6 -0.7,5.6 -0.4,1.5 -1.4,4 -1.8,4.4 -0.2,0.2 -2.1,-0.8 -3.5,-1.6 -6.4,-4.1 -6.9,-7 -17.3,-9.2 -5.3,-1.1 -7.3,-1.7 -10.7,-3.2 -1,-0.4 -1,-0.4 -0.8,-0.6 0.1,-0.1 0.3,-0.6 0.4,-1.1 3.1,-9.1 12.4,-14.6 21,-12.4 6.1,1.5 10.5,6.1 12.5,11.9 0.6,2 0.9,3.7 0.9,6.2 z"
   id="path8474"
   style="fill:#171717" />

						<path
   class="st38"
   d="m 1272.5,921.4 c -0.2,0 -0.4,0.1 -0.4,0.3 -0.7,2.7 -3,12.4 -4.6,18.6 -0.1,0.3 0.2,0.5 0.5,0.3 1.2,-0.7 2.4,-1.4 3.6,-2.1 0.5,-0.3 1,-0.6 1.5,-0.9 0.2,-0.1 0.5,-0.3 0.7,-0.4 0.3,-0.2 0.5,-0.5 0.7,-0.8 0.2,-0.5 0.4,-1.3 0.6,-1.9 0.1,-0.2 0.2,-0.9 0.5,-1.9 0,-0.1 0,-0.3 0,-0.4 -0.8,-3.4 -1.6,-7 -2.5,-10.6 0,-0.1 -0.2,-0.2 -0.3,-0.3 -0.2,0.1 -0.2,0.1 -0.3,0.1 z"
   id="path8476"
   style="fill:#171717" />

					</g>

				</g>

				<text
   transform="translate(1413.608,782.3743)"
   class="st1 st56 st57"
   id="text8482"
   style="font-size:138.616px;font-family:MyriadPro-Regular;fill:#ffffff">x</text>

			</g>

		</g>
    <g
       id="g8512"
       transform="matrix(0.26458333,0,0,0.26458333,13.441035,-53.444532)">
			<g
   id="g8494">
				
					<image
   style="overflow:visible;opacity:0.34"
   width="36"
   height="36"
   xlink:href="../../SmartEq%20projekt/projekt%20strony%20internetowej/A095A29E621D6659.png"
   transform="translate(845.7524,365.6112)"
   id="image8488">
				</image>

				<g
   id="g8492">
					<circle
   class="st1"
   cx="939.40002"
   cy="337.5"
   r="10.5"
   id="circle8490"
   style="fill:#ffffff" />

				</g>

			</g>

			<g
   id="g8502">
				
					<image
   style="overflow:visible;opacity:0.34"
   width="32"
   height="31"
   xlink:href="../../SmartEq%20projekt/projekt%20strony%20internetowej/A095A29E621D665A.png"
   transform="translate(828.7524,313.6112)"
   id="image8496">
				</image>

				<g
   id="g8500">
					<circle
   class="st1"
   cx="920.59998"
   cy="282.70001"
   r="8.1999998"
   id="circle8498"
   style="fill:#ffffff" />

				</g>

			</g>

			<g
   id="g8510">
				
					<image
   style="overflow:visible;opacity:0.34"
   width="30"
   height="30"
   xlink:href="../../SmartEq%20projekt/projekt%20strony%20internetowej/A095A29E621D6658.png"
   transform="translate(878.7524,332.6112)"
   id="image8504">
				</image>

				<g
   id="g8508">
					<circle
   class="st1"
   cx="969.40002"
   cy="301.5"
   r="7.5"
   id="circle8506"
   style="fill:#ffffff" />

				</g>

			</g>

		</g>
    <g
       id="g8622"
       transform="matrix(0.26458333,0,0,0.26458333,13.441035,-53.444532)">
			<g
   id="g8568">
				
					<image
   style="overflow:visible;opacity:0.34"
   width="92"
   height="92"
   xlink:href="../../SmartEq%20projekt/projekt%20strony%20internetowej/A095A29E621D665E.png"
   transform="translate(679.7524,913.6111)"
   id="image8514">
				</image>

				<g
   id="g8566">
					<g
   id="g8522">
						<defs
   id="defs8517">
							<circle
   id="circle58987"
   cx="649.59998"
   cy="913.40002"
   r="38.200001" />

						</defs>

						<clipPath
   id="SVGID_00000040566916752134621020000008112844356913387397_">
							<use
   xlink:href="#SVGID_00000109747586746527352050000007619733788411815329_"
   style="overflow:visible"
   id="use8519" />

						</clipPath>

					</g>

					<g
   id="g8556">
						<defs
   id="defs8525">
							<circle
   id="circle58993"
   cx="649.59998"
   cy="913.40002"
   r="38.200001" />

						</defs>

						<clipPath
   id="clipPath57683">
							<use
   xlink:href="#SVGID_00000139294022380844519810000007596640362572719500_"
   style="overflow:visible"
   id="use57681" />

						</clipPath>

						<g
   clip-path="url(#SVGID_00000035494094323764869390000010774114824805261754_)"
   id="g8554">
							<line
   class="st40"
   x1="596.40002"
   y1="869.20001"
   x2="699.40002"
   y2="869.20001"
   id="line8530"
   style="fill:none;stroke:#ffffff;stroke-width:2.3013;stroke-miterlimit:10" />

							<line
   class="st40"
   x1="596.40002"
   y1="878"
   x2="699.40002"
   y2="878"
   id="line8532"
   style="fill:none;stroke:#ffffff;stroke-width:2.3013;stroke-miterlimit:10" />

							<line
   class="st40"
   x1="596.40002"
   y1="886.79999"
   x2="699.40002"
   y2="886.79999"
   id="line8534"
   style="fill:none;stroke:#ffffff;stroke-width:2.3013;stroke-miterlimit:10" />

							<line
   class="st40"
   x1="596.40002"
   y1="895.59998"
   x2="699.40002"
   y2="895.59998"
   id="line8536"
   style="fill:none;stroke:#ffffff;stroke-width:2.3013;stroke-miterlimit:10" />

							<line
   class="st40"
   x1="596.40002"
   y1="904.40002"
   x2="699.40002"
   y2="904.40002"
   id="line8538"
   style="fill:none;stroke:#ffffff;stroke-width:2.3013;stroke-miterlimit:10" />

							<line
   class="st40"
   x1="596.40002"
   y1="913.20001"
   x2="699.40002"
   y2="913.20001"
   id="line8540"
   style="fill:none;stroke:#ffffff;stroke-width:2.3013;stroke-miterlimit:10" />

							<line
   class="st40"
   x1="596.40002"
   y1="922.09998"
   x2="699.40002"
   y2="922.09998"
   id="line8542"
   style="fill:none;stroke:#ffffff;stroke-width:2.3013;stroke-miterlimit:10" />

							<line
   class="st40"
   x1="596.40002"
   y1="930.90002"
   x2="699.40002"
   y2="930.90002"
   id="line8544"
   style="fill:none;stroke:#ffffff;stroke-width:2.3013;stroke-miterlimit:10" />

							<line
   class="st40"
   x1="596.40002"
   y1="939.70001"
   x2="699.40002"
   y2="939.70001"
   id="line8546"
   style="fill:none;stroke:#ffffff;stroke-width:2.3013;stroke-miterlimit:10" />

							<line
   class="st40"
   x1="596.40002"
   y1="948.5"
   x2="699.40002"
   y2="948.5"
   id="line8548"
   style="fill:none;stroke:#ffffff;stroke-width:2.3013;stroke-miterlimit:10" />

							<line
   class="st40"
   x1="596.40002"
   y1="957.29999"
   x2="699.40002"
   y2="957.29999"
   id="line8550"
   style="fill:none;stroke:#ffffff;stroke-width:2.3013;stroke-miterlimit:10" />

							<line
   class="st40"
   x1="596.40002"
   y1="966.09998"
   x2="699.40002"
   y2="966.09998"
   id="line8552"
   style="fill:none;stroke:#ffffff;stroke-width:2.3013;stroke-miterlimit:10" />

						</g>

					</g>

					<g
   id="g8564">
						<defs
   id="defs8559">
							<circle
   id="circle59012"
   cx="649.59998"
   cy="913.40002"
   r="38.200001" />

						</defs>

						<clipPath
   id="SVGID_00000033347475967369485570000017034278893981437827_">
							<use
   xlink:href="#SVGID_00000026150016493459271760000015330298333114146452_"
   style="overflow:visible"
   id="use8561" />

						</clipPath>

					</g>

				</g>

			</g>

			<g
   id="g8620">
				<g
   id="g8576">
					<defs
   id="defs8571">
						<circle
   id="circle59020"
   cx="603.09998"
   cy="913.40002"
   r="38.200001" />

					</defs>

					<clipPath
   id="SVGID_00000146501623598448262160000000393002685059273623_">
						<use
   xlink:href="#SVGID_00000059293719061302850230000012778044934242309044_"
   style="overflow:visible"
   id="use8573" />

					</clipPath>

				</g>

				<g
   id="g8610">
					<defs
   id="defs8579">
						<circle
   id="circle59026"
   cx="603.09998"
   cy="913.40002"
   r="38.200001" />

					</defs>

					<clipPath
   id="clipPath57715">
						<use
   xlink:href="#SVGID_00000082331612997978909380000009869831802555696028_"
   style="overflow:visible"
   id="use57713" />

					</clipPath>

					<g
   clip-path="url(#SVGID_00000062160985246258319700000016823622650097095555_)"
   id="g8608">
						<line
   class="st42"
   x1="549.90002"
   y1="869.20001"
   x2="652.90002"
   y2="869.20001"
   id="line8584"
   style="fill:none;stroke:#db8024;stroke-width:2.3013;stroke-miterlimit:10" />

						<line
   class="st42"
   x1="549.90002"
   y1="878"
   x2="652.90002"
   y2="878"
   id="line8586"
   style="fill:none;stroke:#db8024;stroke-width:2.3013;stroke-miterlimit:10" />

						<line
   class="st42"
   x1="549.90002"
   y1="886.79999"
   x2="652.90002"
   y2="886.79999"
   id="line8588"
   style="fill:none;stroke:#db8024;stroke-width:2.3013;stroke-miterlimit:10" />

						<line
   class="st42"
   x1="549.90002"
   y1="895.59998"
   x2="652.90002"
   y2="895.59998"
   id="line8590"
   style="fill:none;stroke:#db8024;stroke-width:2.3013;stroke-miterlimit:10" />

						<line
   class="st42"
   x1="549.90002"
   y1="904.40002"
   x2="652.90002"
   y2="904.40002"
   id="line8592"
   style="fill:none;stroke:#db8024;stroke-width:2.3013;stroke-miterlimit:10" />

						<line
   class="st42"
   x1="549.90002"
   y1="913.20001"
   x2="652.90002"
   y2="913.20001"
   id="line8594"
   style="fill:none;stroke:#db8024;stroke-width:2.3013;stroke-miterlimit:10" />

						<line
   class="st42"
   x1="549.90002"
   y1="922.09998"
   x2="652.90002"
   y2="922.09998"
   id="line8596"
   style="fill:none;stroke:#db8024;stroke-width:2.3013;stroke-miterlimit:10" />

						<line
   class="st42"
   x1="549.90002"
   y1="930.90002"
   x2="652.90002"
   y2="930.90002"
   id="line8598"
   style="fill:none;stroke:#db8024;stroke-width:2.3013;stroke-miterlimit:10" />

						<line
   class="st42"
   x1="549.90002"
   y1="939.70001"
   x2="652.90002"
   y2="939.70001"
   id="line8600"
   style="fill:none;stroke:#db8024;stroke-width:2.3013;stroke-miterlimit:10" />

						<line
   class="st42"
   x1="549.90002"
   y1="948.5"
   x2="652.90002"
   y2="948.5"
   id="line8602"
   style="fill:none;stroke:#db8024;stroke-width:2.3013;stroke-miterlimit:10" />

						<line
   class="st42"
   x1="549.90002"
   y1="957.29999"
   x2="652.90002"
   y2="957.29999"
   id="line8604"
   style="fill:none;stroke:#db8024;stroke-width:2.3013;stroke-miterlimit:10" />

						<line
   class="st42"
   x1="549.90002"
   y1="966.09998"
   x2="652.90002"
   y2="966.09998"
   id="line8606"
   style="fill:none;stroke:#db8024;stroke-width:2.3013;stroke-miterlimit:10" />

					</g>

				</g>

				<g
   id="g8618">
					<defs
   id="defs8613">
						<circle
   id="circle59045"
   cx="603.09998"
   cy="913.40002"
   r="38.200001" />

					</defs>

					<clipPath
   id="SVGID_00000108303153185219060680000002613710127496237701_">
						<use
   xlink:href="#SVGID_00000055685171578207079430000008646950501665660566_"
   style="overflow:visible"
   id="use8615" />

					</clipPath>

				</g>

			</g>

		</g>
    <g
       class="st43"
       id="g8686"
       style="opacity:0.43"
       transform="matrix(0.26458333,0,0,0.26458333,13.441035,-53.444532)">
			<defs
   id="defs8625">
				<circle
   id="circle59053"
   class="st43"
   cx="240.89999"
   cy="917.29999"
   r="74.199997" />

			</defs>

			<clipPath
   id="clipPath57742">
				<use
   xlink:href="#SVGID_00000065056050929071685900000009601030875394618024_"
   style="overflow:visible"
   id="use57740" />

			</clipPath>

			<g
   clip-path="url(#SVGID_00000029035383362455678760000002126985923120062383_)"
   id="g8684">
				<line
   class="st45"
   x1="155"
   y1="1020.6"
   x2="155"
   y2="820.79999"
   id="line8630"
   style="fill:none;stroke:#1d1d1b;stroke-width:1.1121;stroke-miterlimit:10" />

				<line
   class="st45"
   x1="162.2"
   y1="1020.6"
   x2="162.2"
   y2="820.79999"
   id="line8632"
   style="fill:none;stroke:#1d1d1b;stroke-width:1.1121;stroke-miterlimit:10" />

				<line
   class="st45"
   x1="169.5"
   y1="1020.6"
   x2="169.5"
   y2="820.79999"
   id="line8634"
   style="fill:none;stroke:#1d1d1b;stroke-width:1.1121;stroke-miterlimit:10" />

				<line
   class="st45"
   x1="176.7"
   y1="1020.6"
   x2="176.7"
   y2="820.79999"
   id="line8636"
   style="fill:none;stroke:#1d1d1b;stroke-width:1.1121;stroke-miterlimit:10" />

				<line
   class="st45"
   x1="184"
   y1="1020.6"
   x2="184"
   y2="820.79999"
   id="line8638"
   style="fill:none;stroke:#1d1d1b;stroke-width:1.1121;stroke-miterlimit:10" />

				<line
   class="st45"
   x1="191.2"
   y1="1020.6"
   x2="191.2"
   y2="820.79999"
   id="line8640"
   style="fill:none;stroke:#1d1d1b;stroke-width:1.1121;stroke-miterlimit:10" />

				<line
   class="st45"
   x1="198.39999"
   y1="1020.6"
   x2="198.39999"
   y2="820.79999"
   id="line8642"
   style="fill:none;stroke:#1d1d1b;stroke-width:1.1121;stroke-miterlimit:10" />

				<line
   class="st45"
   x1="205.7"
   y1="1020.6"
   x2="205.7"
   y2="820.79999"
   id="line8644"
   style="fill:none;stroke:#1d1d1b;stroke-width:1.1121;stroke-miterlimit:10" />

				<line
   class="st45"
   x1="212.89999"
   y1="1020.6"
   x2="212.89999"
   y2="820.79999"
   id="line8646"
   style="fill:none;stroke:#1d1d1b;stroke-width:1.1121;stroke-miterlimit:10" />

				<line
   class="st45"
   x1="220.2"
   y1="1020.6"
   x2="220.2"
   y2="820.79999"
   id="line8648"
   style="fill:none;stroke:#1d1d1b;stroke-width:1.1121;stroke-miterlimit:10" />

				<line
   class="st45"
   x1="227.39999"
   y1="1020.6"
   x2="227.39999"
   y2="820.79999"
   id="line8650"
   style="fill:none;stroke:#1d1d1b;stroke-width:1.1121;stroke-miterlimit:10" />

				<line
   class="st45"
   x1="234.60001"
   y1="1020.6"
   x2="234.60001"
   y2="820.79999"
   id="line8652"
   style="fill:none;stroke:#1d1d1b;stroke-width:1.1121;stroke-miterlimit:10" />

				<line
   class="st45"
   x1="241.89999"
   y1="1020.6"
   x2="241.89999"
   y2="820.79999"
   id="line8654"
   style="fill:none;stroke:#1d1d1b;stroke-width:1.1121;stroke-miterlimit:10" />

				<line
   class="st45"
   x1="249.10001"
   y1="1020.6"
   x2="249.10001"
   y2="820.79999"
   id="line8656"
   style="fill:none;stroke:#1d1d1b;stroke-width:1.1121;stroke-miterlimit:10" />

				<line
   class="st45"
   x1="256.39999"
   y1="1020.6"
   x2="256.39999"
   y2="820.79999"
   id="line8658"
   style="fill:none;stroke:#1d1d1b;stroke-width:1.1121;stroke-miterlimit:10" />

				<line
   class="st45"
   x1="263.60001"
   y1="1020.6"
   x2="263.60001"
   y2="820.79999"
   id="line8660"
   style="fill:none;stroke:#1d1d1b;stroke-width:1.1121;stroke-miterlimit:10" />

				<line
   class="st45"
   x1="270.79999"
   y1="1020.6"
   x2="270.79999"
   y2="820.79999"
   id="line8662"
   style="fill:none;stroke:#1d1d1b;stroke-width:1.1121;stroke-miterlimit:10" />

				<line
   class="st45"
   x1="278.10001"
   y1="1020.6"
   x2="278.10001"
   y2="820.79999"
   id="line8664"
   style="fill:none;stroke:#1d1d1b;stroke-width:1.1121;stroke-miterlimit:10" />

				<line
   class="st45"
   x1="285.29999"
   y1="1020.6"
   x2="285.29999"
   y2="820.79999"
   id="line8666"
   style="fill:none;stroke:#1d1d1b;stroke-width:1.1121;stroke-miterlimit:10" />

				<line
   class="st45"
   x1="292.60001"
   y1="1020.6"
   x2="292.60001"
   y2="820.79999"
   id="line8668"
   style="fill:none;stroke:#1d1d1b;stroke-width:1.1121;stroke-miterlimit:10" />

				<line
   class="st45"
   x1="299.79999"
   y1="1020.6"
   x2="299.79999"
   y2="820.79999"
   id="line8670"
   style="fill:none;stroke:#1d1d1b;stroke-width:1.1121;stroke-miterlimit:10" />

				<line
   class="st45"
   x1="307"
   y1="1020.6"
   x2="307"
   y2="820.79999"
   id="line8672"
   style="fill:none;stroke:#1d1d1b;stroke-width:1.1121;stroke-miterlimit:10" />

				<line
   class="st45"
   x1="314.29999"
   y1="1020.6"
   x2="314.29999"
   y2="820.79999"
   id="line8674"
   style="fill:none;stroke:#1d1d1b;stroke-width:1.1121;stroke-miterlimit:10" />

				<line
   class="st45"
   x1="321.5"
   y1="1020.6"
   x2="321.5"
   y2="820.79999"
   id="line8676"
   style="fill:none;stroke:#1d1d1b;stroke-width:1.1121;stroke-miterlimit:10" />

				<line
   class="st45"
   x1="328.79999"
   y1="1020.6"
   x2="328.79999"
   y2="820.79999"
   id="line8678"
   style="fill:none;stroke:#1d1d1b;stroke-width:1.1121;stroke-miterlimit:10" />

				<line
   class="st45"
   x1="336"
   y1="1020.6"
   x2="336"
   y2="820.79999"
   id="line8680"
   style="fill:none;stroke:#1d1d1b;stroke-width:1.1121;stroke-miterlimit:10" />

				<line
   class="st45"
   x1="343.20001"
   y1="1020.6"
   x2="343.20001"
   y2="820.79999"
   id="line8682"
   style="fill:none;stroke:#1d1d1b;stroke-width:1.1121;stroke-miterlimit:10" />

			</g>

		</g>
    <circle
       class="st46"
       cx="103.90207"
       cy="110.99403"
       r="8.0697918"
       id="circle8688"
       style="fill:none;stroke:#db8024;stroke-width:0.273526;stroke-miterlimit:10" />
    <circle
       class="st47"
       cx="140.07063"
       cy="91.89109"
       r="57.705627"
       id="circle8690"
       style="fill:none;stroke:#db8024;stroke-width:1.32292;stroke-miterlimit:10" />
  </g>
</svg>
