<?xml version="1.0" encoding="utf-8"?>
<!-- Generator: Adobe Illustrator 27.9.0, SVG Export Plug-In . SVG Version: 6.00 Build 0)  -->
<svg version="1.1" xmlns="http://www.w3.org/2000/svg" xmlns:xlink="http://www.w3.org/1999/xlink" x="0px" y="0px"
	 viewBox="0 0 403.2 100.8" style="enable-background:new 0 0 403.2 100.8;" xml:space="preserve">
<style type="text/css">
	.st0{fill:#F7F7F7;}
	.st1{fill:#FFFFFF;}
	.st2{fill-rule:evenodd;clip-rule:evenodd;fill:#FFFFFF;}
	.st3{fill-rule:evenodd;clip-rule:evenodd;}
	.st4{fill:#1D1D1B;}
	.st5{fill:#DD8002;}
	.st6{fill:none;stroke:#1D1D1B;stroke-width:1.0046;stroke-miterlimit:10;}
	.st7{fill:#DB8025;stroke:#DB8024;stroke-width:1.2847;stroke-miterlimit:10;}
	.st8{fill:#FFFFFF;stroke:#DB8024;stroke-width:2;stroke-miterlimit:10;}
	.st9{fill:#E3202E;}
	.st10{fill:#B1B1B1;}
	.st11{fill:#FFFFFF;stroke:#DB8024;stroke-width:1.8147;stroke-miterlimit:10;}
	.st12{fill:#DB8024;stroke:#DB8024;stroke-miterlimit:10;}
	.st13{fill:#FFFFFF;stroke:#1D1D1B;stroke-width:3.6899;stroke-miterlimit:10;}
	.st14{fill:#FC903A;}
	.st15{fill:#2B3A66;}
	.st16{fill:#FCAD78;}
	.st17{fill:#F97622;}
	.st18{fill:#F69259;}
	.st19{fill:#EBE9E6;}
	.st20{fill:#1F3964;}
	.st21{fill:#F69156;}
	.st22{fill:#244F97;}
	.st23{fill:#E7F1F9;}
	.st24{fill:#FBDABB;}
	.st25{fill:#2D3653;}
	.st26{opacity:0.5;fill:#E7F1F9;}
	.st27{fill:#FC7722;}
	.st28{fill:#EF802C;}
	.st29{fill:#FC9F64;}
	.st30{fill:#0E3662;}
	.st31{fill:#ED8428;}
	.st32{fill:#D2D0CD;}
	.st33{clip-path:url(#SVGID_00000155847880401030041990000001664904414160666797_);}
	.st34{fill:none;stroke:#FFFFFF;stroke-width:3.5296;stroke-miterlimit:10;}
	.st35{fill:none;stroke:#FFFFFF;stroke-width:3.5296;stroke-miterlimit:10;stroke-dasharray:42.3207,42.3207;}
	.st36{fill:#DB8024;}
	.st37{fill:#171717;}
	.st38{clip-path:url(#SVGID_00000140012206351475763110000003348739019179579316_);}
	.st39{fill:none;stroke:#FFFFFF;stroke-width:2.3013;stroke-miterlimit:10;}
	.st40{clip-path:url(#SVGID_00000152263381497251940830000000357518979309851049_);}
	.st41{fill:none;stroke:#DB8024;stroke-width:2.3013;stroke-miterlimit:10;}
	.st42{opacity:0.43;}
	.st43{clip-path:url(#SVGID_00000183212598445800108460000014519795985638729108_);}
	.st44{fill:none;stroke:#1D1D1B;stroke-width:1.1121;stroke-miterlimit:10;}
	.st45{fill:none;stroke:#DB8024;stroke-width:1.0338;stroke-miterlimit:10;}
	.st46{fill:none;stroke:#DB8024;stroke-width:5;stroke-miterlimit:10;}
	.st47{fill:#FFFFFF;stroke:#DB8024;stroke-width:2.2181;stroke-miterlimit:10;}
	.st48{fill:#FFFFFF;stroke:#DB8024;stroke-width:2.6418;stroke-miterlimit:10;}
	.st49{fill:#FFFFFF;stroke:#DB8024;stroke-width:1.9924;stroke-miterlimit:10;}
	.st50{clip-path:url(#SVGID_00000117642821605457288990000008951923780165358256_);}
	.st51{clip-path:url(#SVGID_00000101097229476333885010000014322821222391774854_);}
	.st52{clip-path:url(#SVGID_00000142856848140924626040000009621450353177637802_);}
	.st53{clip-path:url(#SVGID_00000007413806680028811180000001860774770006348984_);}
	.st54{fill:#FFFFFF;stroke:#DB8024;stroke-width:1.9026;stroke-miterlimit:10;}
	.st55{fill:#A1A198;}
	.st56{fill:#D4D3DA;}
	.st57{fill:#E18024;}
	.st58{fill:#CCCBCC;}
	.st59{fill:#E2C5B8;}
	.st60{fill:#594940;}
	.st61{fill:#2D4D83;}
	.st62{fill:#CAC0B5;}
	.st63{fill:#80807A;}
	.st64{fill:#DB8025;stroke:#DB8024;stroke-width:2;stroke-miterlimit:10;}
	.st65{fill:#D2D2D2;}
	.st66{fill:#AAAAAA;}
	.st67{fill:url(#SVGID_00000014632961007628040910000004154956853117605550_);}
	.st68{fill:#711880;}
	.st69{fill:#4A0F56;}
	.st70{fill:#E78024;}
	.st71{opacity:0.73;fill:#FFFFFF;}
	.st72{fill:url(#SVGID_00000041270514819565453400000006549441781759143100_);}
	.st73{fill:#DE9A80;}
	.st74{fill:#AFB2B4;}
	.st75{fill:#D54447;}
	.st76{opacity:0.1;fill:#AAAAAA;}
	.st77{fill:url(#SVGID_00000020367263456306654100000005286335573517295797_);}
	.st78{opacity:0.3;}
	.st79{fill:#292D46;}
	.st80{fill:#D4C4BD;}
	.st81{fill:#DCCAC2;}
	.st82{fill:#CB8C60;}
	.st83{fill:#424872;}
	.st84{fill:#3A3F47;}
	.st85{fill:#323756;}
	.st86{clip-path:url(#SVGID_00000046338097811282606110000014946806878580990868_);}
	.st87{fill:none;stroke:#FFFFFF;stroke-width:1.8411;stroke-miterlimit:10;}
	.st88{clip-path:url(#SVGID_00000075123805695229263210000001949784549714917036_);}
	.st89{fill:none;stroke:#DB8024;stroke-width:1.8411;stroke-miterlimit:10;}
	.st90{clip-path:url(#SVGID_00000098221152580765581910000000039535510842663319_);}
	.st91{fill:none;stroke:#DB8024;stroke-width:5.4382;stroke-miterlimit:10;}
	.st92{fill:#DB8025;stroke:#DB8024;stroke-width:2.1263;stroke-miterlimit:10;}
	.st93{clip-path:url(#SVGID_00000049941969252640804850000004058565838471645340_);}
	.st94{fill:none;stroke:#DB8024;stroke-width:4.7156;stroke-miterlimit:10;}
	.st95{clip-path:url(#SVGID_00000049205126179574820590000010447502242379097511_);}
	.st96{fill:none;stroke:#1D1D1B;stroke-width:1.1712;stroke-miterlimit:10;}
	.st97{clip-path:url(#SVGID_00000146486573383712660980000011141687131293186231_);}
	.st98{clip-path:url(#SVGID_00000183969715133297318880000014824723236948211854_);fill:#D2D0CD;}
	.st99{clip-path:url(#SVGID_00000183969715133297318880000014824723236948211854_);}
	.st100{fill:#E18028;}
	.st101{clip-path:url(#SVGID_00000017506685337517786520000009704232104094252183_);}
	.st102{clip-path:url(#SVGID_00000109005044562958460220000005452249808496326591_);}
	.st103{fill:none;stroke:#DB8024;stroke-width:6.7977;stroke-miterlimit:10;}
	.st104{clip-path:url(#SVGID_00000069358891490563028260000002628661561654583691_);}
	.st105{fill:none;stroke:#000000;stroke-width:3.5296;stroke-miterlimit:10;}
	.st106{fill:none;stroke:#000000;stroke-width:3.5296;stroke-miterlimit:10;stroke-dasharray:42.3207,42.3207;}
	.st107{fill:#1E0F01;}
	.st108{fill:#E48023;}
	.st109{fill:none;stroke:#000000;stroke-miterlimit:10;}
	.st110{clip-path:url(#SVGID_00000125580490156412558620000009195806193297272480_);}
	.st111{clip-path:url(#SVGID_00000150097754661622607040000005036477748239413924_);}
	.st112{clip-path:url(#SVGID_00000142176319617793269820000008618601532158097810_);}
	.st113{clip-path:url(#SVGID_00000049938437555183378080000001506986043057325759_);}
	.st114{clip-path:url(#SVGID_00000070828114557360836210000004635035180218281365_);}
	.st115{clip-path:url(#SVGID_00000164495881560017494690000012955611287927133335_);}
	.st116{clip-path:url(#SVGID_00000090276785997185878420000014653924102923811254_);}
	.st117{fill:none;stroke:#1D1D1B;stroke-width:1.2169;stroke-miterlimit:10;}
	.st118{fill:#FFFFFF;stroke:#DB8024;stroke-width:2.2575;stroke-miterlimit:10;}
	.st119{fill:none;stroke:#DD8002;stroke-miterlimit:10;}
	.st120{clip-path:url(#SVGID_00000050644538825753649840000008030198801418942121_);}
	.st121{clip-path:url(#SVGID_00000178915432469119242790000009849658284113116563_);}
	.st122{clip-path:url(#SVGID_00000009573724509063597250000002799733239667995070_);}
	.st123{clip-path:url(#SVGID_00000182488941287840368260000007566303368954520473_);}
	.st124{fill:#DB8025;stroke:#DB8024;stroke-width:1.7098;stroke-miterlimit:10;}
</style>
<g id="MAIN_PAGE_-_offer">
</g>
<g id="MAIN_PAGE">
</g>
<g id="HORSE_FOR_SALE">
</g>
<g id="EXERCISES">
	<path d="M131.2,72.3c-0.8,0-1.2-0.4-1.2-1.2v-3c0-0.9,0.4-1.3,1.2-1.3h34.3c1.2,0,2-0.5,2-1.7c0-0.9-0.6-1.5-1.8-1.9l-27.8-11.6
		c-4.7-1.9-7.5-5.1-7.5-9.7c0-5.8,4.1-9.6,10.2-9.6h41.9c0.8,0,1.2,0.4,1.2,1.2v3c0,0.8-0.4,1.2-1.2,1.2h-33.1c-1.2,0-2,0.6-2,1.8
		c0,0.9,0.6,1.5,1.8,1.9l27.8,11.6c4.7,2,7.5,5.1,7.5,9.7c0,5.8-4.1,9.6-10.3,9.6H131.2z"/>
	<path d="M248,72.3c-0.8,0-1.2-0.4-1.2-1.2V50.3l-20.1,20.8c-0.9,0.9-1.9,1.2-2.9,1.2H221c-0.9,0-2-0.2-3-1.2l-21.7-20.8v20.8
		c0,0.8-0.4,1.2-1.2,1.2h-4.3c-0.8,0-1.2-0.4-1.2-1.2V33.5c0-0.8,0.4-1.2,1.2-1.2h4c1.1,0,2.1,0.4,3.1,1.3l28.4,28.4l29.8-28.4
		c1-0.9,2.2-1.3,3.3-1.3h3.3c0.9,0,1.3,0.4,1.3,1.2v37.6c0,0.8-0.4,1.2-1.3,1.2H248z"/>
	<path d="M304.8,57.2c-0.7,0-1.1-0.2-1.5-0.6l-15.8-17L274,53.8h20.2c0.5,0,0.8,0.3,0.8,0.8v1.9c0,0.5-0.3,0.7-0.8,0.7h-26
		c-0.4,0-0.6-0.2-0.6-0.5c0-0.1,0-0.4,0.3-0.5l22.2-23.2c0.4-0.4,0.8-0.6,1.4-0.6h1.8c0.6,0,1,0.2,1.4,0.6l22.1,23.3
		c0.2,0.2,0.3,0.4,0.3,0.6c0,0.3-0.2,0.4-0.7,0.4H304.8z"/>
	<path d="M351,57.2c-1.4,0-2.2-0.1-3.1-0.8l-14.7-11.3c-0.4-0.3-0.5-0.5-0.5-1.1v-0.9c0-0.5,0.3-0.7,0.8-0.7h9.8
		c2.6,0,4.1-0.9,4.1-3.4c0-2.5-1.5-3.3-4.1-3.3h-13v20.9c0,0.5-0.3,0.7-0.8,0.7h-9.5c-0.5,0-0.8-0.3-0.8-0.7V33.2c0-0.6,0.3-1,1-1
		h30.8c4.3,0,7.5,2.5,7.5,6.8c0,4.3-3.2,6.6-7.5,6.6h-5.1l15.4,10.5c0.1,0.1,0.3,0.4,0.3,0.5c0,0.2-0.1,0.5-0.5,0.5H351z"/>
	<path d="M372.5,57.2c-0.4,0-0.5-0.1-0.5-0.4V35.6h-11.9c-0.4,0-0.5-0.1-0.5-0.4v-2.6c0-0.3,0.1-0.4,0.5-0.4h34.8
		c0.3,0,0.5,0.1,0.5,0.4v2.6c0,0.3-0.2,0.4-0.5,0.4H383v21.2c0,0.3-0.1,0.4-0.5,0.4H372.5z"/>
	<g>
		<g>
			<path class="st5" d="M272.1,72c-2.2,0-3.8-1.7-3.8-4.1c0-2.3,1.5-4.1,3.8-4.1h7.8c0.2,0,0.3,0.1,0.3,0.2v0.6
				c0,0.2-0.1,0.2-0.3,0.2h-5.8c-1.3,0-1.8,0.7-1.8,2.9c0,2.2,0.6,3,1.8,3h5.8c0.2,0,0.2,0.1,0.2,0.3v0.6c0,0.2-0.1,0.2-0.2,0.2
				H272.1z M273.6,68.1c-0.2,0-0.2-0.1-0.2-0.2v-0.6c0-0.2,0.1-0.3,0.2-0.3h6.3c0.2,0,0.2,0.1,0.2,0.2v0.8c0,0.1-0.1,0.2-0.2,0.2
				H273.6z"/>
			<path class="st5" d="M288.9,73.4c-0.2,0-0.4-0.1-0.5-0.3l-0.7-1.1h-2.6c-2.2,0-3.8-1.8-3.8-4.1c0-2.4,1.5-4.1,3.8-4.1h5.6
				c2.3,0,3.8,1.7,3.8,4.1c0,2.3-1.5,4.1-3.8,4.1h-0.4l0.7,1.1c0,0,0,0.1,0,0.1c0,0.1,0,0.2-0.2,0.2H288.9z M289.1,70.9
				c1.2,0,1.8-0.8,1.8-3c0-2.2-0.3-2.9-1.8-2.9h-2.4c-1.4,0-1.8,0.8-1.8,2.9c0,2.2,0.6,3,1.8,3H289.1z"/>
			<path class="st5" d="M299.3,72c-2.8,0-3.9-1.5-3.9-3.7v-4.1c0-0.2,0.1-0.2,0.2-0.2h3.4c0.2,0,0.3,0.1,0.3,0.2v4.1
				c0,1.6,0.7,2.6,2.3,2.6h2.6c1.6,0,2.3-1.1,2.3-2.6v-4.1c0-0.2,0.1-0.2,0.3-0.2h1.1c0.2,0,0.3,0.1,0.3,0.2v4.1
				c0,2.1-1.2,3.7-3.9,3.7H299.3z"/>
			<path class="st5" d="M312.6,72c-2.2,0-3.8-1.7-3.8-4.1c0-2.3,1.5-4.1,3.8-4.1h7.8c0.2,0,0.3,0.1,0.3,0.2v0.6
				c0,0.2-0.1,0.2-0.3,0.2h-5.8c-1.3,0-1.8,0.7-1.8,2.9c0,2.2,0.6,3,1.8,3h5.8c0.2,0,0.2,0.1,0.2,0.3v0.6c0,0.2-0.1,0.2-0.2,0.2
				H312.6z M314.1,68.1c-0.2,0-0.2-0.1-0.2-0.2v-0.6c0-0.2,0.1-0.3,0.2-0.3h6.3c0.2,0,0.2,0.1,0.2,0.2v0.8c0,0.1-0.1,0.2-0.2,0.2
				H314.1z"/>
			<path class="st5" d="M322.1,72c-0.2,0-0.2-0.1-0.2-0.2v-0.6c0-0.2,0.1-0.3,0.2-0.3h6.9c0.2,0,0.4-0.1,0.4-0.3
				c0-0.2-0.1-0.3-0.4-0.4l-5.6-2.4c-1-0.4-1.5-1-1.5-2c0-1.2,0.8-1.9,2.1-1.9h8.5c0.2,0,0.2,0.1,0.2,0.2v0.6c0,0.2-0.1,0.2-0.2,0.2
				h-6.7c-0.2,0-0.4,0.1-0.4,0.4c0,0.2,0.1,0.3,0.4,0.4l5.6,2.3c1,0.4,1.5,1,1.5,2c0,1.2-0.8,1.9-2.1,1.9H322.1z"/>
			<path class="st5" d="M337.6,72c-0.1,0-0.2,0-0.2-0.1V65h-3.9c-0.1,0-0.2,0-0.2-0.1V64c0-0.1,0-0.1,0.2-0.1h11.3
				c0.1,0,0.2,0,0.2,0.1v0.8c0,0.1-0.1,0.1-0.2,0.1H341v6.9c0,0.1,0,0.1-0.2,0.1H337.6z"/>
			<path class="st5" d="M356.2,72c-0.4,0-0.7,0-1-0.3l-4.8-3.7c-0.1-0.1-0.2-0.2-0.2-0.3v-0.3c0-0.2,0.1-0.2,0.2-0.2h3.2
				c0.8,0,1.3-0.3,1.3-1.1c0-0.8-0.5-1.1-1.3-1.1h-4.2v6.8c0,0.2-0.1,0.2-0.2,0.2H346c-0.2,0-0.2-0.1-0.2-0.2v-7.6
				c0-0.2,0.1-0.3,0.3-0.3h10c1.4,0,2.4,0.8,2.4,2.2c0,1.4-1,2.1-2.4,2.1h-1.7l5,3.4c0,0,0.1,0.1,0.1,0.2c0,0.1,0,0.2-0.2,0.2H356.2
				z"/>
			<path class="st5" d="M360.6,72c-0.2,0-0.2-0.1-0.2-0.2v-7.6c0-0.2,0.1-0.2,0.2-0.2h3.1c0.2,0,0.2,0.1,0.2,0.2v7.6
				c0,0.2-0.1,0.2-0.2,0.2H360.6z"/>
			<path class="st5" d="M376.7,72c-0.2,0-0.4-0.1-0.5-0.2l-5.1-5.5l-4.4,4.6h6.6c0.2,0,0.2,0.1,0.2,0.3v0.6c0,0.2-0.1,0.2-0.2,0.2
				h-8.4c-0.1,0-0.2-0.1-0.2-0.2c0,0,0-0.1,0.1-0.2l7.2-7.5c0.1-0.1,0.3-0.2,0.4-0.2h0.6c0.2,0,0.3,0.1,0.5,0.2l7.2,7.6
				c0.1,0.1,0.1,0.1,0.1,0.2c0,0.1-0.1,0.1-0.2,0.1H376.7z"/>
			<path class="st5" d="M393.9,72c-0.4,0-0.6,0-0.9-0.2l-10-4.6v4.6c0,0.2-0.1,0.2-0.2,0.2h-1.2c-0.2,0-0.2-0.1-0.2-0.2v-7.6
				c0-0.2,0.1-0.2,0.2-0.2h1.2c0.4,0,0.6,0,1,0.2l9.5,4.5v-4.4c0-0.2,0.1-0.2,0.2-0.2h1.2c0.2,0,0.2,0.1,0.2,0.2v7.6
				c0,0.2-0.1,0.2-0.2,0.2H393.9z"/>
		</g>
	</g>
	<g id="logo_00000111188183178998171880000005697012481271155120_">
		<g>
			<circle class="st4" cx="74.8" cy="8" r="5.5"/>
			<circle class="st5" cx="59.4" cy="51" r="34"/>
			<circle class="st117" cx="59.4" cy="51" r="45.9"/>
			<circle class="st4" cx="74.8" cy="8" r="5.5"/>
		</g>
		<g>
			<g>
				<path class="st4" d="M53.9,58.7c0-0.6,0.2-1.2,0.6-1.6H42c-0.9,0-1.6,0.7-1.6,1.6c0,0.9,0.7,1.6,1.6,1.6h3.4h9.2
					C54.2,59.9,53.9,59.3,53.9,58.7z"/>
				<path class="st4" d="M53.9,40.9c0-0.6,0.2-1.2,0.6-1.6H42c-0.9,0-1.6,0.7-1.6,1.6c0,0.9,0.7,1.6,1.6,1.6h3.4h9.2
					C54.2,42,53.9,41.5,53.9,40.9z"/>
				<path class="st4" d="M77.9,60.4c-0.4-0.4-0.6-1-0.6-1.6c0-0.6,0.2-1.2,0.6-1.6h-2.2c0.9-0.9,1.6-2,2.2-3.3
					c0.6-1.3,0.8-2.7,0.8-4.2c0-1.5-0.3-2.8-0.8-4.1c-0.6-1.3-1.3-2.4-2.3-3.4c-1-1-2.1-1.8-3.4-2.3c-1.3-0.6-2.7-0.8-4.1-0.8
					c-1.5,0-2.9,0.3-4.2,0.8c-1.3,0.6-2.4,1.3-3.4,2.3c-1,1-1.7,2.1-2.3,3.4c-0.3,0.8-0.6,1.6-0.7,2.5h-2.8h-9.4H43
					c0.4,0.4,0.6,1,0.6,1.6c0,0.6-0.2,1.2-0.6,1.6h2.3H48h9.5c0.1,0.9,0.4,1.8,0.7,2.6c0.6,1.3,1.3,2.4,2.3,3.4c1,1,2.1,1.7,3.4,2.3
					c1.3,0.5,2.7,0.8,4.2,0.8c0.1,0,0.3,0,0.4,0l0,0H77.9z M68.2,57.1c-1,0-2-0.2-2.9-0.6c-0.9-0.4-1.7-0.9-2.3-1.6
					c-0.7-0.7-1.2-1.5-1.6-2.4c-0.4-0.9-0.6-1.9-0.6-2.9c0-1,0.2-1.9,0.5-2.8c0.4-0.9,0.9-1.7,1.5-2.4c0.7-0.7,1.4-1.2,2.3-1.6
					c0.9-0.4,1.8-0.6,2.8-0.6c1,0,2,0.2,2.8,0.6c0.9,0.4,1.6,0.9,2.3,1.6c0.7,0.7,1.2,1.5,1.6,2.4c0.4,0.9,0.6,1.9,0.6,2.9
					c0,1-0.2,2-0.6,2.9c-0.4,0.9-0.9,1.7-1.5,2.4c-0.7,0.7-1.4,1.2-2.3,1.6C70.1,56.9,69.2,57.1,68.2,57.1z"/>
			</g>
			<g>
				<circle class="st4" cx="56.4" cy="58.7" r="1.4"/>
				<circle class="st4" cx="56.4" cy="40.9" r="1.4"/>
				<circle class="st4" cx="41.2" cy="49.6" r="1.4"/>
				<circle class="st4" cx="79.8" cy="58.7" r="1.4"/>
			</g>
		</g>
	</g>
</g>
</svg>
