<?xml version="1.0" encoding="UTF-8" standalone="no"?>
<!-- Created with Inkscape (http://www.inkscape.org/) -->

<svg
   width="1875"
   height="1197"
   viewBox="0 0 496.09374 316.70625"
   version="1.1"
   id="svg88132"
   xmlns:xlink="http://www.w3.org/1999/xlink"
   xmlns="http://www.w3.org/2000/svg"
   xmlns:svg="http://www.w3.org/2000/svg">
  <defs
     id="defs88129">
    <clipPath
       id="SVGID_00000000905265114075184450000011895705049081921460_">
					<use
   xlink:href="#SVGID_00000111899183996411126260000017469935362380335267_"
   style="overflow:visible"
   id="use7330" />

				</clipPath>
    <clipPath
       id="SVGID_00000090979187213247980750000007987630857739311535_">
				<use
   xlink:href="#SVGID_00000073682479836186134080000006512379245693656510_"
   style="overflow:visible"
   id="use7374" />

			</clipPath>
    <clipPath
       id="SVGID_00000008120557039440884130000000710855746105338551_">
				<use
   xlink:href="#SVGID_00000020363300063445085370000011602548807549604517_"
   style="overflow:visible"
   id="use7212" />

			</clipPath>
    <circle
       id="SVGID_00000161602052649036910640000004309696824989153422_"
       cx="1703.3"
       cy="4369.7002"
       r="112.9" />
    <circle
       id="SVGID_00000111899183996411126260000017469935362380335267_"
       cx="1703.3"
       cy="4369.7002"
       r="112.9" />
    <circle
       id="SVGID_00000027574030167590194040000001461744935786897028_"
       cx="1703.3"
       cy="4369.7002"
       r="112.9" />
    <rect
       id="SVGID_00000073682479836186134080000006512379245693656510_"
       x="-50"
       y="3793.7"
       width="1920"
       height="1196.3" />
    <circle
       id="SVGID_00000020363300063445085370000011602548807549604517_"
       class="st43"
       cx="252.60001"
       cy="4807.2002"
       r="74.199997" />
  </defs>
  <g
     id="layer1">
    <g
       id="przerywnik"
       transform="matrix(0.25836171,0,0,0.26458333,14.056095,-1002.7225)">
		
		<g
   id="g7297">
			<g
   id="g7279">
				
					<image
   style="overflow:visible;opacity:0.34"
   width="36"
   height="36"
   xlink:href="../../SmartEq%20projekt/projekt%20strony%20internetowej/A095A29E621D660D.png"
   transform="translate(369.7524,4391.6113)"
   id="image7273">
				</image>

				<g
   id="g7277">
					<circle
   class="st1"
   cx="463.70001"
   cy="4363"
   r="10.5"
   id="circle7275"
   style="fill:#ffffff" />

				</g>

			</g>

			<g
   id="g7287">
				
					<image
   style="overflow:visible;opacity:0.34"
   width="31"
   height="32"
   xlink:href="../../SmartEq%20projekt/projekt%20strony%20internetowej/A095A29E621D660E.png"
   transform="translate(353.7524,4338.6113)"
   id="image7281">
				</image>

				<g
   id="g7285">
					<circle
   class="st1"
   cx="444.89999"
   cy="4308.2998"
   r="8.1999998"
   id="circle7283"
   style="fill:#ffffff" />

				</g>

			</g>

			<g
   id="g7295">
				
					<image
   style="overflow:visible;opacity:0.34"
   width="30"
   height="30"
   xlink:href="../../SmartEq%20projekt/projekt%20strony%20internetowej/A095A29E621D660F.png"
   transform="translate(402.7524,4358.6113)"
   id="image7289">
				</image>

				<g
   id="g7293">
					<circle
   class="st1"
   cx="493.70001"
   cy="4327"
   r="7.5"
   id="circle7291"
   style="fill:#ffffff" />

				</g>

			</g>

		</g>

		<g
   id="g7317">
			
			
			
			<g
   id="g7315">
				
				
				
				
				
			</g>

		</g>

		<g
   id="g7369">
			<g
   id="g7325">
				<defs
   id="defs7320">
					<circle
   id="circle88851"
   cx="1703.3"
   cy="4369.7002"
   r="112.9" />

				</defs>

				<clipPath
   id="SVGID_00000178907149915318252690000001768701466837151112_">
					<use
   xlink:href="#SVGID_00000161602052649036910640000004309696824989153422_"
   style="overflow:visible"
   id="use7322" />

				</clipPath>

			</g>

			<g
   id="g7359">
				<defs
   id="defs7328">
					<circle
   id="circle88857"
   cx="1703.3"
   cy="4369.7002"
   r="112.9" />

				</defs>

				<clipPath
   id="clipPath87994">
					<use
   xlink:href="#SVGID_00000111899183996411126260000017469935362380335267_"
   style="overflow:visible"
   id="use87992" />

				</clipPath>

				<g
   clip-path="url(#SVGID_00000000905265114075184450000011895705049081921460_)"
   id="g7357">
					<line
   class="st107"
   x1="1546"
   y1="4239"
   x2="1850.2"
   y2="4239"
   id="line7333"
   style="fill:none;stroke:#db8024;stroke-width:6.7977;stroke-miterlimit:10" />

					<line
   class="st107"
   x1="1546"
   y1="4265"
   x2="1850.2"
   y2="4265"
   id="line7335"
   style="fill:none;stroke:#db8024;stroke-width:6.7977;stroke-miterlimit:10" />

					<line
   class="st107"
   x1="1546"
   y1="4291.1001"
   x2="1850.2"
   y2="4291.1001"
   id="line7337"
   style="fill:none;stroke:#db8024;stroke-width:6.7977;stroke-miterlimit:10" />

					<line
   class="st107"
   x1="1546"
   y1="4317.1001"
   x2="1850.2"
   y2="4317.1001"
   id="line7339"
   style="fill:none;stroke:#db8024;stroke-width:6.7977;stroke-miterlimit:10" />

					<line
   class="st107"
   x1="1546"
   y1="4343.2002"
   x2="1850.2"
   y2="4343.2002"
   id="line7341"
   style="fill:none;stroke:#db8024;stroke-width:6.7977;stroke-miterlimit:10" />

					<line
   class="st107"
   x1="1546"
   y1="4369.2002"
   x2="1850.2"
   y2="4369.2002"
   id="line7343"
   style="fill:none;stroke:#db8024;stroke-width:6.7977;stroke-miterlimit:10" />

					<line
   class="st107"
   x1="1546"
   y1="4395.2002"
   x2="1850.2"
   y2="4395.2002"
   id="line7345"
   style="fill:none;stroke:#db8024;stroke-width:6.7977;stroke-miterlimit:10" />

					<line
   class="st107"
   x1="1546"
   y1="4421.2998"
   x2="1850.2"
   y2="4421.2998"
   id="line7347"
   style="fill:none;stroke:#db8024;stroke-width:6.7977;stroke-miterlimit:10" />

					<line
   class="st107"
   x1="1546"
   y1="4447.2998"
   x2="1850.2"
   y2="4447.2998"
   id="line7349"
   style="fill:none;stroke:#db8024;stroke-width:6.7977;stroke-miterlimit:10" />

					<line
   class="st107"
   x1="1546"
   y1="4473.3999"
   x2="1850.2"
   y2="4473.3999"
   id="line7351"
   style="fill:none;stroke:#db8024;stroke-width:6.7977;stroke-miterlimit:10" />

					<line
   class="st107"
   x1="1546"
   y1="4499.3999"
   x2="1850.2"
   y2="4499.3999"
   id="line7353"
   style="fill:none;stroke:#db8024;stroke-width:6.7977;stroke-miterlimit:10" />

					<line
   class="st107"
   x1="1546"
   y1="4525.3999"
   x2="1850.2"
   y2="4525.3999"
   id="line7355"
   style="fill:none;stroke:#db8024;stroke-width:6.7977;stroke-miterlimit:10" />

				</g>

			</g>

			<g
   id="g7367">
				<defs
   id="defs7362">
					<circle
   id="circle88876"
   cx="1703.3"
   cy="4369.7002"
   r="112.9" />

				</defs>

				<clipPath
   id="SVGID_00000096025535023782562550000011314941486697567676_">
					<use
   xlink:href="#SVGID_00000027574030167590194040000001461744935786897028_"
   style="overflow:visible"
   id="use7364" />

				</clipPath>

			</g>

		</g>

		<g
   id="g7387">
			<defs
   id="defs7372">
				<rect
   id="rect88883"
   x="-50"
   y="3793.7"
   width="1920"
   height="1196.3" />

			</defs>

			<clipPath
   id="clipPath88020">
				<use
   xlink:href="#SVGID_00000073682479836186134080000006512379245693656510_"
   style="overflow:visible"
   id="use88018" />

			</clipPath>

			<g
   clip-path="url(#SVGID_00000090979187213247980750000007987630857739311535_)"
   id="g7385">
				<g
   id="g7381">
					<g
   id="g7379">
						<path
   class="st110"
   d="m 1886.5,908.8 c -199.5,349.4 -414.1,580 -555.5,648.3 -114.8,55.5 -219.6,59.4 -219.6,59.4 -84.1,3.1 -138.5,-16.9 -189.7,-29.5 -20.4,-5 -274.7,-64.1 -485.3,45.1 -12.5,6.5 -230.1,123.4 -281.5,351.9 -52.7,234.3 122.9,348.2 93.8,534.3 -35.6,227.5 -348.6,173.8 -641.2,469.1 -46.7,47.1 -348.8,361.4 -312.8,776.7 6.5,74.5 40.5,465.8 338.8,578.6 166.2,62.8 273.9,-170.5 672.4,-245 115.7,-21.6 173.7,-31.6 245,-10.4 228.4,67.7 200.3,327.5 417,547.3 281.8,285.8 585.7,106.7 787.1,390.9 106,149.6 148.8,378.5 53.4,526.5 -69.7,108.2 -198.2,149.7 -359.7,175.9 -545.5,88.6 -766.2,-110.8 -1149.4,-89.9 -433.3,23.6 -966.2,322.8 -1088.1,784.5 -109.1,413.1 72.3,957.8 375.3,1042.5 443.6,124 745.3,-850.4 1443.9,-865.3 686.9,-14.7 1415,905.7 1245.8,1324 -142.6,352.7 -933.3,373.8 -1016.5,375.3 -467.6,8.3 -543.7,-162.3 -912.2,-119.9 -375.4,43.2 -901.3,289.9 -1053,787.1 -144,472.2 80.5,1070 354.5,1115.5 325.8,54.2 444,-730.4 1061,-886 576.8,-145.4 1364.7,283.3 1380.1,706.9 14.2,392.9 -634.7,859.4 -1161.1,817.8 -316.3,-25 -467.5,-223.9 -813.2,-148.6 -76.7,16.7 -341.4,74.4 -465.2,312.8 -12.1,23.3 -103.8,206.7 -35.2,418.3 84.4,260.4 354.6,387.4 563,402.7 240,17.6 421.6,-111.9 496.5,-164.2 176.2,-123.1 190.3,-233 297.1,-308.9 134.7,-95.6 400.4,-125.4 980.8,194.4"
   id="path7377"
   style="fill:none;stroke:#000000;stroke-width:3.5296;stroke-miterlimit:10;stroke-dasharray:42.3207, 42.3207" />

					</g>

				</g>

				<text
   transform="matrix(0.9475,0,0,1,1358.8743,1308.8619)"
   class="st1 st56 st111"
   id="text7383"
   style="font-size:146.298px;font-family:MyriadPro-Regular;fill:#ffffff">x</text>

			</g>

		</g>

		
		
		<g
   id="g7494">
			<g
   id="g9744">
  <g
     class="st43"
     id="g7271"
     style="opacity:0.43">
			<defs
   id="defs7210">
				<circle
   id="circle88934"
   class="st43"
   cx="252.60001"
   cy="4807.2002"
   r="74.199997" />

			</defs>

			<clipPath
   id="clipPath88072">
				<use
   xlink:href="#SVGID_00000020363300063445085370000011602548807549604517_"
   style="overflow:visible"
   id="use88070" />

			</clipPath>

			<g
   clip-path="url(#SVGID_00000008120557039440884130000000710855746105338551_)"
   id="g7269">
				<line
   class="st45"
   x1="166.7"
   y1="4910.5"
   x2="166.7"
   y2="4710.6001"
   id="line7215"
   style="fill:none;stroke:#1d1d1b;stroke-width:1.1121;stroke-miterlimit:10" />

				<line
   class="st45"
   x1="173.89999"
   y1="4910.5"
   x2="173.89999"
   y2="4710.6001"
   id="line7217"
   style="fill:none;stroke:#1d1d1b;stroke-width:1.1121;stroke-miterlimit:10" />

				<line
   class="st45"
   x1="181.2"
   y1="4910.5"
   x2="181.2"
   y2="4710.6001"
   id="line7219"
   style="fill:none;stroke:#1d1d1b;stroke-width:1.1121;stroke-miterlimit:10" />

				<line
   class="st45"
   x1="188.39999"
   y1="4910.5"
   x2="188.39999"
   y2="4710.6001"
   id="line7221"
   style="fill:none;stroke:#1d1d1b;stroke-width:1.1121;stroke-miterlimit:10" />

				<line
   class="st45"
   x1="195.7"
   y1="4910.5"
   x2="195.7"
   y2="4710.6001"
   id="line7223"
   style="fill:none;stroke:#1d1d1b;stroke-width:1.1121;stroke-miterlimit:10" />

				<line
   class="st45"
   x1="202.89999"
   y1="4910.5"
   x2="202.89999"
   y2="4710.6001"
   id="line7225"
   style="fill:none;stroke:#1d1d1b;stroke-width:1.1121;stroke-miterlimit:10" />

				<line
   class="st45"
   x1="210.10001"
   y1="4910.5"
   x2="210.10001"
   y2="4710.6001"
   id="line7227"
   style="fill:none;stroke:#1d1d1b;stroke-width:1.1121;stroke-miterlimit:10" />

				<line
   class="st45"
   x1="217.39999"
   y1="4910.5"
   x2="217.39999"
   y2="4710.6001"
   id="line7229"
   style="fill:none;stroke:#1d1d1b;stroke-width:1.1121;stroke-miterlimit:10" />

				<line
   class="st45"
   x1="224.60001"
   y1="4910.5"
   x2="224.60001"
   y2="4710.6001"
   id="line7231"
   style="fill:none;stroke:#1d1d1b;stroke-width:1.1121;stroke-miterlimit:10" />

				<line
   class="st45"
   x1="231.89999"
   y1="4910.5"
   x2="231.89999"
   y2="4710.6001"
   id="line7233"
   style="fill:none;stroke:#1d1d1b;stroke-width:1.1121;stroke-miterlimit:10" />

				<line
   class="st45"
   x1="239.10001"
   y1="4910.5"
   x2="239.10001"
   y2="4710.6001"
   id="line7235"
   style="fill:none;stroke:#1d1d1b;stroke-width:1.1121;stroke-miterlimit:10" />

				<line
   class="st45"
   x1="246.3"
   y1="4910.5"
   x2="246.3"
   y2="4710.6001"
   id="line7237"
   style="fill:none;stroke:#1d1d1b;stroke-width:1.1121;stroke-miterlimit:10" />

				<line
   class="st45"
   x1="253.60001"
   y1="4910.5"
   x2="253.60001"
   y2="4710.6001"
   id="line7239"
   style="fill:none;stroke:#1d1d1b;stroke-width:1.1121;stroke-miterlimit:10" />

				<line
   class="st45"
   x1="260.79999"
   y1="4910.5"
   x2="260.79999"
   y2="4710.6001"
   id="line7241"
   style="fill:none;stroke:#1d1d1b;stroke-width:1.1121;stroke-miterlimit:10" />

				<line
   class="st45"
   x1="268.10001"
   y1="4910.5"
   x2="268.10001"
   y2="4710.6001"
   id="line7243"
   style="fill:none;stroke:#1d1d1b;stroke-width:1.1121;stroke-miterlimit:10" />

				<line
   class="st45"
   x1="275.29999"
   y1="4910.5"
   x2="275.29999"
   y2="4710.6001"
   id="line7245"
   style="fill:none;stroke:#1d1d1b;stroke-width:1.1121;stroke-miterlimit:10" />

				<line
   class="st45"
   x1="282.5"
   y1="4910.5"
   x2="282.5"
   y2="4710.6001"
   id="line7247"
   style="fill:none;stroke:#1d1d1b;stroke-width:1.1121;stroke-miterlimit:10" />

				<line
   class="st45"
   x1="289.79999"
   y1="4910.5"
   x2="289.79999"
   y2="4710.6001"
   id="line7249"
   style="fill:none;stroke:#1d1d1b;stroke-width:1.1121;stroke-miterlimit:10" />

				<line
   class="st45"
   x1="297"
   y1="4910.5"
   x2="297"
   y2="4710.6001"
   id="line7251"
   style="fill:none;stroke:#1d1d1b;stroke-width:1.1121;stroke-miterlimit:10" />

				<line
   class="st45"
   x1="304.29999"
   y1="4910.5"
   x2="304.29999"
   y2="4710.6001"
   id="line7253"
   style="fill:none;stroke:#1d1d1b;stroke-width:1.1121;stroke-miterlimit:10" />

				<line
   class="st45"
   x1="311.5"
   y1="4910.5"
   x2="311.5"
   y2="4710.6001"
   id="line7255"
   style="fill:none;stroke:#1d1d1b;stroke-width:1.1121;stroke-miterlimit:10" />

				<line
   class="st45"
   x1="318.70001"
   y1="4910.5"
   x2="318.70001"
   y2="4710.6001"
   id="line7257"
   style="fill:none;stroke:#1d1d1b;stroke-width:1.1121;stroke-miterlimit:10" />

				<line
   class="st45"
   x1="326"
   y1="4910.5"
   x2="326"
   y2="4710.6001"
   id="line7259"
   style="fill:none;stroke:#1d1d1b;stroke-width:1.1121;stroke-miterlimit:10" />

				<line
   class="st45"
   x1="333.20001"
   y1="4910.5"
   x2="333.20001"
   y2="4710.6001"
   id="line7261"
   style="fill:none;stroke:#1d1d1b;stroke-width:1.1121;stroke-miterlimit:10" />

				<line
   class="st45"
   x1="340.5"
   y1="4910.5"
   x2="340.5"
   y2="4710.6001"
   id="line7263"
   style="fill:none;stroke:#1d1d1b;stroke-width:1.1121;stroke-miterlimit:10" />

				<line
   class="st45"
   x1="347.70001"
   y1="4910.5"
   x2="347.70001"
   y2="4710.6001"
   id="line7265"
   style="fill:none;stroke:#1d1d1b;stroke-width:1.1121;stroke-miterlimit:10" />

				<line
   class="st45"
   x1="354.89999"
   y1="4910.5"
   x2="354.89999"
   y2="4710.6001"
   id="line7267"
   style="fill:none;stroke:#1d1d1b;stroke-width:1.1121;stroke-miterlimit:10" />

			</g>

		</g>
  <g
     id="XMLID_00000070824972754336888990000005533901972928654732_">
				<g
   id="g7491">
					<path
   class="st112"
   d="m 261.3,4795.7 c 0.6,0.3 0.7,1.1 0.6,1.6 -0.2,0.5 -0.6,0.9 -0.9,1.2 -1,0.8 -2.1,1.4 -3.2,1.9 -4,2.1 -8.2,4.2 -12.8,5.1 0,0 0,0 -0.1,0 -0.1,0 -0.3,-0.1 -0.4,-0.2 l -0.2,-0.4 c -2.2,1 -4.5,2 -6.9,3.1 0.1,0.3 0.2,0.5 0.3,0.8 0.2,0.6 0.4,1.2 0.6,1.8 0.1,0.1 0.1,0.2 0,0.4 0,0.1 -0.1,0.1 -0.1,0.2 -0.3,0.4 -0.7,0.8 -1.1,1.2 0,0 -0.1,0.1 -0.1,0.1 -0.6,0.5 -1.2,1 -1.9,1.4 0,0 0,0 -0.1,0 -1.5,0.8 -3.3,1.3 -5,1.3 -0.4,0 -0.8,0 -1.2,-0.1 -0.1,0 -0.2,-0.1 -0.3,-0.1 -0.4,-0.5 -0.7,-1 -1,-1.5 -0.2,-0.3 -0.3,-0.6 -0.5,-1 -4.6,2.2 -9.4,4.4 -14.1,6.7 0.2,18 -1.1,35.3 -2.5,50.3 -3.3,18.9 -6.7,38.4 -9.7,58.1 1.2,1.2 2.3,2.5 3.4,3.8 2.2,2.8 4.3,5.4 7.7,6.8 0.1,0 0.1,0.1 0.2,0.1 0.6,0 1.1,0 1.6,0 1.6,0 3.3,-0.1 5,0.1 2.2,0.2 5.2,0.9 7.5,2.9 0.1,0.1 0.1,0.2 0.1,0.3 0,0.2 -0.1,0.4 -0.3,0.6 -1.8,1.5 -12.9,2.6 -23.6,2.6 -5.4,0 -10.7,-0.3 -14.6,-1 -0.2,0 -0.3,-0.2 -0.3,-0.3 -0.1,-0.1 -0.2,-0.2 -0.2,-0.4 0,-0.7 0.1,-1.4 0.1,-2.1 v 0 c -0.1,0 -0.3,0 -0.4,0 -1.9,0 -3.8,-0.4 -5.5,-1.3 -0.1,-0.1 -0.2,-0.1 -0.2,-0.3 -0.9,-3.9 0.3,-9.3 1.4,-13.5 0.2,-0.6 0.2,-1.3 0.1,-1.9 -0.4,-3.1 -3.4,-29.2 2.6,-56.9 0,0 0,0 0,-0.1 0.5,-2.3 1,-4.6 1.7,-6.9 0.3,-1 0.3,-2 0.1,-2.9 -0.3,-1.5 -0.6,-3.3 -1,-5.6 -0.7,-3.8 -1.6,-9.2 -3.2,-17 -3.4,1.8 -5.9,3.1 -7.3,3.8 0,0 -0.1,0.1 -0.1,0.1 -1.2,0.7 -2.5,1.6 -3.7,2.4 -1.6,1.1 -3.2,2.2 -4.6,3 -0.1,0 -0.1,0.1 -0.2,0.1 -0.1,0 -0.1,0 -0.2,-0.1 -0.1,-0.1 -0.2,-0.2 -0.2,-0.4 l 0.6,-3.8 c 0,-0.2 0.1,-0.3 0.3,-0.3 l 0.4,-0.1 c 2.2,-0.4 4.9,-0.9 7.1,-1.5 1.3,-0.7 4,-2.1 7.7,-4.1 -0.5,-2.2 -1,-4.7 -1.6,-7.3 l 0.7,-0.2 c 0.6,2.6 1.1,4.9 1.5,7.1 2.3,-1.2 5,-2.6 8,-4.2 -0.9,-5.6 -1.9,-11.2 -3,-16.5 -2.7,-1.9 -5.1,-4.4 -6.9,-7.3 -0.1,-0.2 -0.1,-0.4 0.1,-0.5 0.2,-0.1 0.4,-0.1 0.5,0.1 1.8,2.9 4.1,5.3 6.9,7.2 0.1,0.1 0.1,0.1 0.1,0.2 1,5.3 2,10.9 3,16.4 6,-3.1 13,-6.6 20.2,-10.2 -0.2,-16 -1.5,-32.5 -4.8,-48.6 -1.6,0.4 -3.2,0.7 -4.9,0.9 v -3.9 c 2.2,-0.2 3.7,-0.5 4.1,-0.6 0,-0.1 0,-0.2 -0.1,-0.3 -4.4,-13.7 -7.7,-27.7 -9.6,-41.9 0,-0.2 0.1,-0.4 0.3,-0.4 0.2,0 0.4,0.1 0.4,0.3 2,14.1 5.2,28.1 9.6,41.7 0,0 0,0 0,0 0,0 0,0 0,0.1 3.6,11 7.9,21.9 13.1,32.5 0.1,0.1 0.4,0 0.7,-0.2 l 4.2,-2.5 c -1.7,-13.3 -5.4,-26.1 -10.9,-38.3 0,0 0,-0.1 0,-0.1 -1.1,-15 -3.2,-29.6 -6.4,-43.5 -0.4,-1.6 -1.4,-2.9 -2.7,-3.7 -0.1,0 -0.1,0 -0.2,0 -0.8,-0.4 -1.9,-0.4 -2.8,0 -0.8,0.4 -1.6,1.2 -2.2,2.2 -0.5,1 -0.9,2 -1.2,3 -0.1,0.2 -0.2,0.3 -0.4,0.3 0,0 -0.1,0 -0.1,0 -0.2,-0.1 -0.3,-0.3 -0.2,-0.5 0.3,-1 0.7,-2.1 1.3,-3.1 0.7,-1.1 1.5,-2 2.5,-2.5 0.4,-0.2 0.8,-0.3 1.2,-0.4 -1,-0.4 -2.1,-0.9 -3.2,-1.2 l 0.2,-0.7 c 1.9,0.6 3.7,1.3 5.4,2.2 1.6,0.9 2.8,2.5 3.3,4.3 3.2,13.9 5.4,28.6 6.5,43.6 5.6,12.3 9.3,25.4 11,38.8 0,0.1 0,0.1 0,0.2 1.1,1.1 2.4,2.1 3.6,3 1.2,1 2.4,1.9 3.5,3 1.7,1.5 3,3.2 3.9,4.8 2.4,-1.1 4.7,-2.1 7,-3.1 -0.2,-1 0.8,-1.5 1.2,-1.7 l 0.1,-0.1 c 4.6,-2.6 9.5,-4.8 14.5,-6.6 0.1,0.2 0.7,0 1.2,0.2 z m -23.7,15.1 c -0.1,-0.6 -0.3,-1.1 -0.5,-1.7 -0.8,-2.1 -2.3,-4.1 -4.4,-6 -1.1,-1 -2.3,-2 -3.5,-2.9 -1.3,-1 -2.6,-2.1 -3.8,-3.2 l -3.6,2.1 c 0.4,1.8 0.7,3.6 1.6,5.4 1,2 2.4,3.5 4,4.2 0.2,0.1 0.4,0.2 0.6,0.3 0.5,0.2 1,0.4 1.5,0.7 0.3,0.2 0.6,0.6 0.8,1 v 0 0 c 0.2,0.5 0.2,1 0,1.5 -0.1,0.1 -0.2,0.2 -0.3,0.2 -0.1,0 -0.1,0 -0.2,0 -0.2,-0.1 -0.3,-0.3 -0.2,-0.5 0.1,-0.1 0.1,-0.3 0.1,-0.4 -0.6,0.3 -1.2,0.6 -1.8,0.9 0.1,0.3 0.3,0.6 0.4,0.9 0.3,0.5 0.5,0.9 0.9,1.3 1.1,0.1 2.1,0 3.2,-0.2 l -1.1,-4.2 c -0.1,-0.2 0.1,-0.4 0.3,-0.5 0.2,-0.1 0.4,0.1 0.5,0.3 l 1.1,4.2 c 0.5,-0.2 0.9,-0.4 1.4,-0.6 -0.4,-1.1 -1.4,-3.8 -1.4,-4 -0.1,-0.2 0,-0.4 0.2,-0.5 0.2,-0.1 0.4,0 0.5,0.2 0,0 0.9,2.7 1.4,3.8 0.4,-0.3 0.8,-0.6 1.2,-0.9 -0.4,-1 -1.3,-3.2 -1.6,-3.8 -0.1,-0.2 0,-0.4 0.2,-0.5 0.2,-0.1 0.4,0 0.5,0.2 0.2,0.6 1,2.5 1.4,3.5 0.2,-0.3 0.4,-0.6 0.6,-0.8 z m -10,0.6 c 0.6,-0.3 1.2,-0.6 1.8,-0.8 -0.1,-0.1 -0.2,-0.3 -0.3,-0.3 -0.4,-0.3 -0.8,-0.5 -1.3,-0.7 -0.2,-0.1 -0.4,-0.1 -0.5,-0.2 0,0.7 0.1,1.4 0.3,2 z m -0.7,0.4 c -0.3,-0.9 -0.5,-1.8 -0.5,-2.8 -1.5,-0.9 -2.8,-2.3 -3.7,-4.2 -0.9,-1.8 -1.3,-3.6 -1.6,-5.3 -0.2,0.1 -0.4,0.1 -0.6,0.1 -0.3,0 -0.5,-0.1 -0.7,-0.3 0,0 0,-0.1 -0.1,-0.1 -4.2,-8.7 -7.8,-17.5 -11,-26.4 2.9,15.1 4.1,30.7 4.3,45.7 4.7,-2.4 9.3,-4.6 13.9,-6.7 z m -16.5,51.6 c 1.2,-13.4 2.1,-28.3 1.9,-43.8 -7.2,3.5 -14.1,7.1 -20.1,10.1 0.1,0.7 0.2,1.3 0.3,2 1.7,9.8 3.4,20 5.5,28.6 0.3,1.3 0.3,2.7 -0.1,4 l -2,6.7 c 1.7,0.1 3.4,-1 4.1,-2.6 1,-2.3 1.9,-4.4 2.9,-6.3 0.4,-0.8 0.8,-1.6 1.5,-2.2 0.8,-0.7 1.8,-1 2.6,-0.9 1.2,0.2 2.1,1.2 2.8,3 0.3,0.6 0.4,1 0.6,1.4 z m -13.2,0.8 c 0.4,-1.2 0.4,-2.4 0.1,-3.6 -2.1,-8.6 -3.8,-18.8 -5.5,-28.7 -0.1,-0.6 -0.2,-1.1 -0.3,-1.7 -3,1.5 -5.7,2.9 -8,4.2 1.6,7.9 2.6,13.4 3.3,17.2 0.4,2.3 0.7,4.1 1,5.6 0.2,1.1 0.2,2.2 -0.1,3.3 -0.6,2.2 -1.1,4.4 -1.6,6.6 3.6,4.1 9.3,2.4 9.4,2.4 0,0 0,0 0.1,0 z"
   id="path7469"
   style="fill:#1e0f01" />

					<path
   class="st1"
   d="m 225.3,4796 -4.2,2.5 c -0.3,0.2 -0.6,0.3 -0.7,0.2 -5.1,-10.6 -9.5,-21.5 -13.1,-32.5 0,0 0,0 0,-0.1 0,0 0,0 0,0 -4.4,-13.7 -7.6,-27.6 -9.6,-41.7 0,-0.2 -0.2,-0.4 -0.4,-0.3 -0.2,0 -0.4,0.2 -0.3,0.4 2,14.2 5.2,28.2 9.6,41.9 0,0.1 0,0.2 0.1,0.3 -0.4,0.1 -1.8,0.3 -4.1,0.6 v 3.9 c 1.6,-0.2 3.3,-0.5 4.9,-0.9 3.3,16 4.7,32.6 4.8,48.6 -7.2,3.5 -14.2,7.1 -20.2,10.2 -0.9,-5.5 -1.9,-11.2 -3,-16.4 0,-0.1 -0.1,-0.2 -0.1,-0.2 -2.7,-1.9 -5,-4.3 -6.9,-7.2 -0.1,-0.2 -0.4,-0.2 -0.5,-0.1 -0.2,0.1 -0.2,0.4 -0.1,0.5 1.9,2.9 4.2,5.4 6.9,7.3 1,5.3 2,11 3,16.5 -3,1.5 -5.7,2.9 -8,4.2 -0.4,-2.2 -1,-4.6 -1.5,-7.1 -0.6,-2.6 -1.2,-5.3 -1.9,-8.3 -0.9,-3.4 -1.9,-6.3 -3.1,-9 -4.3,-9.4 -0.9,-19.8 2.3,-29.9 1,-3.1 1.9,-6 2.7,-8.8 0,0 0.1,0 0.1,0 0.1,0 0.6,0.1 1.5,0.2 l 0.4,-3.9 c -0.4,-0.1 -0.8,-0.1 -1.1,-0.2 0,0 -0.1,0 -0.1,0 0,0 0,-0.1 0,-0.1 -0.1,-0.3 -8.3,-26.7 -11,-40.4 0.9,-2 1.5,-4.2 1.7,-6.4 0.4,0.3 0.8,0.6 1.2,0.9 0.1,0.1 0.2,0.1 0.4,0.1 0.2,0 0.2,-0.1 0.2,-0.3 0.1,-0.4 0.2,-1.4 0.2,-3 0,-1.5 0.1,-5.4 0.7,-5.5 0,0 0.3,0 0.9,1 0.1,0.1 0.1,0.1 0.2,0.1 0.7,0.3 1.4,-0.4 1.7,-1.1 0.8,-2 1.1,-4 1,-6 5,0 9.5,0.1 13.9,0.7 2.2,0.3 4.2,0.8 6,1.4 1.1,0.4 2.2,0.8 3.2,1.2 -0.4,0.1 -0.8,0.2 -1.2,0.4 -1,0.5 -1.8,1.3 -2.5,2.5 -0.6,1 -1,2.2 -1.3,3.1 -0.1,0.2 0,0.4 0.2,0.5 0,0 0.1,0 0.1,0 0.2,0 0.3,-0.1 0.4,-0.3 0.3,-1 0.7,-2.1 1.2,-3 0.6,-1 1.3,-1.8 2.2,-2.2 1,-0.5 2,-0.5 2.8,0 0.1,0 0.1,0 0.2,0 1.4,0.8 2.4,2.1 2.7,3.7 3.2,13.9 5.4,28.6 6.4,43.5 0,0 0,0.1 0,0.1 5.7,12.3 9.4,25.2 11.1,38.4 z"
   id="path7471"
   style="fill:#ffffff" />

					<path
   class="st112"
   d="m 217.4,4675 c 0.1,0.2 0,0.4 -0.2,0.5 -3.3,1.5 -6.6,2.9 -9.9,4.3 -3.2,1.3 -6.4,2.6 -9.7,3.9 0.1,0.9 0.2,1.9 -0.2,2.9 -0.2,0.5 -0.6,1 -1.1,1.3 -0.9,0.5 -1.7,0.2 -2.3,-0.1 -0.2,-0.1 -0.4,-0.1 -0.5,-0.2 -0.3,-0.1 -0.5,-0.1 -0.8,-0.1 l -0.2,-1.8 c 0.6,-0.3 0.9,-0.4 1,-0.4 0.2,-0.1 0.2,-0.4 0.1,-0.5 -0.1,-0.2 -0.3,-0.2 -0.5,-0.1 -0.5,0.2 -7.6,3.3 -14.8,5.2 -0.3,0.1 -0.6,-0.4 -0.7,-0.7 -0.1,-0.4 -0.3,-0.9 -0.4,-1.3 l 0.5,-0.1 c 0,0.1 0.1,0.2 0.2,0.2 0.1,0 0.1,0.1 0.2,0.1 0.1,0 0.3,-0.1 0.3,-0.2 0.6,-1 0.8,-2 0.5,-2.8 -0.3,-1.1 -1.3,-1.6 -1.4,-1.6 -0.2,-0.1 -0.4,0 -0.5,0.2 0,0.1 0,0.1 0,0.2 l -0.8,-0.1 c -0.1,-0.5 -0.1,-1 -0.1,-1.5 -0.3,-9.3 7,-14.8 13.8,-15.9 6.6,-1.1 15.5,1.5 18.7,12.2 0,0 0,0.1 0,0.1 2.7,-1.2 5.4,-2.3 8.1,-3.5 0.3,-0.5 0.6,-0.4 0.7,-0.2 z"
   id="path7473"
   style="fill:#1e0f01" />

					<path
   class="st1"
   d="m 212.3,4819.6 c 0.1,15.5 -0.8,30.4 -1.9,43.8 -0.1,-0.4 -0.3,-0.9 -0.5,-1.3 -0.7,-1.8 -1.6,-2.8 -2.8,-3 -0.9,-0.1 -1.9,0.2 -2.6,0.9 -0.7,0.6 -1.1,1.4 -1.5,2.2 -1,1.9 -2,4 -2.9,6.3 -0.7,1.7 -2.3,2.7 -4.1,2.6 l 2,-6.7 c 0.4,-1.3 0.4,-2.7 0.1,-4 -2.1,-8.6 -3.8,-18.8 -5.5,-28.6 -0.1,-0.7 -0.2,-1.3 -0.3,-2 5.9,-3.1 12.8,-6.6 20,-10.2 z"
   id="path7475"
   style="fill:#ffffff" />

					<path
   class="st112"
   d="m 208.6,4685.3 c 1.2,0.2 1.7,1.1 1.7,1.8 0,0.8 -0.6,1.6 -1.8,1.8 v 0.2 c -0.3,2.7 -1,4.9 -2.2,6.7 -1.4,2.2 -3.5,3.7 -5.7,4.3 -0.5,0.1 -1.1,0.2 -1.6,0.2 -0.2,0 -0.3,0 -0.5,0 -0.5,0.9 -0.8,1.9 -1,2.9 0.6,0.3 1.3,0.5 1.9,0.8 0.2,0.1 0.3,0.3 0.2,0.4 l -0.6,2.6 c 0.3,0.1 0.6,0.2 0.9,0.3 l -0.2,0.7 c -1.9,-0.6 -3.9,-1.1 -6,-1.4 -4.5,-0.7 -9,-0.7 -13.9,-0.7 0,2 -0.3,4 -1,6 -0.3,0.8 -0.9,1.4 -1.7,1.1 -0.1,0 -0.1,-0.1 -0.2,-0.1 -0.7,-1 -0.9,-1 -0.9,-1 -0.6,0.2 -0.7,4.1 -0.7,5.5 0,1.5 0,2.5 -0.2,3 0,0.1 -0.1,0.2 -0.2,0.3 -0.1,0.1 -0.2,0 -0.4,-0.1 -0.4,-0.3 -0.8,-0.6 -1.2,-0.9 -0.2,2.2 -0.8,4.4 -1.7,6.4 2.7,13.7 11,40.1 11,40.4 0,0 0,0.1 0,0.1 0,0 0.1,0 0.1,0 0.4,0.1 0.8,0.1 1.1,0.2 l -0.4,3.9 c -0.8,-0.1 -1.3,-0.2 -1.5,-0.2 0,0 -0.1,0 -0.1,0 -0.7,2.8 -1.7,5.8 -2.7,8.8 -3.3,10.1 -6.6,20.5 -2.3,29.9 1.2,2.6 2.2,5.5 3.1,9 0.7,3 1.3,5.8 1.9,8.3 l -0.7,0.2 c -0.6,-2.6 -1.2,-5.3 -1.9,-8.3 -0.9,-3.3 -1.9,-6.2 -3,-8.8 -4.4,-9.7 -1,-20.2 2.3,-30.5 1.4,-4.3 2.7,-8.4 3.4,-12.4 -0.1,-0.3 -0.4,-1.3 -0.9,-2.8 -4.2,1.2 -8.6,1.9 -12.9,2.2 -0.1,0 -0.1,0 -0.2,0 -1.7,0 -3.1,-1.2 -3.2,-2.9 -1.4,-14.4 -0.7,-29.1 2.3,-43.7 -0.5,-2.5 -1.3,-4.9 -2.2,-7.2 -3.7,-6.8 -3.7,-20.7 1.5,-26.6 2.5,-2.9 6,-3.6 10.1,-2.2 l 0.8,0.1 c 0,0.1 0.1,0.3 0.2,0.4 0,0 0.7,0.4 1,1.1 0.2,0.6 0,1.4 -0.5,2.2 -0.1,0.1 -0.1,0.2 0,0.3 l -0.5,0.1 c 0,-0.1 -0.1,-0.2 -0.1,-0.3 0,0 0,0 0,0 -2.1,1.3 -1.2,4.3 -0.5,6 1.4,3.6 3,7.7 3.2,11.9 h 1.7 c -0.3,-1.4 -0.2,-3.5 0.4,-5.1 0.1,-0.1 0.2,-0.2 0.4,-0.2 0.8,0 1.5,0 2.3,0 v 0.8 c -0.6,0 -1.3,0 -1.9,0 -0.5,1.4 -0.6,3.3 -0.3,4.4 0,0 0,0.1 0,0.1 4.1,0 7.8,0.2 11.6,0.7 1.6,0.2 3.1,0.6 4.5,0.9 l 0.5,-2.3 c -2.8,-1.2 -5.8,-2.4 -8.9,-3.1 l 0.2,-0.7 c 2.3,0.5 4.6,1.3 6.7,2.2 0.2,-0.9 0.5,-1.8 0.9,-2.7 -1.5,-0.3 -2.9,-1 -3.8,-2.1 -0.1,-0.2 -0.1,-0.4 0.1,-0.5 0.2,-0.1 0.4,-0.1 0.5,0 1.3,1.6 3.7,2.3 6,1.8 2,-0.5 3.9,-1.9 5.2,-3.9 0.4,-0.6 0.7,-1.2 0.9,-1.9 -0.6,-0.1 -1.1,-0.4 -1.6,-0.8 -0.2,-0.1 -0.2,-0.4 0,-0.6 0.1,-0.2 0.4,-0.2 0.5,0 0.4,0.3 0.8,0.5 1.3,0.6 0.4,-1.1 0.7,-2.4 0.8,-3.7 v -0.5 c 0,-0.2 0.1,-0.4 0.4,-0.4 1,-0.1 1.4,-0.6 1.4,-1.1 0,-0.5 -0.4,-1 -1.3,-1.1 -0.2,0 -0.3,-0.2 -0.4,-0.4 0,0 -0.3,-3.6 -0.8,-5.3 -0.1,-0.2 0.1,-0.4 0.3,-0.5 0.2,-0.1 0.4,0.1 0.5,0.3 0.1,1.4 0.4,4.2 0.5,5.1 z m -27.8,77.7 c -0.6,-1.8 -1.3,-4.3 -2.1,-7.1 -1.6,0 -2.8,0.2 -4.4,0.6 0,0 -0.1,0 -0.1,0 -0.1,0 -0.2,0 -0.2,-0.1 -0.1,-0.1 -0.1,-0.2 -0.1,-0.3 v -0.8 c 0,-2.5 0.1,-4.9 0.3,-7.2 0.1,-2.5 0.3,-5.1 0.3,-7.7 -1.3,-4.7 -2.4,-9.4 -3.2,-13.2 -0.4,0.7 -0.8,1.1 -1.3,1.1 v 0 c -0.5,0 -1,-0.4 -1.5,-1.3 -0.3,-0.6 -0.5,-1.4 -0.6,-2.3 -0.1,-1.1 -0.2,-2.2 -0.4,-3.3 -2.6,13.8 -3.3,27.8 -1.9,41.5 0.1,1.3 1.3,2.3 2.6,2.2 4.1,-0.2 8.4,-1 12.6,-2.1 z m -2.4,-7.9 c -1.1,-3.7 -2.3,-7.8 -3.4,-12 -0.1,1.7 -0.1,3.4 -0.2,5 -0.1,2.4 -0.3,4.8 -0.3,7.2 v 0.3 c 1.4,-0.3 2.5,-0.5 3.9,-0.5 z"
   id="path7477"
   style="fill:#1e0f01" />

					<path
   class="st1"
   d="m 208.2,4686 c 0.9,0.1 1.3,0.6 1.3,1.1 0,0.5 -0.4,1 -1.4,1.1 -0.2,0 -0.4,0.2 -0.4,0.4 v 0.5 c -0.1,1.3 -0.4,2.6 -0.8,3.7 -0.5,-0.1 -1,-0.3 -1.3,-0.6 -0.2,-0.1 -0.4,-0.1 -0.5,0 -0.1,0.2 -0.1,0.4 0,0.6 0.4,0.4 1,0.7 1.6,0.8 -0.3,0.7 -0.6,1.3 -0.9,1.9 -1.3,2 -3.2,3.4 -5.2,3.9 -2.2,0.5 -4.6,-0.2 -6,-1.8 -0.1,-0.2 -0.4,-0.2 -0.5,0 -0.2,0.1 -0.2,0.4 -0.1,0.5 0.9,1.1 2.3,1.8 3.8,2.1 -0.4,0.8 -0.7,1.8 -0.9,2.7 -2.1,-0.8 -4.4,-1.6 -6.7,-2.2 -1.3,-0.3 -2.7,-0.6 -4,-0.7 0,-0.3 0,-0.5 0,-0.9 0,-0.5 0,-1.2 0,-1.4 0,0 0,0 0,0 0.3,0 0.5,0.1 0.8,0.1 0.5,0 0.9,-0.1 1.4,-0.2 1.3,-0.4 2.3,-1.4 2.7,-2.7 0.1,-0.2 0.1,-0.4 0.1,-0.6 0.1,-0.9 0,-1.7 -0.2,-2.5 -0.1,-0.4 -0.1,-0.8 -0.2,-1.2 0,-0.5 0,-1 0.1,-1.4 0.3,1.7 1.6,3.3 3.3,3.8 0,0 0.1,0 0.1,0 0.2,0 0.3,-0.1 0.4,-0.3 0.1,-0.2 -0.1,-0.4 -0.3,-0.5 -0.2,-0.1 -0.4,-0.1 -0.7,-0.3 -0.8,-0.4 -1.5,-1.2 -1.9,-2.1 -0.3,-0.7 -0.6,-2 0.4,-2.3 0.1,0 0.3,-0.1 0.5,-0.1 0.3,0 0.5,0 0.8,0.1 0.2,0.1 0.4,0.1 0.5,0.2 0.6,0.3 1.4,0.6 2.3,0.1 0.5,-0.3 0.9,-0.7 1.1,-1.3 0.4,-0.9 0.3,-1.9 0.2,-2.9 3.2,-1.3 6.5,-2.6 9.7,-3.9 v 0.1 c -0.2,0.1 -0.3,0.3 -0.3,0.5 0.5,1.7 0.8,5.3 0.8,5.3 0,0.2 0.2,0.4 0.4,0.4 z"
   id="path7479"
   style="fill:#ffffff" />

					<path
   class="st113"
   d="m 198.9,4704.6 -0.5,2.3 c -1.4,-0.4 -2.9,-0.7 -4.5,-0.9 -3.8,-0.6 -7.6,-0.7 -11.6,-0.7 0,0 0,-0.1 0,-0.1 -0.3,-1.1 -0.2,-3 0.3,-4.4 0.7,0 1.3,0 1.9,0 0.4,0 0.8,0 1.2,0.1 0,0 0,0 0,0 v 0 c 1.4,0.1 2.9,0.4 4.3,0.7 3.1,0.6 6.1,1.8 8.9,3 z"
   id="path7481"
   style="fill:#e48023" />

					<path
   class="st1"
   d="m 197.3,4860.5 c 0.3,1.2 0.2,2.5 -0.1,3.6 l -1.6,5.3 c 0,0 0,0 -0.1,0 -0.1,0 -5.8,1.7 -9.4,-2.4 0.5,-2.2 1,-4.4 1.6,-6.6 0.3,-1.1 0.3,-2.2 0.1,-3.3 -0.3,-1.5 -0.6,-3.3 -1,-5.6 -0.7,-3.8 -1.7,-9.3 -3.3,-17.2 2.3,-1.2 5,-2.6 8,-4.2 0.1,0.6 0.2,1.2 0.3,1.7 1.7,9.9 3.4,20.1 5.5,28.7 z"
   id="path7483"
   style="fill:#ffffff" />

					<path
   class="st112"
   d="m 194.4,4692 c 0.2,0.1 0.3,0.3 0.3,0.5 0,0.2 -0.2,0.3 -0.4,0.3 0,0 -0.1,0 -0.1,0 -1.7,-0.5 -3,-2 -3.3,-3.8 -0.1,0.5 -0.1,1 -0.1,1.4 0,0.4 0.1,0.8 0.2,1.2 0.1,0.8 0.3,1.6 0.2,2.5 0,0.2 -0.1,0.4 -0.1,0.6 -0.4,1.3 -1.3,2.3 -2.7,2.7 -0.4,0.1 -0.9,0.2 -1.4,0.2 -0.3,0 -0.5,0 -0.8,-0.1 0,0 0,0 0,0 0,0.3 0,0.9 0,1.4 0,0.3 0,0.6 0,0.9 1.4,0.1 2.7,0.4 4,0.7 l -0.2,0.7 c -1.4,-0.3 -2.8,-0.6 -4.3,-0.7 v 0 c 0,0 0,0 0,0 -0.4,0 -0.8,-0.1 -1.2,-0.1 v -0.8 c 0.3,0 0.5,0 0.8,0 0,-0.2 0,-0.5 0,-0.8 0,-0.9 0,-1.4 0.1,-1.7 -0.4,-0.1 -0.7,-0.3 -1.1,-0.6 -2.2,-1.7 -3.9,-4.2 -4.8,-6.7 0,-0.1 0,-0.1 0.1,-0.1 5.5,-1.6 10.7,-3.6 12.8,-4.5 l 0.2,1.8 c -0.1,0 -0.3,0 -0.5,0.1 -1,0.3 -0.6,1.6 -0.4,2.3 0.4,0.9 1,1.6 1.9,2.1 0.4,0.4 0.6,0.5 0.8,0.5 z"
   id="path7485"
   style="fill:#1e0f01" />

					<path
   class="st1"
   d="m 179,4684.8 c 0.2,0.8 0.1,1.8 -0.5,2.8 -0.1,0.1 -0.2,0.2 -0.3,0.2 -0.1,0 -0.1,0 -0.2,-0.1 -0.1,-0.1 -0.2,-0.1 -0.2,-0.2 0,-0.1 0,-0.2 0,-0.3 0.5,-0.8 0.7,-1.6 0.5,-2.2 -0.2,-0.8 -0.9,-1.1 -1,-1.1 -0.1,-0.1 -0.2,-0.2 -0.2,-0.4 0,-0.1 0,-0.1 0,-0.2 0.1,-0.2 0.3,-0.3 0.5,-0.2 0,0.1 1,0.5 1.4,1.7 z"
   id="path7487"
   style="fill:#ffffff" />

					<path
   class="st1"
   d="m 178.7,4755.9 c 0.8,2.8 1.6,5.3 2.1,7.1 -4.2,1.2 -8.5,1.9 -12.8,2.2 -1.3,0.1 -2.5,-0.9 -2.6,-2.2 -1.3,-13.7 -0.7,-27.7 1.9,-41.5 0.2,1.1 0.3,2.2 0.4,3.3 0.1,0.9 0.3,1.6 0.6,2.3 0.4,0.9 0.9,1.3 1.5,1.3 v 0 c 0.5,0 0.9,-0.4 1.3,-1.1 0.8,3.8 2,8.4 3.2,13.2 0,2.6 -0.1,5.2 -0.3,7.7 -0.1,2.4 -0.3,4.8 -0.3,7.2 v 0.8 c 0,0.1 0.1,0.2 0.1,0.3 0.1,0 0.1,0.1 0.2,0.1 0,0 0.1,0 0.1,0 1.8,-0.5 2.9,-0.7 4.6,-0.7 z"
   id="path7489"
   style="fill:#ffffff" />

				</g>

			</g>
</g>

		</g>

		<g
   id="g9570">
  <path
     class="st1"
     d="m 1059.9,4383.2 c 0.2,0.5 0.7,0.8 1.2,0.8 3.6,0.3 11.7,0.6 13.1,0.6 h 0.4 v 0 c 0.6,0 1.1,-0.1 1.7,-0.2 v 0 c 1.8,-0.3 3.4,-1.2 4.9,-2 0.2,-0.1 0.3,-0.2 0.5,-0.3 0.6,-0.1 1.2,-0.2 1.8,-0.3 7.5,-1.4 14.6,-5.4 19.7,-11.1 1.4,-1.6 2.4,-3.1 3.1,-4.5 1.2,-2.6 0.9,-5.4 0.6,-8 0,-0.3 -0.1,-0.7 -0.1,-1 -0.1,-0.7 -0.3,-1.4 -0.5,-2.1 l -0.1,-0.3 c -0.9,-3.1 -1.9,-6.3 -2.8,-9.4 -0.7,-2.2 -1.4,-4.4 -2,-6.6 -0.8,-2.6 -1.5,-6.4 -0.6,-9.8 1,-3.7 4.3,-4 8,-4.4 0.4,0 0.8,-0.1 1.2,-0.1 2.4,-0.2 4.8,-0.4 7.1,-0.5 h 0.2 c 4.7,-0.3 9.6,-0.6 14.4,-1.7 6.6,-1.5 12.7,-4.4 18.7,-7.2 2.2,-1.1 4.6,-2.2 6.9,-3.2 l 0.3,-0.1 c 3.6,-1.6 7.7,-3.3 9.5,-7 0.9,-1.7 1.1,-3.6 1.4,-5.5 0.2,-1.1 0.3,-2.2 0.6,-3.2 1,-3.8 3.8,-6.7 5.9,-8.4 2.7,-2.2 6.8,-5.2 10.8,-6.8 6.2,-0.8 12.5,-0.7 18.7,-0.5 2.1,0.1 4.4,0.1 6.6,0.1 13.5,0.1 27.1,-1.4 40.3,-4.5 -0.1,0.3 -0.1,0.7 0,1 0.3,0.7 1.1,0.7 2,0.6 0.5,-0.1 1.1,-0.3 1.6,-0.4 v 0 c 1.2,-0.5 3,-1.3 5,-2.2 6.6,-2.9 16.5,-7.4 22.7,-8.6 0.4,-0.1 0.8,-0.2 1.1,-0.3 0.2,-0.1 0.7,-0.4 0.9,-1 0.1,-0.5 -0.1,-0.8 -0.3,-1.1 7.1,-3.6 14,-8.2 20.6,-12.6 3.3,1.4 7.3,-1 8.5,-2.1 0.7,-0.6 1.3,-1.3 1.8,-2 0.4,-0.5 0.8,-1 1.3,-1.4 1.1,-1.2 2.5,-2.2 3.8,-3.2 l 0.6,-0.5 c 4.4,-3.3 8.5,-7 12.5,-10.5 4.4,-3.9 9,-8 13.9,-11.5 0.7,0.6 1.4,0.8 1.9,1.1 0.1,0.1 0.3,0.1 0.4,0.2 1.6,2.6 0.2,11.9 -0.4,16 -0.1,0.6 -0.2,1.1 -0.2,1.5 -0.2,1.6 -0.5,3.2 -0.8,4.7 l -0.1,0.5 c -0.3,1.4 -0.6,2.9 -0.2,4.5 0.2,0.8 0.5,1.4 1,1.9 0.3,0.3 0.6,0.5 0.8,0.7 0.1,0.1 0.2,0.2 0.3,0.2 -0.2,1.3 -0.6,2.3 -1.1,3.4 -1.9,-0.8 -4.2,-0.6 -6,0.5 -0.3,0 -0.6,0.1 -1,0.2 -0.5,0.2 -0.9,0.4 -1.4,0.8 -0.8,0.7 -1.4,1.8 -1.8,3.1 -0.3,1.1 -0.4,2.2 -0.4,3.3 -0.1,3.1 0.1,6.2 0.6,9.3 0.3,1.6 0.6,3.2 1.4,4.6 0.2,0.3 0.5,0.5 0.8,0.5 0.1,0 0.2,0 0.3,0 0.2,0 0.4,-0.1 0.6,-0.3 v 0 c 2.9,-2.9 5.9,-5.9 8.8,-8.8 l 0.3,-0.3 v -0.1 c 0.1,-0.2 0.2,-0.4 0.4,-0.7 0.1,0.4 0.2,0.8 0.3,1.3 0.8,3 1.5,5.8 2.8,8.4 0.5,0.9 1.1,0.9 1.4,0.9 v 0 c 0.5,-0.1 0.7,-0.4 0.9,-0.6 2.3,-3.2 4.5,-6.5 6.5,-9.9 l 0.2,-0.3 v 0 c 1.3,-2.7 2.7,-6.2 3.6,-8.9 0.8,-2.3 1.7,-5 1.9,-7.9 0.2,-2.4 -0.1,-4.9 -0.4,-7 -0.9,-6.6 -2.6,-13.2 -4.3,-19.5 -0.3,-1.1 -0.4,-2.2 -0.5,-3.3 -0.1,-1.1 -0.2,-2.2 -0.5,-3.3 -0.4,-1.6 -1.3,-3.2 -2.6,-4.9 -2.8,-3.6 -7.8,-7.3 -13.6,-6.6 -1.5,0.2 -2.9,0.6 -4.2,1.1 l -16.4,5.3 c -0.4,0.1 -0.9,0.3 -1.3,0.4 0.6,-1.5 0.9,-3.1 1,-4.4 0.1,-1.2 0.3,-2.5 0.3,-3.8 0.1,-1.8 0.1,-3.7 -0.1,-5.6 0,-0.6 0,-1.1 0.1,-1.7 0.2,0.1 0.5,0.2 0.8,0.1 0.4,-0.1 0.7,-0.3 0.9,-0.6 0.3,-0.6 0.1,-1.3 -0.5,-1.7 0,0 -0.1,0 -0.1,0 0.1,-0.1 0.1,-0.1 0.2,-0.2 3.5,-4.2 7.4,-7.4 11.8,-9.3 3.1,-1.4 6.4,-2.2 9.7,-2.3 0.7,1.5 1.5,3 2.2,4.5 l 0.1,0.2 c 2.1,4.3 4.2,8.8 7.8,12 1.3,1.2 2.9,2.3 5,3.5 5.4,3 11.4,4.6 16.9,4.7 1.7,1.4 3.5,2.7 5.2,3.8 0,0.1 0,0.3 0,0.4 0.1,0.4 0.5,0.6 0.8,0.6 0.8,1.6 1.3,3.3 1.5,5 0,0.2 0,0.4 0.1,0.6 0.1,0.9 0.2,1.7 0.6,2.6 0.4,0.8 1,1.6 1.9,2.4 1.4,1.2 3.9,1.7 5.9,1.3 0.1,0 0.3,-0.1 0.4,-0.1 0.2,0.2 0.4,0.4 0.6,0.5 1,0.7 2.2,0.9 3.3,0.7 1,-0.2 1.9,-0.6 2.7,-1.3 1.5,-1.3 2.3,-3.1 3,-4.8 l 0.1,-0.3 c 0.6,-1.5 1.2,-3 2.3,-4.1 0.1,-0.2 0.3,-0.3 0.5,-0.5 0.7,-0.7 1.5,-1.5 1.6,-2.7 0.1,-0.8 -0.3,-1.6 -0.5,-2.1 -2.3,-5.2 -5,-10.5 -7.6,-15.7 0,0 0,-0.1 0,-0.1 0,-0.1 0.1,-0.2 0.1,-0.3 0,-0.1 0,-0.2 0,-0.3 0.1,-0.2 0.2,-0.4 0.2,-0.6 0,-0.7 -0.5,-1.2 -1.1,-1.3 -0.2,0 -0.3,0 -0.5,0 -3.8,-7.5 -7.6,-15.3 -10.2,-23.1 l 0.8,-0.1 -0.5,-1.6 c -1.9,-5.7 -3.7,-11.1 -10.2,-16.9 4,-4.1 6.9,-7.9 9.2,-11.8 0.5,-0.8 1,-1.7 1.2,-2.7 0,-0.1 0.1,-0.4 0,-0.8 -0.1,-0.3 -0.3,-0.5 -0.6,-0.7 -0.5,-0.2 -1.1,0 -1.3,0.1 -1.4,0.6 -2.7,1.5 -3.8,2.5 0.2,-0.7 0.4,-1.2 0.5,-1.5 0,-0.1 0.1,-0.5 -0.1,-0.8 -0.2,-0.3 -0.6,-0.7 -1.3,-0.5 -1.5,0.4 -8.5,7.5 -11.6,12.3 -0.9,-0.3 -1.9,-0.6 -2.6,-0.7 -1.6,-0.7 -2.5,-1.4 -3.5,-2 l -0.2,-0.2 c -1.1,-0.8 -2.3,-1.7 -3.8,-1.7 -0.9,0 -1.7,0.4 -2.4,0.7 -0.6,0.3 -1.2,0.5 -1.8,0.5 -0.7,0 -1.5,-0.5 -2.2,-0.9 -0.1,-0.1 -0.3,-0.2 -0.4,-0.3 -1.5,-0.9 -2.9,-1.1 -4,-0.5 -0.4,0.2 -0.7,0.4 -0.9,0.7 -0.2,0.2 -0.4,0.3 -0.5,0.4 -0.8,0.5 -2,0 -3.2,-0.4 l -0.1,-0.1 c -1.3,-0.5 -3.3,-1.1 -5.2,-0.6 -0.8,0.2 -1.6,0.7 -2.3,1.1 -0.4,0.2 -0.7,0.4 -1.1,0.6 -1.3,0.7 -4.4,1 -6.2,0.5 -0.2,0 -0.4,0 -0.5,0 -0.7,-1.1 -1.3,-1.8 -1.8,-2.2 0.2,-0.5 0.3,-1.3 -0.2,-1.8 -0.6,-0.7 -1.8,-0.3 -2.2,-0.2 -4.5,1.7 -11.9,6.6 -12.8,7.2 0,0 -27,0.7 -27.3,0.7 0,0 0,0 0,0 -3.3,-4.1 -8.3,-10.2 -10.7,-13.2 0.5,-0.7 0.7,-1.3 0.7,-1.6 0,-0.7 -0.1,-1.8 -0.4,-2.7 0.3,-0.4 0.7,-0.7 1,-0.8 0.1,0 0.3,0 0.4,0.1 1,0.9 2.1,1.7 3.3,2.4 0.8,0.5 1.8,1 2.9,0.8 0.1,0 0.3,-0.1 0.4,-0.1 0.7,-0.3 1.2,-0.8 1.6,-1.3 0.5,-0.6 0.9,-1.3 1.4,-1.9 0.5,-0.7 1,-1.4 1.5,-2.1 0.9,-1.1 2,-2.1 3.2,-2.8 0.2,-0.1 0.5,-0.3 0.6,-0.7 0.1,-0.3 0,-0.5 0,-0.6 -0.5,-1.8 -1,-5.1 -0.3,-8.7 2.5,1 5,2.1 6.5,2.9 0.2,0.1 0.4,0.1 0.5,0.1 0.2,0 0.4,-0.2 0.6,-0.4 0.2,-0.4 0.1,-0.9 -0.3,-1.1 -1.2,-0.6 -3.1,-1.5 -5.2,-2.4 0.9,-4.1 -0.1,-8.9 -2.6,-12 -2.7,-3.2 -5.4,-5.5 -11.1,-6.6 -4.3,-0.9 -9.7,0.3 -13.2,2.9 -2.6,1.9 -4.3,4.9 -5,8.6 -0.6,3.1 -0.4,6.7 0.6,9.9 v 0.1 c 0.1,0.1 0.1,0.2 0.2,0.3 -0.2,0.2 -0.4,0.5 -0.6,0.8 l -0.1,0.1 c 0,0.1 -0.1,0.3 -0.1,0.4 -3.7,-0.7 -7.2,0.2 -9.5,1.1 -3.8,1.5 -7.1,3.8 -10.3,6.1 l -1,0.7 c -14.4,10.3 -29.8,18.5 -45.8,24.4 l -1.5,0.6 1.3,0.9 c 0.8,0.5 1.7,1.1 2.5,1.5 l 0.3,0.2 0.3,-0.1 c 2.4,-0.7 4.8,-1.4 7.1,-2.2 -0.5,0.4 -1,0.8 -1.5,1.2 0,0 0,0 0,0 -2.6,2.1 -5,4.4 -6.7,7.2 -1.4,2.3 -2.2,5.2 -2.1,8.1 0,3.1 1.2,5.4 3.9,7.3 2.3,1.6 4.9,2.4 7.3,3.1 0.9,0.3 1.8,0.5 2.7,0.8 1.1,0.6 2.3,1.3 3.6,2 4.8,2.7 10.1,5.7 14.7,8 -4.5,4.2 -10.3,7.9 -16.3,10.1 -6.6,2.5 -14.1,3.7 -22.9,4 -0.6,0 -1.1,0.4 -1.4,1 -0.2,0.6 0,1.2 0.4,1.6 0.8,0.7 1.6,1.2 2.6,1.8 -0.7,0.7 -1.1,1.6 -1.2,2.6 -0.1,1.2 0.5,2.5 1.5,3.3 -1.7,0.4 -3.5,0.9 -4.7,1.3 -0.2,0.1 -0.6,0.2 -0.8,0.6 -0.3,0.5 -0.1,1 0,1.2 0.3,0.7 0.6,1.5 1,2.2 0.1,0.1 0.1,0.3 0.2,0.4 -10,2.4 -20.3,3.7 -29.3,3.6 -0.6,0 -1.3,0 -1.9,0 -2.1,0 -4.3,-0.1 -6.5,0.1 -4.9,0.4 -9.6,1.8 -14,3.2 -3.4,1.1 -7,2.4 -11.3,4.1 -0.6,0.2 -1.1,0.4 -1.7,0.6 -3.6,1.4 -7.4,2.8 -10.9,4.7 -1.2,0.6 -2.3,1.3 -3.4,2 -1.2,-0.2 -2.5,-0.5 -3.9,-0.8 -3.7,-0.7 -7.8,-1.6 -11,-2.1 -3.1,-0.6 -6.6,-1.2 -10.1,-1.2 -5.9,0 -12.1,1.9 -18.4,5.5 -2.8,1.6 -5.1,3.3 -6.9,5 -4.3,4.1 -7,9.6 -7.8,15.4 -0.7,5.9 0.5,11.9 3.6,16.9 2.4,3.9 5.8,7.1 9,10.1 1.4,1.3 2.8,2.6 4.1,4 3.1,3.2 5.3,6.5 6.5,9.6 0.8,2.3 1.5,4.7 1,7.3 -1.4,0.2 -2.8,0.4 -4.1,1.1 -1.7,1 -2.8,2.7 -2.8,4.6 v 0.1 c 0.2,3.3 1.3,6.5 2.4,9.6 l 0.3,0.8 c 0.5,1.3 0.9,2.7 1.3,4 -0.6,3.6 -3.6,6.2 -6.3,8.2 -1.7,1.3 -3.5,2.5 -5.2,3.6 l -0.9,0.6 c -0.7,0.5 -1.6,1.1 -2.1,2.1 l -0.3,0.5 0.4,0.4 c 0.9,1.1 2.6,1.5 4.3,1 1,-0.3 1.8,-0.7 2.6,-1.2 0.2,-0.1 0.3,-0.2 0.5,-0.3 -0.1,0.2 -0.3,0.5 -0.3,0.8 0,0.7 0.5,1.3 1.2,1.6 0.4,0.1 0.7,0.1 1,0.1 v 0 c 0.6,0 1.2,-0.1 1.7,-0.2 2.8,-0.5 5.3,-1.8 7.1,-3.7 1.7,7 3,14.1 3.9,21.3 0.2,1.6 0.4,3.7 1.1,5.6 -0.5,0.8 -1,2 -1.4,3 -0.2,-0.1 -0.4,-0.2 -0.7,-0.3 -0.3,-0.1 -0.7,-0.2 -1.1,-0.2 0,0 0,0 -0.1,-0.1 -0.7,-0.8 -1.9,-1.1 -3.4,-0.7 -3.5,0.9 -6.9,3 -9.9,6 -2,2.1 -3.9,4.6 -6,7.9 0.4,0.1 0.4,0.7 0.6,1.1 z m 318.8,-177.8 c 0.1,0 0.1,0 0.2,0 0.2,0 0.4,-0.1 0.5,-0.2 0.1,0.1 0.3,0.3 0.4,0.4 -0.4,-0.2 -0.8,-0.2 -1.1,-0.2 z m -27,-23.1 c 2,0.1 3.9,0.4 5.7,1 0.2,0.6 0.3,1.1 0.5,1.7 0.6,1.9 1.4,4.1 2.6,6.1 0,0.1 -0.1,0.1 -0.1,0.2 -0.3,0.4 -0.2,0.9 0.2,1.1 0.2,0.1 0.4,0.2 0.6,0.1 0.1,0 0.2,-0.1 0.3,-0.1 1.9,2.3 4.6,4.1 8.3,5.5 1.4,0.5 2.7,0.9 3.9,1.2 1.2,1.5 2.5,2.9 4,4.3 0,0 0,0 0,0.1 -0.3,0.6 -0.2,1.3 0.4,1.7 0.1,0.1 0.2,0.1 0.3,0.1 -4.2,-0.6 -8.5,-2 -12.6,-4.3 -2,-1.1 -3.5,-2.1 -4.7,-3.2 -3.4,-3 -5.4,-7.4 -7.4,-11.5 l -0.1,-0.2 c -0.7,-1.3 -1.3,-2.5 -1.9,-3.8 z m 6.1,71.4 c 0.5,-1.1 0.8,-2.2 1.1,-3.3 0.3,0.3 0.7,0.6 1,0.9 0.3,0.2 0.5,0.4 0.7,0.6 -0.2,0.7 -0.5,1.4 -0.8,2.1 -0.5,-0.2 -1.2,-0.3 -2,-0.3 z m -120.1,-89.2 c 0.7,-0.1 1.3,-0.4 1.9,-0.6 l 11.5,-4 c 3.4,-1.2 6.8,-2.4 10.2,-3.8 2.8,-1.2 5.3,-2.6 7.4,-4 0.3,-0.2 3,-2.5 4.3,-3.8 l 9.4,7 c 0.6,0.5 1.3,0.9 2.1,1.2 -1,0.6 -1.9,1.4 -2.8,2.8 -0.4,0.2 -1,0.2 -1.6,0.1 -0.2,0 -0.4,0 -0.7,0 -2.1,-0.1 -4.3,0.9 -5.6,2.6 -0.2,0.2 -0.3,0.5 -0.5,0.7 -0.3,0.5 -0.6,0.9 -1,1.2 -0.6,0.4 -1.4,0.4 -2.3,0.5 h -0.1 c -1.8,0.1 -4.1,0.4 -5.5,2 -0.4,0.4 -0.6,0.9 -0.9,1.3 -0.1,0.2 -0.3,0.5 -0.4,0.7 -1,1.5 -1.8,2 -3.3,2.7 -0.3,0.1 -0.7,0.2 -1.1,0.3 -0.8,0.2 -1.7,0.4 -2.4,1 -0.4,-0.2 -0.8,-0.4 -1.3,-0.5 -0.7,0 -1.5,0.7 -1.8,1.1 -0.2,0.2 -0.3,0.4 -0.5,0.7 -0.1,0 -0.3,0 -0.5,0 h -0.1 c -0.7,0.1 -1.1,0.2 -1.4,0.4 -0.4,-0.3 -0.7,-0.6 -1.1,-0.8 -0.5,-0.4 -0.9,-0.7 -1.3,-1.1 -3.5,-2.8 -7.1,-5.4 -10.6,-7.7 z m -160.7,95.2 c -1.8,-2 -2.3,-5.2 -1.4,-8.2 1,-3.3 3.4,-5.6 5.3,-7.1 5.9,-4.5 14.5,-5.4 21.7,-2.5 -2.8,2.9 -5.2,6.1 -7.1,9.6 -1.3,2.2 -2,4.7 -2.6,6.8 -0.4,1.6 -0.8,3.3 -1.1,5.1 -1.6,-0.8 -3.4,-0.7 -4.9,-0.6 -0.3,0 -0.7,0 -1,0 -2.9,0.1 -6.6,-0.5 -8.9,-3.1 z m 18,109.1 c 0.1,-0.2 0.2,-0.4 0.2,-0.6 0,0.1 0.1,0.2 0.1,0.3 0,0.1 0,0.2 0,0.2 0,0 -0.1,0.1 -0.3,0.1 z m -6.7,-33.6 c 0.1,0 0.1,0 0,0 3.3,7.3 4.9,12.3 5.7,15.1 0.4,1.3 0.7,2.6 0.8,3.9 0.1,0.9 0.1,1.8 0,2.8 -0.1,-0.2 -0.1,-0.5 -0.2,-0.7 -1.9,-7.1 -3.7,-13.3 -5.6,-18.9 l -0.1,-0.2 c -0.1,-0.7 -0.4,-1.3 -0.6,-2 z"
     id="path7299"
     style="fill:#ffffff" />
  <path
     class="st5"
     d="m 1271,4206.8 c -2.7,9.4 -11.7,15 -19,16.8 -4.6,1.1 -4.6,-0.3 -13.6,0.4 -5.7,0.5 -9.9,1.4 -18.1,3.4 -15.7,3.6 -17.5,5.1 -20.8,3.8 -3.5,-1.4 -7.6,-5.4 -9.8,-17.4 4.9,-1.7 12,-4.5 20.1,-8.7 8.2,-4.2 10,-6.1 13.4,-5.6 9.1,1.2 9,15.7 18.8,18.3 7.3,2 17,-3.6 20.6,-11.2 4.3,-9.2 -1.4,-19.5 -2.2,-21 -3.5,-6.1 -8.9,-9.6 -7.6,-11.9 0.6,-1.1 2.4,-1.5 3.6,-1.3 2.5,0.3 4,3 5.3,5.4 6.8,12 7.2,9.9 8.5,14.1 0.9,3 2.6,8.6 0.8,14.9 z"
     id="path7301"
     style="fill:#dd8002" />
  <path
     class="st5"
     d="m 1287.3,4108 c 1.1,1.7 1.3,3.6 0.4,4.7 -0.8,1 -2.2,1.1 -2.7,1.1 -3,0.2 -4.2,-2.3 -6,-1.8 -1.3,0.4 -1,1.8 -3.1,4 -0.9,0.9 -2.5,2.6 -4.2,2.7 -3.6,0.2 -8.1,-6.2 -6.5,-9.8 1.1,-2.4 4.3,-2.9 6.9,-3.4 6.2,-1 11.6,0.8 15.2,2.5 z"
     id="path7303"
     style="fill:#dd8002" />
  <path
     d="m 1390.8,4170 c 0.1,0.4 0.2,0.9 0.1,1.4 -0.2,1.2 -1.3,2.2 -2.5,2.4 -0.1,0 -0.2,0 -0.4,0 -1.2,0.1 -2.4,-0.5 -3.1,-1.6 -0.4,-0.7 -0.6,-1.5 -0.5,-2.3 -0.4,0 -0.8,-0.1 -1.2,-0.3 -0.4,-0.3 -0.6,-0.6 -0.8,-0.9 -0.6,-0.9 -1.3,-2 -1.4,-3.3 0,-0.4 0.2,-0.8 0.6,-1 0.3,-0.1 0.8,0.3 1.2,1.5 0.2,0.7 0.6,1.3 1,1.9 0.1,0.1 0.2,0.3 0.3,0.4 0.2,0.1 0.6,0.1 0.8,0.1 0.4,0 0.7,-0.1 1.1,-0.1 1.6,-0.2 3.3,-0.4 4.9,0.3 0.4,0.2 0.6,0.7 0.4,1.1 -0.1,0.2 -0.3,0.3 -0.5,0.4 z"
     id="path7305" />
  <path
     d="m 1290.1,4115.4 c 1.1,-0.2 2.9,0.6 2.9,0.6 0.2,0.1 0.3,0.3 0.2,0.5 -0.1,0.1 -0.2,0.2 -0.3,0.2 -0.1,0 -0.2,0 -0.2,0 0,0 0,0 0,0 -0.1,0.1 -0.1,0.3 -0.3,0.4 -0.1,0.1 -0.3,0.2 -0.5,0.2 -0.1,0 -0.3,0 -0.5,0 -0.5,-0.1 -0.7,-0.3 -0.8,-0.5 -0.1,-0.2 -0.2,-0.4 -0.2,-0.6 0,0 -0.1,0 -0.1,0 0,0 0,0 0,0 -0.2,0 -0.4,-0.1 -0.5,-0.3 -0.1,-0.3 0,-0.5 0.3,-0.5 z"
     id="path7307" />
  <path
     d="m 1073.3,4311.8 c -0.2,-0.2 -0.3,-0.6 0,-0.9 0.2,-0.2 0.6,-0.3 0.9,0 0.4,0.4 1.3,0.3 2.5,-0.3 0.3,-0.1 0.6,-0.3 0.9,-0.4 2.8,-1.4 5.7,-2.8 8.9,-3 0.3,0 0.6,0.2 0.6,0.6 0,0.3 -0.2,0.6 -0.6,0.6 -2.9,0.1 -5.7,1.5 -8.4,2.9 -0.3,0.1 -0.6,0.3 -0.9,0.4 -0.3,0.2 -0.9,0.5 -1.6,0.6 -0.8,0.1 -1.7,0.1 -2.3,-0.5 z"
     id="path7309" />
  <path
     d="m 1218,4233.9 c -1,-0.3 -2,-0.8 -2.7,-1.7 -0.3,-0.3 -0.2,-0.9 0.1,-1.1 0.3,-0.3 0.9,-0.2 1.1,0.1 0.6,0.7 1.5,1 2.4,1.3 0.5,-0.7 1.1,-1.4 1.6,-2.1 0.3,-0.3 0.6,-0.7 1,-1 0.4,-0.3 0.6,-0.7 0.8,-1.2 l 0.4,-1 c 3,-7.5 6.1,-15.3 10.3,-22.3 1.7,-2.9 3.7,-5.7 5.8,-8.6 2.7,-3.7 5.7,-8 9.7,-11.1 0.9,-0.7 2.4,-1.7 3.8,-1.5 1,0.2 1.9,0.9 2.5,2 0.5,1 0.8,2.2 1,3.3 v 0 c 0.2,1.2 0.5,2.6 0.5,3.9 0,0.8 -11.3,11.8 -24.5,37.1 -0.2,0.4 -0.2,0.9 0,1.3 0,0.1 0.1,0.2 0.1,0.3 0,0 0,0 0,0 0.4,-0.1 0.9,0.2 0.9,0.7 0.1,0.4 -0.2,0.8 -0.5,0.9 0.1,0.5 0.3,1.1 0.4,1.6 0.2,0.6 0.3,1.2 0.5,1.8 0.5,1.6 1.1,3.3 2.5,5 v 0 h 0.1 c 0.2,0.1 0.6,0.2 1.1,0.4 1.7,-4.6 3.3,-9.2 4.8,-13.9 0.1,-0.4 0.6,-0.7 1,-0.5 0.4,0.1 0.7,0.6 0.5,1 -1.5,4.7 -3.1,9.4 -4.8,14 1.7,0.7 3.8,1.6 4.9,2.1 h 0.1 c 1.2,0.6 2.4,1.5 2.8,2.4 0.2,0.4 -0.1,0.9 -0.6,0.9 -3.2,-0.2 -6.1,-0.4 -9,-0.8 0,0.1 -0.1,0.2 -0.1,0.3 0.3,0 0.5,0 0.8,0 0.4,0 0.8,0.4 0.8,0.8 0,0.4 -0.3,0.7 -0.7,0.8 0,0 -0.1,0 -0.1,0 -1.2,0 -2.4,-0.1 -3.6,-0.4 -0.4,-0.1 -0.7,-0.5 -0.6,-1 0.1,-0.4 0.5,-0.7 1,-0.6 0.2,0.1 0.5,0.1 0.7,0.1 0,-0.1 0.1,-0.2 0.1,-0.3 -4.2,-0.6 -8.2,-1.6 -13,-3.1 -2.2,-0.7 -4.8,-1.6 -7.2,-3 -0.3,-0.2 -0.5,-0.5 -0.3,-0.8 1,-1.9 2.2,-4.1 3.6,-6.1 z"
     id="path7311" />
  <path
     d="m 1059.9,4383.2 c 0.2,0.5 0.7,0.8 1.2,0.8 3.6,0.3 11.7,0.6 13.1,0.6 h 0.4 v 0 c 0.6,0 1.2,-0.1 1.7,-0.2 v 0 c 1.8,-0.3 3.4,-1.2 4.9,-2 0.2,-0.1 0.3,-0.2 0.5,-0.3 0.6,-0.1 1.2,-0.2 1.8,-0.3 7.5,-1.4 14.6,-5.4 19.7,-11.1 1.4,-1.6 2.4,-3.1 3.1,-4.5 1.2,-2.6 0.9,-5.4 0.6,-8 0,-0.3 -0.1,-0.7 -0.1,-1 -0.1,-0.7 -0.3,-1.4 -0.5,-2.1 l -0.1,-0.3 c -0.9,-3.1 -1.9,-6.3 -2.8,-9.4 -0.7,-2.2 -1.4,-4.4 -2,-6.6 -0.8,-2.6 -1.5,-6.4 -0.6,-9.8 1,-3.7 4.3,-4 8,-4.4 0.4,0 0.8,-0.1 1.2,-0.1 2.4,-0.2 4.8,-0.4 7.1,-0.5 h 0.2 c 4.7,-0.3 9.6,-0.6 14.4,-1.7 6.6,-1.5 12.7,-4.4 18.7,-7.2 2.2,-1.1 4.6,-2.2 6.9,-3.2 l 0.3,-0.1 c 3.6,-1.6 7.7,-3.3 9.5,-7 0.9,-1.7 1.1,-3.6 1.4,-5.5 0.2,-1.1 0.3,-2.2 0.6,-3.2 1,-3.8 3.8,-6.7 5.9,-8.4 2.7,-2.2 6.8,-5.2 10.8,-6.8 6.2,-0.8 12.5,-0.7 18.7,-0.5 2.1,0.1 4.4,0.1 6.6,0.1 13.5,0.1 27.1,-1.4 40.3,-4.5 -0.1,0.3 -0.1,0.7 0,1 0.3,0.7 1.1,0.7 2,0.6 0.5,-0.1 1.1,-0.3 1.6,-0.4 v 0 c 1.2,-0.5 3,-1.3 5,-2.2 6.6,-2.9 16.5,-7.4 22.7,-8.6 0.4,-0.1 0.8,-0.2 1.1,-0.3 0.2,-0.1 0.7,-0.4 0.9,-1 0.1,-0.5 -0.1,-0.8 -0.3,-1.1 7.1,-3.7 14,-8.2 20.6,-12.6 3.3,1.4 7.3,-1 8.5,-2.1 0.7,-0.6 1.3,-1.3 1.8,-2 0.4,-0.5 0.8,-1 1.3,-1.4 1.1,-1.2 2.5,-2.2 3.8,-3.2 l 0.6,-0.5 c 4.4,-3.3 8.5,-7 12.5,-10.5 4.4,-3.9 9,-8 13.9,-11.5 0.7,0.6 1.4,0.9 1.9,1.1 0.1,0.1 0.3,0.1 0.4,0.2 1.6,2.6 0.2,11.9 -0.4,16 -0.1,0.6 -0.2,1.1 -0.2,1.5 -0.2,1.6 -0.5,3.2 -0.8,4.7 l -0.1,0.5 c -0.3,1.4 -0.6,2.9 -0.2,4.5 0.2,0.8 0.5,1.4 1,1.9 0.3,0.3 0.6,0.5 0.8,0.7 0.1,0.1 0.2,0.2 0.3,0.2 -0.2,1.3 -0.6,2.3 -1.1,3.4 -1.9,-0.8 -4.2,-0.6 -6,0.5 -0.3,0 -0.6,0.1 -1,0.2 -0.5,0.2 -0.9,0.4 -1.4,0.8 -0.8,0.7 -1.4,1.8 -1.8,3.1 -0.3,1.1 -0.4,2.2 -0.4,3.3 -0.1,3.1 0.1,6.2 0.6,9.3 0.3,1.6 0.6,3.2 1.4,4.6 0.2,0.3 0.5,0.5 0.8,0.5 0.1,0 0.2,0 0.3,0 0.2,0 0.4,-0.1 0.6,-0.3 v 0 c 2.9,-2.9 5.9,-5.9 8.8,-8.8 l 0.3,-0.3 v -0.1 c 0.1,-0.2 0.2,-0.4 0.4,-0.7 0.1,0.4 0.2,0.8 0.3,1.3 0.8,3 1.5,5.8 2.8,8.4 0.5,0.9 1.1,0.9 1.4,0.9 v 0 c 0.5,-0.1 0.7,-0.4 0.9,-0.6 2.3,-3.2 4.5,-6.5 6.5,-9.9 l 0.2,-0.3 v 0 c 1.3,-2.7 2.7,-6.2 3.6,-8.9 0.8,-2.3 1.7,-5 1.9,-7.9 0.2,-2.4 -0.1,-4.9 -0.4,-7 -0.9,-6.6 -2.6,-13.2 -4.3,-19.5 -0.3,-1.1 -0.4,-2.2 -0.5,-3.3 -0.1,-1.1 -0.2,-2.2 -0.5,-3.3 -0.4,-1.6 -1.3,-3.2 -2.6,-4.9 -2.8,-3.6 -7.8,-7.3 -13.6,-6.6 -1.5,0.2 -2.9,0.6 -4.2,1.1 l -16.4,5.3 c -0.4,0.1 -0.9,0.3 -1.3,0.4 0.6,-1.5 0.9,-3.1 1,-4.4 0.1,-1.2 0.3,-2.5 0.3,-3.8 0.1,-1.8 0.1,-3.7 -0.1,-5.6 0,-0.6 0,-1.1 0.1,-1.7 0.2,0.1 0.5,0.2 0.8,0.1 0.4,-0.1 0.7,-0.3 0.9,-0.6 0.3,-0.6 0.1,-1.3 -0.5,-1.7 0,0 -0.1,0 -0.1,0 0.1,-0.1 0.1,-0.1 0.2,-0.2 3.5,-4.2 7.4,-7.4 11.8,-9.3 3.1,-1.4 6.4,-2.2 9.7,-2.3 0.7,1.5 1.5,3 2.2,4.5 l 0.1,0.2 c 2.1,4.3 4.2,8.8 7.8,12 1.3,1.2 2.9,2.3 5,3.5 5.4,3 11.4,4.6 16.9,4.7 1.7,1.4 3.5,2.7 5.2,3.7 0,0.1 0,0.3 0,0.4 0.1,0.4 0.5,0.6 0.8,0.6 0.8,1.6 1.3,3.3 1.5,5 0,0.2 0,0.4 0.1,0.6 0.1,0.9 0.2,1.8 0.6,2.6 0.4,0.8 1,1.6 1.9,2.4 1.4,1.2 3.9,1.7 5.9,1.3 0.1,0 0.3,-0.1 0.4,-0.1 0.2,0.2 0.4,0.4 0.6,0.5 1,0.7 2.2,0.9 3.3,0.7 1,-0.2 1.9,-0.7 2.7,-1.3 1.5,-1.3 2.3,-3.1 3,-4.8 l 0.1,-0.3 c 0.6,-1.5 1.2,-3 2.3,-4.1 0.1,-0.2 0.3,-0.3 0.5,-0.5 0.7,-0.7 1.5,-1.5 1.6,-2.7 0.1,-0.8 -0.3,-1.6 -0.5,-2.1 -2.3,-5.2 -5,-10.5 -7.6,-15.7 0,0 0,-0.1 0,-0.1 0,-0.1 0.1,-0.2 0.1,-0.3 0,-0.1 0,-0.2 0,-0.3 0.1,-0.2 0.2,-0.4 0.2,-0.6 0,-0.7 -0.5,-1.2 -1.1,-1.3 -0.2,0 -0.3,0 -0.5,0 -3.8,-7.5 -7.6,-15.3 -10.2,-23.1 l 0.8,-0.1 -0.5,-1.5 c -1.9,-5.7 -3.7,-11.1 -10.2,-16.9 4,-4.1 6.9,-7.9 9.2,-11.8 0.5,-0.8 1,-1.7 1.2,-2.7 0,-0.1 0.1,-0.4 0,-0.8 -0.1,-0.3 -0.3,-0.5 -0.6,-0.7 -0.5,-0.2 -1.1,0 -1.3,0.1 -1.4,0.6 -2.7,1.5 -3.8,2.5 0.2,-0.7 0.4,-1.2 0.5,-1.5 0,-0.1 0.1,-0.5 -0.1,-0.8 -0.2,-0.3 -0.6,-0.7 -1.3,-0.5 -1.5,0.4 -8.5,7.5 -11.6,12.3 -0.9,-0.3 -1.9,-0.6 -2.6,-0.7 -1.6,-0.7 -2.5,-1.4 -3.5,-2.1 l -0.2,-0.2 c -1.1,-0.8 -2.3,-1.7 -3.8,-1.7 -0.9,0 -1.7,0.4 -2.4,0.7 -0.6,0.3 -1.2,0.5 -1.8,0.5 -0.7,0 -1.5,-0.5 -2.2,-0.9 -0.1,-0.1 -0.3,-0.2 -0.4,-0.3 -1.5,-0.9 -2.9,-1.1 -4,-0.5 -0.4,0.2 -0.7,0.4 -0.9,0.7 -0.2,0.2 -0.4,0.3 -0.5,0.4 -0.8,0.5 -2,0 -3.2,-0.4 h -0.1 c -1.3,-0.5 -3.3,-1.1 -5.2,-0.6 -0.8,0.2 -1.6,0.7 -2.3,1.1 -0.4,0.2 -0.7,0.4 -1.1,0.6 -1.3,0.7 -4.4,1 -6.2,0.5 -0.2,0 -0.4,0 -0.5,0 -0.7,-1.1 -1.3,-1.8 -1.8,-2.2 0.2,-0.5 0.3,-1.3 -0.2,-1.8 -0.6,-0.7 -1.8,-0.3 -2.2,-0.2 -4.5,1.7 -11.9,6.6 -12.8,7.2 0,0 -27,0.7 -27.3,0.7 0,0 0,0 0,0 -4.4,-5.5 -11.9,-14.7 -12.1,-15 -0.7,-1 -1.4,-2.1 -2.2,-3 -2.6,-3.1 -7.9,-7.5 -11.7,-7.5 -0.5,0 -0.3,-0.9 0.7,-0.9 3.8,0 9.1,4.4 11.7,7.5 0.8,0.9 1.5,2 2.2,3 0.4,0.6 0.8,1.2 1.2,1.7 0,0 0.1,0 0.1,0 0.1,-0.1 0.2,-0.4 0.2,-0.7 0,-0.7 -0.1,-1.8 -0.3,-2.7 0.3,-0.5 0.7,-0.7 1,-0.8 0.1,0 0.3,0 0.4,0.1 1,0.9 2.1,1.7 3.3,2.4 0.8,0.5 1.8,1 2.9,0.8 0.1,0 0.3,-0.1 0.4,-0.1 0.7,-0.3 1.2,-0.8 1.6,-1.3 0.5,-0.6 0.9,-1.3 1.4,-1.9 0.5,-0.7 1,-1.4 1.5,-2.1 0.9,-1.1 2,-2.1 3.2,-2.8 0.2,-0.1 0.5,-0.3 0.6,-0.7 0.1,-0.3 0,-0.5 0,-0.6 -0.5,-1.8 -1,-5.1 -0.3,-8.7 2.5,1 5,2.1 6.5,2.9 0.2,0.1 0.4,0.1 0.5,0.1 0.2,0 0.4,-0.2 0.6,-0.4 0.2,-0.4 0.1,-0.9 -0.3,-1.1 -1.2,-0.6 -3.1,-1.5 -5.2,-2.4 0.9,-4.1 -0.1,-8.9 -2.6,-12 -2.7,-3.2 -5.4,-5.5 -11.1,-6.6 -4.3,-0.9 -9.7,0.3 -13.2,2.9 -2.6,1.9 -4.3,4.9 -5,8.6 -0.6,3.1 -0.4,6.7 0.6,9.9 v 0.1 c 0.1,0.1 0.1,0.2 0.2,0.3 -0.2,0.2 -0.4,0.5 -0.6,0.8 l -0.1,0.1 c 0,0.1 -0.1,0.3 -0.1,0.4 -3.7,-0.7 -7.2,0.2 -9.5,1.1 -3.8,1.5 -7.1,3.8 -10.3,6.1 l -1,0.7 c -14.4,10.3 -29.8,18.5 -45.8,24.4 l -1.5,0.6 1.3,0.9 c 0.8,0.5 1.7,1.1 2.5,1.5 l 0.3,0.2 0.3,-0.1 c 2.4,-0.7 4.8,-1.4 7.1,-2.2 -0.5,0.4 -1,0.8 -1.5,1.2 0,0 0,0 0,0 -2.6,2.1 -5,4.4 -6.7,7.2 -1.4,2.3 -2.2,5.2 -2.1,8.1 0,3.1 1.2,5.4 3.9,7.3 2.3,1.6 4.9,2.4 7.3,3.1 0.9,0.3 1.8,0.5 2.7,0.8 1.1,0.6 2.3,1.3 3.6,2 4.8,2.7 10.1,5.7 14.7,8 -4.5,4.2 -10.3,7.9 -16.3,10.1 -6.6,2.5 -14.1,3.7 -22.9,4 -0.6,0 -1.1,0.4 -1.4,1 -0.2,0.6 0,1.2 0.4,1.6 0.8,0.6 1.6,1.2 2.6,1.8 -0.7,0.7 -1.1,1.6 -1.2,2.6 -0.1,1.2 0.5,2.5 1.5,3.3 -1.7,0.4 -3.5,0.9 -4.7,1.3 -0.2,0.1 -0.6,0.2 -0.8,0.6 -0.3,0.5 -0.1,1 0,1.2 0.3,0.7 0.6,1.5 1,2.2 0.1,0.1 0.1,0.3 0.2,0.4 -10,2.4 -20.3,3.7 -29.3,3.6 -0.6,0 -1.3,0 -1.9,0 -2.1,0 -4.3,-0.1 -6.5,0.1 -4.9,0.4 -9.6,1.8 -14,3.2 -3.4,1.1 -7,2.4 -11.3,4.1 -0.6,0.2 -1.1,0.4 -1.7,0.6 -3.6,1.4 -7.4,2.8 -10.9,4.7 -1.2,0.6 -2.3,1.3 -3.4,2 -1.2,-0.2 -2.5,-0.5 -3.9,-0.8 -3.7,-0.7 -7.8,-1.6 -11,-2.1 -3.1,-0.6 -6.6,-1.2 -10.1,-1.2 -5.9,0 -12.1,1.9 -18.4,5.5 -2.8,1.6 -5.1,3.3 -6.9,5 -4.3,4.1 -7,9.6 -7.8,15.4 -0.7,5.9 0.5,11.9 3.6,16.9 2.4,3.9 5.8,7.1 9,10.1 1.4,1.3 2.8,2.6 4.1,4 3.1,3.2 5.3,6.5 6.5,9.6 0.8,2.3 1.5,4.7 1,7.3 -1.4,0.2 -2.8,0.4 -4.1,1.1 -1.7,1 -2.8,2.7 -2.8,4.6 v 0.1 c 0.2,3.3 1.3,6.5 2.4,9.6 l 0.3,0.8 c 0.5,1.3 0.9,2.7 1.3,4 -0.6,3.6 -3.6,6.2 -6.2,8.2 -1.7,1.3 -3.5,2.5 -5.2,3.6 l -0.9,0.6 c -0.7,0.5 -1.6,1.1 -2.1,2.1 l -0.2,0.5 0.4,0.4 c 0.9,1.1 2.6,1.5 4.3,1 1,-0.3 1.8,-0.7 2.6,-1.2 0.2,-0.1 0.3,-0.2 0.5,-0.3 -0.1,0.2 -0.3,0.5 -0.3,0.8 0,0.7 0.5,1.3 1.2,1.6 0.4,0.1 0.7,0.1 1,0.1 v 0 c 0.6,0 1.2,-0.1 1.7,-0.2 2.8,-0.5 5.3,-1.8 7.1,-3.7 1.7,7 3,14.1 3.9,21.3 0.2,1.6 0.4,3.7 1.1,5.6 -0.5,0.8 -1,2 -1.4,3 -0.2,-0.1 -0.4,-0.2 -0.7,-0.3 -0.3,-0.1 -0.7,-0.2 -1.1,-0.2 0,0 0,-0.1 -0.1,-0.1 -0.7,-0.8 -1.9,-1.1 -3.4,-0.7 -3.5,0.9 -6.9,3 -9.9,6 -2,2.1 -3.9,4.6 -6,7.9 0,0.2 0,0.8 0.2,1.2 z m 214.2,-264.4 c 1,-0.5 2,-1.3 2.3,-2 0,0 0,0 0,0 0.2,0.4 0.5,0.9 0.9,1.2 0.1,0.1 0.2,0.1 0.4,0.1 0.1,0 0.2,-0.1 0.2,-0.1 0.2,-0.2 0.2,-0.4 0,-0.6 -0.5,-0.4 -0.8,-1 -0.9,-1.6 0.2,-0.4 0.4,-0.8 0.6,-1.2 v 0 c 0.2,-0.5 0.5,-1 0.8,-1.3 0.5,-0.3 1.2,-0.2 1.7,0 0.5,0.2 1,0.5 1.5,0.8 0.2,0.1 0.4,0.3 0.7,0.4 0.7,0.4 1.8,1 3,0.9 1.1,-0.1 2.2,-0.8 2.7,-1.9 0.4,-0.7 0.6,-1.8 0.6,-2.8 0.2,0 0.3,0.1 0.5,0.1 1.2,0.3 3,0.9 4.9,1.6 -0.8,3.8 -0.2,7.5 0.3,9.4 0,0 0,0 0,0 -1.3,0.9 -2.5,1.9 -3.4,3.1 -0.2,0.2 -0.3,0.4 -0.5,0.6 -0.3,-0.2 -0.5,-0.4 -0.7,-0.7 -0.2,-0.3 -0.6,-0.3 -0.9,-0.1 -0.3,0.2 -0.3,0.6 -0.1,0.9 0.3,0.4 0.6,0.7 1,0.9 -0.1,0.2 -0.3,0.4 -0.4,0.6 -0.4,0.6 -0.9,1.3 -1.3,1.8 -0.3,0.4 -0.7,0.8 -1.1,0.9 -0.7,0.3 -1.6,-0.2 -2.3,-0.6 -1,-0.6 -1.9,-1.2 -2.7,-1.9 -0.6,-0.5 -1.5,-0.6 -2.2,-0.1 -0.3,0.2 -0.6,0.4 -0.7,0.5 -0.2,-0.6 -0.4,-1.2 -0.6,-1.8 -0.1,-0.2 -0.5,-1.1 -0.6,-1.3 -0.5,-1.2 -1.2,-2.4 -2.1,-3.7 v 0 c -0.4,-0.7 -1,-1.4 -1.6,-2.1 z m -3.4,-3.2 c 1.3,-0.1 2.5,-0.4 3,-0.7 1.4,-0.7 2,-1.9 2.5,-3 0.7,-1.3 1.1,-2.1 2.7,-2.1 3.1,0 5.7,0.2 8,0.6 0,0.8 -0.2,1.8 -0.4,2.3 -0.3,0.6 -0.9,1 -1.5,1 -0.5,0.1 -1.2,-0.1 -2,-0.6 -0.2,-0.1 -0.4,-0.3 -0.6,-0.4 -0.6,-0.4 -1.1,-0.7 -1.8,-1 -1.2,-0.5 -2.4,-0.4 -3.3,0.2 -0.7,0.5 -1.1,1.3 -1.4,2 v 0 c -0.3,0.7 -0.7,1.5 -1.1,2.2 -0.3,0.5 -1.4,1.3 -2.1,1.5 -0.5,-0.8 -1.3,-1.4 -2,-2 z m -187.4,252.3 c 0.2,0.4 0.5,0.8 0.7,1.2 -0.2,0.1 -0.4,0.3 -0.6,0.4 -0.1,0.1 -0.2,0.2 -0.3,0.2 -0.2,0.1 -0.4,0.3 -0.6,0.5 0.1,-0.6 0.4,-1.5 0.8,-2.3 z m 19.3,-125.9 c -2.8,2.9 -5.2,6.1 -7.1,9.6 -1.3,2.2 -2,4.7 -2.6,6.8 -0.4,1.6 -0.8,3.3 -1.1,5.1 -1.6,-0.8 -3.4,-0.7 -4.9,-0.6 -0.3,0 -0.7,0 -1,0 -2.8,0 -6.6,-0.5 -8.8,-3.1 -1.8,-2 -2.3,-5.2 -1.4,-8.2 1,-3.3 3.4,-5.6 5.3,-7.1 5.8,-4.5 14.4,-5.4 21.6,-2.5 z m 116.8,-62.7 c 4.9,1.4 10,2.8 15,4.2 -0.7,0.9 -1.5,1.8 -2.4,2.7 -3.8,-1.9 -8.4,-4.5 -12.6,-6.9 z m -2.3,-32.7 c -1,1.5 -2.2,2.9 -3.5,4.2 -0.7,-0.4 -1.5,-0.7 -2.2,-1 0.7,-0.6 1.4,-1.1 2.1,-1.7 1.2,-0.5 2.4,-1 3.6,-1.5 z m 67.4,9.9 c -1,0.6 -1.9,1.4 -2.8,2.8 -0.4,0.2 -1,0.2 -1.6,0.1 -0.2,0 -0.4,0 -0.7,0 -2.1,-0.1 -4.3,0.9 -5.6,2.6 -0.2,0.2 -0.3,0.5 -0.5,0.7 -0.3,0.5 -0.6,0.9 -1,1.2 -0.6,0.4 -1.4,0.4 -2.3,0.5 h -0.1 c -1.8,0.1 -4.1,0.4 -5.5,2 -0.4,0.4 -0.6,0.9 -0.9,1.3 -0.1,0.2 -0.3,0.5 -0.4,0.7 -1,1.5 -1.8,2 -3.3,2.7 -0.3,0.1 -0.7,0.2 -1.1,0.3 -0.8,0.2 -1.7,0.4 -2.4,0.9 -0.4,-0.2 -0.8,-0.4 -1.3,-0.5 -0.7,0 -1.5,0.7 -1.8,1.1 -0.2,0.2 -0.3,0.4 -0.5,0.7 -0.1,0 -0.3,0 -0.5,0 h -0.1 c -0.7,0.1 -1.1,0.2 -1.4,0.4 -0.4,-0.3 -0.7,-0.6 -1.1,-0.8 -0.4,-0.4 -0.9,-0.7 -1.3,-1.1 -3.5,-2.8 -7.1,-5.4 -10.6,-7.7 0.7,-0.1 1.3,-0.4 1.9,-0.6 l 11.5,-4 c 3.4,-1.2 6.8,-2.4 10.2,-3.8 2.8,-1.2 5.3,-2.6 7.4,-4 0.3,-0.2 3,-2.5 4.3,-3.8 l 9.4,7 c 0.6,0.7 1.4,1.1 2.1,1.3 z m -14.8,52.4 c -1.7,3.9 -4.7,7.2 -8.4,9.6 -0.4,-1.1 -0.7,-2.2 -1.1,-3.3 6.1,-5.1 9.2,-13.6 7.8,-21.5 -0.1,-0.4 -0.1,-0.7 -0.2,-1.1 0.5,-0.4 1,-0.7 1.5,-1 2,5 3.1,11.2 0.4,17.3 z m -1.1,-22.2 c -2.5,-4.3 -5.4,-8.1 -8.8,-11.4 3.4,-2.3 7.1,-4.5 10.9,-6.7 3.9,3.6 9.5,9.7 13.2,14.4 -0.1,0.1 -0.1,0.2 -0.2,0.3 -0.1,0.2 -0.1,0.4 -0.2,0.6 -4.9,1 -9.4,2.7 -13.6,5.3 -0.4,-0.8 -0.9,-1.7 -1.3,-2.5 z m -14.5,-12.4 c 0.2,-0.3 0.6,-0.7 0.8,-0.8 0.3,0.1 0.6,0.3 0.9,0.6 4.5,3.6 8.3,8.2 11.3,13.5 0.5,0.8 0.9,1.7 1.4,2.6 -0.4,0.3 -0.8,0.6 -1.2,0.8 -2.1,-7 -6.8,-13.1 -13.2,-16.7 z m 77.2,-34.5 c 0,0 0,0 0,0 v 0 c -0.1,0 -0.9,-0.1 -2.3,0 0.4,-0.2 0.8,-0.4 1.2,-0.5 0.7,-0.2 1,-0.1 1.1,-0.1 0.1,0.1 0.1,0.3 0,0.6 z m 2.5,5 c -0.1,0 -0.1,0 -0.2,0 l -5.1,0.6 c -0.2,0 -0.4,0.2 -0.4,0.5 0,0.2 0.2,0.4 0.4,0.4 l 4.7,-0.5 c -0.5,0.5 -1.3,0.9 -2,1 -0.3,0 -0.6,0.1 -1,0.1 -1.4,0.1 -3.2,0.3 -4.6,1.8 -1,1.1 -2.2,1.7 -3.5,1.8 -1.3,0.1 -2.8,-0.1 -4.3,-0.6 0.2,-1.6 -0.3,-2.7 -0.6,-3.3 0,0 3.9,-2.5 7.6,-4.6 3.5,-1.4 5.8,-1.2 6.1,-1.2 0.1,0 0.3,0.2 0.7,0.5 l -4.7,0.6 c -0.2,0 -0.4,0.2 -0.4,0.5 0,0.3 0.2,0.4 0.5,0.4 l 5.3,-0.7 c 0.2,0.3 0.4,0.6 0.7,1 l -5.3,0.6 c -0.2,0 -0.4,0.2 -0.4,0.5 0,0.2 0.2,0.4 0.5,0.4 l 5.7,-0.7 c 0.1,0.1 0.1,0.2 0.2,0.3 0.2,0.1 0.2,0.3 0.1,0.6 z m 67.2,45.9 c -4.3,0 -8.4,0.9 -12.2,2.7 -0.3,0.1 -0.5,0.2 -0.8,0.4 -2,-4.1 -4.2,-8.2 -6.3,-12.2 -3.8,-7.1 -7.7,-14.5 -10.9,-21.9 0.1,-1 0.3,-1.9 0.4,-2.9 0.8,1.1 1.8,2.3 2.4,3 0.2,0.2 0.5,0.6 1,0.8 0.5,0.2 1.1,0 1.4,0 2.1,-0.5 4.3,-0.8 6.5,-0.9 0.7,0 1.5,0 2.1,0.2 0.6,0.2 1.1,0.7 1.5,1.1 1.2,1.1 1.9,2.6 2.7,4.1 0.2,0.3 0.3,0.7 0.5,1 0.2,0.5 0.7,0.9 1.2,1.3 v 0 c 2.9,7.8 6.7,15.6 10.5,23.3 z m -19.6,6.5 c -0.2,-0.4 -0.7,-0.6 -1.1,-0.3 -2.5,1.3 -5.9,1.2 -10,-0.5 -3.6,-1.4 -6.2,-3.2 -7.9,-5.4 2.1,-3.4 3.3,-7.3 4.3,-10.7 1.4,-4.8 2.3,-8.8 3,-12.6 0.2,-1.4 0.5,-2.9 0.7,-4.4 1,3 2,5.6 3.2,8.5 0.7,1.7 1.5,3.3 2.2,5 l 0.6,1.4 c 2.6,5.7 5.1,11.7 7.6,18.2 -2.1,1.6 -3.9,3.5 -5.5,5.8 -0.9,-0.9 -1.7,-1.8 -2.5,-2.7 0.9,0 1.7,0 2.4,-0.2 0.9,-0.2 1.8,-0.5 2.6,-0.9 0.5,-0.3 0.6,-0.8 0.4,-1.2 z m 4,-2 c -2,-5.2 -4,-10.1 -6.1,-14.8 0.3,0.6 0.7,1.2 1,1.9 2.1,4 4.3,8.1 6.3,12.2 -0.4,0.2 -0.8,0.5 -1.2,0.7 z m 2.1,10 c 0,-0.5 0.2,-1.1 0.6,-1.4 0.2,-0.1 0.3,-0.2 0.5,-0.3 0.1,0 0.2,-0.1 0.3,-0.1 0.1,0 0.2,0 0.3,0 0.7,0 1.4,0.5 1.6,1.1 0.2,0.7 0,1.5 -0.6,1.9 -0.6,0.4 -1.4,0.4 -2,0 -0.4,-0.2 -0.7,-0.7 -0.7,-1.2 z m 14.9,-11.9 c -1.3,2.7 -6.5,10.1 -10.8,14.3 0,-0.1 0,-0.1 0,-0.2 0.8,-0.9 1.1,-2.2 0.7,-3.3 -0.4,-1.3 -1.8,-2.3 -3.1,-2.3 -0.4,0 -0.7,0.1 -1.1,0.2 -0.1,0 -0.1,0.1 -0.2,0.1 -0.5,-1.5 -1.1,-3 -1.6,-4.5 0.6,-0.4 1.3,-0.9 2,-1.2 0.1,0 0.1,0 0.2,-0.1 0.1,0 0.1,-0.1 0.2,-0.1 0.4,-0.2 0.8,-0.4 1.2,-0.6 3.9,-1.8 8,-2.6 12.4,-2.4 0,0 0,0.1 0.1,0.1 z m -9.5,16.4 c -0.2,-0.3 -0.7,-0.4 -1,-0.2 4.3,-3.8 9.2,-10.8 11.3,-14.4 2.4,4.8 4.9,9.8 7.1,14.6 0.2,0.5 0.4,0.9 0.4,1.3 0,0.6 -0.6,1.1 -1.2,1.7 -0.2,0.2 -0.3,0.3 -0.5,0.5 -0.5,0.6 -0.9,1.2 -1.3,1.8 -0.3,-0.2 -0.8,-0.2 -1,0.1 -0.4,0.4 -0.6,0.4 -0.6,0.4 0,0 0,-0.1 0,-0.1 0,-0.1 0,-0.3 0,-0.5 0.3,-1.2 1.2,-2.2 2.2,-3.3 0,0 0.2,-0.2 0.2,-0.2 0.4,-0.1 0.7,-0.4 0.7,-0.9 0,-0.4 -0.4,-0.8 -0.9,-0.7 -0.6,0.1 -1,0.5 -1.2,0.7 -1.2,1.2 -2.3,2.4 -2.6,4 -0.1,0.5 -0.1,0.9 0,1.3 0.1,0.6 0.6,1.1 1.1,1.3 0.3,0.1 0.6,0.1 0.8,0.1 0.1,0 0.3,-0.1 0.4,-0.1 -0.1,0.3 -0.2,0.6 -0.4,0.9 l -0.1,0.3 c -0.6,1.6 -1.4,3.2 -2.6,4.2 -1,0.9 -2.8,1.4 -4,0.5 -0.4,-0.3 -0.7,-0.7 -1,-1.3 -0.5,-0.9 -0.8,-1.8 -1.1,-2.8 -0.1,-0.3 -0.2,-0.6 -0.3,-1 -1,-3 -2.5,-5.7 -4.4,-8.2 z m -3.5,1.6 c 0.7,-0.4 1.4,-0.9 2.2,-1.6 -0.2,0.3 -0.2,0.7 0,0.9 1.8,2.3 3.2,4.9 4.1,7.7 0.1,0.3 0.2,0.6 0.3,0.9 0.3,1 0.6,2 1.1,3 -1.5,0.2 -3.3,-0.2 -4.3,-1 -0.7,-0.6 -1.2,-1.2 -1.4,-1.8 -0.3,-0.6 -0.4,-1.4 -0.4,-2.1 0,-0.2 0,-0.4 -0.1,-0.6 -0.1,-1.8 -0.7,-3.7 -1.5,-5.4 z m -5,-4.2 c 0.7,0 1.3,-0.1 2,-0.2 0.2,0.3 0.5,0.6 0.8,0.9 0.7,0.5 1.7,0.7 2.5,0.5 0.2,0 0.4,-0.1 0.5,-0.1 0.1,0.1 0.3,0.1 0.4,0.1 -0.8,0.7 -1.6,1.3 -2.3,1.6 -0.2,-0.2 -0.4,-0.3 -0.6,-0.4 -1,-0.6 -2.1,-1.5 -3.3,-2.4 z m -4.1,-3.3 c 1.3,-2 2.9,-3.7 4.6,-5.2 0.6,1.5 1.1,3 1.6,4.5 -0.4,0.6 -0.7,1.3 -0.7,2.1 0,0 0,0.1 0,0.1 -1.1,0.2 -2.3,0.2 -3.5,0.2 -0.6,-0.5 -1.3,-1.1 -2,-1.7 z m -1.6,1.6 c 0.1,0 0.1,0 0.2,0 0.2,0 0.4,-0.1 0.5,-0.2 0.1,0.1 0.3,0.3 0.4,0.4 -0.4,-0.2 -0.8,-0.2 -1.1,-0.2 z m -27,-23.1 c 2,0.1 3.9,0.4 5.7,1 0.2,0.6 0.3,1.1 0.5,1.7 0.6,1.9 1.4,4.1 2.6,6.1 0,0.1 -0.1,0.1 -0.1,0.2 -0.3,0.4 -0.2,0.9 0.2,1.1 0.2,0.1 0.4,0.2 0.6,0.1 0.1,0 0.2,-0.1 0.3,-0.1 1.9,2.3 4.6,4.1 8.3,5.5 1.4,0.5 2.7,0.9 3.9,1.2 1.2,1.5 2.5,2.9 4,4.3 0,0 0,0.1 0,0.1 -0.3,0.6 -0.2,1.3 0.4,1.7 0.1,0.1 0.2,0.1 0.3,0.1 -4.2,-0.6 -8.5,-2 -12.6,-4.2 -2,-1.1 -3.5,-2.1 -4.7,-3.2 -3.4,-3 -5.4,-7.4 -7.4,-11.5 l -0.1,-0.2 c -0.7,-1.4 -1.3,-2.6 -1.9,-3.9 z m -16.7,-32 c -0.6,-1.1 -1.8,-2.6 -2.2,-3.2 0.4,-0.2 0.8,-0.5 1.1,-0.8 0.1,0 0.2,0 0.4,0 2.6,-0.5 5.8,-0.8 7.6,-1 8,-0.8 18.6,-1.5 29.3,0.7 0.2,0 0.4,0.1 0.6,0.1 -0.7,2.5 -1.3,5.2 -1.8,8 -0.1,0.2 -0.1,0.4 -0.1,0.6 -0.3,1.6 -0.5,3.2 -0.7,4.8 0,0 0,0 0,0.1 0,0 0,0 0,0.1 0,0 0,0.1 0,0.1 0,0 0,0 0,0 -0.1,0.4 -0.1,0.8 -0.2,1.2 -0.3,2.3 -0.6,4.4 -1,6.5 -0.7,3.8 -1.6,7.7 -2.9,12.5 -0.9,3.2 -2,6.6 -3.7,9.7 -0.9,-1.6 -1.5,-3.3 -2,-5 -0.7,-2.2 -1.4,-4.6 -1.6,-7 -0.6,-6.5 2.7,-13.4 8.1,-17.1 0.4,-0.3 0.5,-0.8 0.2,-1.1 -0.3,-0.4 -0.8,-0.5 -1.1,-0.2 -6,4.1 -9.5,11.4 -8.8,18.6 0.1,1.3 0.3,2.6 0.7,3.8 -1.9,-0.5 -3.9,-0.8 -6,-0.8 -5,-10.5 -10.3,-20.7 -15.9,-30.6 z m -48.1,32.8 c 0,0 0,0 0,0 -0.4,-0.4 -0.9,-0.7 -1.4,-0.8 h -0.1 c 0,0 -0.1,0 -0.1,0 -3.6,-4.7 -9.2,-10.8 -13.2,-14.5 9.3,-5.1 19.4,-9.6 29,-12.8 1.4,0 13.4,-1.1 16.1,-1.4 0.3,0 0.5,-0.3 0.5,-0.6 0,-0.5 0,-1.4 0,-2.3 1.6,0.5 3.1,0.7 4.5,0.6 0.2,0 0.3,0 0.5,-0.1 1.3,-0.2 2.6,-1 3.6,-2.1 1.1,-1.2 2.6,-1.4 4,-1.5 0.3,0 0.6,-0.1 0.9,-0.1 0,0.1 0.1,0.2 0.2,0.3 0,0 1.6,2 2.2,3.1 5.4,9.7 10.5,19.6 15.4,29.6 -3.2,0.2 -6.5,1 -9.6,2.4 -4.5,2.1 -8.7,5.4 -12.4,9.8 -0.1,0.2 -0.3,0.3 -0.4,0.5 -12.8,-6.4 -28.5,-9 -39.7,-10.1 z m -1.5,0.9 c 0,0 0,0 0,0 0,0.1 0,0.2 0,0.2 0,0.1 0,0.1 0,0.2 -0.1,0 -0.1,-0.1 -0.2,-0.1 0,0 -0.1,-0.1 0,-0.2 0,-0.1 0.1,-0.1 0.2,-0.1 v 0 c 0,0 0,0 0,0 z m 67.6,75.2 c 0.2,-0.8 0.4,-1.4 0.7,-1.9 0.4,-0.5 0.9,-0.9 1.4,-1 0.6,-0.1 1.4,0.1 2,0.6 0.7,0.5 1.2,1.3 1.6,2 0.9,1.4 1.7,2.8 2.4,4.3 0.4,0.8 0.9,1.8 1.2,2.8 -1.8,3.1 -3.8,6.2 -5.9,9.1 -1.1,-2.4 -1.8,-4.9 -2.5,-7.7 -0.9,-2.8 -1.5,-5.6 -0.9,-8.2 z m -6.7,-0.7 c 0.4,0.5 0.7,1.1 1,1.6 1.1,2.2 1.9,4.5 2.5,6.9 -2.7,2.6 -5.4,5.4 -8,8 -0.5,-1 -0.7,-2.2 -0.9,-3.3 -0.5,-3 -0.7,-6 -0.6,-9 0,-1.1 0.1,-2 0.3,-2.9 0.3,-1 0.7,-1.8 1.3,-2.3 0.3,-0.2 0.5,-0.4 0.8,-0.5 0.5,-0.2 1.1,-0.1 1.8,0.2 0.7,0.2 1.3,0.7 1.8,1.3 z m 2.6,-39.3 c 0.2,-0.2 0.5,-0.3 0.7,-0.5 0.2,-0.1 0.4,-0.3 0.6,-0.3 0.3,0 0.8,0.4 1.1,0.8 v 0 c 1.1,1.1 2.3,2.1 3.7,2.8 0.4,0.2 0.7,0.6 0.8,1.1 0.8,4 1.3,8.1 1.5,12.2 0.1,1.4 0.1,2.7 0.1,4.1 0,1.6 0.1,3.2 0.1,4.9 0.1,1.2 0.2,2.3 0.3,3.5 -0.5,2.3 -1.3,4.5 -2.1,6.2 -0.6,0.2 -1.1,0.5 -1.4,0.9 -0.8,0.2 -1.5,0.8 -2.1,1.6 -0.5,0.7 -0.8,1.5 -1,2.5 -0.4,1.8 -0.3,3.6 0,5.4 -0.2,0.3 -0.3,0.6 -0.5,0.8 -0.6,-2 -1.3,-3.9 -2.2,-5.8 -0.3,-0.6 -0.7,-1.3 -1.2,-1.9 -0.5,-0.6 -1,-1.1 -1.7,-1.4 1,-0.2 2.1,0 3,0.4 0.2,0.1 0.5,0.1 0.8,0.1 0.4,-0.1 0.7,-0.3 0.9,-0.6 0.7,-1.3 1.3,-2.6 1.5,-4.3 0.1,-0.5 -0.1,-1 -0.5,-1.3 -0.2,-0.2 -0.4,-0.3 -0.6,-0.4 -0.2,-0.1 -0.4,-0.3 -0.5,-0.4 -0.3,-0.3 -0.5,-0.7 -0.6,-1.2 -0.3,-1.3 -0.1,-2.5 0.2,-3.9 l 0.1,-0.5 c 0.3,-1.5 0.5,-3.1 0.8,-4.7 0.1,-0.4 0.1,-0.9 0.2,-1.5 1.1,-7.5 1.9,-14.8 0,-17.3 l -0.1,-0.2 -0.2,-0.1 c -0.2,-0.1 -0.5,-0.2 -0.7,-0.3 -0.2,-0.3 -0.6,-0.5 -1,-0.7 z m 10,31.2 c 0.3,0.3 0.7,0.6 1,0.9 0.3,0.2 0.5,0.4 0.7,0.6 -0.2,0.7 -0.5,1.4 -0.8,2.1 -0.6,-0.1 -1.3,-0.3 -2.1,-0.3 0.6,-1.1 1,-2.3 1.2,-3.3 z m -97.1,-30.3 c 4.2,-2.6 7.4,-6.2 9.4,-10.6 3,-6.7 1.7,-13.5 -0.6,-18.8 4.2,-2.6 8.7,-4.3 13.5,-5.2 0.3,0.2 0.6,0.4 1,0.5 0.3,0.1 0.6,0.1 0.9,0 0.3,-0.1 0.6,-0.2 0.9,-0.4 0,0 0,0 0,0 10.9,1 26.2,3.6 38.8,9.9 -0.2,0.8 -0.3,1.7 -0.3,2.6 0.1,1.8 0.2,3.6 0.1,5.4 -0.1,1.2 -0.2,2.5 -0.3,3.7 -0.2,1.8 -0.8,3.8 -1.5,5.1 -1,0.3 -2,0.5 -3,0.7 -2.7,0.5 -5.3,0.7 -8.6,0.9 -0.5,0 -0.8,0.5 -0.8,0.9 0.1,0.4 0.5,0.7 0.9,0.7 3.2,-0.2 6,-0.3 8.7,-0.9 2.2,-0.5 4.4,-1.2 6.5,-1.8 l 16.4,-5.3 c 1.3,-0.4 2.6,-0.8 3.9,-1 5,-0.6 9.5,2.7 12.1,6 1.2,1.5 1.9,2.9 2.3,4.3 0.3,1 0.3,2 0.5,3 0.1,1.2 0.2,2.3 0.5,3.6 1.6,6.3 3.3,12.8 4.3,19.4 0.3,2 0.5,4.3 0.4,6.6 -0.2,2.7 -1,5.3 -1.8,7.5 -0.7,2.1 -1.8,4.8 -2.9,7.1 -0.2,-0.5 -0.5,-1 -0.7,-1.5 -0.7,-1.5 -1.6,-3 -2.5,-4.5 -0.5,-0.9 -1.1,-1.7 -2,-2.4 -0.2,-0.2 -0.4,-0.3 -0.6,-0.4 0.8,0 1.6,0.1 2.3,0.3 0.2,0.1 0.4,0.1 0.6,0 0.4,-0.1 0.7,-0.3 0.9,-0.6 0.5,-1 0.8,-1.9 1.1,-2.9 0.1,-0.4 0,-0.8 -0.2,-1.2 -0.4,-0.4 -0.8,-0.7 -1.2,-1 -0.4,-0.3 -0.8,-0.6 -1,-0.9 -0.2,-0.3 -0.3,-0.8 -0.3,-1.4 -0.1,-1.2 -0.2,-2.4 -0.3,-3.5 -0.1,-1.6 -0.1,-3.2 -0.1,-4.8 0,-1.3 0,-2.7 -0.1,-4.1 -0.2,-4.2 -0.7,-8.4 -1.5,-12.5 -0.2,-1 -0.8,-1.8 -1.7,-2.2 -1.2,-0.6 -2.3,-1.4 -3.3,-2.4 v 0 c -0.6,-0.6 -1.3,-1.4 -2.5,-1.3 -0.6,0.1 -1.1,0.4 -1.4,0.6 -0.5,0.4 -1,0.7 -1.5,1.1 0,0 -0.1,0.1 -0.1,0.1 -5.1,3.7 -9.9,7.9 -14.5,11.9 -4,3.5 -8.1,7.2 -12.4,10.4 l -0.6,0.5 c -1.4,1 -2.8,2.1 -4,3.4 -0.5,0.5 -0.9,1 -1.4,1.5 -0.6,0.7 -1.1,1.3 -1.7,1.9 -1.1,1 -4.6,2.9 -7,1.6 -0.8,-0.5 -1.5,-1.3 -2.2,-2.1 -0.2,-0.2 -0.4,-0.4 -0.5,-0.6 -2.9,-3.2 -6.5,-5.6 -10,-7.9 -0.8,-0.6 -1.7,-1.1 -2.5,-1.7 -3.9,-2.7 -8.3,-6 -10.4,-10.7 -0.2,-0.5 -0.8,-0.6 -1.2,-0.3 -0.3,0.2 -0.4,0.7 -0.3,1.1 2.3,5.1 6.8,8.6 11,11.4 0.8,0.6 1.7,1.1 2.5,1.7 3.4,2.2 7,4.6 9.7,7.6 0.2,0.2 0.3,0.4 0.5,0.6 0.5,0.6 1,1.2 1.6,1.7 -6.6,4.4 -13.4,8.8 -20.4,12.4 -0.2,-0.1 -0.3,-0.2 -0.5,-0.3 l -0.1,-0.1 c -3.2,-1.9 -5.7,-4.2 -7.4,-6.8 -1.1,-1.6 -1.9,-3.4 -2.8,-5.1 -0.6,-1.2 -1.1,-2.4 -1.6,-3.6 -0.9,-2.1 -1.6,-4.4 -2.3,-6.6 -0.6,-2.2 -1.2,-4.5 -1.7,-6.9 -0.1,-0.4 -0.4,-0.6 -0.8,-0.6 -0.1,0 -0.2,0 -0.3,0 -1.2,-4.3 -2.5,-8.6 -3.9,-12.8 z m 2.3,12.9 c -0.9,0.2 -1.8,0.5 -2.7,0.9 -1.3,-3.8 -2.7,-7.7 -4.1,-11.5 0.4,-0.1 0.7,-0.3 1.1,-0.4 0.7,-0.3 1.3,-0.6 2,-1 1.2,4 2.5,8 3.7,12 z m -6.4,-12.5 c -0.3,0.1 -0.6,0.3 -1,0.4 -0.3,-0.9 -0.7,-1.8 -1,-2.7 0.9,-0.4 1.7,-0.9 2.5,-1.5 0.2,-0.1 0.4,-0.3 0.6,-0.4 0.3,1 0.7,2.1 1,3.1 -0.6,0.4 -1.3,0.7 -2.1,1.1 z m -137.4,101.7 c 1.1,-0.1 2.1,-0.3 3.2,-0.6 3.3,-0.7 6.4,-2 9.5,-3.2 h 0.1 c 5.6,-2.9 11.1,-5.1 16.6,-6.6 l 0.6,-0.2 c 3,-0.8 6.1,-1.7 8.3,-4.1 2.2,-2.4 2.7,-5.8 3,-8.5 0.1,-1.6 0.2,-3.2 0.2,-4.9 0.4,-0.9 1.4,-2.1 2.1,-3 3.9,-4.3 9.6,-7.5 16.5,-9.3 -2.4,1.5 -4.6,3.2 -6.3,4.5 -2.3,1.9 -5.3,5 -6.5,9.3 -0.3,1.1 -0.5,2.3 -0.6,3.4 -0.2,1.8 -0.5,3.5 -1.2,5 -1.6,3.2 -5.2,4.7 -8.7,6.3 l -0.3,0.1 c -2.3,1 -4.7,2.1 -6.9,3.2 -5.9,2.8 -11.9,5.7 -18.3,7.1 -3.8,0.9 -7.6,1.2 -11.3,1.5 z m -28.6,52.2 c 0.1,-0.1 0.2,-0.3 0.3,-0.4 0.9,-1 1.5,-2.2 2.1,-3.3 h 0.1 c 0.2,0 0.3,-0.1 0.5,-0.1 0.7,-0.1 1.4,-0.3 1.8,-0.7 0.4,-0.4 0.5,-1 0.4,-1.6 -0.1,-0.4 -0.2,-0.7 -0.4,-0.9 l -0.1,-0.1 c -0.3,-0.6 -0.5,-1.2 -0.6,-1.9 0.1,-1.2 0,-2.3 -0.1,-3.5 0.5,-2.5 0.9,-5 0.6,-7.6 -0.1,-1.4 -0.5,-2.9 -0.9,-4.2 -0.8,-3 -2.5,-8.2 -6,-16.1 0.7,-0.9 0.9,-1.7 1.1,-2.3 0,0 0,0 0,0 0.1,0 0.2,0.1 0.3,0.2 1.3,0.8 3.3,-0.4 6.6,-3.9 1.7,-1.8 3.3,-3.7 3.9,-4.4 2.7,-0.2 5.4,-0.3 8,-0.4 0.4,0 0.8,0 1.2,-0.1 -0.3,0 -0.5,0 -0.8,0.1 -0.4,0 -0.8,0.1 -1.2,0.1 -3.8,0.3 -8.2,0.7 -9.5,5.6 -1,3.7 -0.2,7.8 0.6,10.7 0.7,2.2 1.4,4.5 2.1,6.6 1,3 2,6.2 2.8,9.3 l 0.1,0.3 c 0.2,0.6 0.3,1.2 0.4,1.9 0,0.3 0.1,0.7 0.1,1 0.3,2.6 0.6,5 -0.4,7.2 -0.6,1.3 -1.5,2.6 -2.8,4.1 -2.8,3.1 -6.1,5.7 -9.9,7.5 0.2,-1.2 0,-2.3 -0.3,-3.1 z m 2.3,-24.1 c 0.4,1.3 0.7,2.6 0.8,3.9 0.1,0.9 0.1,1.8 0,2.8 -0.1,-0.2 -0.1,-0.5 -0.2,-0.7 -1.9,-7.1 -3.7,-13.3 -5.6,-18.9 l -0.1,-0.2 c -0.2,-0.7 -0.4,-1.3 -0.6,-2 0,0 0.1,-0.1 0.1,-0.1 3.2,7.4 4.8,12.4 5.6,15.2 z m 1.3,18.4 c -0.1,0 -0.2,0.1 -0.3,0.1 0.1,-0.2 0.2,-0.4 0.2,-0.6 0,0.1 0.1,0.2 0.1,0.3 0.1,0.1 0,0.2 0,0.2 z m -9.9,11.1 c 1.8,-1.3 3.4,-2.6 5,-4.1 0.2,0.8 0.3,1.7 0.2,2.3 -1.7,0.7 -3.4,1.3 -5.2,1.8 z m -9.6,3.1 c 0.9,-1.6 1.7,-3.3 2.5,-5.2 0.7,-1.6 1.1,-3.1 1.4,-4.3 0.3,-1.2 0.4,-2.3 0.3,-3.1 0.3,0.1 0.6,0.4 0.8,0.6 0,0.1 0.3,0.4 0.6,0.7 0.2,0.2 0.4,0.4 0.6,0.5 0.2,0.1 0.4,0.1 0.6,0 0.2,0 0.5,-0.2 0.6,-0.3 0.3,-0.3 0.5,-0.5 0.8,-0.6 0.1,-0.1 0.2,-0.1 0.3,-0.2 0.3,-0.2 0.7,-0.5 1,-0.8 0.5,-0.5 0.5,-1.3 0.1,-1.8 -1.7,-2.4 -2.2,-5.8 -2.5,-8.1 -1,-7.7 -2.4,-15.4 -4.3,-23 0,0 0,0 0,-0.1 -1,-4 -2.1,-7.9 -3.4,-11.9 0,0 0,0 0,-0.1 -0.5,-1.4 -0.9,-2.8 -1.4,-4.2 l -0.3,-0.8 c -1,-3 -2.1,-6.1 -2.3,-9.2 0,-1.3 0.7,-2.5 1.9,-3.2 1.2,-0.7 2.6,-0.8 4,-1 1.6,-0.2 3.2,-0.3 4.8,-0.3 3.5,-0.2 7.2,-0.4 10.7,-1.3 3.3,-0.8 6.4,-2 9.3,-3.7 0.7,-0.4 1.5,-0.9 2,-1.8 1.2,-1.7 0.9,-4.2 -1.1,-7.5 -0.6,-1.1 -1.3,-2.2 -2,-3.3 -1.7,-2.8 -3.4,-5.6 -4.8,-8.6 -2.2,-4.7 -3.3,-8.9 -3.3,-12.8 0,-3 0.7,-6 1.5,-8.8 0.5,-2 1.2,-4.4 2.4,-6.4 2,-3.7 4.6,-7 7.6,-10 0,0 0,0 0.1,-0.1 3,-2.9 6.3,-5.4 10,-7.4 3.4,-1.8 7.1,-3.2 10.7,-4.6 0.6,-0.2 1.1,-0.4 1.7,-0.6 4.3,-1.7 7.9,-2.9 11.2,-4 4.3,-1.4 8.9,-2.8 13.6,-3.1 2.1,-0.2 4.2,-0.1 6.3,-0.1 0.6,0 1.3,0 1.9,0 9.2,0.1 19.8,-1.3 30,-3.8 2,4.2 4.2,8.5 6.9,12.4 0.2,0.3 0.5,0.7 0.9,0.9 0.4,0.2 0.9,0.3 1.3,0.3 0.9,0.1 1.9,0 2.7,-0.1 2.3,-0.2 4.8,-0.5 7.4,-1 3.6,-0.7 7.5,-1.6 11.2,-2.8 0.5,-0.1 0.8,-0.5 0.9,-1 0,0 0,-0.1 0,-0.1 0.1,-0.4 -0.3,-0.8 -0.7,-0.7 -6.6,2.1 -13.4,3.5 -18.9,3.9 -0.8,0.1 -1.7,0.1 -2.5,0.1 -0.2,0 -0.4,0 -0.6,-0.1 -0.1,-0.1 -0.3,-0.3 -0.4,-0.5 -3.1,-4.3 -5.4,-9.3 -7.7,-14.1 -0.3,-0.6 -0.5,-1.2 -0.8,-1.8 2.1,-0.6 5.7,-1.6 7.6,-1.8 0.1,0 0.2,0 0.3,-0.1 0.1,0 0.2,0 0.4,0 0.4,0 0.7,-0.1 1,-0.2 5.9,-1.1 11.4,-4 17.2,-7.4 0.7,-0.4 1.5,-0.9 2.4,-1.4 0.6,-0.4 1.2,-0.8 1.8,-1.1 4.6,1.5 8.4,4.7 9.2,6.7 0.8,-1.6 1.7,-3.1 2.6,-4.6 1.8,-2.9 3.8,-5.8 5.8,-8.6 2.5,-3.5 5.3,-7.5 9,-10.6 -12.3,-3.1 -25,-6.6 -36.7,-10.1 -2.2,-0.7 -4.8,-1.4 -6.8,-2.9 -2.2,-1.6 -3.2,-3.4 -3.2,-6 0,-2.6 0.6,-5.2 1.9,-7.2 1.5,-2.5 3.7,-4.6 6.1,-6.5 0.9,0.3 1.9,0.7 2.8,1.1 -0.9,0.9 -1.8,1.8 -2.7,2.7 -0.2,0.3 -0.8,0.9 -0.7,1.6 l 0.1,0.5 0.4,0.2 c 3.6,1.5 7.5,1.8 11.3,2.1 4,0.3 7.7,0.6 11.2,2.2 0.4,0.2 0.7,0.3 1.1,0.5 0.8,0.4 1.7,0.8 2.6,1.1 4.3,2.7 8.6,5.8 12.9,9.1 0.4,0.3 0.9,0.7 1.3,1.1 2.6,2 5.3,4.2 7.5,6.6 1.8,1.9 3.8,6 2.5,8.6 -0.4,0.8 -0.8,1.5 -1.2,2.2 -0.1,0.2 -0.2,0.4 -0.2,0.7 0,0.1 0,0.1 0,0.2 0,0.8 -0.3,1.6 -0.8,2.2 -5.6,6.4 -14.6,19.9 -16.8,23.4 1.6,0.8 3.2,1.4 4.8,1.7 -0.4,1.2 -0.8,2.4 -1.2,3.6 -0.7,0 -1.5,0 -2.2,0 -1.4,0 -2.8,-0.1 -4.1,-0.3 -0.4,0 -0.7,0.1 -0.9,0.5 0,0 0,0.1 -0.1,0.1 -0.2,0.4 0,1 0.5,1 1.5,0.2 3,0.3 4.5,0.3 0.6,0 1.2,0 1.7,0 -0.1,0.4 -0.3,0.9 -0.4,1.3 -0.1,0.4 0.1,0.9 0.5,1 0.1,0 0.3,0.1 0.4,0 0.3,-0.1 0.5,-0.3 0.6,-0.6 0.2,-0.6 0.4,-1.2 0.6,-1.9 2.1,-0.1 4,-0.3 5.9,-0.7 1.9,-0.3 3.6,-0.8 5.3,-1.4 1.5,3.9 2.9,7.9 4.2,11.9 -0.1,0.1 -0.3,0.2 -0.4,0.3 -0.2,0.2 -0.3,0.5 -0.3,0.8 0,0.1 0,0.1 0.1,0.2 2.1,4.6 4.3,9.4 5.3,14.5 1,5.2 0.4,10.4 -1.8,14.7 -0.8,1.7 -4.2,4.6 -9.9,8.6 -13.7,3.4 -27.9,5 -42,4.9 -2.2,0 -4.4,-0.1 -6.5,-0.1 -6.7,-0.2 -13.7,-0.4 -20.5,0.7 -9,1.4 -16.6,5.2 -21.4,10.6 -0.1,0.1 -0.5,0.6 -1,1.2 -0.1,-2 -0.2,-4 -0.3,-6 -0.1,-1.6 -0.2,-3.2 -0.3,-4.8 -0.5,-11.7 0.5,-23.4 2.9,-34.8 0.1,-0.4 -0.2,-0.9 -0.6,-1 -0.4,-0.1 -0.9,0.2 -1,0.6 -2.5,11.6 -3.5,23.4 -3,35.2 0.1,1.6 0.2,3.2 0.3,4.8 0.3,4.4 0.6,9 0.2,13.5 -0.2,2.4 -0.7,5.5 -2.5,7.6 -1.8,2 -4.7,2.8 -7.5,3.6 l -0.6,0.2 c -5.7,1.6 -11.2,3.8 -16.9,6.7 -3,1.2 -6.1,2.4 -9.2,3.1 -3,0.7 -6,0.9 -8.7,1 -1.7,0.1 -3.4,0.2 -5.1,0.2 -2.8,0.1 -5.6,0.2 -8.4,0.4 0,0 0,0 -0.1,0 -3.4,0.3 -6.8,0.6 -10.1,1.3 h -0.1 c -3.1,0.9 -4.7,4.1 -4.9,6.8 -0.2,2.7 0.7,5.3 1.6,7.8 l 0.1,0.2 c 1.9,5.6 3.7,11.8 5.6,18.8 0.5,1.7 0.9,3.4 1.1,5 0,0.1 0,0.2 0,0.2 0.1,1 0.2,2.1 0.1,3.1 0,0.1 0,0.2 0,0.3 -0.1,0.6 -0.2,1.2 -0.3,1.8 -0.9,2 -1.7,4.2 -3.1,5.8 -0.5,0.6 -1,1.1 -1.5,1.6 -2.5,2.3 -5.2,4.4 -8.1,6.1 -0.1,0 -0.1,0.1 -0.2,0.1 -0.2,0.1 -0.3,0.2 -0.5,0.3 -1.3,0.8 -2.8,1.6 -4.4,1.8 v 0 c 0.5,0.4 0.4,0.4 0.3,0.4 z m 169.3,-159.6 c 0.4,-1.1 0.7,-2.2 1.1,-3.3 1.5,0.1 3,0 4.6,-0.3 1.1,-0.2 2.3,-0.5 3.4,-1 0.3,0.9 0.7,1.7 1,2.6 -3.1,1.2 -6.5,1.8 -10.1,2 z m -183.7,159.2 c 1.9,-3.1 3.7,-5.5 5.7,-7.5 2.8,-2.8 6,-4.8 9.1,-5.6 0.1,0 0.2,-0.1 0.4,-0.1 0.7,-0.1 1.2,0 1.4,0.2 0.3,0.3 1.1,1.8 -1.2,7.6 -0.9,2.3 -1.9,4.2 -3,6 -2.2,-0.1 -9,-0.3 -12.4,-0.6 z"
     id="path7313" />
  <text
     transform="translate(1256.7301,4371.2407)"
     class="st114 st56 st57"
     id="text7496"
     style="font-size:138.616px;font-family:MyriadPro-Regular;fill:#ffffff;stroke:#000000;stroke-miterlimit:10">x</text>
</g>

	</g>
  </g>
</svg>
