<?xml version="1.0" encoding="UTF-8" standalone="no"?>
<!-- Created with Inkscape (http://www.inkscape.org/) -->

<svg
   width="1875"
   height="1197"
   viewBox="0 0 496.09374 316.70625"
   version="1.1"
   id="svg88132"
   sodipodi:docname="offer-img.svg"
   inkscape:version="1.2.2 (732a01da63, 2022-12-09)"
   xmlns:inkscape="http://www.inkscape.org/namespaces/inkscape"
   xmlns:sodipodi="http://sodipodi.sourceforge.net/DTD/sodipodi-0.dtd"
   xmlns:xlink="http://www.w3.org/1999/xlink"
   xmlns="http://www.w3.org/2000/svg"
   xmlns:svg="http://www.w3.org/2000/svg">
  <sodipodi:namedview
     id="namedview75984"
     pagecolor="#ffffff"
     bordercolor="#000000"
     borderopacity="0.25"
     inkscape:showpageshadow="2"
     inkscape:pageopacity="0.0"
     inkscape:pagecheckerboard="0"
     inkscape:deskcolor="#d1d1d1"
     showgrid="false"
     inkscape:zoom="0.39431913"
     inkscape:cx="938.32627"
     inkscape:cy="598.5"
     inkscape:window-width="1680"
     inkscape:window-height="987"
     inkscape:window-x="-8"
     inkscape:window-y="-8"
     inkscape:window-maximized="1"
     inkscape:current-layer="przerywnik" />
  <defs
     id="defs88129">
    <clipPath
       id="SVGID_00000000905265114075184450000011895705049081921460_">
      <use
         xlink:href="#SVGID_00000111899183996411126260000017469935362380335267_"
         style="overflow:visible"
         id="use7330" />
    </clipPath>
    <clipPath
       id="SVGID_00000090979187213247980750000007987630857739311535_">
      <use
         xlink:href="#SVGID_00000073682479836186134080000006512379245693656510_"
         style="overflow:visible"
         id="use7374" />
    </clipPath>
    <clipPath
       id="SVGID_00000008120557039440884130000000710855746105338551_">
      <use
         xlink:href="#SVGID_00000020363300063445085370000011602548807549604517_"
         style="overflow:visible"
         id="use7212" />
    </clipPath>
    <circle
       id="SVGID_00000161602052649036910640000004309696824989153422_"
       cx="1703.3"
       cy="4369.7002"
       r="112.9" />
    <circle
       id="SVGID_00000111899183996411126260000017469935362380335267_"
       cx="1703.3"
       cy="4369.7002"
       r="112.9" />
    <circle
       id="SVGID_00000027574030167590194040000001461744935786897028_"
       cx="1703.3"
       cy="4369.7002"
       r="112.9" />
    <rect
       id="SVGID_00000073682479836186134080000006512379245693656510_"
       x="-50"
       y="3793.7"
       width="1920"
       height="1196.3" />
    <circle
       id="SVGID_00000020363300063445085370000011602548807549604517_"
       class="st43"
       cx="252.60001"
       cy="4807.2002"
       r="74.199997" />
  </defs>
  <g
     id="layer1">
    <g
       id="przerywnik"
       transform="matrix(0.25836171,0,0,0.26458333,14.056095,-1002.7225)">
      <g
         id="g7317">
        <g
           id="g7315" />
      </g>
      <g
         id="g7387">
        <defs
           id="defs7372">
          <rect
             id="rect88883"
             x="-50"
             y="3793.7"
             width="1920"
             height="1196.3" />
        </defs>
        <clipPath
           id="clipPath88020">
          <use
             xlink:href="#SVGID_00000073682479836186134080000006512379245693656510_"
             style="overflow:visible"
             id="use88018" />
        </clipPath>
        <g
           clip-path="url(#SVGID_00000090979187213247980750000007987630857739311535_)"
           id="g7385">
          <g
             id="g7381">
            <g
               id="g7379">
              <path
                 class="st110"
                 d="m 1886.5,908.8 c -199.5,349.4 -414.1,580 -555.5,648.3 -114.8,55.5 -219.6,59.4 -219.6,59.4 -84.1,3.1 -138.5,-16.9 -189.7,-29.5 -20.4,-5 -274.7,-64.1 -485.3,45.1 -12.5,6.5 -230.1,123.4 -281.5,351.9 -52.7,234.3 122.9,348.2 93.8,534.3 -35.6,227.5 -348.6,173.8 -641.2,469.1 -46.7,47.1 -348.8,361.4 -312.8,776.7 6.5,74.5 40.5,465.8 338.8,578.6 166.2,62.8 273.9,-170.5 672.4,-245 115.7,-21.6 173.7,-31.6 245,-10.4 228.4,67.7 200.3,327.5 417,547.3 281.8,285.8 585.7,106.7 787.1,390.9 106,149.6 148.8,378.5 53.4,526.5 -69.7,108.2 -198.2,149.7 -359.7,175.9 -545.5,88.6 -766.2,-110.8 -1149.4,-89.9 -433.3,23.6 -966.2,322.8 -1088.1,784.5 -109.1,413.1 72.3,957.8 375.3,1042.5 443.6,124 745.3,-850.4 1443.9,-865.3 686.9,-14.7 1415,905.7 1245.8,1324 -142.6,352.7 -933.3,373.8 -1016.5,375.3 -467.6,8.3 -543.7,-162.3 -912.2,-119.9 -375.4,43.2 -901.3,289.9 -1053,787.1 -144,472.2 80.5,1070 354.5,1115.5 325.8,54.2 444,-730.4 1061,-886 576.8,-145.4 1364.7,283.3 1380.1,706.9 14.2,392.9 -634.7,859.4 -1161.1,817.8 -316.3,-25 -467.5,-223.9 -813.2,-148.6 -76.7,16.7 -341.4,74.4 -465.2,312.8 -12.1,23.3 -103.8,206.7 -35.2,418.3 84.4,260.4 354.6,387.4 563,402.7 240,17.6 421.6,-111.9 496.5,-164.2 176.2,-123.1 190.3,-233 297.1,-308.9 134.7,-95.6 400.4,-125.4 980.8,194.4"
                 id="path7377"
                 style="fill:none;stroke:#000000;stroke-width:3.5296;stroke-miterlimit:10;stroke-dasharray:42.3207, 42.3207" />
            </g>
          </g>
          <text
             transform="matrix(0.9475,0,0,1,1358.8743,1308.8619)"
             class="st1 st56 st111"
             id="text7383"
             style="font-size:146.298px;font-family:MyriadPro-Regular;fill:#ffffff">x</text>
        </g>
      </g>
    </g>
  </g>
</svg>
