<?xml version="1.0" encoding="UTF-8" standalone="no"?>
<!-- Created with Inkscape (http://www.inkscape.org/) -->

<svg
   width="1122.5197"
   height="380"
   viewBox="0 0 296.99998 100.54165"
   version="1.1"
   id="svg9495"
   xmlns="http://www.w3.org/2000/svg"
   xmlns:svg="http://www.w3.org/2000/svg">
  <defs
     id="defs9492" />
  <g
     id="layer1">
    <g
       id="logotyp_00000174561685461410631510000002226856090888307368_"
       transform="matrix(0.62750509,0,0,0.62750509,-84.428759,-17.8867)">
			<path
   d="m 296.2,131 c -0.8,0 -1.2,-0.4 -1.2,-1.2 v -3 c 0,-0.9 0.4,-1.3 1.2,-1.3 h 34.3 c 1.2,0 2,-0.5 2,-1.7 0,-0.9 -0.6,-1.5 -1.8,-1.9 l -27.8,-11.6 c -4.7,-1.9 -7.5,-5.1 -7.5,-9.7 0,-5.8 4.1,-9.6 10.2,-9.6 h 41.9 c 0.8,0 1.2,0.4 1.2,1.2 v 3 c 0,0.8 -0.4,1.2 -1.2,1.2 h -33.1 c -1.2,0 -2,0.6 -2,1.8 0,0.9 0.6,1.5 1.8,1.9 l 27.8,11.6 c 4.7,2 7.5,5.1 7.5,9.7 0,5.8 -4.1,9.6 -10.3,9.6 z"
   id="path9054" />

			<path
   d="m 413,131 c -0.8,0 -1.2,-0.4 -1.2,-1.2 V 109 l -20.1,20.8 c -0.9,0.9 -1.9,1.2 -2.9,1.2 H 386 c -0.9,0 -2,-0.2 -3,-1.2 L 361.3,109 v 20.8 c 0,0.8 -0.4,1.2 -1.2,1.2 h -4.3 c -0.8,0 -1.2,-0.4 -1.2,-1.2 V 92.2 c 0,-0.8 0.4,-1.2 1.2,-1.2 h 4 c 1.1,0 2.1,0.4 3.1,1.3 l 28.4,28.4 29.8,-28.4 c 1,-0.9 2.2,-1.3 3.3,-1.3 h 3.3 c 0.9,0 1.3,0.4 1.3,1.2 v 37.6 c 0,0.8 -0.4,1.2 -1.3,1.2 z"
   id="path9056" />

			<path
   d="m 469.7,115.9 c -0.7,0 -1.1,-0.2 -1.5,-0.6 l -15.8,-17 -13.4,14.2 h 20.2 c 0.5,0 0.8,0.3 0.8,0.8 v 1.9 c 0,0.5 -0.3,0.7 -0.8,0.7 h -26 c -0.4,0 -0.6,-0.2 -0.6,-0.5 0,-0.1 0,-0.4 0.3,-0.5 l 22.2,-23.2 c 0.4,-0.4 0.8,-0.6 1.4,-0.6 h 1.8 c 0.6,0 1,0.2 1.4,0.6 l 22.1,23.3 c 0.2,0.2 0.3,0.4 0.3,0.6 0,0.3 -0.2,0.4 -0.7,0.4 h -11.7 z"
   id="path9058" />

			<path
   d="m 516,115.9 c -1.4,0 -2.2,-0.1 -3.1,-0.8 l -14.7,-11.3 c -0.4,-0.3 -0.5,-0.5 -0.5,-1.1 v -0.9 c 0,-0.5 0.3,-0.7 0.8,-0.7 h 9.8 c 2.6,0 4.1,-0.9 4.1,-3.4 0,-2.5 -1.5,-3.3 -4.1,-3.3 h -13 v 20.9 c 0,0.5 -0.3,0.7 -0.8,0.7 H 485 c -0.5,0 -0.8,-0.3 -0.8,-0.7 V 91.9 c 0,-0.6 0.3,-1 1,-1 H 516 c 4.3,0 7.5,2.5 7.5,6.8 0,4.3 -3.2,6.6 -7.5,6.6 h -5.1 l 15.4,10.5 c 0.1,0.1 0.3,0.4 0.3,0.5 0,0.2 -0.1,0.5 -0.5,0.5 H 516 Z"
   id="path9060" />

			<path
   d="m 537.5,115.9 c -0.4,0 -0.5,-0.1 -0.5,-0.4 V 94.3 h -11.9 c -0.4,0 -0.5,-0.1 -0.5,-0.4 v -2.6 c 0,-0.3 0.1,-0.4 0.5,-0.4 h 34.8 c 0.3,0 0.5,0.1 0.5,0.4 V 94 c 0,0.3 -0.2,0.4 -0.5,0.4 H 548 v 21.2 c 0,0.3 -0.1,0.4 -0.5,0.4 h -10 z"
   id="path9062" />

			<g
   id="g9066">
				<text
   transform="translate(432.9436,131.2459)"
   class="st5 st123 st124"
   id="text9064"
   style="font-size:10.8202px;font-family:SofachromeBk-Regular;fill:#dd8002">Equestrian</text>

			</g>

		</g>
    <g
       id="logo_00000149361389433266549410000003816950022107592604_"
       transform="matrix(0.62750509,0,0,0.62750509,-84.428759,-17.8867)">
			<g
   id="g9077">
				<circle
   class="st4"
   cx="239.7"
   cy="66.699997"
   r="5.5"
   id="circle9069"
   style="fill:#1d1d1b" />

				<circle
   class="st5"
   cx="224.39999"
   cy="109.7"
   r="34"
   id="circle9071"
   style="fill:#dd8002" />

				<circle
   class="st125"
   cx="224.39999"
   cy="109.7"
   r="45.900002"
   id="circle9073"
   style="fill:none;stroke:#1d1d1b;stroke-width:1.2169;stroke-miterlimit:10" />

				<circle
   class="st4"
   cx="239.7"
   cy="66.699997"
   r="5.5"
   id="circle9075"
   style="fill:#1d1d1b" />

			</g>

			<g
   id="g9097">
				<g
   id="g9085">
					<path
   class="st4"
   d="m 218.9,117.4 c 0,-0.6 0.2,-1.2 0.6,-1.6 h -12.6 c -0.9,0 -1.6,0.7 -1.6,1.6 0,0.9 0.7,1.6 1.6,1.6 h 3.4 9.2 c -0.4,-0.4 -0.6,-0.9 -0.6,-1.6 z"
   id="path9079"
   style="fill:#1d1d1b" />

					<path
   class="st4"
   d="m 218.9,99.6 c 0,-0.6 0.2,-1.2 0.6,-1.6 h -12.6 c -0.9,0 -1.6,0.7 -1.6,1.6 0,0.9 0.7,1.6 1.6,1.6 h 3.4 9.2 c -0.4,-0.5 -0.6,-1 -0.6,-1.6 z"
   id="path9081"
   style="fill:#1d1d1b" />

					<path
   class="st4"
   d="m 242.9,119.1 c -0.4,-0.4 -0.6,-1 -0.6,-1.6 0,-0.6 0.2,-1.2 0.6,-1.6 h -2.2 c 0.9,-0.9 1.6,-2 2.2,-3.3 0.6,-1.3 0.8,-2.7 0.8,-4.2 0,-1.5 -0.3,-2.8 -0.8,-4.1 -0.6,-1.3 -1.3,-2.4 -2.3,-3.4 -1,-1 -2.1,-1.8 -3.4,-2.3 -1.3,-0.6 -2.7,-0.8 -4.1,-0.8 -1.5,0 -2.9,0.3 -4.2,0.8 -1.3,0.6 -2.4,1.3 -3.4,2.3 -1,1 -1.7,2.1 -2.3,3.4 -0.3,0.8 -0.6,1.6 -0.7,2.5 h -2.8 -9.4 -2.3 c 0.4,0.4 0.6,1 0.6,1.6 0,0.6 -0.2,1.2 -0.6,1.6 h 2.3 2.7 9.5 c 0.1,0.9 0.4,1.8 0.7,2.6 0.6,1.3 1.3,2.4 2.3,3.4 1,1 2.1,1.7 3.4,2.3 1.3,0.5 2.7,0.8 4.2,0.8 0.1,0 0.3,0 0.4,0 v 0 z m -9.8,-3.3 c -1,0 -2,-0.2 -2.9,-0.6 -0.9,-0.4 -1.7,-0.9 -2.3,-1.6 -0.7,-0.7 -1.2,-1.5 -1.6,-2.4 -0.4,-0.9 -0.6,-1.9 -0.6,-2.9 0,-1 0.2,-1.9 0.5,-2.8 0.4,-0.9 0.9,-1.7 1.5,-2.4 0.7,-0.7 1.4,-1.2 2.3,-1.6 0.9,-0.4 1.8,-0.6 2.8,-0.6 1,0 2,0.2 2.8,0.6 0.9,0.4 1.6,0.9 2.3,1.6 0.7,0.7 1.2,1.5 1.6,2.4 0.4,0.9 0.6,1.9 0.6,2.9 0,1 -0.2,2 -0.6,2.9 -0.4,0.9 -0.9,1.7 -1.5,2.4 -0.7,0.7 -1.4,1.2 -2.3,1.6 -0.6,0.3 -1.6,0.5 -2.6,0.5 z"
   id="path9083"
   style="fill:#1d1d1b" />

				</g>

				<g
   id="g9095">
					<circle
   class="st4"
   cx="221.39999"
   cy="117.4"
   r="1.4"
   id="circle9087"
   style="fill:#1d1d1b" />

					<circle
   class="st4"
   cx="221.39999"
   cy="99.599998"
   r="1.4"
   id="circle9089"
   style="fill:#1d1d1b" />

					<circle
   class="st4"
   cx="206.10001"
   cy="108.4"
   r="1.4"
   id="circle9091"
   style="fill:#1d1d1b" />

					<circle
   class="st4"
   cx="244.8"
   cy="117.4"
   r="1.4"
   id="circle9093"
   style="fill:#1d1d1b" />

				</g>

			</g>

		</g>
  </g>
</svg>
