<?xml version="1.0" encoding="UTF-8" standalone="no"?>
<!-- Created with Inkscape (http://www.inkscape.org/) -->

<svg
   width="64"
   height="64"
   viewBox="0 0 16.933333 16.933334"
   version="1.1"
   id="svg70627"
   xmlns="http://www.w3.org/2000/svg"
   xmlns:svg="http://www.w3.org/2000/svg">
  <defs
     id="defs70624" />
  <g
     id="layer1">
    <g
       id="TT_00000181779417886828036030000008573205304281579441_"
       transform="matrix(0.26458333,0,0,0.26458333,-266.81868,-1688.2689)">
				<circle
   cx="1040.4"
   cy="6412.6001"
   r="30.5"
   id="circle65445" />

				<path
   class="st1"
   d="m 1057.4,6402.4 c 0,-0.2 0,-0.2 -0.2,-0.2 -0.4,0 -0.9,0 -1.3,-0.1 -1.6,-0.2 -6.8,-2.9 -7.7,-7.3 0,-0.1 -0.2,-1.2 -0.2,-1.7 0,-0.2 0,-0.2 -0.2,-0.2 0,0 -0.1,0 -0.1,0 -2,0 -4,0 -6.1,0 -0.4,0 -0.4,0 -0.3,0.4 0.1,8.8 0.1,17.6 0.2,26.3 0,0.3 0,0.7 -0.1,1 -0.3,1.7 -1.2,3 -2.6,4 -1.3,0.8 -2.7,1 -4.1,0.7 -0.5,-0.1 -0.9,-0.3 -1.3,-0.4 0,0 -0.1,-0.1 -0.1,-0.1 -0.1,-0.1 -0.3,-0.2 -0.5,-0.3 -1.9,-1.3 -2.8,-3.1 -2.5,-5.3 0.3,-2.3 1.6,-3.8 3.7,-4.7 0.6,-0.2 1.3,-0.3 2,-0.3 0.4,0 0.9,0.1 1.3,0.2 0.1,0 0.2,0 0.2,-0.2 0,-0.1 0,-0.1 0,-0.2 0,-1.6 -0.1,-5 -0.1,-5 0,-0.5 0,-0.9 0,-1.4 0,-0.1 -0.1,-0.2 -0.2,-0.2 -0.8,-0.1 -1.6,-0.1 -2.5,0 -1.1,0.1 -2.2,0.3 -3.3,0.7 -1.7,0.6 -3.2,1.6 -4.5,2.9 -1.1,1.1 -2,2.4 -2.6,3.8 -0.6,1.4 -0.9,2.8 -1,4.3 0,0.6 0,1.3 0,1.9 0.1,0.9 0.3,1.8 0.5,2.6 0.8,2.4 2.2,4.4 4.2,6 0.2,0.2 0.4,0.3 0.6,0.4 0,0 0,0 0,0 0.1,0.1 0.2,0.2 0.3,0.3 0.3,0.2 0.7,0.4 1,0.6 2.3,1.1 4.6,1.5 7.1,1.2 3.2,-0.4 5.9,-1.9 8,-4.4 2,-2.3 2.9,-5.1 2.9,-8.1 0,-4.4 -0.1,-8.7 -0.1,-13.1 0,-0.1 -0.1,-0.3 0.1,-0.3 0.1,0 0.2,0.1 0.3,0.1 1.6,1.1 3.4,1.8 5.3,2.2 1.1,0.2 2.2,0.4 3.4,0.4 0.4,0 0.4,0 0.4,-0.4 0.2,-1.4 0.1,-5.7 0.1,-6.1 z"
   id="path65447"
   style="fill:#ffffff" />

			</g>
  </g>
</svg>
