<?xml version="1.0" encoding="UTF-8" standalone="no"?>
<!-- Created with Inkscape (http://www.inkscape.org/) -->

<svg
   width="64"
   height="64"
   viewBox="0 0 16.933333 16.933334"
   version="1.1"
   id="svg70627"
   xmlns="http://www.w3.org/2000/svg"
   xmlns:svg="http://www.w3.org/2000/svg">
  <defs
     id="defs70624" />
  <g
     id="layer1">
    <g
       id="WA_00000026142724077313295630000003315869016525740735_"
       transform="matrix(0.26458333,0,0,0.26458333,-239.96076,-1688.2133)">
				<circle
   cx="939.09998"
   cy="6412.6001"
   r="30.5"
   id="circle65450" />

				<g
   id="WA_Logo_00000107576502007754059780000001771514383439921548_">
					<g
   id="g65454">
						<path
   class="st2"
   d="m 953.7,6398.3 c -3.7,-3.7 -8.5,-5.7 -13.7,-5.7 -10.7,0 -19.3,8.7 -19.3,19.3 0,3.4 0.9,6.7 2.6,9.7 l -2.7,10 10.3,-2.7 c 2.8,1.5 6,2.4 9.2,2.4 v 0 c 10.7,0 19.3,-8.7 19.3,-19.3 0,-5.2 -2,-10 -5.7,-13.7 z m -13.7,29.8 v 0 c -2.9,0 -5.7,-0.8 -8.2,-2.2 l -0.6,-0.3 -6.1,1.6 1.6,-5.9 -0.4,-0.6 c -1.6,-2.6 -2.5,-5.5 -2.5,-8.6 0,-8.9 7.2,-16.1 16.1,-16.1 4.3,0 8.3,1.7 11.4,4.7 3.1,3 4.7,7.1 4.7,11.4 0.1,8.8 -7.1,16 -16,16 z m 8.9,-12.1 c -0.5,-0.2 -2.9,-1.4 -3.3,-1.6 -0.4,-0.2 -0.8,-0.2 -1.1,0.2 -0.3,0.4 -1.2,1.6 -1.5,1.9 -0.3,0.3 -0.6,0.4 -1,0.1 -0.5,-0.2 -2,-0.8 -3.9,-2.4 -1.4,-1.3 -2.4,-2.9 -2.7,-3.3 -0.3,-0.5 0,-0.7 0.2,-1 0.2,-0.2 0.5,-0.6 0.7,-0.8 0.2,-0.3 0.3,-0.5 0.5,-0.8 0.2,-0.3 0.1,-0.6 0,-0.8 -0.1,-0.2 -1.1,-2.6 -1.5,-3.6 -0.4,-0.9 -0.8,-0.8 -1.1,-0.8 -0.3,0 -0.6,0 -0.9,0 -0.3,0 -0.8,0.1 -1.3,0.6 -0.4,0.5 -1.7,1.7 -1.7,4 0,2.4 1.7,4.7 2,5 0.2,0.3 3.4,5.2 8.3,7.3 1.2,0.5 2.1,0.8 2.8,1 1.2,0.4 2.2,0.3 3,0.2 0.9,-0.1 2.9,-1.2 3.3,-2.3 0.4,-1.1 0.4,-2.1 0.3,-2.3 -0.3,-0.2 -0.7,-0.3 -1.1,-0.6 z"
   id="path65452"
   style="clip-rule:evenodd;fill:#ffffff;fill-rule:evenodd" />

					</g>

				</g>

			</g>
  </g>
</svg>
