<?xml version="1.0" encoding="UTF-8" standalone="no"?>
<!-- Created with Inkscape (http://www.inkscape.org/) -->

<svg
   width="162"
   height="280"
   viewBox="0 0 42.862499 74.083333"
   version="1.1"
   id="svg9808"
   xmlns:xlink="http://www.w3.org/1999/xlink"
   xmlns="http://www.w3.org/2000/svg"
   xmlns:svg="http://www.w3.org/2000/svg">
  <defs
     id="defs9805">
    <clipPath
       id="SVGID_00000008120557039440884130000000710855746105338551_">
				<use
   xlink:href="#SVGID_00000020363300063445085370000011602548807549604517_"
   style="overflow:visible"
   id="use7212" />

			</clipPath>
    <circle
       id="SVGID_00000020363300063445085370000011602548807549604517_"
       class="st43"
       cx="252.60001"
       cy="4807.2002"
       r="74.199997" />
  </defs>
  <g
     id="layer1">
    <g
       id="g9744"
       transform="matrix(0.25836172,0,0,0.26458333,-41.648056,-1234.4027)">
      <g
         class="st43"
         id="g7271"
         style="opacity:0.43">
			<defs
   id="defs7210">
				<circle
   id="circle9921"
   class="st43"
   cx="252.60001"
   cy="4807.2002"
   r="74.199997" />

			</defs>

			<clipPath
   id="clipPath9760">
				<use
   xlink:href="#SVGID_00000020363300063445085370000011602548807549604517_"
   style="overflow:visible"
   id="use9758" />

			</clipPath>

			<g
   clip-path="url(#SVGID_00000008120557039440884130000000710855746105338551_)"
   id="g7269">
				<line
   class="st45"
   x1="166.7"
   y1="4910.5"
   x2="166.7"
   y2="4710.6001"
   id="line7215"
   style="fill:none;stroke:#1d1d1b;stroke-width:1.1121;stroke-miterlimit:10" />

				<line
   class="st45"
   x1="173.89999"
   y1="4910.5"
   x2="173.89999"
   y2="4710.6001"
   id="line7217"
   style="fill:none;stroke:#1d1d1b;stroke-width:1.1121;stroke-miterlimit:10" />

				<line
   class="st45"
   x1="181.2"
   y1="4910.5"
   x2="181.2"
   y2="4710.6001"
   id="line7219"
   style="fill:none;stroke:#1d1d1b;stroke-width:1.1121;stroke-miterlimit:10" />

				<line
   class="st45"
   x1="188.39999"
   y1="4910.5"
   x2="188.39999"
   y2="4710.6001"
   id="line7221"
   style="fill:none;stroke:#1d1d1b;stroke-width:1.1121;stroke-miterlimit:10" />

				<line
   class="st45"
   x1="195.7"
   y1="4910.5"
   x2="195.7"
   y2="4710.6001"
   id="line7223"
   style="fill:none;stroke:#1d1d1b;stroke-width:1.1121;stroke-miterlimit:10" />

				<line
   class="st45"
   x1="202.89999"
   y1="4910.5"
   x2="202.89999"
   y2="4710.6001"
   id="line7225"
   style="fill:none;stroke:#1d1d1b;stroke-width:1.1121;stroke-miterlimit:10" />

				<line
   class="st45"
   x1="210.10001"
   y1="4910.5"
   x2="210.10001"
   y2="4710.6001"
   id="line7227"
   style="fill:none;stroke:#1d1d1b;stroke-width:1.1121;stroke-miterlimit:10" />

				<line
   class="st45"
   x1="217.39999"
   y1="4910.5"
   x2="217.39999"
   y2="4710.6001"
   id="line7229"
   style="fill:none;stroke:#1d1d1b;stroke-width:1.1121;stroke-miterlimit:10" />

				<line
   class="st45"
   x1="224.60001"
   y1="4910.5"
   x2="224.60001"
   y2="4710.6001"
   id="line7231"
   style="fill:none;stroke:#1d1d1b;stroke-width:1.1121;stroke-miterlimit:10" />

				<line
   class="st45"
   x1="231.89999"
   y1="4910.5"
   x2="231.89999"
   y2="4710.6001"
   id="line7233"
   style="fill:none;stroke:#1d1d1b;stroke-width:1.1121;stroke-miterlimit:10" />

				<line
   class="st45"
   x1="239.10001"
   y1="4910.5"
   x2="239.10001"
   y2="4710.6001"
   id="line7235"
   style="fill:none;stroke:#1d1d1b;stroke-width:1.1121;stroke-miterlimit:10" />

				<line
   class="st45"
   x1="246.3"
   y1="4910.5"
   x2="246.3"
   y2="4710.6001"
   id="line7237"
   style="fill:none;stroke:#1d1d1b;stroke-width:1.1121;stroke-miterlimit:10" />

				<line
   class="st45"
   x1="253.60001"
   y1="4910.5"
   x2="253.60001"
   y2="4710.6001"
   id="line7239"
   style="fill:none;stroke:#1d1d1b;stroke-width:1.1121;stroke-miterlimit:10" />

				<line
   class="st45"
   x1="260.79999"
   y1="4910.5"
   x2="260.79999"
   y2="4710.6001"
   id="line7241"
   style="fill:none;stroke:#1d1d1b;stroke-width:1.1121;stroke-miterlimit:10" />

				<line
   class="st45"
   x1="268.10001"
   y1="4910.5"
   x2="268.10001"
   y2="4710.6001"
   id="line7243"
   style="fill:none;stroke:#1d1d1b;stroke-width:1.1121;stroke-miterlimit:10" />

				<line
   class="st45"
   x1="275.29999"
   y1="4910.5"
   x2="275.29999"
   y2="4710.6001"
   id="line7245"
   style="fill:none;stroke:#1d1d1b;stroke-width:1.1121;stroke-miterlimit:10" />

				<line
   class="st45"
   x1="282.5"
   y1="4910.5"
   x2="282.5"
   y2="4710.6001"
   id="line7247"
   style="fill:none;stroke:#1d1d1b;stroke-width:1.1121;stroke-miterlimit:10" />

				<line
   class="st45"
   x1="289.79999"
   y1="4910.5"
   x2="289.79999"
   y2="4710.6001"
   id="line7249"
   style="fill:none;stroke:#1d1d1b;stroke-width:1.1121;stroke-miterlimit:10" />

				<line
   class="st45"
   x1="297"
   y1="4910.5"
   x2="297"
   y2="4710.6001"
   id="line7251"
   style="fill:none;stroke:#1d1d1b;stroke-width:1.1121;stroke-miterlimit:10" />

				<line
   class="st45"
   x1="304.29999"
   y1="4910.5"
   x2="304.29999"
   y2="4710.6001"
   id="line7253"
   style="fill:none;stroke:#1d1d1b;stroke-width:1.1121;stroke-miterlimit:10" />

				<line
   class="st45"
   x1="311.5"
   y1="4910.5"
   x2="311.5"
   y2="4710.6001"
   id="line7255"
   style="fill:none;stroke:#1d1d1b;stroke-width:1.1121;stroke-miterlimit:10" />

				<line
   class="st45"
   x1="318.70001"
   y1="4910.5"
   x2="318.70001"
   y2="4710.6001"
   id="line7257"
   style="fill:none;stroke:#1d1d1b;stroke-width:1.1121;stroke-miterlimit:10" />

				<line
   class="st45"
   x1="326"
   y1="4910.5"
   x2="326"
   y2="4710.6001"
   id="line7259"
   style="fill:none;stroke:#1d1d1b;stroke-width:1.1121;stroke-miterlimit:10" />

				<line
   class="st45"
   x1="333.20001"
   y1="4910.5"
   x2="333.20001"
   y2="4710.6001"
   id="line7261"
   style="fill:none;stroke:#1d1d1b;stroke-width:1.1121;stroke-miterlimit:10" />

				<line
   class="st45"
   x1="340.5"
   y1="4910.5"
   x2="340.5"
   y2="4710.6001"
   id="line7263"
   style="fill:none;stroke:#1d1d1b;stroke-width:1.1121;stroke-miterlimit:10" />

				<line
   class="st45"
   x1="347.70001"
   y1="4910.5"
   x2="347.70001"
   y2="4710.6001"
   id="line7265"
   style="fill:none;stroke:#1d1d1b;stroke-width:1.1121;stroke-miterlimit:10" />

				<line
   class="st45"
   x1="354.89999"
   y1="4910.5"
   x2="354.89999"
   y2="4710.6001"
   id="line7267"
   style="fill:none;stroke:#1d1d1b;stroke-width:1.1121;stroke-miterlimit:10" />

			</g>

		</g>
      <g
         id="XMLID_00000070824972754336888990000005533901972928654732_">
				<g
   id="g7491">
					<path
   class="st112"
   d="m 261.3,4795.7 c 0.6,0.3 0.7,1.1 0.6,1.6 -0.2,0.5 -0.6,0.9 -0.9,1.2 -1,0.8 -2.1,1.4 -3.2,1.9 -4,2.1 -8.2,4.2 -12.8,5.1 0,0 0,0 -0.1,0 -0.1,0 -0.3,-0.1 -0.4,-0.2 l -0.2,-0.4 c -2.2,1 -4.5,2 -6.9,3.1 0.1,0.3 0.2,0.5 0.3,0.8 0.2,0.6 0.4,1.2 0.6,1.8 0.1,0.1 0.1,0.2 0,0.4 0,0.1 -0.1,0.1 -0.1,0.2 -0.3,0.4 -0.7,0.8 -1.1,1.2 0,0 -0.1,0.1 -0.1,0.1 -0.6,0.5 -1.2,1 -1.9,1.4 0,0 0,0 -0.1,0 -1.5,0.8 -3.3,1.3 -5,1.3 -0.4,0 -0.8,0 -1.2,-0.1 -0.1,0 -0.2,-0.1 -0.3,-0.1 -0.4,-0.5 -0.7,-1 -1,-1.5 -0.2,-0.3 -0.3,-0.6 -0.5,-1 -4.6,2.2 -9.4,4.4 -14.1,6.7 0.2,18 -1.1,35.3 -2.5,50.3 -3.3,18.9 -6.7,38.4 -9.7,58.1 1.2,1.2 2.3,2.5 3.4,3.8 2.2,2.8 4.3,5.4 7.7,6.8 0.1,0 0.1,0.1 0.2,0.1 0.6,0 1.1,0 1.6,0 1.6,0 3.3,-0.1 5,0.1 2.2,0.2 5.2,0.9 7.5,2.9 0.1,0.1 0.1,0.2 0.1,0.3 0,0.2 -0.1,0.4 -0.3,0.6 -1.8,1.5 -12.9,2.6 -23.6,2.6 -5.4,0 -10.7,-0.3 -14.6,-1 -0.2,0 -0.3,-0.2 -0.3,-0.3 -0.1,-0.1 -0.2,-0.2 -0.2,-0.4 0,-0.7 0.1,-1.4 0.1,-2.1 v 0 c -0.1,0 -0.3,0 -0.4,0 -1.9,0 -3.8,-0.4 -5.5,-1.3 -0.1,-0.1 -0.2,-0.1 -0.2,-0.3 -0.9,-3.9 0.3,-9.3 1.4,-13.5 0.2,-0.6 0.2,-1.3 0.1,-1.9 -0.4,-3.1 -3.4,-29.2 2.6,-56.9 0,0 0,0 0,-0.1 0.5,-2.3 1,-4.6 1.7,-6.9 0.3,-1 0.3,-2 0.1,-2.9 -0.3,-1.5 -0.6,-3.3 -1,-5.6 -0.7,-3.8 -1.6,-9.2 -3.2,-17 -3.4,1.8 -5.9,3.1 -7.3,3.8 0,0 -0.1,0.1 -0.1,0.1 -1.2,0.7 -2.5,1.6 -3.7,2.4 -1.6,1.1 -3.2,2.2 -4.6,3 -0.1,0 -0.1,0.1 -0.2,0.1 -0.1,0 -0.1,0 -0.2,-0.1 -0.1,-0.1 -0.2,-0.2 -0.2,-0.4 l 0.6,-3.8 c 0,-0.2 0.1,-0.3 0.3,-0.3 l 0.4,-0.1 c 2.2,-0.4 4.9,-0.9 7.1,-1.5 1.3,-0.7 4,-2.1 7.7,-4.1 -0.5,-2.2 -1,-4.7 -1.6,-7.3 l 0.7,-0.2 c 0.6,2.6 1.1,4.9 1.5,7.1 2.3,-1.2 5,-2.6 8,-4.2 -0.9,-5.6 -1.9,-11.2 -3,-16.5 -2.7,-1.9 -5.1,-4.4 -6.9,-7.3 -0.1,-0.2 -0.1,-0.4 0.1,-0.5 0.2,-0.1 0.4,-0.1 0.5,0.1 1.8,2.9 4.1,5.3 6.9,7.2 0.1,0.1 0.1,0.1 0.1,0.2 1,5.3 2,10.9 3,16.4 6,-3.1 13,-6.6 20.2,-10.2 -0.2,-16 -1.5,-32.5 -4.8,-48.6 -1.6,0.4 -3.2,0.7 -4.9,0.9 v -3.9 c 2.2,-0.2 3.7,-0.5 4.1,-0.6 0,-0.1 0,-0.2 -0.1,-0.3 -4.4,-13.7 -7.7,-27.7 -9.6,-41.9 0,-0.2 0.1,-0.4 0.3,-0.4 0.2,0 0.4,0.1 0.4,0.3 2,14.1 5.2,28.1 9.6,41.7 0,0 0,0 0,0 0,0 0,0 0,0.1 3.6,11 7.9,21.9 13.1,32.5 0.1,0.1 0.4,0 0.7,-0.2 l 4.2,-2.5 c -1.7,-13.3 -5.4,-26.1 -10.9,-38.3 0,0 0,-0.1 0,-0.1 -1.1,-15 -3.2,-29.6 -6.4,-43.5 -0.4,-1.6 -1.4,-2.9 -2.7,-3.7 -0.1,0 -0.1,0 -0.2,0 -0.8,-0.4 -1.9,-0.4 -2.8,0 -0.8,0.4 -1.6,1.2 -2.2,2.2 -0.5,1 -0.9,2 -1.2,3 -0.1,0.2 -0.2,0.3 -0.4,0.3 0,0 -0.1,0 -0.1,0 -0.2,-0.1 -0.3,-0.3 -0.2,-0.5 0.3,-1 0.7,-2.1 1.3,-3.1 0.7,-1.1 1.5,-2 2.5,-2.5 0.4,-0.2 0.8,-0.3 1.2,-0.4 -1,-0.4 -2.1,-0.9 -3.2,-1.2 l 0.2,-0.7 c 1.9,0.6 3.7,1.3 5.4,2.2 1.6,0.9 2.8,2.5 3.3,4.3 3.2,13.9 5.4,28.6 6.5,43.6 5.6,12.3 9.3,25.4 11,38.8 0,0.1 0,0.1 0,0.2 1.1,1.1 2.4,2.1 3.6,3 1.2,1 2.4,1.9 3.5,3 1.7,1.5 3,3.2 3.9,4.8 2.4,-1.1 4.7,-2.1 7,-3.1 -0.2,-1 0.8,-1.5 1.2,-1.7 l 0.1,-0.1 c 4.6,-2.6 9.5,-4.8 14.5,-6.6 0.1,0.2 0.7,0 1.2,0.2 z m -23.7,15.1 c -0.1,-0.6 -0.3,-1.1 -0.5,-1.7 -0.8,-2.1 -2.3,-4.1 -4.4,-6 -1.1,-1 -2.3,-2 -3.5,-2.9 -1.3,-1 -2.6,-2.1 -3.8,-3.2 l -3.6,2.1 c 0.4,1.8 0.7,3.6 1.6,5.4 1,2 2.4,3.5 4,4.2 0.2,0.1 0.4,0.2 0.6,0.3 0.5,0.2 1,0.4 1.5,0.7 0.3,0.2 0.6,0.6 0.8,1 v 0 0 c 0.2,0.5 0.2,1 0,1.5 -0.1,0.1 -0.2,0.2 -0.3,0.2 -0.1,0 -0.1,0 -0.2,0 -0.2,-0.1 -0.3,-0.3 -0.2,-0.5 0.1,-0.1 0.1,-0.3 0.1,-0.4 -0.6,0.3 -1.2,0.6 -1.8,0.9 0.1,0.3 0.3,0.6 0.4,0.9 0.3,0.5 0.5,0.9 0.9,1.3 1.1,0.1 2.1,0 3.2,-0.2 l -1.1,-4.2 c -0.1,-0.2 0.1,-0.4 0.3,-0.5 0.2,-0.1 0.4,0.1 0.5,0.3 l 1.1,4.2 c 0.5,-0.2 0.9,-0.4 1.4,-0.6 -0.4,-1.1 -1.4,-3.8 -1.4,-4 -0.1,-0.2 0,-0.4 0.2,-0.5 0.2,-0.1 0.4,0 0.5,0.2 0,0 0.9,2.7 1.4,3.8 0.4,-0.3 0.8,-0.6 1.2,-0.9 -0.4,-1 -1.3,-3.2 -1.6,-3.8 -0.1,-0.2 0,-0.4 0.2,-0.5 0.2,-0.1 0.4,0 0.5,0.2 0.2,0.6 1,2.5 1.4,3.5 0.2,-0.3 0.4,-0.6 0.6,-0.8 z m -10,0.6 c 0.6,-0.3 1.2,-0.6 1.8,-0.8 -0.1,-0.1 -0.2,-0.3 -0.3,-0.3 -0.4,-0.3 -0.8,-0.5 -1.3,-0.7 -0.2,-0.1 -0.4,-0.1 -0.5,-0.2 0,0.7 0.1,1.4 0.3,2 z m -0.7,0.4 c -0.3,-0.9 -0.5,-1.8 -0.5,-2.8 -1.5,-0.9 -2.8,-2.3 -3.7,-4.2 -0.9,-1.8 -1.3,-3.6 -1.6,-5.3 -0.2,0.1 -0.4,0.1 -0.6,0.1 -0.3,0 -0.5,-0.1 -0.7,-0.3 0,0 0,-0.1 -0.1,-0.1 -4.2,-8.7 -7.8,-17.5 -11,-26.4 2.9,15.1 4.1,30.7 4.3,45.7 4.7,-2.4 9.3,-4.6 13.9,-6.7 z m -16.5,51.6 c 1.2,-13.4 2.1,-28.3 1.9,-43.8 -7.2,3.5 -14.1,7.1 -20.1,10.1 0.1,0.7 0.2,1.3 0.3,2 1.7,9.8 3.4,20 5.5,28.6 0.3,1.3 0.3,2.7 -0.1,4 l -2,6.7 c 1.7,0.1 3.4,-1 4.1,-2.6 1,-2.3 1.9,-4.4 2.9,-6.3 0.4,-0.8 0.8,-1.6 1.5,-2.2 0.8,-0.7 1.8,-1 2.6,-0.9 1.2,0.2 2.1,1.2 2.8,3 0.3,0.6 0.4,1 0.6,1.4 z m -13.2,0.8 c 0.4,-1.2 0.4,-2.4 0.1,-3.6 -2.1,-8.6 -3.8,-18.8 -5.5,-28.7 -0.1,-0.6 -0.2,-1.1 -0.3,-1.7 -3,1.5 -5.7,2.9 -8,4.2 1.6,7.9 2.6,13.4 3.3,17.2 0.4,2.3 0.7,4.1 1,5.6 0.2,1.1 0.2,2.2 -0.1,3.3 -0.6,2.2 -1.1,4.4 -1.6,6.6 3.6,4.1 9.3,2.4 9.4,2.4 0,0 0,0 0.1,0 z"
   id="path7469"
   style="fill:#1e0f01" />

					<path
   class="st1"
   d="m 225.3,4796 -4.2,2.5 c -0.3,0.2 -0.6,0.3 -0.7,0.2 -5.1,-10.6 -9.5,-21.5 -13.1,-32.5 0,0 0,0 0,-0.1 0,0 0,0 0,0 -4.4,-13.7 -7.6,-27.6 -9.6,-41.7 0,-0.2 -0.2,-0.4 -0.4,-0.3 -0.2,0 -0.4,0.2 -0.3,0.4 2,14.2 5.2,28.2 9.6,41.9 0,0.1 0,0.2 0.1,0.3 -0.4,0.1 -1.8,0.3 -4.1,0.6 v 3.9 c 1.6,-0.2 3.3,-0.5 4.9,-0.9 3.3,16 4.7,32.6 4.8,48.6 -7.2,3.5 -14.2,7.1 -20.2,10.2 -0.9,-5.5 -1.9,-11.2 -3,-16.4 0,-0.1 -0.1,-0.2 -0.1,-0.2 -2.7,-1.9 -5,-4.3 -6.9,-7.2 -0.1,-0.2 -0.4,-0.2 -0.5,-0.1 -0.2,0.1 -0.2,0.4 -0.1,0.5 1.9,2.9 4.2,5.4 6.9,7.3 1,5.3 2,11 3,16.5 -3,1.5 -5.7,2.9 -8,4.2 -0.4,-2.2 -1,-4.6 -1.5,-7.1 -0.6,-2.6 -1.2,-5.3 -1.9,-8.3 -0.9,-3.4 -1.9,-6.3 -3.1,-9 -4.3,-9.4 -0.9,-19.8 2.3,-29.9 1,-3.1 1.9,-6 2.7,-8.8 0,0 0.1,0 0.1,0 0.1,0 0.6,0.1 1.5,0.2 l 0.4,-3.9 c -0.4,-0.1 -0.8,-0.1 -1.1,-0.2 0,0 -0.1,0 -0.1,0 0,0 0,-0.1 0,-0.1 -0.1,-0.3 -8.3,-26.7 -11,-40.4 0.9,-2 1.5,-4.2 1.7,-6.4 0.4,0.3 0.8,0.6 1.2,0.9 0.1,0.1 0.2,0.1 0.4,0.1 0.2,0 0.2,-0.1 0.2,-0.3 0.1,-0.4 0.2,-1.4 0.2,-3 0,-1.5 0.1,-5.4 0.7,-5.5 0,0 0.3,0 0.9,1 0.1,0.1 0.1,0.1 0.2,0.1 0.7,0.3 1.4,-0.4 1.7,-1.1 0.8,-2 1.1,-4 1,-6 5,0 9.5,0.1 13.9,0.7 2.2,0.3 4.2,0.8 6,1.4 1.1,0.4 2.2,0.8 3.2,1.2 -0.4,0.1 -0.8,0.2 -1.2,0.4 -1,0.5 -1.8,1.3 -2.5,2.5 -0.6,1 -1,2.2 -1.3,3.1 -0.1,0.2 0,0.4 0.2,0.5 0,0 0.1,0 0.1,0 0.2,0 0.3,-0.1 0.4,-0.3 0.3,-1 0.7,-2.1 1.2,-3 0.6,-1 1.3,-1.8 2.2,-2.2 1,-0.5 2,-0.5 2.8,0 0.1,0 0.1,0 0.2,0 1.4,0.8 2.4,2.1 2.7,3.7 3.2,13.9 5.4,28.6 6.4,43.5 0,0 0,0.1 0,0.1 5.7,12.3 9.4,25.2 11.1,38.4 z"
   id="path7471"
   style="fill:#ffffff" />

					<path
   class="st112"
   d="m 217.4,4675 c 0.1,0.2 0,0.4 -0.2,0.5 -3.3,1.5 -6.6,2.9 -9.9,4.3 -3.2,1.3 -6.4,2.6 -9.7,3.9 0.1,0.9 0.2,1.9 -0.2,2.9 -0.2,0.5 -0.6,1 -1.1,1.3 -0.9,0.5 -1.7,0.2 -2.3,-0.1 -0.2,-0.1 -0.4,-0.1 -0.5,-0.2 -0.3,-0.1 -0.5,-0.1 -0.8,-0.1 l -0.2,-1.8 c 0.6,-0.3 0.9,-0.4 1,-0.4 0.2,-0.1 0.2,-0.4 0.1,-0.5 -0.1,-0.2 -0.3,-0.2 -0.5,-0.1 -0.5,0.2 -7.6,3.3 -14.8,5.2 -0.3,0.1 -0.6,-0.4 -0.7,-0.7 -0.1,-0.4 -0.3,-0.9 -0.4,-1.3 l 0.5,-0.1 c 0,0.1 0.1,0.2 0.2,0.2 0.1,0 0.1,0.1 0.2,0.1 0.1,0 0.3,-0.1 0.3,-0.2 0.6,-1 0.8,-2 0.5,-2.8 -0.3,-1.1 -1.3,-1.6 -1.4,-1.6 -0.2,-0.1 -0.4,0 -0.5,0.2 0,0.1 0,0.1 0,0.2 l -0.8,-0.1 c -0.1,-0.5 -0.1,-1 -0.1,-1.5 -0.3,-9.3 7,-14.8 13.8,-15.9 6.6,-1.1 15.5,1.5 18.7,12.2 0,0 0,0.1 0,0.1 2.7,-1.2 5.4,-2.3 8.1,-3.5 0.3,-0.5 0.6,-0.4 0.7,-0.2 z"
   id="path7473"
   style="fill:#1e0f01" />

					<path
   class="st1"
   d="m 212.3,4819.6 c 0.1,15.5 -0.8,30.4 -1.9,43.8 -0.1,-0.4 -0.3,-0.9 -0.5,-1.3 -0.7,-1.8 -1.6,-2.8 -2.8,-3 -0.9,-0.1 -1.9,0.2 -2.6,0.9 -0.7,0.6 -1.1,1.4 -1.5,2.2 -1,1.9 -2,4 -2.9,6.3 -0.7,1.7 -2.3,2.7 -4.1,2.6 l 2,-6.7 c 0.4,-1.3 0.4,-2.7 0.1,-4 -2.1,-8.6 -3.8,-18.8 -5.5,-28.6 -0.1,-0.7 -0.2,-1.3 -0.3,-2 5.9,-3.1 12.8,-6.6 20,-10.2 z"
   id="path7475"
   style="fill:#ffffff" />

					<path
   class="st112"
   d="m 208.6,4685.3 c 1.2,0.2 1.7,1.1 1.7,1.8 0,0.8 -0.6,1.6 -1.8,1.8 v 0.2 c -0.3,2.7 -1,4.9 -2.2,6.7 -1.4,2.2 -3.5,3.7 -5.7,4.3 -0.5,0.1 -1.1,0.2 -1.6,0.2 -0.2,0 -0.3,0 -0.5,0 -0.5,0.9 -0.8,1.9 -1,2.9 0.6,0.3 1.3,0.5 1.9,0.8 0.2,0.1 0.3,0.3 0.2,0.4 l -0.6,2.6 c 0.3,0.1 0.6,0.2 0.9,0.3 l -0.2,0.7 c -1.9,-0.6 -3.9,-1.1 -6,-1.4 -4.5,-0.7 -9,-0.7 -13.9,-0.7 0,2 -0.3,4 -1,6 -0.3,0.8 -0.9,1.4 -1.7,1.1 -0.1,0 -0.1,-0.1 -0.2,-0.1 -0.7,-1 -0.9,-1 -0.9,-1 -0.6,0.2 -0.7,4.1 -0.7,5.5 0,1.5 0,2.5 -0.2,3 0,0.1 -0.1,0.2 -0.2,0.3 -0.1,0.1 -0.2,0 -0.4,-0.1 -0.4,-0.3 -0.8,-0.6 -1.2,-0.9 -0.2,2.2 -0.8,4.4 -1.7,6.4 2.7,13.7 11,40.1 11,40.4 0,0 0,0.1 0,0.1 0,0 0.1,0 0.1,0 0.4,0.1 0.8,0.1 1.1,0.2 l -0.4,3.9 c -0.8,-0.1 -1.3,-0.2 -1.5,-0.2 0,0 -0.1,0 -0.1,0 -0.7,2.8 -1.7,5.8 -2.7,8.8 -3.3,10.1 -6.6,20.5 -2.3,29.9 1.2,2.6 2.2,5.5 3.1,9 0.7,3 1.3,5.8 1.9,8.3 l -0.7,0.2 c -0.6,-2.6 -1.2,-5.3 -1.9,-8.3 -0.9,-3.3 -1.9,-6.2 -3,-8.8 -4.4,-9.7 -1,-20.2 2.3,-30.5 1.4,-4.3 2.7,-8.4 3.4,-12.4 -0.1,-0.3 -0.4,-1.3 -0.9,-2.8 -4.2,1.2 -8.6,1.9 -12.9,2.2 -0.1,0 -0.1,0 -0.2,0 -1.7,0 -3.1,-1.2 -3.2,-2.9 -1.4,-14.4 -0.7,-29.1 2.3,-43.7 -0.5,-2.5 -1.3,-4.9 -2.2,-7.2 -3.7,-6.8 -3.7,-20.7 1.5,-26.6 2.5,-2.9 6,-3.6 10.1,-2.2 l 0.8,0.1 c 0,0.1 0.1,0.3 0.2,0.4 0,0 0.7,0.4 1,1.1 0.2,0.6 0,1.4 -0.5,2.2 -0.1,0.1 -0.1,0.2 0,0.3 l -0.5,0.1 c 0,-0.1 -0.1,-0.2 -0.1,-0.3 0,0 0,0 0,0 -2.1,1.3 -1.2,4.3 -0.5,6 1.4,3.6 3,7.7 3.2,11.9 h 1.7 c -0.3,-1.4 -0.2,-3.5 0.4,-5.1 0.1,-0.1 0.2,-0.2 0.4,-0.2 0.8,0 1.5,0 2.3,0 v 0.8 c -0.6,0 -1.3,0 -1.9,0 -0.5,1.4 -0.6,3.3 -0.3,4.4 0,0 0,0.1 0,0.1 4.1,0 7.8,0.2 11.6,0.7 1.6,0.2 3.1,0.6 4.5,0.9 l 0.5,-2.3 c -2.8,-1.2 -5.8,-2.4 -8.9,-3.1 l 0.2,-0.7 c 2.3,0.5 4.6,1.3 6.7,2.2 0.2,-0.9 0.5,-1.8 0.9,-2.7 -1.5,-0.3 -2.9,-1 -3.8,-2.1 -0.1,-0.2 -0.1,-0.4 0.1,-0.5 0.2,-0.1 0.4,-0.1 0.5,0 1.3,1.6 3.7,2.3 6,1.8 2,-0.5 3.9,-1.9 5.2,-3.9 0.4,-0.6 0.7,-1.2 0.9,-1.9 -0.6,-0.1 -1.1,-0.4 -1.6,-0.8 -0.2,-0.1 -0.2,-0.4 0,-0.6 0.1,-0.2 0.4,-0.2 0.5,0 0.4,0.3 0.8,0.5 1.3,0.6 0.4,-1.1 0.7,-2.4 0.8,-3.7 v -0.5 c 0,-0.2 0.1,-0.4 0.4,-0.4 1,-0.1 1.4,-0.6 1.4,-1.1 0,-0.5 -0.4,-1 -1.3,-1.1 -0.2,0 -0.3,-0.2 -0.4,-0.4 0,0 -0.3,-3.6 -0.8,-5.3 -0.1,-0.2 0.1,-0.4 0.3,-0.5 0.2,-0.1 0.4,0.1 0.5,0.3 0.1,1.4 0.4,4.2 0.5,5.1 z m -27.8,77.7 c -0.6,-1.8 -1.3,-4.3 -2.1,-7.1 -1.6,0 -2.8,0.2 -4.4,0.6 0,0 -0.1,0 -0.1,0 -0.1,0 -0.2,0 -0.2,-0.1 -0.1,-0.1 -0.1,-0.2 -0.1,-0.3 v -0.8 c 0,-2.5 0.1,-4.9 0.3,-7.2 0.1,-2.5 0.3,-5.1 0.3,-7.7 -1.3,-4.7 -2.4,-9.4 -3.2,-13.2 -0.4,0.7 -0.8,1.1 -1.3,1.1 v 0 c -0.5,0 -1,-0.4 -1.5,-1.3 -0.3,-0.6 -0.5,-1.4 -0.6,-2.3 -0.1,-1.1 -0.2,-2.2 -0.4,-3.3 -2.6,13.8 -3.3,27.8 -1.9,41.5 0.1,1.3 1.3,2.3 2.6,2.2 4.1,-0.2 8.4,-1 12.6,-2.1 z m -2.4,-7.9 c -1.1,-3.7 -2.3,-7.8 -3.4,-12 -0.1,1.7 -0.1,3.4 -0.2,5 -0.1,2.4 -0.3,4.8 -0.3,7.2 v 0.3 c 1.4,-0.3 2.5,-0.5 3.9,-0.5 z"
   id="path7477"
   style="fill:#1e0f01" />

					<path
   class="st1"
   d="m 208.2,4686 c 0.9,0.1 1.3,0.6 1.3,1.1 0,0.5 -0.4,1 -1.4,1.1 -0.2,0 -0.4,0.2 -0.4,0.4 v 0.5 c -0.1,1.3 -0.4,2.6 -0.8,3.7 -0.5,-0.1 -1,-0.3 -1.3,-0.6 -0.2,-0.1 -0.4,-0.1 -0.5,0 -0.1,0.2 -0.1,0.4 0,0.6 0.4,0.4 1,0.7 1.6,0.8 -0.3,0.7 -0.6,1.3 -0.9,1.9 -1.3,2 -3.2,3.4 -5.2,3.9 -2.2,0.5 -4.6,-0.2 -6,-1.8 -0.1,-0.2 -0.4,-0.2 -0.5,0 -0.2,0.1 -0.2,0.4 -0.1,0.5 0.9,1.1 2.3,1.8 3.8,2.1 -0.4,0.8 -0.7,1.8 -0.9,2.7 -2.1,-0.8 -4.4,-1.6 -6.7,-2.2 -1.3,-0.3 -2.7,-0.6 -4,-0.7 0,-0.3 0,-0.5 0,-0.9 0,-0.5 0,-1.2 0,-1.4 0,0 0,0 0,0 0.3,0 0.5,0.1 0.8,0.1 0.5,0 0.9,-0.1 1.4,-0.2 1.3,-0.4 2.3,-1.4 2.7,-2.7 0.1,-0.2 0.1,-0.4 0.1,-0.6 0.1,-0.9 0,-1.7 -0.2,-2.5 -0.1,-0.4 -0.1,-0.8 -0.2,-1.2 0,-0.5 0,-1 0.1,-1.4 0.3,1.7 1.6,3.3 3.3,3.8 0,0 0.1,0 0.1,0 0.2,0 0.3,-0.1 0.4,-0.3 0.1,-0.2 -0.1,-0.4 -0.3,-0.5 -0.2,-0.1 -0.4,-0.1 -0.7,-0.3 -0.8,-0.4 -1.5,-1.2 -1.9,-2.1 -0.3,-0.7 -0.6,-2 0.4,-2.3 0.1,0 0.3,-0.1 0.5,-0.1 0.3,0 0.5,0 0.8,0.1 0.2,0.1 0.4,0.1 0.5,0.2 0.6,0.3 1.4,0.6 2.3,0.1 0.5,-0.3 0.9,-0.7 1.1,-1.3 0.4,-0.9 0.3,-1.9 0.2,-2.9 3.2,-1.3 6.5,-2.6 9.7,-3.9 v 0.1 c -0.2,0.1 -0.3,0.3 -0.3,0.5 0.5,1.7 0.8,5.3 0.8,5.3 0,0.2 0.2,0.4 0.4,0.4 z"
   id="path7479"
   style="fill:#ffffff" />

					<path
   class="st113"
   d="m 198.9,4704.6 -0.5,2.3 c -1.4,-0.4 -2.9,-0.7 -4.5,-0.9 -3.8,-0.6 -7.6,-0.7 -11.6,-0.7 0,0 0,-0.1 0,-0.1 -0.3,-1.1 -0.2,-3 0.3,-4.4 0.7,0 1.3,0 1.9,0 0.4,0 0.8,0 1.2,0.1 0,0 0,0 0,0 v 0 c 1.4,0.1 2.9,0.4 4.3,0.7 3.1,0.6 6.1,1.8 8.9,3 z"
   id="path7481"
   style="fill:#e48023" />

					<path
   class="st1"
   d="m 197.3,4860.5 c 0.3,1.2 0.2,2.5 -0.1,3.6 l -1.6,5.3 c 0,0 0,0 -0.1,0 -0.1,0 -5.8,1.7 -9.4,-2.4 0.5,-2.2 1,-4.4 1.6,-6.6 0.3,-1.1 0.3,-2.2 0.1,-3.3 -0.3,-1.5 -0.6,-3.3 -1,-5.6 -0.7,-3.8 -1.7,-9.3 -3.3,-17.2 2.3,-1.2 5,-2.6 8,-4.2 0.1,0.6 0.2,1.2 0.3,1.7 1.7,9.9 3.4,20.1 5.5,28.7 z"
   id="path7483"
   style="fill:#ffffff" />

					<path
   class="st112"
   d="m 194.4,4692 c 0.2,0.1 0.3,0.3 0.3,0.5 0,0.2 -0.2,0.3 -0.4,0.3 0,0 -0.1,0 -0.1,0 -1.7,-0.5 -3,-2 -3.3,-3.8 -0.1,0.5 -0.1,1 -0.1,1.4 0,0.4 0.1,0.8 0.2,1.2 0.1,0.8 0.3,1.6 0.2,2.5 0,0.2 -0.1,0.4 -0.1,0.6 -0.4,1.3 -1.3,2.3 -2.7,2.7 -0.4,0.1 -0.9,0.2 -1.4,0.2 -0.3,0 -0.5,0 -0.8,-0.1 0,0 0,0 0,0 0,0.3 0,0.9 0,1.4 0,0.3 0,0.6 0,0.9 1.4,0.1 2.7,0.4 4,0.7 l -0.2,0.7 c -1.4,-0.3 -2.8,-0.6 -4.3,-0.7 v 0 c 0,0 0,0 0,0 -0.4,0 -0.8,-0.1 -1.2,-0.1 v -0.8 c 0.3,0 0.5,0 0.8,0 0,-0.2 0,-0.5 0,-0.8 0,-0.9 0,-1.4 0.1,-1.7 -0.4,-0.1 -0.7,-0.3 -1.1,-0.6 -2.2,-1.7 -3.9,-4.2 -4.8,-6.7 0,-0.1 0,-0.1 0.1,-0.1 5.5,-1.6 10.7,-3.6 12.8,-4.5 l 0.2,1.8 c -0.1,0 -0.3,0 -0.5,0.1 -1,0.3 -0.6,1.6 -0.4,2.3 0.4,0.9 1,1.6 1.9,2.1 0.4,0.4 0.6,0.5 0.8,0.5 z"
   id="path7485"
   style="fill:#1e0f01" />

					<path
   class="st1"
   d="m 179,4684.8 c 0.2,0.8 0.1,1.8 -0.5,2.8 -0.1,0.1 -0.2,0.2 -0.3,0.2 -0.1,0 -0.1,0 -0.2,-0.1 -0.1,-0.1 -0.2,-0.1 -0.2,-0.2 0,-0.1 0,-0.2 0,-0.3 0.5,-0.8 0.7,-1.6 0.5,-2.2 -0.2,-0.8 -0.9,-1.1 -1,-1.1 -0.1,-0.1 -0.2,-0.2 -0.2,-0.4 0,-0.1 0,-0.1 0,-0.2 0.1,-0.2 0.3,-0.3 0.5,-0.2 0,0.1 1,0.5 1.4,1.7 z"
   id="path7487"
   style="fill:#ffffff" />

					<path
   class="st1"
   d="m 178.7,4755.9 c 0.8,2.8 1.6,5.3 2.1,7.1 -4.2,1.2 -8.5,1.9 -12.8,2.2 -1.3,0.1 -2.5,-0.9 -2.6,-2.2 -1.3,-13.7 -0.7,-27.7 1.9,-41.5 0.2,1.1 0.3,2.2 0.4,3.3 0.1,0.9 0.3,1.6 0.6,2.3 0.4,0.9 0.9,1.3 1.5,1.3 v 0 c 0.5,0 0.9,-0.4 1.3,-1.1 0.8,3.8 2,8.4 3.2,13.2 0,2.6 -0.1,5.2 -0.3,7.7 -0.1,2.4 -0.3,4.8 -0.3,7.2 v 0.8 c 0,0.1 0.1,0.2 0.1,0.3 0.1,0 0.1,0.1 0.2,0.1 0,0 0.1,0 0.1,0 1.8,-0.5 2.9,-0.7 4.6,-0.7 z"
   id="path7489"
   style="fill:#ffffff" />

				</g>

			</g>
    </g>
  </g>
</svg>
