<?xml version="1.0" encoding="UTF-8" standalone="no"?>
<!-- Created with Inkscape (http://www.inkscape.org/) -->

<svg
   width="64"
   height="64"
   viewBox="0 0 16.933333 16.933334"
   version="1.1"
   id="svg70627"
   xmlns="http://www.w3.org/2000/svg"
   xmlns:svg="http://www.w3.org/2000/svg">
  <defs
     id="defs70624" />
  <g
     id="layer1">
    <g
       id="YT_00000029745241300097780270000008151686987954399411_"
       transform="matrix(0.26458333,0,0,0.26458333,-293.53889,-1688.2133)">
				<circle
   cx="1141.6"
   cy="6412.6001"
   r="30.5"
   id="circle65440" />

				<path
   class="st1"
   d="m 1161.1,6402.8 c -0.5,-1.7 -1.8,-3.1 -3.6,-3.6 -3.2,-0.8 -15.9,-0.8 -15.9,-0.8 0,0 -12.7,0 -15.9,0.8 -1.7,0.5 -3.1,1.8 -3.6,3.6 -0.8,3.2 -0.8,9.8 -0.8,9.8 0,0 0,6.6 0.8,9.8 0.5,1.7 1.8,3.1 3.6,3.6 3.2,0.8 15.9,0.8 15.9,0.8 0,0 12.7,0 15.9,-0.8 1.7,-0.5 3.1,-1.8 3.6,-3.6 0.8,-3.2 0.8,-9.8 0.8,-9.8 0,0 0,-6.6 -0.8,-9.8 z m -23.6,15.9 v -12.2 l 10.6,6.1 z"
   id="path65442"
   style="fill:#ffffff" />

			</g>
  </g>
</svg>
